<?xml version="1.0" encoding="UTF-8"?>
<svg version="1.1" xmlns="http://www.w3.org/2000/svg" width="626" height="626">
<path d="M0 0 C206.58 0 413.16 0 626 0 C626 206.58 626 413.16 626 626 C419.42 626 212.84 626 0 626 C0 419.42 0 212.84 0 0 Z " fill="#FEFEFE" transform="translate(0,0)"/>
<path d="M0 0 C8.26624502 -0.46608204 16.52691442 -0.81994558 24.80309677 -1.03624344 C28.64806272 -1.14014736 32.48398041 -1.28052017 36.32373047 -1.50878906 C61.00890543 -2.93783682 61.00890543 -2.93783682 67.49319458 1.8352356 C71.56943089 6.4918111 73.89392513 11.79009215 76.03900146 17.54486084 C77.33111837 20.84593436 79.03044902 23.51711915 80.99609375 26.46484375 C81.56714844 27.37492187 82.13820313 28.285 82.7265625 29.22265625 C83.57347656 30.56650391 83.57347656 30.56650391 84.4375 31.9375 C85.71783436 33.97762211 86.99777509 36.01799131 88.27734375 38.05859375 C88.90237793 39.05487793 89.52741211 40.05116211 90.17138672 41.07763672 C92.96446678 45.54134411 95.73307277 50.02005064 98.5 54.5 C103.0792303 61.91158465 107.68818082 69.30397167 112.3125 76.6875 C118.26092252 86.18776985 124.14682236 95.72514556 130.01220703 105.27685547 C135.154478 113.64383444 140.34641902 121.97870754 145.55981445 130.30151367 C150.15875909 137.64535267 154.73767087 145.00130087 159.2668457 152.38842773 C161.94260372 156.73950827 164.67219385 161.03880792 167.51171875 165.28515625 C168.07608643 166.14069092 168.6404541 166.99622559 169.22192383 167.87768555 C170.29279741 169.49546222 171.37902419 171.10322199 172.4831543 172.69848633 C173.19918823 173.78746216 173.19918823 173.78746216 173.9296875 174.8984375 C174.56753174 175.83695557 174.56753174 175.83695557 175.21826172 176.79443359 C177.45670464 183.1098906 173.54727968 191.13677848 171.62109375 197.18359375 C171.28956802 198.23909927 170.9580423 199.2946048 170.61647034 200.38209534 C169.5619043 203.73552559 168.4998186 207.08651856 167.4375 210.4375 C166.71890258 212.71794195 166.00079816 214.9985393 165.28320312 217.27929688 C163.52784089 222.85467709 161.76630739 228.42807822 160 234 C157.40087119 230.83543065 155.05131751 227.65333941 152.890625 224.17578125 C152.30901611 223.2427417 151.72740723 222.30970215 151.12817383 221.34838867 C150.50837646 220.34654541 149.8885791 219.34470215 149.25 218.3125 C148.59604248 217.26102783 147.94208496 216.20955566 147.26831055 215.1262207 C141.73903467 206.22455328 136.25502388 197.29499073 130.77246094 188.36450195 C126.43215332 181.30224374 122.03699286 174.27827925 117.59057617 167.2824707 C114.66332812 162.66537741 111.77487567 158.02571247 108.9140625 153.3671875 C108.55938904 152.78966736 108.20471558 152.21214722 107.83929443 151.61712646 C106.09158567 148.76941545 104.34701516 145.91984687 102.60546875 143.06835938 C98.86215117 136.95628248 95.03447029 130.92439046 91 125 C80.56326732 128.87077507 74.6463249 141.30654085 70 151 C65.34234817 161.88545477 63.80098059 171.26171986 63.75 183 C63.729375 184.15628906 63.70875 185.31257812 63.6875 186.50390625 C63.63700262 197.80269544 65.42404548 208.2430563 70.8125 218.25 C71.16505859 218.92619385 71.51761719 219.6023877 71.88085938 220.29907227 C74.59855944 225.43298526 77.4631822 230.38048288 81 235 C81.5465625 235.721875 82.093125 236.44375 82.65625 237.1875 C94.17223509 251.24090554 112.96986126 261.82144469 131 264 C150.4756831 265.11793072 150.4756831 265.11793072 169 260 C170.06863281 259.525625 171.13726562 259.05125 172.23828125 258.5625 C188.41490079 250.65477529 199.3391711 237.77661853 206.0625 221.25 C210.86712234 205.3346885 210.08495378 186.00455555 202.5625 171.1640625 C200.8148783 168.03010628 198.94080716 165.01822721 197 162 C196.6198877 161.40832031 196.23977539 160.81664062 195.84814453 160.20703125 C194.10865259 157.50409623 192.36237795 154.80572662 190.60668945 152.11328125 C181.12275121 137.55631727 172.05384433 122.7279171 162.92333984 107.94775391 C159.37183955 102.20252003 155.79588485 96.47307188 152.20800781 90.75048828 C149.69072749 86.73225602 147.18244524 82.7084551 144.67578125 78.68359375 C143.1772763 76.28389001 141.66780945 73.89148742 140.15625 71.5 C132.02466928 58.51485724 128.44164386 46.05462723 131.69140625 30.7421875 C135.86288612 18.21029401 145.37892656 8.9638606 156.9609375 2.98828125 C163.32112136 0.14147406 169.08305839 -0.14304105 175.92114258 -0.11352539 C176.80944763 -0.11367142 177.69775269 -0.11381744 178.61297607 -0.1139679 C181.54018624 -0.11327293 184.46733225 -0.1055 187.39453125 -0.09765625 C189.42762721 -0.09579059 191.46072362 -0.09436739 193.49382019 -0.09336853 C198.83838141 -0.08955499 204.18291536 -0.07973462 209.52746582 -0.06866455 C214.98380158 -0.05842543 220.44014177 -0.05386555 225.89648438 -0.04882812 C236.59766822 -0.03811132 247.29883184 -0.02104885 258 0 C258 3.63 258 7.26 258 11 C248.1 11 238.2 11 228 11 C227.34 14.63 226.68 18.26 226 22 C225.50099872 23.8079672 224.95991384 25.60627131 224.3359375 27.375 C224.02205078 28.28507812 223.70816406 29.19515625 223.38476562 30.1328125 C223.05154297 31.07898438 222.71832031 32.02515625 222.375 33 C217.83801123 46.21387419 213.88536852 59.58236082 210 73 C209.34 73 208.68 73 208 73 C205.79508748 70.21670107 204.06840915 67.10754176 202.25 64.0625 C201.71761719 63.23169922 201.18523437 62.40089844 200.63671875 61.54492188 C198.2272706 57.5029625 196.43579264 54.43542672 197.42578125 49.6875 C197.92053501 48.11524792 198.4487575 46.55334786 199 45 C199.61681513 42.90598562 200.22981898 40.81084635 200.83984375 38.71484375 C201.53540445 36.45460021 202.23469539 34.1955016 202.9375 31.9375 C203.28490234 30.80505859 203.63230469 29.67261719 203.99023438 28.50585938 C205.81908241 22.59223965 207.74852863 16.76630756 210 11 C205.58829893 11.01954454 201.17847982 11.07163194 196.76757812 11.15258789 C195.27029124 11.17564043 193.77284514 11.19013346 192.27539062 11.19555664 C180.16316548 11.04821031 180.16316548 11.04821031 170 17 C166.9851261 21.33388123 166.3699271 24.779396 167 30 C169.59669127 36.43527837 173.5555068 42.06631997 177.33203125 47.86328125 C180.33417219 52.49003059 183.23025196 57.18056528 186.125 61.875 C190.91691444 69.63795805 195.72751749 77.38878101 200.5625 85.125 C201.50984009 86.6411792 201.50984009 86.6411792 202.47631836 88.18798828 C205.86886115 93.61167645 209.27897326 99.02356913 212.71020508 104.42285156 C242.3231377 151.07141771 242.3231377 151.07141771 243 172 C243.03109863 172.67885254 243.06219727 173.35770508 243.09423828 174.05712891 C244.37142502 204.36945546 235.1466394 229.67710311 214.8828125 252.37109375 C202.18487503 265.78997638 185.76891229 274.54722032 168 279 C166.19402344 279.52787109 166.19402344 279.52787109 164.3515625 280.06640625 C159.8545898 281.31905949 155.65320001 281.74692114 151 282 C150.35015137 282.03931641 149.70030273 282.07863281 149.03076172 282.11914062 C122.94017719 283.51126768 100.3492494 274.93584076 80 259 C78.88238281 258.15888672 78.88238281 258.15888672 77.7421875 257.30078125 C68.29752457 249.71063715 60.64301061 238.61622768 55 228 C54.53811279 227.14305542 54.53811279 227.14305542 54.06689453 226.26879883 C46.76129929 212.28295615 44.41773338 197.56277587 44.4375 181.9375 C44.43411621 180.01345337 44.43411621 180.01345337 44.43066406 178.05053711 C44.87001357 152.7141691 56.12242358 128.77728146 74 111 C75.63746966 109.63096799 77.29399568 108.28261639 79 107 C77.59022093 103.16966507 75.80595983 99.8526901 73.65625 96.38671875 C72.99125488 95.310271 72.32625977 94.23382324 71.64111328 93.12475586 C70.92761866 91.97887324 70.21391042 90.83312361 69.5 89.6875 C68.77432005 88.51781877 68.04889803 87.34797748 67.32373047 86.17797852 C65.88554497 83.85888779 64.44501619 81.54127603 63.00292969 79.22460938 C61.25516292 76.41079861 59.51867146 73.59061574 57.7890625 70.765625 C56.90118696 69.32282725 56.01317907 67.88011092 55.125 66.4375 C54.72732422 65.78418701 54.32964844 65.13087402 53.91992188 64.45776367 C52.00196458 61.17780111 52.00196458 61.17780111 49 59 C48.76216797 60.0209375 48.76216797 60.0209375 48.51953125 61.0625 C46.62180481 68.94697672 44.28600226 76.65341549 41.82910156 84.37695312 C40.11289497 89.80655374 38.43520871 95.2482169 36.75 100.6875 C35.96886378 103.20706653 35.18761184 105.72659718 34.40625 108.24609375 C34.20889252 108.88254318 34.01153503 109.51899261 33.80819702 110.17472839 C32.60567858 114.05146006 31.40027809 117.92728175 30.19232178 121.80232239 C29.59557515 123.71680081 28.99937356 125.63144818 28.40332031 127.54614258 C27.66413836 129.9200057 26.92399193 132.29356884 26.18261719 134.66674805 C24.52370712 139.99834819 22.89482796 145.33567788 21.33657837 150.69766235 C17.38015519 164.30656368 13.05960941 177.80208188 8.78759766 191.31445312 C7.72901263 194.66480536 6.67300175 198.01596125 5.6171875 201.3671875 C5.13897049 202.87537552 5.13897049 202.87537552 4.65109253 204.41403198 C4.34712555 205.37938873 4.04315857 206.34474548 3.72998047 207.33935547 C3.33623734 208.58481644 3.33623734 208.58481644 2.93453979 209.85543823 C1.54038599 214.54652017 0.28766106 219.27857611 -1 224 C7.25 224 15.5 224 24 224 C24 227.63 24 231.26 24 235 C0.24 235 -23.52 235 -48 235 C-48 231.37 -48 227.74 -48 224 C-38.76 224 -29.52 224 -20 224 C-19.505 221.03 -19.505 221.03 -19 218 C-18.49186361 216.20512315 -17.94512189 214.42079383 -17.36328125 212.6484375 C-17.03626221 211.64216309 -16.70924316 210.63588867 -16.37231445 209.59912109 C-15.8477063 208.00318115 -15.8477063 208.00318115 -15.3125 206.375 C-12.72206158 198.3998641 -10.18754541 190.41701423 -7.8125 182.375 C-6.12521147 176.66729852 -4.35905043 171.00836523 -2.4375 165.375 C-0.59865472 159.95833753 1.00336044 154.51776649 2.5 149 C4.34391399 142.20765223 6.42478832 135.54069259 8.69140625 128.875 C12.61488663 117.32731513 16.12390509 105.65513494 19.5 93.9375 C22.01505278 85.21127011 24.7343854 76.58578131 27.65625 67.98828125 C29.24070113 63.32108799 30.70201685 58.61963707 32.1171875 53.8984375 C32.6959597 51.9982208 33.30445956 50.10675087 33.9453125 48.2265625 C34.23148437 47.36804688 34.51765625 46.50953125 34.8125 45.625 C35.06644531 44.89539063 35.32039063 44.16578125 35.58203125 43.4140625 C36.40056587 38.6864513 35.59407261 35.05156156 33.25 30.90234375 C23.89176461 18.57091899 14.65560703 14.46405257 0 11 C0 7.37 0 3.74 0 0 Z " fill="#221F20" transform="translate(208,172)"/>
<path d="M0 0 C0.88830505 -0.00014603 1.77661011 -0.00029205 2.6918335 -0.0004425 C5.61904366 0.00025246 8.54618967 0.00802539 11.47338867 0.01586914 C13.50648463 0.0177348 15.53958104 0.019158 17.57267761 0.02015686 C22.91723884 0.0239704 28.26177278 0.03379077 33.60632324 0.04486084 C39.06265901 0.05509996 44.51899919 0.05965984 49.9753418 0.06469727 C60.67652564 0.07541407 71.37768926 0.09247654 82.07885742 0.11352539 C82.07885742 3.41352539 82.07885742 6.71352539 82.07885742 10.11352539 C72.17885742 10.11352539 62.27885742 10.11352539 52.07885742 10.11352539 C52.07885742 9.78352539 52.07885742 9.45352539 52.07885742 9.11352539 C61.64885742 9.11352539 71.21885742 9.11352539 81.07885742 9.11352539 C81.07885742 7.13352539 81.07885742 5.15352539 81.07885742 3.11352539 C79.33785263 3.12018723 79.33785263 3.12018723 77.56167603 3.12698364 C66.64293125 3.16746288 55.72420162 3.19747758 44.80539894 3.21714973 C39.19144192 3.22760323 33.5775453 3.24179093 27.96362305 3.2644043 C22.54958881 3.28607693 17.1356128 3.29808221 11.72153854 3.30327988 C9.65219582 3.30698569 7.58285641 3.31422183 5.51353836 3.3249855 C2.62329377 3.3394263 -0.26670778 3.34150645 -3.15698242 3.34057617 C-4.01941055 3.34776672 -4.88183868 3.35495728 -5.770401 3.36236572 C-11.69303826 3.34162971 -11.69303826 3.34162971 -13.92114258 1.11352539 C-9.26386401 -0.0682912 -4.76885065 -0.0205841 0 0 Z " fill="#333333" transform="translate(383.921142578125,171.886474609375)"/>
<path d="M0 0 C0.33 0 0.66 0 1 0 C0.5547115 5.27315333 -0.08373163 10.01770224 -2 15 C-3.59784767 12.52535506 -4.06910487 11.41272724 -3.57421875 8.45703125 C-3.28160156 7.58433594 -2.98898438 6.71164062 -2.6875 5.8125 C-2.40261719 4.93207031 -2.11773437 4.05164063 -1.82421875 3.14453125 C-1 1 -1 1 0 0 Z " fill="#2C2C2C" transform="translate(193,379)"/>
<path d="M0 0 C3.75376152 1.25125384 4.24073289 2.5652404 6 6 C6 6.66 6 7.32 6 8 C5.01 7.67 4.02 7.34 3 7 C3 6.34 3 5.68 3 5 C2.34 5 1.68 5 1 5 C0.67 3.35 0.34 1.7 0 0 Z " fill="#292526" transform="translate(314,242)"/>
<path d="M0 0 C0.66 0 1.32 0 2 0 C1.25 5.75 1.25 5.75 -1 8 C-1.93065133 5.39417629 -2.14917407 4.35801776 -1.0625 1.75 C-0.711875 1.1725 -0.36125 0.595 0 0 Z " fill="#2D2D2D" transform="translate(260,316)"/>
<path d="M0 0 C0.99 0.33 1.98 0.66 3 1 C2.34 1 1.68 1 1 1 C0.566875 1.928125 0.566875 1.928125 0.125 2.875 C-1 5 -1 5 -3 7 C-3.99 6.67 -4.98 6.34 -6 6 C-4.02 4.02 -2.04 2.04 0 0 Z " fill="#353233" transform="translate(284,281)"/>
<path d="M0 0 C3.875 4.75 3.875 4.75 5 7 C4.34 7.66 3.68 8.32 3 9 C-0.22265625 3.7265625 -0.22265625 3.7265625 -1 2 C-0.67 1.34 -0.34 0.68 0 0 Z " fill="#2C2829" transform="translate(422,280)"/>
<path d="M0 0 C0.66 0 1.32 0 2 0 C1.44271087 3.34373475 0.64826111 6.03312999 -1 9 C-1.80967438 6.08517222 -2.21845993 4.53886783 -1.0625 1.6875 C-0.711875 1.130625 -0.36125 0.57375 0 0 Z " fill="#2E2C2D" transform="translate(411,206)"/>
<path d="M0 0 C0.33 0 0.66 0 1 0 C0.67 2.97 0.34 5.94 0 9 C-0.66 9 -1.32 9 -2 9 C-2.25 3.375 -2.25 3.375 0 0 Z " fill="#171415" transform="translate(448,371)"/>
<path d="M0 0 C0 0.66 0 1.32 0 2 C-2.64 2.33 -5.28 2.66 -8 3 C-5.53387212 -0.1151089 -3.89156016 -0.31553191 0 0 Z " fill="#191819" transform="translate(379,448)"/>
<path d="M0 0 C0.66 0 1.32 0 2 0 C1.25 5.75 1.25 5.75 -1 8 C-1.93065133 5.39417629 -2.14917407 4.35801776 -1.0625 1.75 C-0.711875 1.1725 -0.36125 0.595 0 0 Z " fill="#2C2C2C" transform="translate(203,347)"/>
<path d="M0 0 C1.95418308 2.93127462 2.64700993 4.55834679 3 8 C2.34 8.66 1.68 9.32 1 10 C-0.60725635 6.78548731 -0.05748185 3.56387464 0 0 Z " fill="#2F2C2C" transform="translate(444,318)"/>
</svg>
