<?xml version="1.0" encoding="UTF-8"?>
<svg version="1.1" xmlns="http://www.w3.org/2000/svg" width="612" height="367">
<path d="M0 0 C1.25248502 2.50497004 1.11374406 4.20853274 1.09765625 7.0078125 C1.09282227 8.48701172 1.09282227 8.48701172 1.08789062 9.99609375 C1.07532227 11.54490234 1.07532227 11.54490234 1.0625 13.125 C1.05798828 14.16527344 1.05347656 15.20554688 1.04882812 16.27734375 C1.03701952 18.85161962 1.02055075 21.42578146 1 24 C-0.93896484 23.61816406 -0.93896484 23.61816406 -3 23 C-3.9765625 21.109375 -3.9765625 21.109375 -4.625 18.75 C-4.87378906 17.93789062 -5.12257813 17.12578125 -5.37890625 16.2890625 C-5.84135323 14.58469814 -6.22340973 12.85812806 -6.5625 11.125 C-8.7442097 7.89986392 -11.52136796 7.43640063 -15.203125 6.5 C-21.59287292 5.3576987 -28.06201786 5.09698651 -34 8 C-38.44212842 11.10855075 -41.38871552 13.69360641 -43 19 C-43.31410078 21.95427474 -43.31410078 21.95427474 -43.25 25 C-43.25515625 26.010625 -43.2603125 27.02125 -43.265625 28.0625 C-42.71704169 34.12918603 -40.27031489 36.84206182 -36 41 C-36 41.66 -36 42.32 -36 43 C-35.34 43 -34.68 43 -34 43 C-34 43.66 -34 44.32 -34 45 C-33.34 45 -32.68 45 -32 45 C-30.53587341 46.48660278 -30.53587341 46.48660278 -28.84155273 48.53173828 C-25.26436831 52.73627099 -21.47153718 56.62592651 -17.53515625 60.4921875 C-16.14505621 61.86966444 -14.75508582 63.24727223 -13.36523438 64.625 C-11.19870881 66.76653766 -9.03059371 68.90642173 -6.86010742 71.04394531 C-4.74748221 73.1265556 -2.64096647 75.21518989 -0.53515625 77.3046875 C0.12097153 77.94735565 0.7770993 78.5900238 1.45310974 79.25216675 C2.05115921 79.84683746 2.64920868 80.44150818 3.26538086 81.05419922 C3.7949791 81.57634003 4.32457733 82.09848083 4.870224 82.63644409 C6 84 6 84 6 86 C6.66 86 7.32 86 8 86 C9.875 88.01171875 9.875 88.01171875 12 90.6875 C12.70125 91.55761719 13.4025 92.42773438 14.125 93.32421875 C17.72709619 98.46471018 19.20262172 103.75556712 19 110 C16.64184894 122.41959556 10.86376776 132.75627879 0.6953125 140.34375 C-11.88273261 148.07286757 -28.85061005 149.30456114 -43.0625 145.9375 C-52.66394187 142.69682496 -61.01419592 136.92838286 -66 128 C-70.94713539 116.53030217 -71.68078747 105.7175425 -67.34375 93.9765625 C-65.09888918 89.00393475 -62.43680947 84.25016113 -59 80 C-57.515 79.505 -57.515 79.505 -56 79 C-55 82 -55 82 -56.3984375 85.21484375 C-57.04741062 86.46092534 -57.70670879 87.70167141 -58.375 88.9375 C-63.27869874 98.16066775 -64.6339055 106.75398429 -62.28125 117.1875 C-60.42348577 122.70086481 -58.38981919 126.21987792 -54 130 C-54 130.66 -54 131.32 -54 132 C-53.0409375 132.37125 -53.0409375 132.37125 -52.0625 132.75 C-49 134 -49 134 -47.296875 135.0234375 C-38.77039989 139.75663825 -28.01134637 139.19239148 -18.671875 137.33984375 C-10.36600511 134.66015668 -4.31486537 129.88245066 -0.0625 122.25 C2.24992762 117.08243214 3.72048445 111.67482693 3 106 C0.43588061 100.92945765 -2.51403374 97.07677401 -6.61328125 93.12890625 C-7.14592087 92.60288315 -7.67856049 92.07686005 -8.2273407 91.53489685 C-9.91534452 89.8700707 -11.61321335 88.21580111 -13.3125 86.5625 C-15.54160265 84.38019088 -17.76628143 82.19344586 -19.98828125 80.00390625 C-20.52179703 79.47911682 -21.05531281 78.95432739 -21.60499573 78.41363525 C-25.08558635 74.96829638 -28.37160523 71.41186382 -31.54418945 67.6784668 C-34.49847699 64.27234122 -37.81267635 61.22654408 -41.05859375 58.1015625 C-43 56 -43 56 -43 54 C-43.66 54 -44.32 54 -45 54 C-45 53.34 -45 52.68 -45 52 C-45.8353125 51.7215625 -45.8353125 51.7215625 -46.6875 51.4375 C-51.14165731 48.66869951 -53.45908939 44.46045865 -55.25 39.625 C-55.4975 38.42875 -55.745 37.2325 -56 36 C-56.15726562 35.33355469 -56.31453125 34.66710937 -56.4765625 33.98046875 C-57.8868827 26.30666764 -55.46876281 19.34764424 -51.67578125 12.66796875 C-46.98044249 5.94012718 -40.6003955 0.76655976 -32.66015625 -1.53515625 C-22.25740584 -3.35296432 -10.30471649 -2.2868001 0 0 Z " fill="#856337" transform="translate(328,117)"/>
<path d="M0 0 C7.73074779 6.22449201 14.71827028 13.07689925 21.69628906 20.12280273 C23.67131257 22.11634903 25.65448976 24.10151062 27.63891602 26.08569336 C28.90436703 27.35605166 30.16935848 28.62686795 31.43383789 29.89819336 C32.31810204 30.78412674 32.31810204 30.78412674 33.2202301 31.68795776 C37.52107682 36.03915581 39.82920485 38.44970971 39.81079102 44.71655273 C39.79854492 45.39782227 39.78629883 46.0790918 39.77368164 46.78100586 C39.77271484 47.80871094 39.77271484 47.80871094 39.77172852 48.85717773 C39.72686127 53.93714659 39.72686127 53.93714659 38.58618164 56.21850586 C34.76371576 55.65891063 32.99646423 54.00533229 30.33618164 51.28100586 C29.62977539 50.57073242 28.92336914 49.86045898 28.19555664 49.12866211 C26.58618164 47.21850586 26.58618164 47.21850586 26.58618164 45.21850586 C25.92618164 45.21850586 25.26618164 45.21850586 24.58618164 45.21850586 C23.63818043 66.04931962 23.47537706 86.86833161 23.46118164 107.71850586 C23.45868408 109.01487976 23.45618652 110.31125366 23.45361328 111.64691162 C23.44769859 115.38955323 23.44922404 119.13211324 23.45336914 122.87475586 C23.45138519 124.00076202 23.44940125 125.12676819 23.44735718 126.28689575 C23.03483748 136.10761699 23.03483748 136.10761699 25.81274414 145.20678711 C26.27422852 145.6437793 26.73571289 146.08077148 27.21118164 146.53100586 C28.38680664 147.86131836 28.38680664 147.86131836 29.58618164 149.21850586 C29.25618164 150.20850586 28.92618164 151.19850586 28.58618164 152.21850586 C19.01618164 152.21850586 9.44618164 152.21850586 -0.41381836 152.21850586 C-0.74381836 151.55850586 -1.07381836 150.89850586 -1.41381836 150.21850586 C-0.81053711 150.04834961 -0.20725586 149.87819336 0.41430664 149.70288086 C1.21352539 149.46053711 2.01274414 149.21819336 2.83618164 148.96850586 C3.62508789 148.73647461 4.41399414 148.50444336 5.22680664 148.26538086 C8.13799533 146.97366138 9.57235363 145.69547369 11.58618164 143.21850586 C12.28823634 140.2242104 12.28823634 140.2242104 12.32568359 136.8046875 C12.35418805 136.15503808 12.38269251 135.50538866 12.41206074 134.83605289 C12.49728131 132.6300983 12.54646299 130.42573648 12.58618164 128.21850586 C12.60892969 127.03778063 12.60892969 127.03778063 12.6321373 125.83320236 C12.73861171 119.50200852 12.75176233 113.17155348 12.75415039 106.83959961 C12.75737138 104.812749 12.76073605 102.78589861 12.76423645 100.75904846 C12.77017939 96.54264791 12.77208095 92.32626772 12.77148438 88.10986328 C12.77138206 82.71320306 12.78512697 77.31667236 12.80225658 71.92004299 C12.81337089 67.74816792 12.81540389 63.57632448 12.81487465 59.40443611 C12.81605204 57.41376352 12.82046026 55.42309004 12.82820702 53.43243217 C12.83801209 50.65717218 12.83512873 47.88219826 12.82910156 45.10693359 C12.83472107 44.29180298 12.84034058 43.47667236 12.84613037 42.63684082 C12.79181996 32.78761828 8.82646385 27.51500164 2.58618164 20.21850586 C1.89137695 19.37674805 1.19657227 18.53499023 0.48071289 17.66772461 C-7.03118622 8.86963512 -15.81949946 0.71095061 -27.41381836 -1.78149414 C-28.16147461 -1.96583008 -28.90913086 -2.15016602 -29.67944336 -2.34008789 C-33.20304734 -2.90889825 -36.66943731 -2.88824242 -40.22631836 -2.84399414 C-40.91918945 -2.83948242 -41.61206055 -2.8349707 -42.32592773 -2.83032227 C-44.02192904 -2.8186257 -45.71788539 -2.80069338 -47.41381836 -2.78149414 C-47.08381836 -3.77149414 -46.75381836 -4.76149414 -46.41381836 -5.78149414 C-30.80603743 -13.47037991 -13.48489692 -9.9523913 0 0 Z " fill="#D4A860" transform="translate(229.413818359375,95.781494140625)"/>
<path d="M0 0 C12.54 0 25.08 0 38 0 C38.495 1.485 38.495 1.485 39 3 C37.98679687 3.23783203 37.98679687 3.23783203 36.953125 3.48046875 C36.06109375 3.71378906 35.1690625 3.94710937 34.25 4.1875 C33.36828125 4.40792969 32.4865625 4.62835938 31.578125 4.85546875 C28.09002893 6.403972 26.99674795 7.71051993 25 11 C24.36463506 14.56047341 24.3610896 18.09248026 24.33959961 21.70263672 C24.30740074 23.32082054 24.30740074 23.32082054 24.27455139 24.97169495 C24.2110373 28.54110788 24.1788946 32.10981828 24.15234375 35.6796875 C24.13978609 36.90305943 24.12722843 38.12643135 24.11429024 39.38687515 C24.04846575 45.86861441 24.00647883 52.35000143 23.98413086 58.83203125 C23.96005811 65.49880781 23.85038892 72.16127766 23.7250433 78.82697868 C23.64259935 83.9764025 23.61900285 89.12493968 23.61084175 94.27496719 C23.59697301 96.73011298 23.56151972 99.18524283 23.50324821 101.63973618 C23.04914718 118.67995984 23.04914718 118.67995984 31.40063477 132.93798828 C33.04854909 134.59329882 34.71782339 136.17238072 36.48844242 137.69519234 C38.08283243 139.07150266 39.59349925 140.43025303 41 142 C41 142.66 41 143.32 41 144 C41.66 144 42.32 144 43 144 C43 144.66 43 145.32 43 146 C43.56332031 146.25007812 44.12664062 146.50015625 44.70703125 146.7578125 C47.34763291 148.18832584 49.40390685 149.92603967 51.6875 151.875 C62.67834244 160.77081382 74.2234109 162.19086494 88 163 C88 163.99 88 164.98 88 166 C78.99777457 170.2486325 66.36460872 170.00517427 57 167 C55.60587891 166.55527344 55.60587891 166.55527344 54.18359375 166.1015625 C38.86566926 160.46967892 27.91998202 148.35680716 16.69921875 137 C15.98596436 136.278125 15.27270996 135.55625 14.5378418 134.8125 C13 133 13 133 13 131 C12.34 131 11.68 131 11 131 C7.93682297 128.0941972 7.04188676 126.55868676 6.72265625 122.30078125 C6.81350612 120.96963313 6.92731594 119.63987873 7.0625 118.3125 C7.10310547 117.63638672 7.14371094 116.96027344 7.18554688 116.26367188 C7.34765625 114.30078125 7.34765625 114.30078125 8 111 C9.485 110.01 9.485 110.01 11 109 C11.99 109.33 12.98 109.66 14 110 C13.91564066 97.43902082 13.82077426 84.87816924 13.71247292 72.31737232 C13.66251549 66.48496189 13.61618523 60.65256952 13.578125 54.82006836 C13.54126545 49.19196564 13.49490336 43.56401425 13.44193649 37.93604088 C13.42339617 35.78827251 13.40828688 33.6404717 13.39665604 31.4926548 C13.37978763 28.48558666 13.35075065 25.47886481 13.31884766 22.47192383 C13.31668747 21.58287857 13.31452728 20.69383331 13.31230164 19.77784729 C13.25367548 15.45553669 13.14973221 11.8757742 11 8 C7.34418862 5.17980265 3.43615796 4.13078536 -1 3 C-0.67 2.01 -0.34 1.02 0 0 Z " fill="#775A36" transform="translate(341,112)"/>
<path d="M0 0 C1.25248502 2.50497004 1.11374406 4.20853274 1.09765625 7.0078125 C1.09443359 7.99394531 1.09121094 8.98007813 1.08789062 9.99609375 C1.07532227 11.54490234 1.07532227 11.54490234 1.0625 13.125 C1.05798828 14.16527344 1.05347656 15.20554688 1.04882812 16.27734375 C1.03701952 18.85161962 1.02055075 21.42578146 1 24 C-0.93896484 23.61816406 -0.93896484 23.61816406 -3 23 C-3.9765625 21.109375 -3.9765625 21.109375 -4.625 18.75 C-4.87378906 17.93789062 -5.12257813 17.12578125 -5.37890625 16.2890625 C-5.84135323 14.58469814 -6.22340973 12.85812806 -6.5625 11.125 C-8.7442097 7.89986392 -11.52136796 7.43640063 -15.203125 6.5 C-21.59287292 5.3576987 -28.06201786 5.09698651 -34 8 C-38.44212842 11.10855075 -41.38871552 13.69360641 -43 19 C-43.31410078 21.95427474 -43.31410078 21.95427474 -43.25 25 C-43.25515625 26.010625 -43.2603125 27.02125 -43.265625 28.0625 C-42.71704169 34.12918603 -40.27031489 36.84206182 -36 41 C-36 41.66 -36 42.32 -36 43 C-35.34 43 -34.68 43 -34 43 C-34 43.66 -34 44.32 -34 45 C-33.34 45 -32.68 45 -32 45 C-30.765625 46.2578125 -30.765625 46.2578125 -29.25 48.125 C-26.78197816 51.06037066 -24.21315597 53.8064898 -21.4609375 56.47265625 C-20.83155273 57.08415527 -20.20216797 57.6956543 -19.55371094 58.32568359 C-18.28098358 59.55426825 -17.00049318 60.77486795 -15.71191406 61.98681641 C-10.1931005 67.33925618 -10.1931005 67.33925618 -10 72 C-16.72810246 76.13248933 -16.72810246 76.13248933 -21 75.6875 C-25.22642442 73.31013627 -28.51275969 70.35106624 -32 67 C-32.47260254 66.54786133 -32.94520508 66.09572266 -33.43212891 65.62988281 C-34.96353133 64.15781426 -36.48388415 62.67530005 -38 61.1875 C-38.73996216 60.46735718 -38.73996216 60.46735718 -39.49487305 59.73266602 C-40.70304949 58.52705425 -41.85669766 57.26730021 -43 56 C-43 55.34 -43 54.68 -43 54 C-43.66 54 -44.32 54 -45 54 C-45 53.34 -45 52.68 -45 52 C-45.8353125 51.7215625 -45.8353125 51.7215625 -46.6875 51.4375 C-51.14165731 48.66869951 -53.45908939 44.46045865 -55.25 39.625 C-55.4975 38.42875 -55.745 37.2325 -56 36 C-56.15726562 35.33355469 -56.31453125 34.66710937 -56.4765625 33.98046875 C-57.8868827 26.30666764 -55.46876281 19.34764424 -51.67578125 12.66796875 C-46.98044249 5.94012718 -40.6003955 0.76655976 -32.66015625 -1.53515625 C-22.25740584 -3.35296432 -10.30471649 -2.2868001 0 0 Z " fill="#FAE9C0" transform="translate(328,117)"/>
<path d="M0 0 C0.33 0 0.66 0 1 0 C1.33 8.58 1.66 17.16 2 26 C2.99 25.67 3.98 25.34 5 25 C5.33 25.66 5.66 26.32 6 27 C6.99 27.33 7.98 27.66 9 28 C9.33 20.41 9.66 12.82 10 5 C11.32 5.66 12.64 6.32 14 7 C13.01 7.495 13.01 7.495 12 8 C11.05199879 28.83081376 10.88919542 49.64982575 10.875 70.5 C10.87250244 71.7963739 10.87000488 73.0927478 10.86743164 74.42840576 C10.86151695 78.17104737 10.8630424 81.91360739 10.8671875 85.65625 C10.86520355 86.78225616 10.8632196 87.90826233 10.86117554 89.06838989 C10.44865584 98.88911113 10.44865584 98.88911113 13.2265625 107.98828125 C13.68804687 108.42527344 14.14953125 108.86226563 14.625 109.3125 C15.800625 110.6428125 15.800625 110.6428125 17 112 C16.67 112.99 16.34 113.98 16 115 C6.43 115 -3.14 115 -13 115 C-13.33 114.34 -13.66 113.68 -14 113 C-13.39671875 112.82984375 -12.7934375 112.6596875 -12.171875 112.484375 C-11.37265625 112.24203125 -10.5734375 111.9996875 -9.75 111.75 C-8.96109375 111.51796875 -8.1721875 111.2859375 -7.359375 111.046875 C-4.44821935 109.75517018 -3.01396357 108.47680867 -1 106 C-0.29528789 103.00559405 -0.29528789 103.00559405 -0.25610352 99.58569336 C-0.22745744 98.93610877 -0.19881136 98.28652418 -0.16929722 97.61725521 C-0.08445505 95.41131369 -0.03676383 93.20725498 0 91 C0.0131789 90.21247974 0.0263578 89.42495949 0.03993607 88.61357498 C0.126557 82.2851471 0.11508203 75.9577499 0.09765625 69.62890625 C0.09578655 67.6101027 0.09436526 65.59129868 0.09336853 63.57249451 C0.08958676 58.31027937 0.07979459 53.04809271 0.06866455 47.78588867 C0.05835607 42.39567449 0.05385088 37.00545562 0.04882812 31.61523438 C0.03816755 21.07681054 0.02114461 10.53840766 0 0 Z " fill="#8E6A3D" transform="translate(242,133)"/>
<path d="M0 0 C0.66 0 1.32 0 2 0 C2 0.66 2 1.32 2 2 C3.32 2 4.64 2 6 2 C6.33 2.66 6.66 3.32 7 4 C7.74636719 4.43183594 8.49273437 4.86367187 9.26171875 5.30859375 C12.3546879 7.21908682 14.40258163 9.348844 16.8125 12.0625 C17.60269531 12.94035156 18.39289063 13.81820312 19.20703125 14.72265625 C21 17 21 17 21 19 C21.66 19 22.32 19 23 19 C23 19.66 23 20.32 23 21 C23.56332031 21.25007813 24.12664062 21.50015625 24.70703125 21.7578125 C27.34763291 23.18832584 29.40390685 24.92603967 31.6875 26.875 C42.67834244 35.77081382 54.2234109 37.19086494 68 38 C68 38.99 68 39.98 68 41 C58.99777457 45.2486325 46.36460872 45.00517427 37 42 C36.07058594 41.70351563 35.14117187 41.40703125 34.18359375 41.1015625 C22.50051208 36.80608788 13.57382878 28.77175176 4.75 20.25 C4.18869385 19.71955078 3.6273877 19.18910156 3.04907227 18.64257812 C-0.34843255 15.24560342 -1.74036472 12.81767692 -2 8 C-2.66 8 -3.32 8 -4 8 C-4.66 6.35 -5.32 4.7 -6 3 C-4.02 2.67 -2.04 2.34 0 2 C0 1.34 0 0.68 0 0 Z " fill="#B48741" transform="translate(361,237)"/>
<path d="M0 0 C0.66 0.99 1.32 1.98 2 3 C1.50628906 3.96421875 1.01257813 4.9284375 0.50390625 5.921875 C-0.14344237 7.19780852 -0.79056599 8.47385621 -1.4375 9.75 C-1.76298828 10.38421875 -2.08847656 11.0184375 -2.42382812 11.671875 C-6.70211786 20.14024231 -7.38704515 28.84875631 -5.28125 38.1875 C-3.42348577 43.70086481 -1.38981919 47.21987792 3 51 C3 51.66 3 52.32 3 53 C3.639375 53.2475 4.27875 53.495 4.9375 53.75 C8 55 8 55 9.703125 56.0234375 C18.20171886 60.74116086 29.02652866 60.24797875 38.328125 58.3046875 C44.35526537 56.30125257 49.20273916 53.12371992 54 49 C53.34 51.31 52.68 53.62 52 56 C48.535 56.495 48.535 56.495 45 57 C45 57.66 45 58.32 45 59 C49.95 58.67 54.9 58.34 60 58 C54.36853002 63.63146998 54.36853002 63.63146998 49.4375 65.25 C48.50808594 65.56453125 47.57867187 65.8790625 46.62109375 66.203125 C33.84646662 70.08691626 18.09723291 69.59217366 6.14453125 63.55859375 C-3.94744639 57.68863105 -9.31310749 50.59649378 -12.33984375 39.328125 C-15.07236354 25.55234477 -11.12868668 14.59378164 -3.5859375 3.08203125 C-2 1 -2 1 0 0 Z " fill="#6A4F2A" transform="translate(271,196)"/>
<path d="M0 0 C8.25 0 16.5 0 25 0 C25.33 0.99 25.66 1.98 26 3 C25.34 3 24.68 3 24 3 C24 2.34 24 1.68 24 1 C23.34 1 22.68 1 22 1 C22.66 1.99 23.32 2.98 24 4 C24.33 4 24.66 4 25 4 C25 5.65 25 7.3 25 9 C24.34 9 23.68 9 23 9 C23.33 9.66 23.66 10.32 24 11 C24.10242987 13.29176159 24.13844992 15.58657586 24.14526367 17.88061523 C24.14862228 18.58809906 24.1519809 19.29558289 24.15544128 20.02450562 C24.16496019 22.36921939 24.16689484 24.71386184 24.16796875 27.05859375 C24.17118059 28.68522674 24.1745446 30.31185944 24.17805481 31.93849182 C24.18404837 35.35068431 24.18589447 38.76285145 24.18530273 42.17504883 C24.18520108 46.55115805 24.19885582 50.92710515 24.21607494 55.30317593 C24.2271836 58.66344451 24.2292223 62.02367375 24.22869301 65.38395882 C24.22987474 66.99752423 24.23430732 68.6110906 24.24202538 70.22463799 C24.25180285 72.47987153 24.24895631 74.73475121 24.24291992 76.98999023 C24.24434494 78.27413315 24.24576996 79.55827606 24.24723816 80.8813324 C24 84 24 84 22 87 C19.375 87.1875 19.375 87.1875 17 87 C15.79767232 83.39301695 15.8240045 80.0724243 15.79467773 76.31567383 C15.78477814 75.5349501 15.77487854 74.75422638 15.76467896 73.94984436 C15.73308823 71.36893752 15.70831612 68.78801227 15.68359375 66.20703125 C15.66302213 64.41769431 15.6420256 62.6283622 15.62062073 60.83903503 C15.56542158 56.12907834 15.51600277 51.41907794 15.46777344 46.70904541 C15.41754269 41.90299591 15.36186483 37.09700988 15.30664062 32.29101562 C15.19908542 22.86073131 15.09763456 13.43039188 15 4 C14.67 4.33 14.34 4.66 14 5 C11.61887285 4.57910855 9.29145668 4.10324274 6.9375 3.5625 C6.27427734 3.41490234 5.61105469 3.26730469 4.92773438 3.11523438 C3.28399784 2.74864565 1.64184353 2.37497588 0 2 C0 1.34 0 0.68 0 0 Z " fill="#D8A754" transform="translate(340,113)"/>
<path d="M0 0 C1.25248502 2.50497004 1.11374406 4.20853274 1.09765625 7.0078125 C1.09443359 7.99394531 1.09121094 8.98007813 1.08789062 9.99609375 C1.07532227 11.54490234 1.07532227 11.54490234 1.0625 13.125 C1.05798828 14.16527344 1.05347656 15.20554688 1.04882812 16.27734375 C1.03701952 18.85161962 1.02055075 21.42578146 1 24 C-0.93896484 23.61816406 -0.93896484 23.61816406 -3 23 C-3.9765625 21.109375 -3.9765625 21.109375 -4.625 18.75 C-4.87378906 17.93789062 -5.12257813 17.12578125 -5.37890625 16.2890625 C-5.84135323 14.58469814 -6.22340973 12.85812806 -6.5625 11.125 C-8.7442097 7.89986392 -11.52136796 7.43640063 -15.203125 6.5 C-21.59287292 5.3576987 -28.06201786 5.09698651 -34 8 C-38.44280988 11.10902763 -41.38640914 13.69376851 -43 19 C-43.5673403 25.19902715 -43.56364639 31.23179563 -41 37 C-41.66 37 -42.32 37 -43 37 C-43.33 37.66 -43.66 38.32 -44 39 C-44 36.69 -44 34.38 -44 32 C-44.928125 31.814375 -44.928125 31.814375 -45.875 31.625 C-48 31 -48 31 -50 29 C-52.03241727 29.63979849 -52.03241727 29.63979849 -54 31 C-54.81171228 33.55519921 -54.81171228 33.55519921 -55 36 C-55.33 36 -55.66 36 -56 36 C-57.73496657 27.32516713 -56.04772696 20.36723598 -51.67578125 12.66796875 C-46.98044249 5.94012718 -40.6003955 0.76655976 -32.66015625 -1.53515625 C-22.25740584 -3.35296432 -10.30471649 -2.2868001 0 0 Z " fill="#F1D8A2" transform="translate(328,117)"/>
<path d="M0 0 C0.93392578 0.52207031 0.93392578 0.52207031 1.88671875 1.0546875 C2.93279297 1.52261719 2.93279297 1.52261719 4 2 C5.34246312 1.35191436 6.67432801 0.68177416 8 0 C14.34375 -0.328125 14.34375 -0.328125 17 1 C17 1.66 17 2.32 17 3 C16.01 3 15.02 3 14 3 C13.67 4.65 13.34 6.3 13 8 C14.32 8.33 15.64 8.66 17 9 C17 9.66 17 10.32 17 11 C17.66 11 18.32 11 19 11 C19.33 10.34 19.66 9.68 20 9 C21.65 9 23.3 9 25 9 C24.67 11.31 24.34 13.62 24 16 C21 17 21 17 18.6875 16.375 C16 15 16 15 10 10 C9.34 17.26 8.68 24.52 8 32 C6.68 31.67 5.36 31.34 4 31 C4 30.34 4 29.68 4 29 C3.34 29 2.68 29 2 29 C1.67 29.99 1.34 30.98 1 32 C-0.46098845 29.0780231 -0.11134901 26.50106525 -0.09765625 23.2421875 C-0.0962413 22.57913605 -0.09482635 21.91608459 -0.09336853 21.23294067 C-0.08776754 19.11358137 -0.075215 16.99432741 -0.0625 14.875 C-0.05748512 13.43880361 -0.05292219 12.00260556 -0.04882812 10.56640625 C-0.03779782 7.04423655 -0.02053259 3.52212855 0 0 Z " fill="#EFD49B" transform="translate(243,129)"/>
<path d="M0 0 C0.7425 0.53625 1.485 1.0725 2.25 1.625 C14.55500012 9.77015374 25.51233978 12.14910187 40 13 C40 13.99 40 14.98 40 16 C29.67325427 20.8737446 16.47139414 19.59450502 6.0078125 15.9609375 C-0.41919394 13.47668314 -5.76419824 10.48123033 -11 6 C-6.85163969 4.61721323 -3.39131337 4 1 4 C0.67 2.68 0.34 1.36 0 0 Z " fill="#98733A" transform="translate(389,262)"/>
<path d="M0 0 C0.33 0 0.66 0 1 0 C0.99666908 1.19484009 0.99666908 1.19484009 0.99327087 2.41381836 C0.9731764 9.94599181 0.95797933 17.47815213 0.94818783 25.01034546 C0.9429846 28.88207143 0.93593377 32.75377513 0.92456055 36.62548828 C0.91364027 40.3667116 0.90770391 44.10791358 0.90512276 47.84915161 C0.90328491 49.27157934 0.89969623 50.69400599 0.89426994 52.11642456 C0.15115504 63.9381577 0.15115504 63.9381577 3.2265625 74.98828125 C3.68804687 75.42527344 4.14953125 75.86226563 4.625 76.3125 C5.800625 77.6428125 5.800625 77.6428125 7 79 C6.67 79.99 6.34 80.98 6 82 C-3.57 82 -13.14 82 -23 82 C-23.33 81.34 -23.66 80.68 -24 80 C-23.39671875 79.82984375 -22.7934375 79.6596875 -22.171875 79.484375 C-21.37265625 79.24203125 -20.5734375 78.9996875 -19.75 78.75 C-18.96109375 78.51796875 -18.1721875 78.2859375 -17.359375 78.046875 C-14.45183517 76.75677455 -12.93998554 75.52890972 -11 73 C-10.30602551 69.96777222 -10.30602551 69.96777222 -10.25 66.75 C-10.19328125 65.67234375 -10.1365625 64.5946875 -10.078125 63.484375 C-10.03945312 62.25460938 -10.03945312 62.25460938 -10 61 C-9.67 61 -9.34 61 -9 61 C-8.67 64.3 -8.34 67.6 -8 71 C-4.535 71.495 -4.535 71.495 -1 72 C-1.0169693 71.15697327 -1.0339386 70.31394653 -1.05142212 69.44537354 C-1.20952004 61.50006671 -1.35770954 53.55465015 -1.49477577 45.60895157 C-1.56559207 41.52400487 -1.64023595 37.43920295 -1.72363281 33.35449219 C-1.80397663 29.41241389 -1.87425878 25.47027274 -1.93757248 21.52788544 C-1.963493 20.02393741 -1.99303657 18.52004731 -2.02626419 17.01624298 C-2.07219189 14.90963046 -2.10522442 12.80317988 -2.13525391 10.69628906 C-2.15746002 9.49715881 -2.17966614 8.29802856 -2.20254517 7.06256104 C-2.00705224 4.10663256 -1.55512592 2.48037105 0 0 Z " fill="#7A5C34" transform="translate(252,166)"/>
<path d="M0 0 C0 0.99 0 1.98 0 3 C0.99 2.67 1.98 2.34 3 2 C3.04940499 7.64166991 3.08572193 13.28321413 3.10986328 18.92504883 C3.11992639 20.84466749 3.13357816 22.76427081 3.15087891 24.68383789 C3.17511364 27.44160752 3.18647992 30.19917464 3.1953125 32.95703125 C3.20563507 33.81649857 3.21595764 34.67596588 3.22659302 35.56147766 C3.22674408 36.36208115 3.22689514 37.16268463 3.22705078 37.98754883 C3.231492 38.6914827 3.23593323 39.39541656 3.24050903 40.12068176 C3 42 3 42 1 45 C-1.625 45.1875 -1.625 45.1875 -4 45 C-5.32711346 41.01865961 -5.18244095 37.17981359 -5.203125 33.02734375 C-5.20882507 32.14849014 -5.21452515 31.26963654 -5.22039795 30.364151 C-5.229839 28.50734662 -5.23637838 26.65052555 -5.24023438 24.79370117 C-5.24997485 21.94485666 -5.2810202 19.09672314 -5.3125 16.24804688 C-5.31902673 14.44531679 -5.3242785 12.64258155 -5.328125 10.83984375 C-5.3404718 9.98462631 -5.3528186 9.12940887 -5.36553955 8.24827576 C-5.35644531 5.85131836 -5.35644531 5.85131836 -5 2 C-2 0 -2 0 0 0 Z " fill="#FAE9C2" transform="translate(361,155)"/>
<path d="M0 0 C0.33 0 0.66 0 1 0 C1.46175926 13.49363173 -0.24827073 21.40175203 -9 32 C-11.00609536 34.00609536 -14.6856326 33.76418267 -17.4375 34.125 C-18.47874023 34.27388672 -18.47874023 34.27388672 -19.54101562 34.42578125 C-24.75527597 35.12236201 -24.75527597 35.12236201 -27 34 C-27 33.34 -27 32.68 -27 32 C-25.3603125 31.7525 -25.3603125 31.7525 -23.6875 31.5 C-19.70457481 30.36852983 -19.70457481 30.36852983 -18.4375 26.625 C-18.23382813 25.92632812 -18.03015625 25.22765625 -17.8203125 24.5078125 C-16.15815675 19.42636491 -13.44295589 14.74360367 -11 10 C-10.40574219 10.34675781 -9.81148438 10.69351563 -9.19921875 11.05078125 C-6.88349763 12.31586442 -6.88349763 12.31586442 -3.8125 11.1875 C-0.8552716 9.33819246 -0.8552716 9.33819246 -0.39453125 6.7890625 C-0.14689484 4.51367866 -0.00959361 2.28807709 0 0 Z " fill="#AA7D3D" transform="translate(343,221)"/>
<path d="M0 0 C0.33 1.32 0.66 2.64 1 4 C1.33 3.34 1.66 2.68 2 2 C4 2 6 2 8 2 C8 3.65 8 5.3 8 7 C10.31 7 12.62 7 15 7 C15.33 6.34 15.66 5.68 16 5 C16.33 4.67 16.66 4.34 17 4 C17.33 3.34 17.66 2.68 18 2 C19.99195579 3.88379529 21.9679364 5.7805332 23.9375 7.6875 C24.50146484 8.21794922 25.06542969 8.74839844 25.64648438 9.29492188 C28.78778253 12.36097936 30.73537014 14.39885498 31 19 C24.27189754 23.13248933 24.27189754 23.13248933 20 22.6875 C15.77357558 20.31013627 12.48724031 17.35106624 9 14 C8.52739746 13.54786133 8.05479492 13.09572266 7.56787109 12.62988281 C6.03646867 11.15781426 4.51611585 9.67530005 3 8.1875 C2.26003784 7.46735718 2.26003784 7.46735718 1.50512695 6.73266602 C0.29695051 5.52705425 -0.85669766 4.26730021 -2 3 C-2 2.34 -2 1.68 -2 1 C-1.34 0.67 -0.68 0.34 0 0 Z " fill="#A58B66" transform="translate(287,170)"/>
<path d="M0 0 C2.01988018 1.70045727 2.31847466 2.84178926 2.6796875 5.4140625 C2.0196875 5.4140625 1.3596875 5.4140625 0.6796875 5.4140625 C0.6796875 6.7340625 0.6796875 8.0540625 0.6796875 9.4140625 C-0.5371875 9.0015625 -1.7540625 8.5890625 -3.0078125 8.1640625 C-18.24725138 2.95667774 -18.24725138 2.95667774 -34.1328125 1.3515625 C-34.82568359 1.35607422 -35.51855469 1.36058594 -36.23242188 1.36523438 C-37.92842318 1.37693094 -39.62437953 1.39486326 -41.3203125 1.4140625 C-40.9903125 0.4240625 -40.6603125 -0.5659375 -40.3203125 -1.5859375 C-27.54742917 -7.87826318 -12.23665599 -6.74975686 0 0 Z " fill="#C8BD9F" transform="translate(223.3203125,91.5859375)"/>
<path d="M0 0 C0 0.33 0 0.66 0 1 C-0.845625 1.20625 -1.69125 1.4125 -2.5625 1.625 C-7.53144856 3.61257942 -11.71236933 6.47556619 -14.1875 11.328125 C-16.19233972 17.92096329 -15.79622258 25.70849921 -13 32 C-13.66 32 -14.32 32 -15 32 C-15.33 32.66 -15.66 33.32 -16 34 C-16 31.69 -16 29.38 -16 27 C-16.61875 26.87625 -17.2375 26.7525 -17.875 26.625 C-20 26 -20 26 -22 24 C-24.03241727 24.63979849 -24.03241727 24.63979849 -26 26 C-26.81171228 28.55519921 -26.81171228 28.55519921 -27 31 C-27.33 31 -27.66 31 -28 31 C-29.80294495 21.98527524 -27.83806632 13.96416507 -22.75 6.25 C-22.1725 5.5075 -21.595 4.765 -21 4 C-20.34 5.32 -19.68 6.64 -19 8 C-18.01 8 -17.02 8 -16 8 C-16 7.34 -16 6.68 -16 6 C-14.35 5.67 -12.7 5.34 -11 5 C-11 4.34 -11 3.68 -11 3 C-7.63966885 -0.4947444 -4.66111848 -0.26891068 0 0 Z " fill="#A68243" transform="translate(300,122)"/>
<path d="M0 0 C0.66 1.32 1.32 2.64 2 4 C3.32 3.34 4.64 2.68 6 2 C6.33 2.33 6.66 2.66 7 3 C7.66 2.01 8.32 1.02 9 0 C9 1.98 9 3.96 9 6 C9.66 6 10.32 6 11 6 C11.33 7.65 11.66 9.3 12 11 C12.8971875 11.1546875 12.8971875 11.1546875 13.8125 11.3125 C16.31258286 12.09824033 17.37535082 12.96918853 19 15 C19 15.66 19 16.32 19 17 C19.66 17 20.32 17 21 17 C21 17.66 21 18.32 21 19 C21.66 19 22.32 19 23 19 C23 19.66 23 20.32 23 21 C20.5625 20.625 20.5625 20.625 18 20 C17.67 19.34 17.34 18.68 17 18 C13.18015204 17.22188282 10.73159669 16.75613444 7 18 C7.54724567 21.8307197 9.28155271 23.36924456 12 26 C12 26.66 12 27.32 12 28 C11.34 28 10.68 28 10 28 C10 27.34 10 26.68 10 26 C9.443125 25.814375 8.88625 25.62875 8.3125 25.4375 C4.1174306 22.82975416 1.54291984 18.62875951 0 14 C-0.06970052 11.60509014 -0.08448003 9.20832309 -0.0625 6.8125 C-0.05347656 5.54019531 -0.04445313 4.26789063 -0.03515625 2.95703125 C-0.02355469 1.98121094 -0.01195312 1.00539062 0 0 Z " fill="#EBC988" transform="translate(273,143)"/>
<path d="M0 0 C4.00456842 3.11466432 6.50020755 5.54384823 9 10 C10.60803443 12.05633494 12.2965727 14.02034125 14 16 C13.0925 15.649375 12.185 15.29875 11.25 14.9375 C7.90390271 13.97227963 7.1392248 13.95359173 4 15 C-2.14705882 16.34117647 -2.14705882 16.34117647 -5.5 15 C-8.93392888 12.2528569 -11.97277931 9.18425231 -15 6 C-13 5 -13 5 -10 5.9375 C-9.01 6.288125 -8.02 6.63875 -7 7 C-6.34 7 -5.68 7 -5 7 C-4.67 6.34 -4.34 5.68 -4 5 C-1.9375 4.375 -1.9375 4.375 0 4 C0 2.68 0 1.36 0 0 Z " fill="#90724F" transform="translate(317,185)"/>
<path d="M0 0 C0.66 0.99 1.32 1.98 2 3 C1.50628906 3.96421875 1.01257813 4.9284375 0.50390625 5.921875 C-0.14344237 7.19780852 -0.79056599 8.47385621 -1.4375 9.75 C-1.76298828 10.38421875 -2.08847656 11.0184375 -2.42382812 11.671875 C-4.76115272 16.29833193 -6.13683075 19.93834076 -6.09765625 25.109375 C-6.09443359 25.86347656 -6.09121094 26.61757812 -6.08789062 27.39453125 C-6.07951172 28.17183594 -6.07113281 28.94914062 -6.0625 29.75 C-6.05798828 30.54277344 -6.05347656 31.33554688 -6.04882812 32.15234375 C-6.03708565 34.10159508 -6.01915146 36.05080738 -6 38 C-6.66 36.68 -7.32 35.36 -8 34 C-8.99 34.495 -8.99 34.495 -10 35 C-10.65772428 38.02934491 -10.65772428 38.02934491 -11 41 C-11.33 41 -11.66 41 -12 41 C-14.89303094 28.04016222 -12.29679575 16.99719711 -5.375 5.8125 C-2.32978723 1.16489362 -2.32978723 1.16489362 0 0 Z " fill="#645034" transform="translate(271,196)"/>
<path d="M0 0 C0.73154297 0.01353516 1.46308594 0.02707031 2.21679688 0.04101562 C3.99902422 0.07596126 5.78086573 0.12975195 7.5625 0.1875 C7.8925 1.1775 8.2225 2.1675 8.5625 3.1875 C7.9025 3.1875 7.2425 3.1875 6.5625 3.1875 C6.5625 3.8475 6.5625 4.5075 6.5625 5.1875 C5.41910156 5.30867188 4.27570313 5.42984375 3.09765625 5.5546875 C1.60671583 5.72347321 0.11583327 5.89277047 -1.375 6.0625 C-2.12974609 6.14113281 -2.88449219 6.21976562 -3.66210938 6.30078125 C-5.59669299 6.52633808 -7.51926019 6.85008974 -9.4375 7.1875 C-9.7675 7.8475 -10.0975 8.5075 -10.4375 9.1875 C-11.4275 9.1875 -12.4175 9.1875 -13.4375 9.1875 C-13.4375 9.8475 -13.4375 10.5075 -13.4375 11.1875 C-15.0875 11.5175 -16.7375 11.8475 -18.4375 12.1875 C-18.4375 12.8475 -18.4375 13.5075 -18.4375 14.1875 C-20.0875 14.5175 -21.7375 14.8475 -23.4375 15.1875 C-23.36470074 12.12993105 -23.07296531 9.93817716 -21.05859375 7.55859375 C-14.53248804 1.73327792 -8.59668132 -0.30674343 0 0 Z " fill="#DDCFA5" transform="translate(302.4375,115.8125)"/>
<path d="M0 0 C0.33 0 0.66 0 1 0 C1 9.9 1 19.8 1 30 C-1.31 29.67 -3.62 29.34 -6 29 C-7.01044795 25.96865616 -7.05032949 24.25604057 -6.87890625 21.11328125 C-6.83056641 20.17548828 -6.78222656 19.23769531 -6.73242188 18.27148438 C-6.67634766 17.29501953 -6.62027344 16.31855469 -6.5625 15.3125 C-6.51029297 14.32443359 -6.45808594 13.33636719 -6.40429688 12.31835938 C-6.27464694 9.87858324 -6.13968258 7.43921895 -6 5 C-5.01 5 -4.02 5 -3 5 C-2.67 4.34 -2.34 3.68 -2 3 C-1.67 3.66 -1.34 4.32 -1 5 C-0.67 3.35 -0.34 1.7 0 0 Z " fill="#CB9A46" transform="translate(250,208)"/>
<path d="M0 0 C0.66 0 1.32 0 2 0 C2.45890625 0.89203125 2.9178125 1.7840625 3.390625 2.703125 C4.01002747 3.88562062 4.62984099 5.06790098 5.25 6.25 C5.85328125 7.41015625 6.4565625 8.5703125 7.078125 9.765625 C8.82369637 12.70329389 10.56681536 14.65294579 13 17 C13 17.66 13 18.32 13 19 C13.99 19.33 14.98 19.66 16 20 C16.33 21.98 16.66 23.96 17 26 C15.35 25.67 13.7 25.34 12 25 C12 24.34 12 23.68 12 23 C11.29875 22.979375 10.5975 22.95875 9.875 22.9375 C4.86883765 21.30505576 2.19316705 17.0609249 -0.375 12.625 C-1.29120784 8.77692707 -1.34980938 4.93738929 -1 1 C-0.67 0.67 -0.34 0.34 0 0 Z " fill="#82632D" transform="translate(261,230)"/>
<path d="M0 0 C0.71542969 0.13277344 1.43085938 0.26554687 2.16796875 0.40234375 C9.76659924 1.74906093 17.29958171 2.52803888 25 3 C25 3.99 25 4.98 25 6 C20.83019042 7.96795655 16.86177447 8.49355898 12.3125 8.75 C11.25119873 8.81247925 11.25119873 8.81247925 10.16845703 8.8762207 C2.29239502 9.23095782 -4.61128742 7.72215727 -12 5 C-9.00519083 4.1276588 -6.36424089 3.89170234 -3.25 3.9375 C-2.45078125 3.94652344 -1.6515625 3.95554687 -0.828125 3.96484375 C-0.22484375 3.97644531 0.3784375 3.98804688 1 4 C1.33 3.01 1.66 2.02 2 1 C1.34 0.67 0.68 0.34 0 0 Z " fill="#5D472D" transform="translate(404,272)"/>
<path d="M0 0 C0.33 0.66 0.66 1.32 1 2 C3.31 2 5.62 2 8 2 C8.05807043 5.10408807 8.09361914 8.2080364 8.125 11.3125 C8.14175781 12.19357422 8.15851563 13.07464844 8.17578125 13.98242188 C8.18222656 14.82998047 8.18867188 15.67753906 8.1953125 16.55078125 C8.20578613 17.33106689 8.21625977 18.11135254 8.22705078 18.9152832 C8 21 8 21 6 24 C3.375 24.1875 3.375 24.1875 1 24 C0.01956036 21.05868109 -0.11621202 19.17498335 -0.09765625 16.11328125 C-0.09443359 15.17548828 -0.09121094 14.23769531 -0.08789062 13.27148438 C-0.07532227 11.80678711 -0.07532227 11.80678711 -0.0625 10.3125 C-0.05798828 9.32443359 -0.05347656 8.33636719 -0.04882812 7.31835938 C-0.03704303 4.87884526 -0.02059011 2.43945311 0 0 Z " fill="#C5AC87" transform="translate(356,176)"/>
<path d="M0 0 C8.25 0 16.5 0 25 0 C25.33 0.99 25.66 1.98 26 3 C25.34 3 24.68 3 24 3 C24 2.34 24 1.68 24 1 C23.34 1 22.68 1 22 1 C22.66 1.99 23.32 2.98 24 4 C24.33 4 24.66 4 25 4 C25 5.65 25 7.3 25 9 C24.34 9 23.68 9 23 9 C23.33 10.32 23.66 11.64 24 13 C23.01 13.33 22.02 13.66 21 14 C20.67 13.34 20.34 12.68 20 12 C19.525625 12.495 19.05125 12.99 18.5625 13.5 C17 15 17 15 16 15 C15.67 11.37 15.34 7.74 15 4 C14.67 4.33 14.34 4.66 14 5 C11.61887285 4.57910855 9.29145668 4.10324274 6.9375 3.5625 C6.27427734 3.41490234 5.61105469 3.26730469 4.92773438 3.11523438 C3.28399784 2.74864565 1.64184353 2.37497588 0 2 C0 1.34 0 0.68 0 0 Z " fill="#FAECC9" transform="translate(340,113)"/>
<path d="M0 0 C1.35208914 0.62775567 2.68163705 1.30419733 4 2 C4.69996094 2.36351562 5.39992188 2.72703125 6.12109375 3.1015625 C8 5 8 5 8.42578125 8.50390625 C8.40855043 9.85718801 8.37006622 11.21033338 8.3125 12.5625 C8.30283203 13.24763672 8.29316406 13.93277344 8.28320312 14.63867188 C8.16985965 19.6602807 8.16985965 19.6602807 7 22 C3.12488273 21.45015228 1.40423494 19.72444669 -1.25 16.9375 C-1.95640625 16.20402344 -2.6628125 15.47054687 -3.390625 14.71484375 C-3.92171875 14.14894531 -4.4528125 13.58304688 -5 13 C-4.67 12.34 -4.34 11.68 -4 11 C-3.4740625 11.7115625 -3.4740625 11.7115625 -2.9375 12.4375 C-0.15836457 14.67873825 2.5144717 14.67117658 6 15 C6 13.02 6 11.04 6 9 C3.69 9.33 1.38 9.66 -1 10 C-1 9.34 -1 8.68 -1 8 C-1.66 8 -2.32 8 -3 8 C-3.33 8.66 -3.66 9.32 -4 10 C-4 9.34 -4 8.68 -4 8 C-4.66 7.67 -5.32 7.34 -6 7 C-5.34 5.35 -4.68 3.7 -4 2 C-2.68 2 -1.36 2 0 2 C0 1.34 0 0.68 0 0 Z " fill="#F6DCA9" transform="translate(261,130)"/>
<path d="M0 0 C0.99 0.495 0.99 0.495 2 1 C2.99 1 3.98 1 5 1 C8 1 8 1 10 2 C10.99 1.67 11.98 1.34 13 1 C15 7.625 15 7.625 15 11 C12.36 11.99 9.72 12.98 7 14 C6.34 13.34 5.68 12.68 5 12 C4.34 12.66 3.68 13.32 3 14 C2.690625 13.030625 2.38125 12.06125 2.0625 11.0625 C1.30476658 8.15934208 1.30476658 8.15934208 0 7 C-0.04092937 4.66702567 -0.04241723 2.33294775 0 0 Z " fill="#CAA762" transform="translate(239,118)"/>
<path d="M0 0 C0.33 0 0.66 0 1 0 C1.33 8.58 1.66 17.16 2 26 C2.99 25.67 3.98 25.34 5 25 C5.33 25.66 5.66 26.32 6 27 C6.99 27.33 7.98 27.66 9 28 C9.33 20.41 9.66 12.82 10 5 C11.32 5.66 12.64 6.32 14 7 C13.01 7.495 13.01 7.495 12 8 C11.67 15.59 11.34 23.18 11 31 C10.34 31 9.68 31 9 31 C9 31.99 9 32.98 9 34 C6.03 34.66 3.06 35.32 0 36 C0 24.12 0 12.24 0 0 Z " fill="#685942" transform="translate(242,133)"/>
<path d="M0 0 C1.06734375 0.43119141 1.06734375 0.43119141 2.15625 0.87109375 C11.51570934 4.5865934 19.88503993 6.67371097 30 7 C30 7.33 30 7.66 30 8 C18.44673005 10.54717763 6.77022692 12.0660317 -3.88671875 5.91015625 C-5.29170329 4.989875 -6.65222177 4.00219407 -8 3 C-6.68 2.67 -5.36 2.34 -4 2 C-4 2.66 -4 3.32 -4 4 C-2.68 4 -1.36 4 0 4 C0 2.68 0 1.36 0 0 Z " fill="#816337" transform="translate(277,251)"/>
<path d="M0 0 C0.92470553 4.71599818 1.22923777 7.67265609 -1 12 C-1.99 12 -2.98 12 -4 12 C-4 12.99 -4 13.98 -4 15 C-6.12369237 15.36192504 -8.2490113 15.71431747 -10.375 16.0625 C-12.15003906 16.35833984 -12.15003906 16.35833984 -13.9609375 16.66015625 C-17 17 -17 17 -19 16 C-19 15.34 -19 14.68 -19 14 C-17.88625 13.79375 -16.7725 13.5875 -15.625 13.375 C-11.73400805 12.38371699 -11.73400805 12.38371699 -10.5625 8.875 C-10.376875 7.92625 -10.19125 6.9775 -10 6 C-8.824375 5.87625 -8.824375 5.87625 -7.625 5.75 C-4.85955198 5.28474077 -4.85955198 5.28474077 -3.8125 3 C-3.544375 2.34 -3.27625 1.68 -3 1 C-1 0 -1 0 0 0 Z M1 3 C1.99 3.495 1.99 3.495 3 4 C2.67 4.99 2.34 5.98 2 7 C1.67 5.68 1.34 4.36 1 3 Z " fill="#C99740" transform="translate(335,239)"/>
<path d="M0 0 C0.66 0 1.32 0 2 0 C2 0.66 2 1.32 2 2 C3.32 2 4.64 2 6 2 C6.33 2.66 6.66 3.32 7 4 C7.845625 4.45375 8.69125 4.9075 9.5625 5.375 C10.366875 5.91125 11.17125 6.4475 12 7 C12 8.32 12 9.64 12 11 C11.195625 10.6596875 11.195625 10.6596875 10.375 10.3125 C6.93918099 9.86041855 4.94233306 11.32821985 2 13 C2 13.99 2 14.98 2 16 C-1 14 -1 14 -1.6875 10.875 C-1.790625 9.92625 -1.89375 8.9775 -2 8 C-2.66 8 -3.32 8 -4 8 C-4.66 6.35 -5.32 4.7 -6 3 C-4.02 2.67 -2.04 2.34 0 2 C0 1.34 0 0.68 0 0 Z " fill="#A2783D" transform="translate(361,237)"/>
<path d="M0 0 C18.05447086 0.46742967 18.05447086 0.46742967 24.1875 6.25 C24.1875 7.24 24.1875 8.23 24.1875 9.25 C23.5275 9.25 22.8675 9.25 22.1875 9.25 C22.1875 10.57 22.1875 11.89 22.1875 13.25 C20.72682801 12.79917531 19.26901968 12.33906463 17.8125 11.875 C17.00039062 11.61976562 16.18828125 11.36453125 15.3515625 11.1015625 C13.1875 10.25 13.1875 10.25 11.1875 8.25 C12.5075 7.59 13.8275 6.93 15.1875 6.25 C14.465625 6.105625 13.74375 5.96125 13 5.8125 C12.071875 5.626875 11.14375 5.44125 10.1875 5.25 C8.9190625 5.0025 8.9190625 5.0025 7.625 4.75 C6.17945776 4.45347851 4.73831622 4.13021766 3.3125 3.75 C0.29901377 3.04094442 -2.74639289 2.66274519 -5.8125 2.25 C-3.8125 0.25 -3.8125 0.25 0 0 Z " fill="#DAC392" transform="translate(201.8125,87.75)"/>
<path d="M0 0 C2.47354197 2.47354197 2.26883535 3.40342975 2.4375 6.8125 C2.75933835 11.02676066 3.63461416 13.45192125 6 17 C5.67 17.99 5.34 18.98 5 20 C5.66 20.33 6.32 20.66 7 21 C6.34 23.64 5.68 26.28 5 29 C4.34 29 3.68 29 3 29 C2.67 37.91 2.34 46.82 2 56 C-0.21717015 52.67424478 -0.24543438 51.6639376 -0.22705078 47.79418945 C-0.22689972 46.73331619 -0.22674866 45.67244293 -0.22659302 44.579422 C-0.21627045 43.43559555 -0.20594788 42.2917691 -0.1953125 41.11328125 C-0.1924826 39.94113571 -0.18965271 38.76899017 -0.18673706 37.56132507 C-0.17552753 33.81161357 -0.15042128 30.06213951 -0.125 26.3125 C-0.11497121 23.7727899 -0.10584519 21.23307607 -0.09765625 18.69335938 C-0.07558567 12.46215835 -0.04210039 6.23109614 0 0 Z " fill="#7B5D39" transform="translate(242,171)"/>
<path d="M0 0 C3 0 3 0 4.66796875 1.12890625 C6.55010984 3.77273494 6.36415575 5.72292288 6.3125 8.9375 C6.30863281 9.97777344 6.30476562 11.01804688 6.30078125 12.08984375 C6.00916371 14.91133812 5.4531841 16.5973251 4 19 C3.34 19 2.68 19 2 19 C2 18.34 2 17.68 2 17 C1.34 17 0.68 17 0 17 C-0.33 17.66 -0.66 18.32 -1 19 C-2.47793555 16.04412889 -2.17053651 13.35002355 -2.1875 10.0625 C-2.20167969 8.81597656 -2.21585938 7.56945312 -2.23046875 6.28515625 C-2 3 -2 3 0 0 Z " fill="#F6E6BD" transform="translate(245,135)"/>
<path d="M0 0 C0.33 0 0.66 0 1 0 C1.04898438 0.90363281 1.09796875 1.80726563 1.1484375 2.73828125 C1.22320312 3.91777344 1.29796875 5.09726563 1.375 6.3125 C1.44460937 7.48425781 1.51421875 8.65601563 1.5859375 9.86328125 C1.78613747 13.15699887 1.78613747 13.15699887 4 16 C1.50907189 17.24546405 0.58919267 16.7767578 -2 16 C-2.33 16.66 -2.66 17.32 -3 18 C-3.99 18 -4.98 18 -6 18 C-6 18.66 -6 19.32 -6 20 C-5.43490723 19.93417725 -4.86981445 19.86835449 -4.28759766 19.80053711 C-1.73407065 19.50662673 0.82040327 19.22195581 3.375 18.9375 C4.26445312 18.83373047 5.15390625 18.72996094 6.0703125 18.62304688 C6.92109375 18.52958984 7.771875 18.43613281 8.6484375 18.33984375 C9.43395996 18.25081787 10.21948242 18.16179199 11.02880859 18.07006836 C13 18 13 18 15 19 C14.34 18.01 13.68 17.02 13 16 C12.01 16.33 11.02 16.66 10 17 C10 12.71 10 8.42 10 4 C10.33 4 10.66 4 11 4 C11.061875 5.19625 11.12375 6.3925 11.1875 7.625 C11.57761036 11.01595931 12.33056939 12.7892619 14.625 15.3125 C15.40875 16.199375 16.1925 17.08625 17 18 C16.67 18.99 16.34 19.98 16 21 C6.43 21 -3.14 21 -13 21 C-13.33 20.34 -13.66 19.68 -14 19 C-13.39671875 18.82984375 -12.7934375 18.6596875 -12.171875 18.484375 C-11.37265625 18.24203125 -10.5734375 17.9996875 -9.75 17.75 C-8.96109375 17.51796875 -8.1721875 17.2859375 -7.359375 17.046875 C-4.45183517 15.75677455 -2.93998554 14.52890972 -1 12 C-0.30602551 8.96777222 -0.30602551 8.96777222 -0.25 5.75 C-0.19328125 4.67234375 -0.1365625 3.5946875 -0.078125 2.484375 C-0.05234375 1.66453125 -0.0265625 0.8446875 0 0 Z " fill="#4D3D26" transform="translate(242,227)"/>
<path d="M0 0 C0.33 1.32 0.66 2.64 1 4 C1.33 3.34 1.66 2.68 2 2 C4 2 6 2 8 2 C8 3.65 8 5.3 8 7 C10.31 7 12.62 7 15 7 C15.33 6.34 15.66 5.68 16 5 C16.33 4.67 16.66 4.34 17 4 C17.33 3.34 17.66 2.68 18 2 C22 8.60869565 22 8.60869565 22 12 C20.02 12 18.04 12 16 12 C16 12.66 16 13.32 16 14 C15.34 14 14.68 14 14 14 C13.34 13.01 12.68 12.02 12 11 C10.4221875 10.87625 10.4221875 10.87625 8.8125 10.75 C3.71113404 9.7464526 1.10338547 7.08439486 -2 3 C-2 2.34 -2 1.68 -2 1 C-1.34 0.67 -0.68 0.34 0 0 Z " fill="#C7B08B" transform="translate(287,170)"/>
<path d="M0 0 C12.54 0 25.08 0 38 0 C38.495 1.485 38.495 1.485 39 3 C38.33613281 3.14695312 37.67226563 3.29390625 36.98828125 3.4453125 C30.59426942 5.06948485 27.80767511 6.64545687 24 12 C23.34 12 22.68 12 22 12 C22 11.34 22 10.68 22 10 C22.66 10 23.32 10 24 10 C23.690625 9.4225 23.38125 8.845 23.0625 8.25 C22.07416636 6.15705816 21.4831387 4.25464725 21 2 C21.66 2 22.32 2 23 2 C23 2.66 23 3.32 23 4 C23.66 4 24.32 4 25 4 C24.67 3.34 24.34 2.68 24 2 C16.08 1.67 8.16 1.34 0 1 C0 0.67 0 0.34 0 0 Z " fill="#8E846F" transform="translate(341,112)"/>
<path d="M0 0 C4.77700421 1.9461869 8.13405342 5.1444002 10.3125 9.8125 C10.539375 10.534375 10.76625 11.25625 11 12 C7.32589215 13.17571451 3.83070817 13.07366746 0 13 C0 11.35 0 9.7 0 8 C-0.66 8 -1.32 8 -2 8 C-2.33 8.66 -2.66 9.32 -3 10 C-4.33333333 10 -5.66666667 10 -7 10 C-7 8.02 -7 6.04 -7 4 C-3.535 5.485 -3.535 5.485 0 7 C0 4.69 0 2.38 0 0 Z " fill="#F0DFBA" transform="translate(295,164)"/>
<path d="M0 0 C0.66 1.32 1.32 2.64 2 4 C2.99 4 3.98 4 5 4 C5.33 3.01 5.66 2.02 6 1 C6 4.96 6 8.92 6 13 C6.66 13 7.32 13 8 13 C8.66 14.98 9.32 16.96 10 19 C9.34 19 8.68 19 8 19 C7.67 19.66 7.34 20.32 7 21 C7 18.69 7 16.38 7 14 C6.38125 13.87625 5.7625 13.7525 5.125 13.625 C3 13 3 13 1 11 C-1.03241727 11.63979849 -1.03241727 11.63979849 -3 13 C-3.81171228 15.55519921 -3.81171228 15.55519921 -4 18 C-4.33 18 -4.66 18 -5 18 C-6.08995439 12.09060874 -6.48767423 8.23151135 -3 3 C-1.3125 1.125 -1.3125 1.125 0 0 Z " fill="#B39057" transform="translate(277,135)"/>
<path d="M0 0 C4.13621084 3.3810038 7.81316569 6.66590534 11 11 C9.68 11.33 8.36 11.66 7 12 C6.814375 11.360625 6.62875 10.72125 6.4375 10.0625 C5.05753944 7.57873787 5.05753944 7.57873787 1.375 7.25 C0.26125 7.1675 -0.8525 7.085 -2 7 C-1.67 8.65 -1.34 10.3 -1 12 C-1.99 11.67 -2.98 11.34 -4 11 C-4.33 11.66 -4.66 12.32 -5 13 C-6.98 10.36 -8.96 7.72 -11 5 C-10.67 4.34 -10.34 3.68 -10 3 C-9.34 3 -8.68 3 -8 3 C-8 3.66 -8 4.32 -8 5 C-7.01 4.67 -6.02 4.34 -5 4 C-3 4 -1 4 1 4 C0.67 2.68 0.34 1.36 0 0 Z " fill="#C39B55" transform="translate(237,103)"/>
<path d="M0 0 C19.305 0.495 19.305 0.495 39 1 C28.18130749 6.40934626 12.95961184 5.38539288 1.703125 1.65625 C1.14109375 1.4396875 0.5790625 1.223125 0 1 C0 0.67 0 0.34 0 0 Z " fill="#654D30" transform="translate(280,260)"/>
<path d="M0 0 C0.33 0.66 0.66 1.32 1 2 C0.0625 4.625 0.0625 4.625 -1 7 C-3.31 7.33 -5.62 7.66 -8 8 C-8 8.66 -8 9.32 -8 10 C-3.05 9.67 1.9 9.34 7 9 C2.70433598 13.29566402 2.10397108 13.55267514 -3.5625 13.875 C-4.69816406 13.95492188 -5.83382813 14.03484375 -7.00390625 14.1171875 C-10 14 -10 14 -13 12 C-12.34 12 -11.68 12 -11 12 C-10.79375 11.2575 -10.5875 10.515 -10.375 9.75 C-8.59141292 6.18282583 -6.36209881 5.05842784 -3 3 C-1.20605554 1.37648891 -1.20605554 1.37648891 0 0 Z " fill="#946F38" transform="translate(324,245)"/>
<path d="M0 0 C4.75 0.875 4.75 0.875 7 2 C7 1.34 7 0.68 7 0 C7.66 0.33 8.32 0.66 9 1 C9 22.45 9 43.9 9 66 C8.67 66 8.34 66 8 66 C7.98786972 64.94550407 7.98786972 64.94550407 7.97549438 63.8697052 C7.89744888 57.23412933 7.81012841 50.59874728 7.71247292 43.96342945 C7.66259596 40.55240229 7.61626559 37.1414048 7.578125 33.73022461 C7.53408695 29.8056513 7.47447081 25.88138809 7.4140625 21.95703125 C7.40251129 20.73603226 7.39096008 19.51503326 7.37905884 18.2570343 C7.35918915 17.1162291 7.33931946 15.97542389 7.31884766 14.80004883 C7.30552399 13.79855301 7.29220032 12.79705719 7.2784729 11.76521301 C6.82154079 7.22791476 5.80962982 4.71324532 2.375 1.6875 C1.59125 1.130625 0.8075 0.57375 0 0 Z " fill="#807054" transform="translate(347,116)"/>
<path d="M0 0 C2.3125 -0.1875 2.3125 -0.1875 5 0 C5.44601562 0.51433594 5.89203125 1.02867187 6.3515625 1.55859375 C7.9381217 3.28123224 7.9381217 3.28123224 10.41015625 2.890625 C11.28542969 2.67921875 12.16070312 2.4678125 13.0625 2.25 C14.37927734 1.94835937 14.37927734 1.94835937 15.72265625 1.640625 C18.00609108 1.07541262 18.00609108 1.07541262 20 0 C20.66 0.33 21.32 0.66 22 1 C22 1.66 22 2.32 22 3 C22.66 3 23.32 3 24 3 C23.67 4.32 23.34 5.64 23 7 C15.25084303 7.37495921 7.5577373 6.96478109 1.375 1.8125 C0.92125 1.214375 0.4675 0.61625 0 0 Z " fill="#806033" transform="translate(382,270)"/>
<path d="M0 0 C5.94 0.99 5.94 0.99 12 2 C12 2.33 12 2.66 12 3 C10.576875 3.2165625 10.576875 3.2165625 9.125 3.4375 C6.1065506 3.82935399 6.1065506 3.82935399 4 5 C4.33 5.66 4.66 6.32 5 7 C9.95 7 14.9 7 20 7 C20 7.33 20 7.66 20 8 C8.51307053 9.05463124 -1.00179546 9.0519701 -12 5 C-9.00519083 4.1276588 -6.36424089 3.89170234 -3.25 3.9375 C-2.45078125 3.94652344 -1.6515625 3.95554687 -0.828125 3.96484375 C-0.22484375 3.97644531 0.3784375 3.98804688 1 4 C1.33 3.01 1.66 2.02 2 1 C1.34 0.67 0.68 0.34 0 0 Z " fill="#43331E" transform="translate(404,272)"/>
<path d="M0 0 C1.32 1.32 2.64 2.64 4 4 C5.32 2.68 6.64 1.36 8 0 C8 4.29 8 8.58 8 13 C7.01 13.33 6.02 13.66 5 14 C5 13.01 5 12.02 5 11 C4.34 11 3.68 11 3 11 C2.67 11.99 2.34 12.98 2 14 C1.34 13.67 0.68 13.34 0 13 C0 8.71 0 4.42 0 0 Z " fill="#E6C286" transform="translate(356,144)"/>
<path d="M0 0 C3.08089673 2.77280706 4.68775452 5.06326356 6 9 C1.61900858 10.46033047 -2.59331931 10.30197384 -7 9 C-9.15966226 7.4653694 -11.03065682 5.78614847 -13 4 C-11 3 -11 3 -8 3.9375 C-7.01 4.288125 -6.02 4.63875 -5 5 C-4.34 5 -3.68 5 -3 5 C-2.67 4.34 -2.34 3.68 -2 3 C-1.34 3 -0.68 3 0 3 C0 2.01 0 1.02 0 0 Z " fill="#E1BD7E" transform="translate(226,94)"/>
<path d="M0 0 C0.33 0.66 0.66 1.32 1 2 C2.32 2 3.64 2 5 2 C6.38550197 4.77100394 6.1877467 6.9334706 6 10 C5.01 11.485 5.01 11.485 4 13 C1.375 13.1875 1.375 13.1875 -1 13 C-1.96070434 10.11788698 -2.10581883 8.30149956 -2.0625 5.3125 C-2.05347656 4.50425781 -2.04445313 3.69601563 -2.03515625 2.86328125 C-2.02355469 2.24839844 -2.01195312 1.63351563 -2 1 C-1.34 0.67 -0.68 0.34 0 0 Z " fill="#A78A63" transform="translate(358,187)"/>
<path d="M0 0 C0.99 0 1.98 0 3 0 C2.67 0.66 2.34 1.32 2 2 C1.77989211 3.66428333 1.60903098 5.33524067 1.46484375 7.0078125 C1.33432617 8.48701172 1.33432617 8.48701172 1.20117188 9.99609375 C1.0706543 11.54490234 1.0706543 11.54490234 0.9375 13.125 C0.84662109 14.16527344 0.75574219 15.20554688 0.66210938 16.27734375 C0.43777631 18.85127048 0.21723225 21.42546585 0 24 C-1.32 23.67 -2.64 23.34 -4 23 C-4 22.34 -4 21.68 -4 21 C-4.66 21 -5.32 21 -6 21 C-6.33 21.99 -6.66 22.98 -7 24 C-8.4783226 21.04335481 -8.06032783 18.25770263 -8 15 C-6.02 15 -4.04 15 -2 15 C-0.58365167 12.16730334 -0.6536995 9.52533562 -0.4375 6.375 C-0.31181641 4.59222656 -0.31181641 4.59222656 -0.18359375 2.7734375 C-0.12300781 1.85820312 -0.06242188 0.94296875 0 0 Z " fill="#CBBA97" transform="translate(251,137)"/>
<path d="M0 0 C0 0.99 0 1.98 0 3 C0.99 2.67 1.98 2.34 3 2 C3 4.97 3 7.94 3 11 C1.02 11 -0.96 11 -3 11 C-3.33 11.66 -3.66 12.32 -4 13 C-5.17051429 10.65897141 -5.1992246 9.10647047 -5.25 6.5 C-5.27578125 5.7059375 -5.3015625 4.911875 -5.328125 4.09375 C-5.21984375 3.4028125 -5.1115625 2.711875 -5 2 C-2 0 -2 0 0 0 Z " fill="#F2DBA7" transform="translate(361,155)"/>
<path d="M0 0 C1.98 0 3.96 0 6 0 C6 0.66 6 1.32 6 2 C7.65 2.33 9.3 2.66 11 3 C11.33 4.32 11.66 5.64 12 7 C10.40119187 7.41694996 8.79558739 7.80790856 7.1875 8.1875 C6.29417969 8.40792969 5.40085937 8.62835938 4.48046875 8.85546875 C2 9 2 9 0.23828125 7.73828125 C-1 6 -1 6 -2 3 C-1.34 3 -0.68 3 0 3 C0 2.01 0 1.02 0 0 Z " fill="#D09D42" transform="translate(378,259)"/>
<path d="M0 0 C0.66 0.33 1.32 0.66 2 1 C1.79375 1.61875 1.5875 2.2375 1.375 2.875 C1.25125 3.57625 1.1275 4.2775 1 5 C1.66 5.66 2.32 6.32 3 7 C2.01 7 1.02 7 0 7 C0 7.66 0 8.32 0 9 C-1.65 9.33 -3.3 9.66 -5 10 C-5 10.66 -5 11.32 -5 12 C-6.65 12.33 -8.3 12.66 -10 13 C-9.92430022 9.8206091 -9.63231963 7.69110312 -7.4453125 5.30078125 C-5.06507198 3.26128056 -2.81002213 1.40501106 0 0 Z " fill="#EDCF99" transform="translate(289,118)"/>
<path d="M0 0 C0.33 0 0.66 0 1 0 C1 7.26 1 14.52 1 22 C-0.32 21.67 -1.64 21.34 -3 21 C-3.9765625 19.07421875 -3.9765625 19.07421875 -4.625 16.6875 C-5.49660388 13.58561559 -6.47641896 10.84532015 -8 8 C-2.125 9.875 -2.125 9.875 -1 11 C-0.67 7.37 -0.34 3.74 0 0 Z " fill="#775F3C" transform="translate(328,119)"/>
<path d="M0 0 C0.33 0.66 0.66 1.32 1 2 C1.66 2 2.32 2 3 2 C3.33 1.34 3.66 0.68 4 0 C5.98 0 7.96 0 10 0 C10 1.65 10 3.3 10 5 C9.34 5 8.68 5 8 5 C8.33 6.32 8.66 7.64 9 9 C8.01 9.33 7.02 9.66 6 10 C5.67 9.34 5.34 8.68 5 8 C4.525625 8.495 4.05125 8.99 3.5625 9.5 C2 11 2 11 1 11 C0.67 7.37 0.34 3.74 0 0 Z " fill="#F1D9A5" transform="translate(355,117)"/>
<path d="M0 0 C3.7785059 2.43774574 3.7785059 2.43774574 4.8125 5.0625 C5 7 5 7 4 9 C2.22265625 9.59765625 2.22265625 9.59765625 0.0625 10.0625 C-2.17154137 10.55309711 -3.94795605 10.97397802 -6 12 C-9.61730402 10.23772368 -11.80075931 8.35673579 -14 5 C-12.02 5 -10.04 5 -8 5 C-7.34 6.32 -6.68 7.64 -6 9 C-5.34 9 -4.68 9 -4 9 C-4 8.34 -4 7.68 -4 7 C-2.02 6.67 -0.04 6.34 2 6 C1.34 5.34 0.68 4.68 0 4 C0 2.68 0 1.36 0 0 Z " fill="#B49D79" transform="translate(307,175)"/>
<path d="M0 0 C0.66 0.33 1.32 0.66 2 1 C2.4140625 3.06640625 2.4140625 3.06640625 2.625 5.5625 C2.69976562 6.38878906 2.77453125 7.21507813 2.8515625 8.06640625 C2.90054688 8.70449219 2.94953125 9.34257812 3 10 C0.36 10.99 -2.28 11.98 -5 13 C-5.99 12.01 -6.98 11.02 -8 10 C-8 8 -8 8 -5.5 5.375 C-4.675 4.59125 -3.85 3.8075 -3 3 C-2.01 3.33 -1.02 3.66 0 4 C0 2.68 0 1.36 0 0 Z " fill="#EAC986" transform="translate(251,119)"/>
<path d="M0 0 C0.99 0.33 1.98 0.66 3 1 C4.33106622 1.34227417 5.66400079 1.67751743 7 2 C7 2.66 7 3.32 7 4 C7.66 4 8.32 4 9 4 C9.33 3.34 9.66 2.68 10 2 C11.65 2 13.3 2 15 2 C14.67 4.31 14.34 6.62 14 9 C11 10 11 10 8.6875 9.5 C4.93933003 7.40799816 2.51396633 4.44698476 0 1 C0 0.67 0 0.34 0 0 Z " fill="#F9EAC3" transform="translate(253,136)"/>
<path d="M0 0 C2.35424675 -0.02726927 4.70816962 -0.04696719 7.0625 -0.0625 C8.37347656 -0.07410156 9.68445313 -0.08570312 11.03515625 -0.09765625 C14.8163519 -0.00452335 18.27920707 0.38551274 22 1 C22 1.33 22 1.66 22 2 C19.36 2 16.72 2 14 2 C14.33 3.65 14.66 5.3 15 7 C17.31 7 19.62 7 22 7 C22 8.32 22 9.64 22 11 C21.39414062 10.79503906 20.78828125 10.59007813 20.1640625 10.37890625 C14.09658479 8.4279788 8.35696876 7.3922385 2 7 C2 6.67 2 6.34 2 6 C4.97 6 7.94 6 11 6 C11 5.34 11 4.68 11 4 C11.66 4 12.32 4 13 4 C12.67 3.34 12.34 2.68 12 2 C9.1840151 1.53101037 9.1840151 1.53101037 5.9375 1.375 C4.28041016 1.26285156 4.28041016 1.26285156 2.58984375 1.1484375 C1.73519531 1.09945312 0.88054687 1.05046875 0 1 C0 0.67 0 0.34 0 0 Z " fill="#95896F" transform="translate(298,115)"/>
<path d="M0 0 C0.33 0 0.66 0 1 0 C1.02694851 1.95825873 1.04637218 3.91662226 1.0625 5.875 C1.07410156 6.96554688 1.08570313 8.05609375 1.09765625 9.1796875 C1 12 1 12 0 14 C-3.87511727 13.45015228 -5.59576506 11.72444669 -8.25 8.9375 C-8.95640625 8.20402344 -9.6628125 7.47054687 -10.390625 6.71484375 C-10.92171875 6.14894531 -11.4528125 5.58304688 -12 5 C-11.67 4.34 -11.34 3.68 -11 3 C-10.4740625 3.7115625 -10.4740625 3.7115625 -9.9375 4.4375 C-7.15836457 6.67873825 -4.4855283 6.67117658 -1 7 C-0.67 4.69 -0.34 2.38 0 0 Z " fill="#908571" transform="translate(268,138)"/>
<path d="M0 0 C0.66 0 1.32 0 2 0 C2 1.32 2 2.64 2 4 C2.99 4.33 3.98 4.66 5 5 C5.66 4.34 6.32 3.68 7 3 C7.99 3.66 8.98 4.32 10 5 C10 5.66 10 6.32 10 7 C9.01 7.33 8.02 7.66 7 8 C7.54724567 11.8307197 9.28155271 13.36924456 12 16 C12 16.66 12 17.32 12 18 C11.34 18 10.68 18 10 18 C10 17.34 10 16.68 10 16 C9.443125 15.814375 8.88625 15.62875 8.3125 15.4375 C4.44303795 13.03215873 1.64791059 9.42262222 0.4609375 4.984375 C0.2259094 3.33246319 0.10196504 1.66542906 0 0 Z " fill="#C8B48F" transform="translate(273,153)"/>
<path d="M0 0 C0 0.33 0 0.66 0 1 C-0.845625 1.20625 -1.69125 1.4125 -2.5625 1.625 C-8.22321908 3.88928763 -12.65704988 7.88725276 -16 13 C-17.98 12.34 -19.96 11.68 -22 11 C-22 10.34 -22 9.68 -22 9 C-20.02 8.67 -18.04 8.34 -16 8 C-16 7.34 -16 6.68 -16 6 C-14.35 5.67 -12.7 5.34 -11 5 C-11 4.34 -11 3.68 -11 3 C-7.63966885 -0.4947444 -4.66111848 -0.26891068 0 0 Z " fill="#D6B065" transform="translate(300,122)"/>
<path d="M0 0 C0.33 0 0.66 0 1 0 C1 4.62 1 9.24 1 14 C0.34 13.34 -0.32 12.68 -1 12 C-1.66 12.66 -2.32 13.32 -3 14 C-3.99 13.67 -4.98 13.34 -6 13 C-6 10.36 -6 7.72 -6 5 C-5.01 5 -4.02 5 -3 5 C-2.67 4.34 -2.34 3.68 -2 3 C-1.67 3.66 -1.34 4.32 -1 5 C-0.67 3.35 -0.34 1.7 0 0 Z " fill="#B2833E" transform="translate(250,208)"/>
<path d="M0 0 C2.475 0.99 2.475 0.99 5 2 C5 5.3 5 8.6 5 12 C4.01 11.01 3.02 10.02 2 9 C0.35 9.66 -1.3 10.32 -3 11 C-3.25 4.375 -3.25 4.375 -1 1 C-0.67 0.67 -0.34 0.34 0 0 Z " fill="#E0BA74" transform="translate(359,124)"/>
<path d="M0 0 C1.33333333 0.66666667 2.66666667 1.33333333 4 2 C5.0828125 2.37125 5.0828125 2.37125 6.1875 2.75 C8 4 8 4 8.75 7.125 C8.87375 8.548125 8.87375 8.548125 9 10 C7.35 9.67 5.7 9.34 4 9 C4 8.34 4 7.68 4 7 C2.35 6.67 0.7 6.34 -1 6 C-1.625 4.125 -1.625 4.125 -2 2 C-1.34 1.34 -0.68 0.68 0 0 Z " fill="#B58744" transform="translate(269,246)"/>
<path d="M0 0 C5.98808129 1.31445687 9.03429323 4.61191026 13 9 C12.67 9.66 12.34 10.32 12 11 C10.68 10.01 9.36 9.02 8 8 C7.01 8.99 6.02 9.98 5 11 C5.33 9.68 5.66 8.36 6 7 C3.03 6.505 3.03 6.505 0 6 C-1.125 2.25 -1.125 2.25 0 0 Z " fill="#C0A371" transform="translate(254,123)"/>
<path d="M0 0 C1.32 0 2.64 0 4 0 C4 0.66 4 1.32 4 2 C4.99 2 5.98 2 7 2 C7.33 2.66 7.66 3.32 8 4 C10.87848076 4.39464384 10.87848076 4.39464384 14.25 4.5 C18.62838852 4.69811713 22.01171753 5.14080065 26 7 C26 7.33 26 7.66 26 8 C15.95341506 8.50702391 8.07820368 7.21400283 0 1 C0 0.67 0 0.34 0 0 Z " fill="#745730" transform="translate(269,253)"/>
<path d="M0 0 C1.3917773 0.21555251 2.78831216 0.40193746 4.1875 0.5625 C5.445625 0.706875 6.70375 0.85125 8 1 C8 3 8 3 6.515625 4.73828125 C2.71779826 6.64309187 -0.38173226 5.33226121 -4.25 4.1875 C-5.36761719 3.88102539 -5.36761719 3.88102539 -6.5078125 3.56835938 C-8.34327208 3.06243141 -10.17234122 2.53342134 -12 2 C-12 1.67 -12 1.34 -12 1 C-10.56496445 0.63597631 -9.12683494 0.28413409 -7.6875 -0.0625 C-6.88699219 -0.25972656 -6.08648437 -0.45695312 -5.26171875 -0.66015625 C-3 -1 -3 -1 0 0 Z " fill="#C7B28B" transform="translate(209,91)"/>
<path d="M0 0 C5.44265823 0.10558949 10.75061861 0.5445354 16.15234375 1.23046875 C16.48234375 2.22046875 16.81234375 3.21046875 17.15234375 4.23046875 C12.71107894 5.37250827 9.63801019 4.89331313 5.27734375 3.73046875 C2.26385752 3.02141317 -0.78154914 2.64321394 -3.84765625 2.23046875 C-1.84765625 0.23046875 -1.84765625 0.23046875 0 0 Z " fill="#FAECC2" transform="translate(199.84765625,87.76953125)"/>
<path d="M0 0 C2.375 0.25 2.375 0.25 5 1 C6.3125 3.0625 6.3125 3.0625 7 5 C7.99 5 8.98 5 10 5 C10 5.99 10 6.98 10 8 C11.65 8.33 13.3 8.66 15 9 C15.33 9.99 15.66 10.98 16 12 C15.01 13.485 15.01 13.485 14 15 C11.66265901 12.69152056 9.33081534 10.37756659 7 8.0625 C6.33226562 7.40314453 5.66453125 6.74378906 4.9765625 6.06445312 C4.34492188 5.43603516 3.71328125 4.80761719 3.0625 4.16015625 C2.47597656 3.57886963 1.88945312 2.99758301 1.28515625 2.39868164 C0 1 0 1 0 0 Z " fill="#745936" transform="translate(312,200)"/>
<path d="M0 0 C1.08667969 0.01804687 2.17335938 0.03609375 3.29296875 0.0546875 C4.54013672 0.08949219 4.54013672 0.08949219 5.8125 0.125 C6.1425 1.115 6.4725 2.105 6.8125 3.125 C6.1525 3.125 5.4925 3.125 4.8125 3.125 C4.8125 3.785 4.8125 4.445 4.8125 5.125 C1.5125 5.125 -1.7875 5.125 -5.1875 5.125 C-4.8575 4.465 -4.5275 3.805 -4.1875 3.125 C-5.8375 2.795 -7.4875 2.465 -9.1875 2.125 C-5.66070901 -0.22619399 -4.15870515 -0.08943452 0 0 Z " fill="#F9ECC5" transform="translate(304.1875,115.875)"/>
<path d="M0 0 C1.12377697 3.30435084 0.89554742 5.0506862 -0.4375 8.25 C-0.72496094 8.95640625 -1.01242188 9.6628125 -1.30859375 10.390625 C-1.53675781 10.92171875 -1.76492187 11.4528125 -2 12 C-2.66 12 -3.32 12 -4 12 C-4.33 11.01 -4.66 10.02 -5 9 C-5.99 9 -6.98 9 -8 9 C-8 7.68 -8 6.36 -8 5 C-7.34 5 -6.68 5 -6 5 C-5.67 4.34 -5.34 3.68 -5 3 C-3.35 3 -1.7 3 0 3 C0 2.01 0 1.02 0 0 Z " fill="#9A7F5A" transform="translate(251,164)"/>
<path d="M0 0 C2.64 0 5.28 0 8 0 C8 4.62 8 9.24 8 14 C1.84765625 11.16796875 1.84765625 11.16796875 0 10 C-0.33 9.01 -0.66 8.02 -1 7 C-0.01 6.67 0.98 6.34 2 6 C4.6875 7.4375 4.6875 7.4375 7 9 C6.67 6.69 6.34 4.38 6 2 C3.03 1.505 3.03 1.505 0 1 C0 0.67 0 0.34 0 0 Z " fill="#D5BE8B" transform="translate(320,117)"/>
<path d="M0 0 C0.66 1.32 1.32 2.64 2 4 C3.32 3.34 4.64 2.68 6 2 C6.33 2.33 6.66 2.66 7 3 C7.66 2.01 8.32 1.02 9 0 C9 1.98 9 3.96 9 6 C9.66 6 10.32 6 11 6 C11 6.66 11 7.32 11 8 C9.35 8.33 7.7 8.66 6 9 C6 8.34 6 7.68 6 7 C5.34 7 4.68 7 4 7 C3.67 7.66 3.34 8.32 3 9 C2.67 8.34 2.34 7.68 2 7 C1.34 7.66 0.68 8.32 0 9 C0 6.03 0 3.06 0 0 Z " fill="#DFB974" transform="translate(273,143)"/>
<path d="M0 0 C0.83144531 0.2165625 0.83144531 0.2165625 1.6796875 0.4375 C2.40414063 0.623125 3.12859375 0.80875 3.875 1 C4.59429687 1.185625 5.31359375 1.37125 6.0546875 1.5625 C7.99289317 2.07313965 7.99289317 2.07313965 10 2 C10.33 1.34 10.66 0.68 11 0 C12.65 0 14.3 0 16 0 C14.71034824 1.37562854 13.37310707 2.70766393 12 4 C11.34 4 10.68 4 10 4 C9.67 4.99 9.34 5.98 9 7 C6.62051228 6.82374165 5.29774151 6.30280227 3.62109375 4.59765625 C2.37884514 3.09350908 1.18623944 1.54870149 0 0 Z " fill="#9C7D58" transform="translate(302,190)"/>
<path d="M0 0 C3 1.8125 3 1.8125 6 4 C6 4.99 6 5.98 6 7 C1.28400182 7.92470553 -1.67265609 8.22923777 -6 6 C-5.67 5.34 -5.34 4.68 -5 4 C-3.02 4 -1.04 4 1 4 C0.67 2.68 0.34 1.36 0 0 Z " fill="#B78840" transform="translate(389,262)"/>
<path d="M0 0 C2.31284456 0.14026283 4.62527591 0.28735558 6.9375 0.4375 C8.86916016 0.55931641 8.86916016 0.55931641 10.83984375 0.68359375 C14 1 14 1 15 2 C17.69235776 2.23678716 20.36498156 2.42198025 23.0625 2.5625 C24.20041992 2.62727539 24.20041992 2.62727539 25.36132812 2.69335938 C27.24065438 2.79973633 29.12030244 2.90039934 31 3 C31 3.33 31 3.66 31 4 C9.27659574 4.57446809 9.27659574 4.57446809 0 1 C0 0.67 0 0.34 0 0 Z " fill="#493923" transform="translate(280,260)"/>
<path d="M0 0 C0 0.99 0 1.98 0 3 C-2.12369237 3.36192504 -4.2490113 3.71431747 -6.375 4.0625 C-8.15003906 4.35833984 -8.15003906 4.35833984 -9.9609375 4.66015625 C-13 5 -13 5 -15 4 C-15 3.34 -15 2.68 -15 2 C-9.75614911 0.2520497 -5.52677733 -0.19392201 0 0 Z " fill="#BF8D3E" transform="translate(331,251)"/>
<path d="M0 0 C2.7839183 1.39195915 2.97898997 3.15575779 4 6 C0.32589215 7.17571451 -3.16929183 7.07366746 -7 7 C-6.67 5.35 -6.34 3.7 -6 2 C-3.03 2.495 -3.03 2.495 0 3 C0 2.01 0 1.02 0 0 Z " fill="#DCC7A3" transform="translate(302,170)"/>
<path d="M0 0 C0.33 0 0.66 0 1 0 C1.33 1.98 1.66 3.96 2 6 C2.66 5.67 3.32 5.34 4 5 C5.5625 7.8125 5.5625 7.8125 7 11 C6.67 11.99 6.34 12.98 6 14 C5.67 12.68 5.34 11.36 5 10 C4.01 10.495 4.01 10.495 3 11 C2.34227572 14.02934491 2.34227572 14.02934491 2 17 C1.67 17 1.34 17 1 17 C0.09586327 13.16275828 -0.10576898 9.62497726 -0.0625 5.6875 C-0.05347656 4.61886719 -0.04445313 3.55023438 -0.03515625 2.44921875 C-0.02355469 1.64097656 -0.01195312 0.83273438 0 0 Z " fill="#654C28" transform="translate(258,220)"/>
<path d="M0 0 C0.33 0 0.66 0 1 0 C1.33 3.3 1.66 6.6 2 10 C1.01 10.33 0.02 10.66 -1 11 C-1.33 10.34 -1.66 9.68 -2 9 C-2.99 9.33 -3.98 9.66 -5 10 C-5 8.02 -5 6.04 -5 4 C-4.0409375 3.8453125 -4.0409375 3.8453125 -3.0625 3.6875 C-2.381875 3.460625 -1.70125 3.23375 -1 3 C-0.67 2.01 -0.34 1.02 0 0 Z " fill="#BE8D3E" transform="translate(249,217)"/>
<path d="M0 0 C0.99 0 1.98 0 3 0 C3 3.63 3 7.26 3 11 C2.34 10.67 1.68 10.34 1 10 C0.34 10.66 -0.32 11.32 -1 12 C-1.02687279 10.18757948 -1.04633715 8.37504767 -1.0625 6.5625 C-1.07410156 5.55316406 -1.08570313 4.54382813 -1.09765625 3.50390625 C-1 1 -1 1 0 0 Z " fill="#8B6940" transform="translate(260,216)"/>
<path d="M0 0 C0.99 0.99 1.98 1.98 3 3 C3.33 2.34 3.66 1.68 4 1 C4 1.66 4 2.32 4 3 C5.32 2.01 6.64 1.02 8 0 C8 2.64 8 5.28 8 8 C7.67 7.34 7.34 6.68 7 6 C4.61435923 6.57584432 2.33317216 7.22227595 0 8 C0 5.36 0 2.72 0 0 Z " fill="#977B55" transform="translate(356,197)"/>
<path d="M0 0 C0.33 0 0.66 0 1 0 C1 6.93 1 13.86 1 21 C0.34 21 -0.32 21 -1 21 C-1.22212255 18.25048307 -1.42815588 15.50134388 -1.625 12.75 C-1.68945312 11.97269531 -1.75390625 11.19539062 -1.8203125 10.39453125 C-2.30707097 3.27568856 -2.30707097 3.27568856 0 0 Z " fill="#54422C" transform="translate(252,166)"/>
<path d="M0 0 C-0.33 1.32 -0.66 2.64 -1 4 C0.32 4.33 1.64 4.66 3 5 C3 5.99 3 6.98 3 8 C1.53932801 7.54917531 0.08151968 7.08906463 -1.375 6.625 C-2.18710938 6.36976562 -2.99921875 6.11453125 -3.8359375 5.8515625 C-6 5 -6 5 -8 3 C-5.48696401 0.48696401 -3.51117809 0 0 0 Z " fill="#F0D092" transform="translate(221,93)"/>
<path d="M0 0 C0 3.76603821 -1.07407243 4.77142649 -3.375 7.6875 C-4.00148438 8.49574219 -4.62796875 9.30398437 -5.2734375 10.13671875 C-5.84320313 10.75160156 -6.41296875 11.36648437 -7 12 C-7.66 12 -8.32 12 -9 12 C-9.33 10.68 -9.66 9.36 -10 8 C-9.34 7.67 -8.68 7.34 -8 7 C-8 7.66 -8 8.32 -8 9 C-7.34 9 -6.68 9 -6 9 C-5.896875 8.236875 -5.79375 7.47375 -5.6875 6.6875 C-4.9472899 3.79395144 -4.29010706 2.83208565 -2 1 C-1.34 0.67 -0.68 0.34 0 0 Z " fill="#967234" transform="translate(340,242)"/>
<path d="M0 0 C-0.33 1.98 -0.66 3.96 -1 6 C-1.99 6 -2.98 6 -4 6 C-4 5.34 -4 4.68 -4 4 C-4.66 4 -5.32 4 -6 4 C-6.33 4.66 -6.66 5.32 -7 6 C-7.33 4.35 -7.66 2.7 -8 1 C-4.93251126 -0.86240388 -3.40254489 -1.2151946 0 0 Z " fill="#E2D0AA" transform="translate(251,148)"/>
<path d="M0 0 C0.33 0.66 0.66 1.32 1 2 C2.32 2 3.64 2 5 2 C5.33 2.99 5.66 3.98 6 5 C5.01 5.99 4.02 6.98 3 8 C2.34 7.34 1.68 6.68 1 6 C0.01 6.495 0.01 6.495 -1 7 C-1.33 5.02 -1.66 3.04 -2 1 C-1.34 0.67 -0.68 0.34 0 0 Z " fill="#B79D75" transform="translate(358,187)"/>
<path d="M0 0 C0.66 1.32 1.32 2.64 2 4 C2.99 4 3.98 4 5 4 C5 4.99 5 5.98 5 7 C4.34 7 3.68 7 3 7 C2.67 7.66 2.34 8.32 2 9 C0.68 8.67 -0.64 8.34 -2 8 C-2.20086443 4.28400809 -2.1519437 3.22791555 0 0 Z " fill="#D9A54B" transform="translate(277,135)"/>
<path d="M0 0 C0.66 0.33 1.32 0.66 2 1 C1.67 1.66 1.34 2.32 1 3 C2.32 3.33 3.64 3.66 5 4 C5 4.66 5 5.32 5 6 C1.66666667 6 -1.66666667 6 -5 6 C-5 5.01 -5 4.02 -5 3 C-2.625 1.25 -2.625 1.25 0 0 Z " fill="#D39A41" transform="translate(329,245)"/>
<path d="M0 0 C1.32 0.33 2.64 0.66 4 1 C4.33 4.3 4.66 7.6 5 11 C4.34 11 3.68 11 3 11 C0.84694043 7.14243493 -0.39253254 4.44870215 0 0 Z " fill="#B38B48" transform="translate(261,235)"/>
<path d="M0 0 C0.33 0 0.66 0 1 0 C2.27766314 7.20137405 1.52686664 12.16175638 -1 19 C-1.33 19 -1.66 19 -2 19 C-1.85913398 16.39547729 -1.71251536 13.79149803 -1.5625 11.1875 C-1.50352539 10.08051758 -1.50352539 10.08051758 -1.44335938 8.95117188 C-1.25618965 5.76928658 -1.01279207 3.03837622 0 0 Z " fill="#4E3B25" transform="translate(345,218)"/>
<path d="M0 0 C0.99 0 1.98 0 3 0 C3 0.66 3 1.32 3 2 C4.65 1.34 6.3 0.68 8 0 C8 1.98 8 3.96 8 6 C6.68 5.67 5.36 5.34 4 5 C4 4.34 4 3.68 4 3 C3.34 3 2.68 3 2 3 C1.67 3.99 1.34 4.98 1 6 C0.67 4.02 0.34 2.04 0 0 Z " fill="#C4AE88" transform="translate(243,155)"/>
<path d="M0 0 C1.32 1.32 2.64 2.64 4 4 C5.32 2.68 6.64 1.36 8 0 C7.67 2.64 7.34 5.28 7 8 C5.35 8 3.7 8 2 8 C2 7.34 2 6.68 2 6 C1.34 6 0.68 6 0 6 C0 4.02 0 2.04 0 0 Z " fill="#DEB76F" transform="translate(356,144)"/>
<path d="M0 0 C0.33 0 0.66 0 1 0 C1.45293073 8.90763766 1.45293073 8.90763766 -2 13 C-2.99 13 -3.98 13 -5 13 C-5.33 11.35 -5.66 9.7 -6 8 C-4.68 8 -3.36 8 -2 8 C-1.34 5.36 -0.68 2.72 0 0 Z " fill="#DAAE5F" transform="translate(363,136)"/>
<path d="M0 0 C1.79093191 -0.08086147 3.58289628 -0.13912702 5.375 -0.1875 C6.87160156 -0.23970703 6.87160156 -0.23970703 8.3984375 -0.29296875 C9.25695312 -0.19628906 10.11546875 -0.09960938 11 0 C11.66 0.99 12.32 1.98 13 3 C11.39592672 3.02708567 9.7917215 3.04643483 8.1875 3.0625 C6.84751953 3.07990234 6.84751953 3.07990234 5.48046875 3.09765625 C3 3 3 3 0 2 C0 1.34 0 0.68 0 0 Z " fill="#D2CCB2" transform="translate(340,113)"/>
<path d="M0 0 C0.66 0 1.32 0 2 0 C2.69710731 1.28650706 3.38242876 2.57940665 4.0625 3.875 C4.63677734 4.95394531 4.63677734 4.95394531 5.22265625 6.0546875 C5.47917969 6.69664062 5.73570312 7.33859375 6 8 C5.67 8.66 5.34 9.32 5 10 C3.5 8.625 3.5 8.625 2 7 C2 6.34 2 5.68 2 5 C1.34 5 0.68 5 0 5 C0 6.65 0 8.3 0 10 C-0.33 10 -0.66 10 -1 10 C-1.02689216 8.52093108 -1.04634621 7.04172517 -1.0625 5.5625 C-1.07410156 4.73878906 -1.08570313 3.91507813 -1.09765625 3.06640625 C-1 1 -1 1 0 0 Z " fill="#886835" transform="translate(261,230)"/>
<path d="M0 0 C0.33 0.66 0.66 1.32 1 2 C3.31 2 5.62 2 8 2 C7.67 3.32 7.34 4.64 7 6 C5.35 6 3.7 6 2 6 C1.67 6.66 1.34 7.32 1 8 C-0.35439668 5.29120665 -0.06501451 2.99066732 0 0 Z " fill="#DECAA6" transform="translate(356,176)"/>
<path d="M0 0 C0.66 0.33 1.32 0.66 2 1 C0.1875 3.5 0.1875 3.5 -2 6 C-2.99 6 -3.98 6 -5 6 C-5.66 7.32 -6.32 8.64 -7 10 C-7.66 10 -8.32 10 -9 10 C-8.62669176 7.27425729 -8.20805399 6.19177915 -6.15234375 4.296875 C-5.42144531 3.78640625 -4.69054687 3.2759375 -3.9375 2.75 C-3.20402344 2.22921875 -2.47054688 1.7084375 -1.71484375 1.171875 C-1.14894531 0.78515625 -0.58304687 0.3984375 0 0 Z " fill="#C2B288" transform="translate(289,118)"/>
<path d="M0 0 C1.7074998 1.28062485 3.37373596 2.61767557 5 4 C5 4.66 5 5.32 5 6 C5.66 6 6.32 6 7 6 C7 6.66 7 7.32 7 8 C7.66 8 8.32 8 9 8 C9 8.66 9 9.32 9 10 C5.49849196 9.70820766 4.21713533 9.21713533 1.6875 6.6875 C0 4 0 4 0 0 Z " fill="#AD9D7D" transform="translate(287,154)"/>
<path d="M0 0 C0 0.99 0 1.98 0 3 C0.99 2.67 1.98 2.34 3 2 C3 2.99 3 3.98 3 5 C2.01 5 1.02 5 0 5 C-0.33 5.66 -0.66 6.32 -1 7 C-1.99 7 -2.98 7 -4 7 C-4.33 5.35 -4.66 3.7 -5 2 C-2 0 -2 0 0 0 Z " fill="#EDD097" transform="translate(361,155)"/>
<path d="M0 0 C-0.99 0 -1.98 0 -3 0 C-3 0.66 -3 1.32 -3 2 C-0.36 2 2.28 2 5 2 C5 2.33 5 2.66 5 3 C0.38 3.33 -4.24 3.66 -9 4 C-8 1 -8 1 -6.1875 -0.25 C-3.66056586 -1.11637742 -2.47778006 -0.88492145 0 0 Z " fill="#968F76" transform="translate(191,89)"/>
<path d="M0 0 C0.33 0.99 0.66 1.98 1 3 C-0.32 3 -1.64 3 -3 3 C-3 2.34 -3 1.68 -3 1 C-3.66 1 -4.32 1 -5 1 C-5 1.66 -5 2.32 -5 3 C-6.32 2.67 -7.64 2.34 -9 2 C-9.33 2.66 -9.66 3.32 -10 4 C-10 2.68 -10 1.36 -10 0 C-6.30581799 -1.231394 -3.7943739 -0.64432764 0 0 Z " fill="#F4DAA6" transform="translate(290,160)"/>
<path d="M0 0 C3 1.8125 3 1.8125 6 4 C6 4.99 6 5.98 6 7 C4.68 7.33 3.36 7.66 2 8 C2 7.01 2 6.02 2 5 C0.68 4.34 -0.64 3.68 -2 3 C-1.34 2.01 -0.68 1.02 0 0 Z " fill="#E3CFA2" transform="translate(263,131)"/>
<path d="M0 0 C0.33 0 0.66 0 1 0 C1 4.62 1 9.24 1 14 C0.67 14 0.34 14 0 14 C0 12.02 0 10.04 0 8 C-0.99 8.33 -1.98 8.66 -3 9 C-3.66 7.68 -4.32 6.36 -5 5 C-4.34 5 -3.68 5 -3 5 C-2.67 4.34 -2.34 3.68 -2 3 C-1.67 3.66 -1.34 4.32 -1 5 C-0.67 3.35 -0.34 1.7 0 0 Z " fill="#A87D40" transform="translate(250,208)"/>
<path d="M0 0 C0.33 1.32 0.66 2.64 1 4 C1.33 3.34 1.66 2.68 2 2 C4 2 6 2 8 2 C7.67 3.32 7.34 4.64 7 6 C1.5 6.36666667 1.5 6.36666667 -0.875 4.625 C-2 3 -2 3 -2 1 C-1.34 0.67 -0.68 0.34 0 0 Z " fill="#C5B697" transform="translate(287,170)"/>
<path d="M0 0 C0 0.33 0 0.66 0 1 C-0.825 1.20625 -1.65 1.4125 -2.5 1.625 C-6.95935597 3.37688985 -10.29553846 6.01010465 -14 9 C-14 7.68 -14 6.36 -14 5 C-13.01 5 -12.02 5 -11 5 C-11 4.34 -11 3.68 -11 3 C-7.63966885 -0.4947444 -4.66111848 -0.26891068 0 0 Z " fill="#9E8B69" transform="translate(300,122)"/>
<path d="M0 0 C0.66 0 1.32 0 2 0 C2 0.66 2 1.32 2 2 C4.97 2.495 4.97 2.495 8 3 C7.21654285 4.17219543 6.42297164 5.33763668 5.625 6.5 C5.18414062 7.1496875 4.74328125 7.799375 4.2890625 8.46875 C3.86367188 8.9740625 3.43828125 9.479375 3 10 C2.34 10 1.68 10 1 10 C1 9.34 1 8.68 1 8 C1.66 8 2.32 8 3 8 C2.690625 7.4225 2.38125 6.845 2.0625 6.25 C1.07416636 4.15705816 0.4831387 2.25464725 0 0 Z " fill="#C3B18A" transform="translate(362,114)"/>
<path d="M0 0 C1.65 1.32 3.3 2.64 5 4 C4.67 4.66 4.34 5.32 4 6 C1.03 5.67 -1.94 5.34 -5 5 C-4.67 4.34 -4.34 3.68 -4 3 C-2.68 3 -1.36 3 0 3 C0 2.01 0 1.02 0 0 Z " fill="#9A7534" transform="translate(377,250)"/>
<path d="M0 0 C0.33 0.66 0.66 1.32 1 2 C0.0625 4.625 0.0625 4.625 -1 7 C-3.64 7.33 -6.28 7.66 -9 8 C-7.88625 7.13375 -7.88625 7.13375 -6.75 6.25 C-4.33912357 4.27746474 -2.15957299 2.23955718 0 0 Z " fill="#8C6D36" transform="translate(324,245)"/>
<path d="M0 0 C0.66 0 1.32 0 2 0 C2.66 1.98 3.32 3.96 4 6 C3.071875 5.835 2.14375 5.67 1.1875 5.5 C-1.95621353 4.92251612 -1.95621353 4.92251612 -5 5 C-4.67 3.68 -4.34 2.36 -4 1 C-2.02 1.495 -2.02 1.495 0 2 C0 1.34 0 0.68 0 0 Z " fill="#EBD098" transform="translate(285,154)"/>
<path d="M0 0 C2.97 0.495 2.97 0.495 6 1 C6 1.66 6 2.32 6 3 C6.66 3 7.32 3 8 3 C7.67 3.99 7.34 4.98 7 6 C4.03 5.505 4.03 5.505 1 5 C0.67 3.35 0.34 1.7 0 0 Z " fill="#ECD9B5" transform="translate(356,173)"/>
<path d="M0 0 C0.33 0.66 0.66 1.32 1 2 C-2.63 2.66 -6.26 3.32 -10 4 C-9.67 2.68 -9.34 1.36 -9 0 C-5.88173308 -1.55913346 -3.32926126 -0.66585225 0 0 Z " fill="#EFDCA8" transform="translate(299,120)"/>
<path d="M0 0 C4.75 0.875 4.75 0.875 7 2 C7 1.34 7 0.68 7 0 C7.66 0.33 8.32 0.66 9 1 C9 3.64 9 6.28 9 9 C8.34 9 7.68 9 7 9 C6.6596875 7.88625 6.6596875 7.88625 6.3125 6.75 C4.75592468 3.48860409 2.91481146 2.07105025 0 0 Z " fill="#A79575" transform="translate(347,116)"/>
<path d="M0 0 C0.33 1.65 0.66 3.3 1 5 C0.01 4.67 -0.98 4.34 -2 4 C-2.33 4.66 -2.66 5.32 -3 6 C-4.32 4.02 -5.64 2.04 -7 0 C-4.3333581 -1.33332095 -2.83319697 -0.67102033 0 0 Z " fill="#BC9044" transform="translate(235,110)"/>
<path d="M0 0 C2 2 2 2 2 6 C-0.31 5.67 -2.62 5.34 -5 5 C-4.67 3.68 -4.34 2.36 -4 1 C-2.02 1.495 -2.02 1.495 0 2 C0 1.34 0 0.68 0 0 Z " fill="#BC8C3F" transform="translate(249,232)"/>
<path d="M0 0 C1.625 1.625 1.625 1.625 3 4 C2.3007918 6.91336749 1.33508269 9.32983461 0 12 C0.66 12.33 1.32 12.66 2 13 C1.01 13 0.02 13 -1 13 C-1.0272415 11.58344207 -1.04650467 10.16672955 -1.0625 8.75 C-1.07410156 7.96109375 -1.08570313 7.1721875 -1.09765625 6.359375 C-1.00385306 4.09308998 -0.63241063 2.1711105 0 0 Z " fill="#9C743A" transform="translate(245,200)"/>
<path d="M0 0 C3.36720387 1.39332574 4.9859524 2.9789286 7 6 C5.0085944 6.38133299 3.00720923 6.71325582 1 7 C0 6 0 6 -0.0625 2.9375 C-0.041875 1.968125 -0.02125 0.99875 0 0 Z " fill="#DED3B5" transform="translate(295,164)"/>
<path d="M0 0 C0.66 0 1.32 0 2 0 C2 0.66 2 1.32 2 2 C2.66 2 3.32 2 4 2 C4 1.34 4 0.68 4 0 C5.32 0 6.64 0 8 0 C8 0.99 8 1.98 8 3 C5.36 3.66 2.72 4.32 0 5 C0 3.35 0 1.7 0 0 Z " fill="#A88D6A" transform="translate(243,164)"/>
<path d="M0 0 C1.65 0 3.3 0 5 0 C5.66 1.32 6.32 2.64 7 4 C6.01 4.33 5.02 4.66 4 5 C3.67 4.34 3.34 3.68 3 3 C2.01 3.99 1.02 4.98 0 6 C-1.125 2.25 -1.125 2.25 0 0 Z " fill="#E9CD8C" transform="translate(357,122)"/>
<path d="M0 0 C0.99 0.66 1.98 1.32 3 2 C3 3.32 3 4.64 3 6 C0.69 6.33 -1.62 6.66 -4 7 C-2.68 4.69 -1.36 2.38 0 0 Z " fill="#AC7F3D" transform="translate(374,247)"/>
<path d="M0 0 C0.33 0 0.66 0 1 0 C1.0825 1.216875 1.165 2.43375 1.25 3.6875 C1.73758372 7.78465871 3.09510536 10.00139908 6 13 C4 13 2 13 0 13 C0 8.71 0 4.42 0 0 Z " fill="#4E3920" transform="translate(252,231)"/>
<path d="M0 0 C0.33 0 0.66 0 1 0 C1.04898438 0.90363281 1.09796875 1.80726563 1.1484375 2.73828125 C1.22320312 3.91777344 1.29796875 5.09726563 1.375 6.3125 C1.44460937 7.48425781 1.51421875 8.65601563 1.5859375 9.86328125 C1.78613747 13.15699887 1.78613747 13.15699887 4 16 C3.34 16.33 2.68 16.66 2 17 C1.01 16.67 0.02 16.34 -1 16 C-0.67 10.72 -0.34 5.44 0 0 Z " fill="#5E4422" transform="translate(242,227)"/>
<path d="M0 0 C0.99 0.33 1.98 0.66 3 1 C3.8125 2.9375 3.8125 2.9375 4 5 C3.34 5.66 2.68 6.32 2 7 C1.67 6.34 1.34 5.68 1 5 C0.01 5.33 -0.98 5.66 -2 6 C-1.125 1.125 -1.125 1.125 0 0 Z " fill="#9A7539" transform="translate(332,231)"/>
<path d="M0 0 C0.99 0.33 1.98 0.66 3 1 C3.33 4.63 3.66 8.26 4 12 C3.01 12.33 2.02 12.66 1 13 C1.01160156 12.39671875 1.02320313 11.7934375 1.03515625 11.171875 C1.04417969 10.37265625 1.05320312 9.5734375 1.0625 8.75 C1.07410156 7.96109375 1.08570313 7.1721875 1.09765625 6.359375 C1.00385306 4.09308998 0.63241063 2.1711105 0 0 Z " fill="#604D29" transform="translate(330,219)"/>
<path d="M0 0 C0.66 0.33 1.32 0.66 2 1 C2.625 3.5625 2.625 3.5625 3 6 C0.69 6.66 -1.62 7.32 -4 8 C-4.33 7.01 -4.66 6.02 -5 5 C-4.360625 4.690625 -3.72125 4.38125 -3.0625 4.0625 C-1.06389179 3.1654837 -1.06389179 3.1654837 0 2 C0 1.34 0 0.68 0 0 Z " fill="#E5BD7A" transform="translate(251,119)"/>
<path d="M0 0 C1.32 0 2.64 0 4 0 C4 1.32 4 2.64 4 4 C0.7 4 -2.6 4 -6 4 C-5.67 3.34 -5.34 2.68 -5 2 C-3.67696283 1.6278958 -2.34262065 1.29369827 -1 1 C-0.67 0.67 -0.34 0.34 0 0 Z " fill="#F3E5B7" transform="translate(305,117)"/>
<path d="M0 0 C3.375 -0.1875 3.375 -0.1875 7 0 C7.66 0.99 8.32 1.98 9 3 C7.35 3 5.7 3 4 3 C3.67 3.66 3.34 4.32 3 5 C3 4.34 3 3.68 3 3 C2.01 2.67 1.02 2.34 0 2 C0 1.34 0 0.68 0 0 Z " fill="#D59D44" transform="translate(235,110)"/>
<path d="M0 0 C2.3125 -0.1875 2.3125 -0.1875 5 0 C6.5 1.375 6.5 1.375 8 3 C10.59915538 4.19027984 10.59915538 4.19027984 13 5 C10.58292094 5.85276722 9.35996549 6.12087895 6.89453125 5.29296875 C6.20746094 4.92816406 5.52039063 4.56335938 4.8125 4.1875 C4.11769531 3.83042969 3.42289062 3.47335937 2.70703125 3.10546875 C1 2 1 2 0 0 Z " fill="#67512C" transform="translate(382,270)"/>
<path d="M0 0 C0.99 0.33 1.98 0.66 3 1 C3.33 2.98 3.66 4.96 4 7 C2.35 6.67 0.7 6.34 -1 6 C-0.67 4.02 -0.34 2.04 0 0 Z " fill="#97723C" transform="translate(277,251)"/>
<path d="M0 0 C0.66 0.33 1.32 0.66 2 1 C2.99 0.67 3.98 0.34 5 0 C3.92598892 2.91517292 3.22189824 4.77810176 1 7 C0.01 6.01 -0.98 5.02 -2 4 C-1.34 2.68 -0.68 1.36 0 0 Z " fill="#55472C" transform="translate(265,203)"/>
<path d="M0 0 C0.66 0 1.32 0 2 0 C2.33 0.99 2.66 1.98 3 3 C1 5 1 5 -2.125 5.125 C-3.548125 5.063125 -3.548125 5.063125 -5 5 C-4.67 3.68 -4.34 2.36 -4 1 C-2.02 1.495 -2.02 1.495 0 2 C0 1.34 0 0.68 0 0 Z " fill="#F8E3B6" transform="translate(285,161)"/>
<path d="M0 0 C1.14926266 0.95421808 2.29430541 1.91352045 3.4375 2.875 C4.07558594 3.40867187 4.71367187 3.94234375 5.37109375 4.4921875 C7 6 7 6 8 8 C6.35 8 4.7 8 3 8 C2.34 6.68 1.68 5.36 1 4 C0.34 4 -0.32 4 -1 4 C-0.67 2.68 -0.34 1.36 0 0 Z " fill="#A18555" transform="translate(250,116)"/>
<path d="M0 0 C0.33 0.99 0.66 1.98 1 3 C-2.69541586 3.95024979 -5.30458414 3.95024979 -9 3 C-6.15236477 0.15236477 -3.96383452 0 0 0 Z " fill="#F7E3B6" transform="translate(216,89)"/>
<path d="M0 0 C0.66 0.33 1.32 0.66 2 1 C1.67 1.99 1.34 2.98 1 4 C-2.96 3.67 -6.92 3.34 -11 3 C-11 2.67 -11 2.34 -11 2 C-9.54263913 1.80508548 -8.08405407 1.61930642 -6.625 1.4375 C-5.81289062 1.33308594 -5.00078125 1.22867188 -4.1640625 1.12109375 C-2 1 -2 1 0 2 C0 1.34 0 0.68 0 0 Z " fill="#584728" transform="translate(257,244)"/>
<path d="M0 0 C0.66 0.33 1.32 0.66 2 1 C0.89300099 4.21029714 -0.01603825 5.00968977 -3 6.8125 C-3.99 7.204375 -4.98 7.59625 -6 8 C-6.66 7.67 -7.32 7.34 -8 7 C-7.67 6.34 -7.34 5.68 -7 5 C-6.195625 4.87625 -5.39125 4.7525 -4.5625 4.625 C-1.84016601 4.27432836 -1.84016601 4.27432836 -0.6875 1.9375 C-0.460625 1.298125 -0.23375 0.65875 0 0 Z " fill="#C38F46" transform="translate(332,240)"/>
<path d="M0 0 C0 0.66 0 1.32 0 2 C-1.98 2.33 -3.96 2.66 -6 3 C-6 3.66 -6 4.32 -6 5 C-6.66 5 -7.32 5 -8 5 C-8 3.35 -8 1.7 -8 0 C-2.25 -1.125 -2.25 -1.125 0 0 Z " fill="#CEB993" transform="translate(364,182)"/>
<path d="M0 0 C0 1.65 0 3.3 0 5 C-1.98 5 -3.96 5 -6 5 C-6 4.01 -6 3.02 -6 2 C-2.25 0 -2.25 0 0 0 Z " fill="#D6A146" transform="translate(363,135)"/>
<path d="M0 0 C0.33 0.66 0.66 1.32 1 2 C1.99 2 2.98 2 4 2 C4.33 3.98 4.66 5.96 5 8 C4.34 8 3.68 8 3 8 C3 7.34 3 6.68 3 6 C2.01 5.67 1.02 5.34 0 5 C0 3.35 0 1.7 0 0 Z " fill="#E4BB77" transform="translate(239,118)"/>
<path d="M0 0 C2.64 0 5.28 0 8 0 C8 0.66 8 1.32 8 2 C4.7 2.66 1.4 3.32 -2 4 C-1.34 2.68 -0.68 1.36 0 0 Z " fill="#A09A85" transform="translate(372,113)"/>
<path d="M0 0 C3.35595828 0.59927826 5.37801226 1.84622436 8 4 C5.125 4.625 5.125 4.625 2 5 C1.34 4.34 0.68 3.68 0 3 C0 2.01 0 1.02 0 0 Z " fill="#BE8D3C" transform="translate(367,252)"/>
<path d="M0 0 C0.66 0.66 1.32 1.32 2 2 C1.625 4.625 1.625 4.625 1 7 C-0.65 7.33 -2.3 7.66 -4 8 C-2.68 5.36 -1.36 2.72 0 0 Z " fill="#8C6E38" transform="translate(329,237)"/>
<path d="M0 0 C2.04119788 1.61594832 4.04072937 3.2856382 6 5 C6 5.66 6 6.32 6 7 C5.01 7.33 4.02 7.66 3 8 C2.67 7.34 2.34 6.68 2 6 C1.34 6 0.68 6 0 6 C0 4.02 0 2.04 0 0 Z " fill="#664E2F" transform="translate(336,205)"/>
<path d="M0 0 C2.31 0.33 4.62 0.66 7 1 C6 3 6 3 5 4 C3.67405895 4.36162029 2.34061543 4.69728039 1 5 C0.67 3.35 0.34 1.7 0 0 Z " fill="#F7E7B8" transform="translate(312,117)"/>
<path d="M0 0 C2.31 0.33 4.62 0.66 7 1 C6.67 1.99 6.34 2.98 6 4 C4.35 4.33 2.7 4.66 1 5 C0.67 3.35 0.34 1.7 0 0 Z " fill="#F8E6B6" transform="translate(355,114)"/>
<path d="M0 0 C2 0 4 0 6 0 C6.33 0.99 6.66 1.98 7 3 C6.01 3.33 5.02 3.66 4 4 C3.67 4.66 3.34 5.32 3 6 C0 1.125 0 1.125 0 0 Z " fill="#C99F53" transform="translate(232,113)"/>
<path d="M0 0 C1.65 0 3.3 0 5 0 C6 3 6 3 5 6 C3.0625 5.25 3.0625 5.25 1 4 C0.25 1.875 0.25 1.875 0 0 Z " fill="#DAA74F" transform="translate(239,113)"/>
<path d="M0 0 C2.31 0.33 4.62 0.66 7 1 C7.33 2.98 7.66 4.96 8 7 C6.66382648 6.02471263 5.3311249 5.04466681 4 4.0625 C3.2575 3.51722656 2.515 2.97195312 1.75 2.41015625 C1.1725 1.94480469 0.595 1.47945313 0 1 C0 0.67 0 0.34 0 0 Z " fill="#B09C6D" transform="translate(213,97)"/>
<path d="M0 0 C2.1640625 0.0234375 2.1640625 0.0234375 4.625 0.375 C5.85089844 0.54128906 5.85089844 0.54128906 7.1015625 0.7109375 C7.72804688 0.80632812 8.35453125 0.90171875 9 1 C5.78372163 3.14418558 3.80909895 3.67582137 0 4 C-0.66 3.34 -1.32 2.68 -2 2 C-1.34 1.34 -0.68 0.68 0 0 Z " fill="#C69444" transform="translate(380,264)"/>
<path d="M0 0 C4.29 0 8.58 0 13 0 C13 0.33 13 0.66 13 1 C11.20994059 1.36220266 9.41787943 1.71452469 7.625 2.0625 C6.12839844 2.35833984 6.12839844 2.35833984 4.6015625 2.66015625 C2 3 2 3 0 2 C0 1.34 0 0.68 0 0 Z " fill="#B28340" transform="translate(316,253)"/>
<path d="M0 0 C3.875 1.75 3.875 1.75 5 4 C0.25 5.125 0.25 5.125 -2 4 C-1.34 2.68 -0.68 1.36 0 0 Z " fill="#CC9D4D" transform="translate(269,246)"/>
<path d="M0 0 C2.31 0 4.62 0 7 0 C7 1.65 7 3.3 7 5 C6.01 4.34 5.02 3.68 4 3 C1.88719655 2.36707617 1.88719655 2.36707617 0 2 C0 1.34 0 0.68 0 0 Z " fill="#F7E2B8" transform="translate(320,118)"/>
<path d="M0 0 C2.64 1.98 5.28 3.96 8 6 C7.34 6.66 6.68 7.32 6 8 C1.125 4.5 1.125 4.5 0 0 Z " fill="#B4966E" transform="translate(229,96)"/>
<path d="M0 0 C0.66 0 1.32 0 2 0 C2 0.66 2 1.32 2 2 C3.65 2 5.3 2 7 2 C7.33 2.66 7.66 3.32 8 4 C5.125 4.625 5.125 4.625 2 5 C1.34 4.34 0.68 3.68 0 3 C0 2.01 0 1.02 0 0 Z " fill="#956C32" transform="translate(244,238)"/>
<path d="M0 0 C1.98 0.66 3.96 1.32 6 2 C6.33 3.65 6.66 5.3 7 7 C5.83040013 6.02433888 4.66438823 5.044375 3.5 4.0625 C2.8503125 3.51722656 2.200625 2.97195312 1.53125 2.41015625 C1.0259375 1.94480469 0.520625 1.47945312 0 1 C0 0.67 0 0.34 0 0 Z " fill="#63513B" transform="translate(302,190)"/>
<path d="M0 0 C1.98 0 3.96 0 6 0 C6.33 1.65 6.66 3.3 7 5 C6.01 5 5.02 5 4 5 C1.8125 2.5 1.8125 2.5 0 0 Z " fill="#9C8E71" transform="translate(293,180)"/>
<path d="M0 0 C0.66 0 1.32 0 2 0 C2.33 0.99 2.66 1.98 3 3 C2.34 3 1.68 3 1 3 C1 3.66 1 4.32 1 5 C-0.65 5.33 -2.3 5.66 -4 6 C-4 5.01 -4 4.02 -4 3 C-3.01 2.67 -2.02 2.34 -1 2 C-0.67 1.34 -0.34 0.68 0 0 Z " fill="#E7C37E" transform="translate(283,125)"/>
<path d="M0 0 C0.66 0 1.32 0 2 0 C2 0.66 2 1.32 2 2 C2.639375 2.28875 3.27875 2.5775 3.9375 2.875 C6 4 6 4 7 6 C5.35 5.67 3.7 5.34 2 5 C2 4.34 2 3.68 2 3 C1.01 3 0.02 3 -1 3 C-0.67 2.01 -0.34 1.02 0 0 Z " fill="#8E7236" transform="translate(382,256)"/>
<path d="M0 0 C0.66 0.33 1.32 0.66 2 1 C0.25 3 0.25 3 -2 5 C-3.32 5 -4.64 5 -6 5 C-6 4.34 -6 3.68 -6 3 C-5.01 3 -4.02 3 -3 3 C-3 2.34 -3 1.68 -3 1 C-2.01 0.67 -1.02 0.34 0 0 Z " fill="#7B5F35" transform="translate(313,253)"/>
<path d="M0 0 C0.99 0.33 1.98 0.66 3 1 C2.74438677 3.3431213 2.40729228 5.67843403 2 8 C1.01 8.495 1.01 8.495 0 9 C0 6.03 0 3.06 0 0 Z " fill="#9F6F3B" transform="translate(334,221)"/>
<path d="M0 0 C2.375 0.25 2.375 0.25 5 1 C6.1875 2.9375 6.1875 2.9375 7 5 C7.66 5.66 8.32 6.32 9 7 C6 7 6 7 4.39453125 5.46875 C3.87246094 4.8190625 3.35039062 4.169375 2.8125 3.5 C2.28269531 2.8503125 1.75289063 2.200625 1.20703125 1.53125 C0.80871094 1.0259375 0.41039062 0.520625 0 0 Z " fill="#614A2F" transform="translate(312,200)"/>
<path d="M0 0 C-2.63904371 1.41377341 -5.07120629 2.37240135 -8 3 C-8.66 2.01 -9.32 1.02 -10 0 C-3.375 -1.125 -3.375 -1.125 0 0 Z " fill="#9F783B" transform="translate(277,250)"/>
<path d="M0 0 C3 0 3 0 5 1 C4.67 1.99 4.34 2.98 4 4 C2.35 4.33 0.7 4.66 -1 5 C-0.67 3.35 -0.34 1.7 0 0 Z " fill="#BE8D44" transform="translate(336,239)"/>
<path d="M0 0 C3 2 3 2 3.6875 4.625 C3.790625 5.40875 3.89375 6.1925 4 7 C3.01 7.33 2.02 7.66 1 8 C0.01 7.34 -0.98 6.68 -2 6 C-1.01 5.67 -0.02 5.34 1 5 C0.67 3.35 0.34 1.7 0 0 Z " fill="#BBAA8B" transform="translate(304,172)"/>
<path d="M0 0 C3.65316671 1.24976756 4.78065836 1.67098753 7 5 C5.02 5 3.04 5 1 5 C0.67 3.35 0.34 1.7 0 0 Z " fill="#DBCCA7" transform="translate(216,89)"/>
<path d="M0 0 C2.97 1.98 2.97 1.98 6 4 C5.67 4.66 5.34 5.32 5 6 C3.68 5.67 2.36 5.34 1 5 C0.67 3.35 0.34 1.7 0 0 Z " fill="#8E6E32" transform="translate(389,262)"/>
<path d="M0 0 C0 1.65 0 3.3 0 5 C-1.9375 4.625 -1.9375 4.625 -4 4 C-4.33 3.34 -4.66 2.68 -5 2 C-2 0 -2 0 0 0 Z " fill="#7A623F" transform="translate(314,195)"/>
<path d="M0 0 C0.33 0 0.66 0 1 0 C1 2.31 1 4.62 1 7 C0.34 7 -0.32 7 -1 7 C-1.33 7.66 -1.66 8.32 -2 9 C-1.125 2.25 -1.125 2.25 0 0 Z " fill="#624F3B" transform="translate(252,166)"/>
</svg>
