<svg id="Layer_1" data-name="Layer 1" xmlns="http://www.w3.org/2000/svg" viewBox="0 0 217.05 210.57"><defs><style>.cls-1{fill:#f9f9fa;}.cls-2{fill:#2a5b6d;}.cls-3{fill:#366a85;}.cls-4{fill:#fff;}.cls-5{fill:#89d0ce;}.cls-6{fill:#67c6c5;}.cls-7{fill:#1195a3;}.cls-8{fill:#e0e0ea;}.cls-9{fill:#eaf6f2;}.cls-10{fill:#1ea7bf;}.cls-11{fill:#124b59;}.cls-12{fill:#e1e1eb;}.cls-13{fill:#f2b92b;}.cls-14{fill:#666664;}.cls-15{fill:#d09d2a;}.cls-16{fill:#efeded;}.cls-17{fill:#3c444f;}.cls-18{fill:#c74e4f;}.cls-19{fill:#b83837;}.cls-20{fill:#d7d7d7;}.cls-21{fill:#e5e8e7;}.cls-22{fill:#2c3c4b;}.cls-23{fill:#71bdc4;}.cls-24{fill:#e26a5d;}.cls-25{fill:#db4744;}.cls-26{fill:#3c454f;}.cls-27{fill:#f39226;}.cls-28{fill:#6bcbd6;}</style></defs><path class="cls-1" d="M276.3,137.75l1.68,0c.28,0,.58,0,.94,0l1.15,0,1.36.06,1.53.1c2.18.16,4.86.42,8,.92a93.7,93.7,0,0,1,10.61,2.31c.25.07.5.13.74.21l.75.22,1.52.46c1,.34,2.06.66,3.12,1.05s2.13.79,3.23,1.21,2.2.89,3.32,1.39a95.06,95.06,0,0,1,27.93,18.9A95.51,95.51,0,0,1,354.9,180a98,98,0,0,1,5.39,9.19,94.25,94.25,0,0,1,4.46,10.11,91.77,91.77,0,0,1,3.33,10.93c.23.94.43,1.89.63,2.85.11.47.19.95.29,1.43s.18,1,.26,1.45l.24,1.46.12.73.1.73c.07.49.14,1,.2,1.47s.12,1,.17,1.49c.12,1,.2,2,.29,3,0,.5.06,1,.1,1.5s.06,1,.08,1.51l.06,1.51,0,.76v.76l0,1.53V234c0,1-.06,2-.1,3.07,0,.52-.06,1-.09,1.54s-.06,1-.11,1.54c-.1,1-.18,2.07-.31,3.1-.06.51-.12,1-.19,1.55s-.15,1-.22,1.55-.16,1-.24,1.55l-.27,1.55c-.21,1-.39,2.07-.63,3.09-.43,2.07-1,4.12-1.56,6.17-.31,1-.61,2-.95,3.07s-.69,2-1.05,3c-.18.5-.38,1-.57,1.51l-.29.75c-.1.26-.21.5-.31.75l-.62,1.5c-.22.5-.44,1-.65,1.49A94.65,94.65,0,0,1,328.34,311a93.47,93.47,0,0,1-24.79,11.6,92.08,92.08,0,0,1-13.48,3l-1.71.23-1.72.2-.86.09-.86.07c-.57.05-1.15.11-1.72.14l-1.73.11-1.73.07c-.58,0-1.15,0-1.73,0l-1.74,0-1.71,0c-.29,0-.57,0-.86,0l-.87,0c-.58,0-1.16,0-1.73-.08l-1.73-.12c-.57,0-1.15-.1-1.72-.15l-.86-.08c-.29,0-.57-.06-.86-.09l-1.72-.21-1.71-.24a94,94,0,0,1-71.86-55L190,269c-.2-.5-.4-1-.61-1.49l-.3-.75-.28-.75c-.19-.5-.38-1-.56-1.5-.35-1-.71-2-1-3s-.62-2-.92-3c-.57-2-1.1-4.08-1.52-6.13-.23-1-.41-2.05-.6-3.07-.09-.52-.17-1-.26-1.54s-.17-1-.23-1.54l-.21-1.54c-.07-.51-.12-1-.18-1.54-.13-1-.2-2.05-.29-3.07,0-.51-.06-1-.1-1.53s-.07-1-.08-1.53c0-1-.08-2-.08-3,0-.51,0-1,0-1.52s0-1,0-1.51v-.75l0-.75.06-1.51c0-.5.07-1,.1-1.49s.06-1,.11-1.49c.09-1,.17-2,.3-2.95.06-.49.11-1,.17-1.47l.21-1.46.1-.72.13-.73.24-1.44c.08-.48.18-1,.27-1.43s.18-.95.29-1.42c.21-.94.41-1.88.65-2.81a91.61,91.61,0,0,1,3.35-10.8,92.86,92.86,0,0,1,4.47-10,94.69,94.69,0,0,1,5.38-9.05,93.81,93.81,0,0,1,26.54-26.15,91.84,91.84,0,0,1,13.75-7.4c1.1-.49,2.2-.92,3.27-1.36s2.14-.81,3.19-1.17,2.08-.69,3.08-1l1.5-.45.73-.21.73-.2a93.59,93.59,0,0,1,10.45-2.22c3.07-.47,5.71-.7,7.84-.85l1.51-.09,1.33-.06,1.12,0h.93l1.68,0Zm0,1.68-1.68,0c-.27,0-.58,0-.93,0l-1.12,0c-.41,0-.85,0-1.32.07l-1.51.1c-2.14.16-4.77.41-7.84.89a94.55,94.55,0,0,0-10.42,2.28l-.73.2-.73.22-1.49.45c-1,.33-2,.65-3.07,1s-2.09.78-3.17,1.19-2.17.87-3.26,1.37A93.14,93.14,0,0,0,193.77,190a91.78,91.78,0,0,0-4.38,9.93,88.61,88.61,0,0,0-3.27,10.74c-.23.92-.42,1.85-.63,2.79-.1.47-.18.94-.27,1.41s-.19.95-.27,1.42-.15,1-.23,1.43l-.12.72-.1.72c-.06.48-.13,1-.19,1.45s-.11,1-.17,1.45c-.12,1-.19,1.95-.28,2.93-.05.49-.07,1-.1,1.48s-.06,1-.08,1.48l-.06,1.49,0,.74v.75c0,.5,0,1,0,1.51s0,1,0,1.49c0,1,.05,2,.09,3,0,.51.06,1,.09,1.52s.06,1,.11,1.51c.1,1,.17,2,.3,3,.07.51.12,1,.19,1.52l.21,1.52c.07.51.16,1,.25,1.53s.16,1,.26,1.52c.2,1,.38,2,.61,3,.43,2,1,4.05,1.54,6.06.3,1,.59,2,.93,3s.68,2,1,3c.18.49.38,1,.57,1.48l.28.74.3.74.61,1.47c.21.49.43,1,.64,1.46A92.65,92.65,0,0,0,249.5,321a91.4,91.4,0,0,0,13.24,2.92l1.68.23,1.69.19.84.09.85.07c.56,0,1.13.11,1.69.14l1.7.1c.56,0,1.12,0,1.69.07l.84,0h.86l1.71,0,1.69,0c.57,0,1.13,0,1.7-.05s1.13,0,1.7-.08l1.69-.11c.57,0,1.13-.1,1.69-.15l.85-.08.84-.09,1.69-.2,1.68-.24a92.3,92.3,0,0,0,70.57-54l.63-1.45c.2-.49.4-1,.59-1.47l.3-.73.28-.74c.18-.49.37-1,.55-1.48.34-1,.7-2,1-3s.61-2,.91-3c.55-2,1.07-4,1.48-6,.23-1,.4-2,.6-3,.09-.51.16-1,.25-1.51s.16-1,.23-1.52.14-1,.2-1.51.12-1,.18-1.51c.12-1,.19-2,.28-3,0-.5.06-1,.1-1.51s.07-1,.08-1.49c0-1,.08-2,.08-3v-1.49c0-.49,0-1,0-1.48l0-.74,0-.74L368,228c0-.49-.06-1-.09-1.46s-.06-1-.11-1.46c-.09-1-.17-1.94-.29-2.91-.06-.48-.11-1-.17-1.44l-.21-1.43-.1-.71-.12-.71-.24-1.41c-.08-.47-.18-.94-.27-1.41s-.17-.93-.28-1.39c-.21-.93-.4-1.85-.63-2.77a90.13,90.13,0,0,0-3.3-10.6,90.38,90.38,0,0,0-9.67-18.67,92.11,92.11,0,0,0-26.07-25.69,90.7,90.7,0,0,0-13.5-7.26c-1.08-.49-2.16-.91-3.21-1.34s-2.1-.8-3.13-1.14-2-.68-3-1l-1.47-.44-.73-.21-.71-.19a92.45,92.45,0,0,0-10.26-2.18c-3-.46-5.61-.69-7.71-.84l-1.48-.09c-.46,0-.89,0-1.29,0l-1.1,0h-.92l-1.68,0Z" transform="translate(-165.94 -125.24)"/><path class="cls-2" d="M221.38,314.22c0,1.94-1.3,3.52-2.9,3.52H204.91c-1.61,0-2.91-1.58-2.91-3.52v-5.41c0-1.94,1.3-3.52,2.91-3.52h13.57c1.6,0,2.9,1.58,2.9,3.52Z" transform="translate(-165.94 -125.24)"/><rect class="cls-3" x="10.9" y="133.73" width="69.7" height="49.22" rx="3.52"/><polygon class="cls-3" points="55.42 189.38 36.08 189.38 26.87 195.61 64.64 195.61 55.42 189.38"/><rect class="cls-4" x="38.67" y="179.53" width="14.16" height="1.03"/><path class="cls-5" d="M239.91,263H183.48a3,3,0,0,0-3.17,2.88v34.41a2.79,2.79,0,0,0,1.32,2.33l60.22-39A3.36,3.36,0,0,0,239.91,263Z" transform="translate(-165.94 -125.24)"/><path class="cls-6" d="M241.85,263.64l-60.22,39a3.38,3.38,0,0,0,1.85.54h56.43a3,3,0,0,0,3.17-2.87V265.91A2.79,2.79,0,0,0,241.85,263.64Z" transform="translate(-165.94 -125.24)"/><path class="cls-7" d="M346.77,234.77a.47.47,0,0,1-.32.19.77.77,0,0,1-.35-.23c0,.19.09.46.33.47a7.12,7.12,0,0,0,2-.56l-.22.08c-.09,0-.24-.06-.55-.08A1.5,1.5,0,0,0,346.77,234.77Z" transform="translate(-165.94 -125.24)"/><path class="cls-8" d="M344.12,220.65c.11-.1.59-.08.6-.19s-.32-.12-.32-.27h-.09a1.69,1.69,0,0,1-.49-.11v1C344,220.9,344,220.78,344.12,220.65Z" transform="translate(-165.94 -125.24)"/><path class="cls-9" d="M341.87,221.79a2.54,2.54,0,0,0-.39,0c.34.31,1,.23,1.79.33v.16a2.87,2.87,0,0,1-1.16.41h-.47c-.27,0,0,.28-.45.24-1.79-.24-1.14,0-1.3,0,.3.07,1.12,0,1.13.23s-.36,0-.74.11a5,5,0,0,0-.74.58,1.47,1.47,0,0,0-.86,1.2c0,.33.06.4,0,.53a5.73,5.73,0,0,1,.56-.14c.49,0,.8.65.81.94.34,0,.49-.19.83-.2a5.2,5.2,0,0,1,1,.22,20,20,0,0,1,1.95.46v-4h-.42c0-.14.29-.13.32-.18l.1,0v-.73a5.35,5.35,0,0,1-1,.11A3.64,3.64,0,0,1,341.87,221.79Z" transform="translate(-165.94 -125.24)"/><path class="cls-7" d="M348.4,234.26l-.08-.13a1.72,1.72,0,0,0,.27,0c.67,0,2.1.23,2.1-.46a13.9,13.9,0,0,0-2.12.29c-.06,0-.3.07-.3.15S348.38,234.21,348.4,234.26Z" transform="translate(-165.94 -125.24)"/><path class="cls-7" d="M348.56,234.58l-.07-.15A.69.69,0,0,0,348.56,234.58Z" transform="translate(-165.94 -125.24)"/><path class="cls-7" d="M356.3,233.13a1,1,0,0,0,.06.18C356.34,233.26,356.32,233.18,356.3,233.13Z" transform="translate(-165.94 -125.24)"/><path class="cls-7" d="M356.22,232.69l0,.22C356.25,232.85,356.26,232.74,356.22,232.69Z" transform="translate(-165.94 -125.24)"/><path class="cls-7" d="M348.47,234.39s0-.07-.05-.09S348.45,234.38,348.47,234.39Z" transform="translate(-165.94 -125.24)"/><path class="cls-8" d="M343.72,219s0,.06.1.07v-.21A.2.2,0,0,0,343.72,219Z" transform="translate(-165.94 -125.24)"/><path class="cls-8" d="M344.83,217.21c-.29-.08-.91-.1-.92-.29h-.09v.16c.24,0,.41.09.64.12Z" transform="translate(-165.94 -125.24)"/><path class="cls-9" d="M318.2,224.13c.12-.07.15-.3.46-.22s.54-.27.7-.35a8.13,8.13,0,0,1,1.11-.52c0,.1.09.08.23,0,.34-.11.28-.32.61-.41.1,0,.4.24.7.15s.39-.27.7-.4a.27.27,0,0,0,.33.13c.27-.09.12-.22.45-.29,1.05-.26,1.75,0,2.89-.22s1-.29,1.42,0c-.13.06-.68.12-.71.22s0,.17.71,0a9.59,9.59,0,0,1,1.06-.26c.42-.05.82-.12,1.24-.18a2.85,2.85,0,0,1,.29,0c.33.05.33.27.75.23.09,0-.09-.21-.07-.29.07-.34,1-.17,1-.5a4.63,4.63,0,0,1-1.11.28c-.16,0-.24,0-.23-.07s1.21-.4,1.59-.46c.21.35,1,.44,2.17.33a12.23,12.23,0,0,1,2.14,0c0-.22.18-.32.55-.35a3.26,3.26,0,0,1,.94.06c.16.13-.41.47.29.35.06-.5,1.4-.36,1.16-.76-.17,0-.31.1-.45.12a2.21,2.21,0,0,0,.19-.31c0-.34-1.41-.05-1.39-.38,0-.15.27-.12.29-.24s-.16-.11-.15-.22.33-.14.59-.18c0-.1-.14-.16.14-.2a.41.41,0,0,1,0-.14c-.33-.1-.17-.21-.3-.35s0-.07,0-.13a3.62,3.62,0,0,0,.47,0s0,0,0-.07.13-.13.56-.13c.71,0,1.24,0,2,0,0,0,0,0,0,.09a3.16,3.16,0,0,1-.37.12,2.33,2.33,0,0,1-1.18.34c-.46,0-.45-.11-.58.07h.27c-.06.1-.16.14-.33.2.52,0,.79.19.79.42s.61.11.61.29-.41.22-.53.25c.25.13.71,0,1,.12a.88.88,0,0,0-.21.12c.45.09.46.19.48.38.66,0,.23-.43.85-.44a1.75,1.75,0,0,1,.79.34c0,.16-.37.1-.37.25s.43.4.91.08l.12-.09v-1l-.14-.06c-.33,0-.67,0-1,0-.12-.1-.41-.11-.46-.24a6.09,6.09,0,0,1,.94,0v-.1c-.2,0-1.14-.08-1.14-.08s-.3-.12-.31-.21.11-.28.43-.35c.15-.05.08-.17.14-.21a4.56,4.56,0,0,1,1.54-.28v-.31h-.2c-.44.06-1.07.05-1-.11-.07,0-.18,0-.25,0a4.1,4.1,0,0,1-.57.13c-.47,0-1.45-.1-1.45-.3s.18-.11.25-.12c-.37-.12-.45-.2-.78-.32a.92.92,0,0,1-.4.08,6,6,0,0,1-1.41-.16c0-.11.38-.13.6-.14a16.17,16.17,0,0,1,1.71.16,1.13,1.13,0,0,0,.41-.06h.36c-.16.18.75.1.93.19-.27,0-.53,0-.8,0,.12.17.6.06.9.15,0,0-.15,0-.14,0s.24,0,.32,0c.49,0,.88.09,1.39.09h.14v-.31c-.49,0-.93-.05-1.49-.1a.83.83,0,0,1-.25.06c-.13,0-.2,0-.2-.05,0-.23,1.06-.13,1.49-.24-.24,0-.66,0-.67-.16s.28-.06.51-.06a2.65,2.65,0,0,1,.61,0v-.16h-.21a.71.71,0,0,0-.2,0,1,1,0,0,0-.3,0v-.07a1.42,1.42,0,0,1,.6-.18h.11v-.1a7.59,7.59,0,0,1-.81.16c-.26,0-.26,0-.32-.11l-.24.09.26.1h-.36s0,0,0,.07a3.64,3.64,0,0,1-.72-.09c0,.15-.19.14-.49.14s-.72,0-.79-.07a1.15,1.15,0,0,0,.26-.05c-.35,0-.87,0-.89-.1s1.25-.14,1.52-.16a7.24,7.24,0,0,0-.81,0c-.31,0-.37.07-.6.07s-.22,0-.27-.06l-.42.06c-.14,0-.15,0-.15,0a2,2,0,0,0,.46-.09c-.69.05-1.05.12-1.13-.11a1.51,1.51,0,0,1,.3,0h.58a.39.39,0,0,0,.18-.05c-.26,0-.83,0-.85-.06s.29,0,.46-.08a2.65,2.65,0,0,1,.52,0,.49.49,0,0,0,.22-.06c-.21,0-.44,0-.55,0a1.21,1.21,0,0,1-.24-.07,2.51,2.51,0,0,1,.75-.09c.09,0,.23,0,.33,0-.24,0-.56,0-.58-.08a12.22,12.22,0,0,1,1.23,0c.39,0,.31.19.62.19s.48,0,.79,0,.16.09.35.14h.24v-.06a.26.26,0,0,1-.1,0h.2c.29,0,.25,0,.26.09s.23,0,.24.07-.15,0-.15.08.31,0,.35,0l.36,0v0c-.2,0-.36-.05-.36-.1s.18-.05.36-.05h0a.3.3,0,0,1-.17-.06h.17v-.14h-.17a1.49,1.49,0,0,1-.43,0,6,6,0,0,1-1.09-.1,4.13,4.13,0,0,1,.54-.06h-.93a3.88,3.88,0,0,1,1.22-.17h-.39a6.55,6.55,0,0,0-.79.1l-.35,0a2.34,2.34,0,0,1,.55-.1,5.56,5.56,0,0,0-.58,0l-.3.05a3.19,3.19,0,0,1-.43,0,7.74,7.74,0,0,1,2-.22h.43c.07,0,.15,0,.15,0a1.1,1.1,0,0,0,.6-.09v-1.91a39,39,0,0,0-27.56,11.35,6.76,6.76,0,0,0,1.46-.39C317.86,224.47,317.26,224.49,318.2,224.13Zm16.37-3.52c-.16,0-.26,0-.27.1s.23.06.3,0,.12.07.18.09a2.43,2.43,0,0,1-1.16.25c-.79.08-1-.16-1.6-.08-.35,0-.24.11-.53.21a11.59,11.59,0,0,0-1.42.33c-.6.07-1.16.16-1.71.25-.33,0-.08-.12-.3-.15a4.74,4.74,0,0,0-1,.13,1.29,1.29,0,0,1-.79-.11,7.19,7.19,0,0,1,1.8-.49,6.24,6.24,0,0,0,.62-.12,1.67,1.67,0,0,0-.45,0l-1,.16c-.42.08-1.38.32-1.33.13s.54-.18.74-.29a2.66,2.66,0,0,0-.61.11c-.2,0-.49,0-.49,0,.13-.37,1.74-.95,2.41-1.06.25,0,.17.14.24.2a2.91,2.91,0,0,1,.6-.23c.52-.09.67,0,.78.09.2,0,.37-.08.57-.14a.16.16,0,0,0-.07-.12l.41-.06a.93.93,0,0,1,.59.12c.09.08-.1.27.27.24a.76.76,0,0,0,.26-.09c-.12-.08-.37-.38-.34-.46s.22-.13.36-.14c.34,0,.2,0,.53-.07,0,0,0-.07,0-.07s.29-.19.6-.19.68-.06.65.08-.46.21-.47.29c0,.28.45.39.43.59s1.59.27,2,.37A2.69,2.69,0,0,1,334.57,220.61Zm.77-2.57A.92.92,0,0,1,335,218s0,0,0-.08c.43-.06.54.12,1.05.05a.77.77,0,0,1,0-.15c-.34,0-.56.08-.67,0a2.35,2.35,0,0,1,.35,0,8.39,8.39,0,0,1,.87,0l.4-.09c.36,0,.4,0,.37.15s-.26.27-.21.45l-.79.09c-.12,0-.63.1-.63,0a.3.3,0,0,1,.15-.08s0,0,0-.07.39-.1.5-.14h-.23c-.36,0-1.05.16-1.44.19-.13,0-.24,0-.22-.06a2.66,2.66,0,0,0-.28,0s0-.06-.05-.06a1.19,1.19,0,0,1-.47,0,.43.43,0,0,0,0-.12h0s0-.07,0-.07a.89.89,0,0,1,.22,0C334.51,217.84,334.73,218.14,335.34,218Zm-.23-.64a2.9,2.9,0,0,1,.43,0,2,2,0,0,1-.62.11C334.57,217.57,335,217.4,335.11,217.4Zm-1.28.95c0,.05.13,0,.12.09s-.2.11-.31.12l-.38,0A.82.82,0,0,1,333.83,218.35Zm4.64,2.41a2.33,2.33,0,0,1-.53.16c-.27,0-1.75-.14-1.77-.15s.38-.05.45-.07c.25-.06.19-.29.6-.29A3.14,3.14,0,0,1,338.47,220.76Zm-.13-2.69c.21,0,.15-.2.61-.19s.83.07.82.2-.13.23-.42.25l-1.28-.13C338.1,218.1,338.3,218.08,338.34,218.07Zm-.26,1.15c-.14.44-.17.33-.85.45-.19,0-.26.13-.42.14a.67.67,0,0,1-.43-.1c-.57-.19-1.17-.1-1.72-.27a.3.3,0,0,1,0-.13c.26,0,.55.05.88,0a1.45,1.45,0,0,0,.3,0,1.2,1.2,0,0,0,0-.2c-.27,0-.64.08-.63,0s.12-.06.15-.07a4.27,4.27,0,0,1,1.2-.18l.8-.06c.06,0,.19,0,.2.06s-.53.27-.67.32c.16,0,.75-.14.74,0s-.06,0-.07.12Zm1.56-2.09a2.17,2.17,0,0,0,.26,0s0,0,0,.08-.14.09-.3.08h-1.24A9.77,9.77,0,0,1,339.64,217.13Zm-1.28-.34c0,.16.68-.09.68.11s-.08.06,0,.16c-.72.08-1.38.2-1.37.08s.15-.07.2-.08c-.23-.06-.65,0-.61-.2s.25-.09.46-.12A1.58,1.58,0,0,0,338.36,216.79Zm-1-.53a.5.5,0,0,1,0,.12l-.32,0c-.12,0-.34,0-.33-.09C336.9,216.28,337.2,216.28,337.32,216.26Zm-4,.87.6-.12a6.27,6.27,0,0,1,.7,0,2.11,2.11,0,0,0,.38-.09c.39,0,.34.11.55.09s.19-.07.29-.08a1.74,1.74,0,0,1,.56.1.87.87,0,0,1-.17.07c.15,0,.54,0,.52.14s-.22.08-.36.11c-.47,0-.39-.11-.84-.09s-.55,0-.9.07a1.26,1.26,0,0,0-.62,0,1.41,1.41,0,0,1-.5,0c.19-.07.33-.07.58-.14,0,0,0-.07,0-.08a3.6,3.6,0,0,1-.66.08s.09-.06.14-.08C333.35,217.2,333.3,217.24,333.32,217.13Zm.47.52c0,.06-.16.1-.28.11s-.63-.06-.61-.18A3.06,3.06,0,0,1,333.79,217.65Zm-3.16,0c.39-.06.64-.09.72,0l-.5.14-.78.13c-.21,0-.25,0-.43,0s-.23.08-.37.12A5.29,5.29,0,0,1,330.63,217.68Zm.15.21a.62.62,0,0,1,.31,0,2.57,2.57,0,0,1-.57.17l.28,0c0,.14-.6.27-1,.35s-.51,0-.52-.07A5.52,5.52,0,0,1,330.78,217.89Zm-.11.91a.86.86,0,0,0,.43-.15,1.23,1.23,0,0,1-.37,0l.19-.06s0-.07,0-.08c-.13,0-.43,0-.43,0s.49-.23.71-.32a1.93,1.93,0,0,0,.34,0c0,.07,0,.06,0,.08s.29.23.66.15c.18,0,.29-.12.52-.14s.43,0,.41.11-.51.37-.69.41-1.2.14-1.23.15-1.21.3-1.27.3a7.91,7.91,0,0,1-1.21.31c-.22,0-.49,0-.47,0s.28-.15.52-.18c-.13,0-.26,0-.26-.1s-.21.07-.22.12c-.32.08-.54.17-.76.2s-.47.06-.6.07-.26,0-.22,0,.1,0,0-.1a1.5,1.5,0,0,1,.45-.16c.05,0,.12,0,.17,0h-.17s0,0,0-.1a1.26,1.26,0,0,1,.3-.06l.05,0a.29.29,0,0,0-.13,0,1.51,1.51,0,0,1,.37-.14h0c-.08,0-.12,0-.11,0,.32-.08.42-.09.58-.12s.25-.07.27,0l.41-.07C329.57,218.76,329.84,218.91,330.67,218.8Zm-4.51.94c-.13,0-.26,0-.26,0a2.08,2.08,0,0,1,.84-.33A1.15,1.15,0,0,1,326.16,219.74Zm2.79-1a3.39,3.39,0,0,1-.39.08c-.09,0-.23,0-.21,0l.62-.12S329,218.71,329,218.71Zm-.08-.33a.53.53,0,0,1-.27.13c-.17,0-.33,0-.32,0S328.76,218.4,328.87,218.38ZM324.32,220s.34-.18.4-.22a7.51,7.51,0,0,0,.83-.33,4.89,4.89,0,0,1,.94-.44c.15,0,.15,0,.3-.06,0,0,1.06-.38,1-.21s-.14.12-.25.15.11,0,.09.1l-.8.37c-.3.05-.2-.1-.37-.09a1.41,1.41,0,0,1-.63.34.69.69,0,0,1-.4.22c-.13,0-.22,0-.25,0a2,2,0,0,1-.46.12c-.1,0-.15.11-.29.13S324.3,220,324.32,220Zm-1.9,1.86c.1-.23.95-.66,1-.89,0-.08-.17-.06-.15-.17a4,4,0,0,1,1-.26,4.38,4.38,0,0,1,.67-.22c.35-.05.49,0,.87-.08.12,0,.36-.11.58-.15.37-.08,1.16-.11,1.14.05a9.12,9.12,0,0,1-1.15.38,4.11,4.11,0,0,0-1.44.82c-.05.06-1.24.49-1.36.55s-.14,0-.23,0a.21.21,0,0,1-.2-.08C323,221.72,322.36,221.91,322.42,221.81Z" transform="translate(-165.94 -125.24)"/><path class="cls-10" d="M327.81,219.29a.17.17,0,0,0,.1,0A.17.17,0,0,1,327.81,219.29Z" transform="translate(-165.94 -125.24)"/><path class="cls-8" d="M343.82,216.25Z" transform="translate(-165.94 -125.24)"/><path class="cls-9" d="M343.33,254.6a.38.38,0,0,1-.15,0c-.18,0-.34.11-.46.11a2.33,2.33,0,0,1-1-.38c-.48-.19-.8-.08-1.29-.31-.77-.35-.95-1.25-1.6-1.56h-.15a1.23,1.23,0,0,0-.53-.17c-.43,0-.5.43-.92.44a1.21,1.21,0,0,1-.48-.2,1.18,1.18,0,0,0-.55,0,6.9,6.9,0,0,1-1.34-.65c-.26-.1-.41,0-.69,0s-.43-.35-.73-.5-.47-.09-.77-.22l-.26-.15c-.28-.26-.95-.41-1.07-.7-.19,0-.33-.29-.34-.43s.25-.37.23-.62-.19-.38-.23-.5a5.31,5.31,0,0,0-1.26-2c-.23-.21-.6-.3-.8-.5s0-.38-.13-.61c-.22-.38-.87-.4-.87-.92-.2,0-.19,0-.24,0l-.73-.72c-.19-.19-.13-.54-.3-.72s-.16-.64-.3-.72c-.37-.15-.72-.11-1-.36a.56.56,0,0,0-.05.27,2.11,2.11,0,0,0,.34,1c.15.31.41.28.63.5a1.51,1.51,0,0,1,.43.85c.16.49.55.69.72,1.14s.27,1.05.68,1.31c.19-.17.44.23.44.36s-.11.32-.16.32a1.87,1.87,0,0,1-.36-.45c-.41,0-.6-.48-.84-.64s-.18-.1-.22-.19,0-.41,0-.55c-.23-.23-.39-.45-.62-.66s-.76-.21-1-.52c.09,0,.61.07.43-.2a4.05,4.05,0,0,0-1-1.08c-.24-.15-.22-.72-.32-1a3.68,3.68,0,0,1-.48-.93.75.75,0,0,0,0-.15h.05a3.48,3.48,0,0,0-2-1.17c-.17-.07-.1-.29-.13-.43-.26-.68-.69-.36-.52-1.18-.42,0-.75-.83-1-1.37-.08-.16.13-.3.23-.38a10.18,10.18,0,0,1-.22-1.1,13.9,13.9,0,0,1,.55-2.67c0-.29-.38-.33-.37-.61,0-.07.22-.09.29-.13.28,0,.44,0,.5.14a1.3,1.3,0,0,0,.31-.38c0-.13-.15-.13-.2-.25a.59.59,0,0,1-.19,0c-.19-.1-.62,0-.66-.16-.12-.3-.74,0-.79-.26-.62.1-.55-.21-.65-.46a1.88,1.88,0,0,0-.42-.14c-.19,0,.06-.21-.1-.31s-.2,0-.35,0-.18-.75-.15-.89-.07-.08-.06-.14-.13,0-.17.05c-.27.06-.59,0-.58-.17a.75.75,0,0,0,0-.16c0-.18-.12-.09-.43,0s-.23,0-.23-.09.23-.16.28-.24a.7.7,0,0,1,0-.14c-.29.1-.23.21-.44.25s-.2,0-.18-.09.16-.2.21-.27-.16-.06-.25,0-.23.06-.38,0c-.08.1-.13.22-.27.25-.29.09-.3-.15-.53-.17s-.72.13-1.06.1a6.21,6.21,0,0,0-.66.28c-.36.06-.72.16-.78-.07l-.33.24c.61-.83,1.25-1.64,1.92-2.42a39.19,39.19,0,0,0,29.51,65V255.31A1.32,1.32,0,0,1,343.33,254.6Zm-31.24-24.8.16-.22h0Zm4.23-.08c-.14-.1-.17-.21-.11-.41-.22.05-.34-.05-.3-.23s.15-.13.21-.17c.25-.08.1.05.33-.1-.09.3-.18.3-.13.49,0,0,.12,0,.14,0C316.4,229.43,316.51,229.57,316.32,229.72Zm1,1.64c-.12,0-.21-.1-.18-.2a.3.3,0,0,1,.1-.15c-.13,0-.11-.11-.22-.11s-.08-.1-.14-.18a.12.12,0,0,0,0-.1c.15,0,.19,0,.34,0,0,0-.22.21-.12.17a.37.37,0,0,0,.23-.21.44.44,0,0,1,0,.28c0,.07.06.07,0,.13s-.09.1-.1.15S317.49,231.33,317.31,231.36Zm.11-1.33a.18.18,0,0,1-.15.15c-.14,0-.24-.19-.25-.19s0-.18.05-.25c-.24,0-.14-.06-.33.09.06-.3.15-.3.45-.35C317.07,229.83,317.48,229.78,317.42,230Zm1.44,2a.52.52,0,0,0,.19-.15h-.25s-.05,0-.07,0a1.15,1.15,0,0,1,.25-.12c.21,0,.31.1.44.11a2.9,2.9,0,0,1,1.52.6s0,.09,0,.13l-.16,0a2.62,2.62,0,0,1-1.25-.3c.05-.08.15-.12.2-.16C319.35,232.19,318.91,232.15,318.86,232Z" transform="translate(-165.94 -125.24)"/><path class="cls-7" d="M356.37,233.34s.05.12.08.16S356.41,233.37,356.37,233.34Z" transform="translate(-165.94 -125.24)"/><path class="cls-8" d="M344.82,216.58c0-.11-.6-.13-1-.18v0c.21,0,.45.05.61.05,0,.06,0,0,0,.08a1.71,1.71,0,0,1-.47,0h-.13v.1C344.3,216.69,344.8,216.78,344.82,216.58Z" transform="translate(-165.94 -125.24)"/><path class="cls-7" d="M344,234.29v-.59c0-.24,0-.79.25-.79.85-.06.45-.47.83-.47.18,0,1,.33,1,.54s-.18.42-.25.68c.28,0,.23-.08.46-.13.09.3.09.43.33.58.32,0,.51-.89.6-1.16.08,0,.37.33.64.31a.25.25,0,0,0,.23-.21c0-.27-.35-.45-.63-.61a5.78,5.78,0,0,1-.59,0c-.59-.27-1.27-.23-1.81-.63-.18-.16-.05-.31-.18-.53a9.88,9.88,0,0,0-1-.64V232a.84.84,0,0,1,.36-.11c.56,0,.81.22,1.3.24a1.47,1.47,0,0,1,0,.21,3.86,3.86,0,0,1-1,0,1.67,1.67,0,0,0-.63.16v2.4A1.11,1.11,0,0,0,344,234.29Z" transform="translate(-165.94 -125.24)"/><path class="cls-9" d="M343,242.76c-.06,0-.17-.12-.17-.17-.39.09-.89,0-1.31.18a.41.41,0,0,0,.34,0c0,.31-.25.51,0,.69-.7.29-1.25-.42-1.74-.42-.11,0-.26.17-.36.17-.27,0-.4-.2-.68-.21-.71,0-1,.56-1.33.82s-.4,0-.64.11a1.48,1.48,0,0,0-.86,1.43s.13.16.12.21-.05,0-.06,0,0,0,0,.05a1.15,1.15,0,0,1,.1.35c0,.41-.18.54-.25.88s0,.82,0,1.23c0,.18.14.37.19.43.09.21,0,.33.07.53a3.4,3.4,0,0,0,.57.64c.42.41.41.76,1.06.95.21.07.27.26.41.27.47,0,.83-.31,1.33-.32a1.55,1.55,0,0,1,.47.14c.19,0,.32-.29.34-.36.11-.26.5-.55.51-.89,0-.65.88-.63,1.54-.63a1,1,0,0,1,.49.06,4.66,4.66,0,0,0,.56,0v.2c0,.31-.41.7-.41,1.13a1.12,1.12,0,0,1-.3.74s0-.12,0-.16a1.21,1.21,0,0,0-.19,0c0,.35,0,.7,0,1.07s-.33.36-.44.45a.2.2,0,0,0,0,.11.29.29,0,0,0,.29.24c.4,0,.77,0,1.13-.06v-10a.8.8,0,0,0-.23,0C343.25,242.58,343.13,242.77,343,242.76Z" transform="translate(-165.94 -125.24)"/><path class="cls-8" d="M370.42,224c.57.54,1.13,1.09,1.67,1.66l-.24-.11c-.11,0-.25-.06-.2,0-.11,0-.11,0-.26,0s.46.56.16.61-.67-.18-.92-.18a1.8,1.8,0,0,0-.21-.08.88.88,0,0,0-.05-.15c-.19,0,0,.06-.21.09s-1.08-.28-1,0c0,0,.05.05.05.08s-.08,0-.08.06.19.15.24.24c.05.27-.67.1-.6.36a4,4,0,0,0,.12.47c-.34,0,0,.48-.46.38-.11,0-.19-.07-.22-.13a.94.94,0,0,0-.3,0c-.42-.11-.47-.47-.9-.59-.23,0-.48,0-.68,0-.18-.23-.31-.23-.63-.37-.1-.07-.12-.16-.16-.2a3.27,3.27,0,0,1-1.18-1.16c0-.11.09-.08.23-.1-.32-.22-.32,0-.66-.17a1.77,1.77,0,0,1-.24-.32c-.15-.18-.66-.37-.71-.59s.1-.07.14-.17a1.07,1.07,0,0,0-.36-.08.61.61,0,0,1,0-.18c.22-.11.27-.24.61-.29,0,0,0,0,0,0a.69.69,0,0,1,.49.09c.06-.21.27-.21.37-.4a7.63,7.63,0,0,1-2-.76,1.65,1.65,0,0,1,.32.07c.37.07.66.26,1.08.35.16.05.14,0,.13-.07-.54-.21-.81-.57-1.38-.72-.17,0-.15.06-.41,0s-.5-.09-.51-.23.34-.06.3-.24-.32-.15-.47-.21a.26.26,0,0,1,0-.11,7.18,7.18,0,0,0-4.12-1.77l-.56-.09a5.71,5.71,0,0,0-.59,0c-.17,0-.35-.1-.59-.13l-.38,0,.2.08c-.11,0-.1,0-.24,0a6.33,6.33,0,0,1-1.3-.32c.18,0,.29,0,.37-.06-.32-.06-.57-.19-.8-.2-.44,0-.31,0-.69-.08,0-.13.43-.08.57-.06l.49,0a.61.61,0,0,0,.34,0l1.1.14c.19,0,.15,0,.22-.1-.27,0-.51-.08-.77-.11a.14.14,0,0,1-.18,0l-.68-.08a12.65,12.65,0,0,1-2-.48c0-.17.67,0,1.09,0s.55,0,.91,0c.53,0,1.21.18,1.61.18s.49,0,.44-.2c-.34-.07-1.4-.16-1.43-.31s.27-.06.36,0a17.44,17.44,0,0,0,1.76,0,1.78,1.78,0,0,0,.48.13c.65.11.06-.2.64-.11s.94.11,1.6.27c.48.08.78.1,1.23.2s.42.24.75.33c0,0-.11-.06-.12-.12h.14a5.24,5.24,0,0,0,.83.34,1.68,1.68,0,0,0,.24.07c-.08,0-.12-.11-.18-.14a0,0,0,0,1,0,0,39,39,0,0,0-18.18-4.46h0v1.91H344c.38,0,1.13.12,1.31.13a1.64,1.64,0,0,1,1-.19c.34,0,.12,0,.39,0,.1-.06.24,0,.44,0l2.21.14a1,1,0,0,0,.23,0c.36,0,.44.12.73.12s.33-.05.6,0,.41.08.57.09.36,0,.53.06a23.68,23.68,0,0,1,2.43.41c-.13,0-.18,0-.32,0l1.43.13a1.8,1.8,0,0,1,.33.1,1.47,1.47,0,0,1,.33.13c.24.1,1.13.21,1.19.34s-.29,0-.42,0c-.68,0-1.54-.25-2.53-.26.21.08.93.16,1.39.24a18.05,18.05,0,0,1-2.07-.09,11.05,11.05,0,0,0-1.7.16,7.41,7.41,0,0,1-1-.09c-.43,0-.93,0-1.21,0l.55,0c.05.14-.17.09-.56.05a1.75,1.75,0,0,1,.58.17c-.39,0-.52.16-.86.18s-.65,0-1-.06c0,.05.15,0,.14.09s-.82,0-.82.22a4.12,4.12,0,0,1,.51,0c.05,0,.31,0,.3.06s-1.14.16-1.6.12-.27-.11-.68-.12l-1.53,0a5.67,5.67,0,0,1-.61,0h-.44v.31c1,0,1.36-.17,2.39-.12a3.49,3.49,0,0,1,1.62.27h-.16s-.07,0-.09.06a.65.65,0,0,0,.26,0c0,.26-.95.21-1.67.19-.27,0-.35-.07-.41-.13-.28,0-.31.07-.51.08h-1.43v.31h.11l.68.08c-.16.12-.59.14-.79.25v.21h.07a.15.15,0,0,0,0,.14c0,.08-.05.13.21.14s.41-.08.41-.15-.21-.12-.21-.21c0-.29,1.37-.37,2.19-.33.54,0,.84.28.84.46s-.08.15,0,.16a1.27,1.27,0,0,1,.41-.06c.23,0,.32.1.48.1.34,0,.43-.18.8-.14a8.27,8.27,0,0,1,1.53.22c.47.14.62.42,1.3.49.18,0,.36,0,.51,0s.72.05.68.22c.55.13.86.26,1.42.38a.3.3,0,0,1,0,.13,1.86,1.86,0,0,1,.34,0,1,1,0,0,1,.58.26,1.33,1.33,0,0,0-.68,0c.21,0,.38.06.6.09a.76.76,0,0,1,.31.11c-.31,0-.46,0-.63.11a1.71,1.71,0,0,0,.57.13c.08.2.62.35,1,.42a.58.58,0,0,0,.48.35c.44.06.5-.07.69.14a2.37,2.37,0,0,0,.36.09c.37.05.53.12.55.27s-.31.09-.55.06c0,0,0,.07,0,.11s0,.08-.42,0c0,.11,0,.23-.22.21-1-.15-1.08-.72-2.07-.84a1.56,1.56,0,0,0-.4,0,1.62,1.62,0,0,0,.41.06s0,.07,0,.1a.68.68,0,0,1-.3,0,.3.3,0,0,1,0,.13l.26,0a1.32,1.32,0,0,0,.49.38c.39.1.51,0,.57.18s.25,0,.35,0a1.24,1.24,0,0,0,0,.18c0,.06.36.14.39.25s-.18.22-.25.32a10.24,10.24,0,0,1-1.93-.58,1.55,1.55,0,0,1-.31,0c.37.24,1.5.54,1.57.8,0,.07-.12.09-.19.09s-.17-.12-.22-.14c-.62-.18-1-.18-1.53-.37s-1.74-.27-1.43-.53c-.71-.2-1.05-.39-1.68-.58a.83.83,0,0,1-.41.1c-.21,0-.2-.07-.36-.09s-.37.12-.63.1-.91-.17-.93-.31.54-.22.84-.19.58,0,.9.06a8.13,8.13,0,0,0,.94,0c-.09,0-.39-.14-.39-.22s.37-.07.5-.09.6-.2.59-.33-1.39-.72-1.82-.77c-.26,0-.38.05-.65.05a.41.41,0,0,1-.17-.11c0-.1.38-.07.48-.07a12.47,12.47,0,0,0-1.56-.55c-.27,0-.57.28-1,.26s-.19-.12-.18-.19l-1.27-.06a1.46,1.46,0,0,0,.61.13c0,.18.1.15,0,.24-.67.16-.37.29-.37.37s.48.17.5.27a2.22,2.22,0,0,1-1.23.46c-.28-.2-.36,0-.26,0-.25,0-.48,0-.71,0s-.46-.19-.89-.21c0,0,.09.11.1.32,0,0-.07.06-.16.08v.73c.06,0,.12,0,.12-.09v-.13c0-.16.09-.52.7-.53.12.13.23.16.33.26a.62.62,0,0,1,.19-.07c.46.25,1.14.18,1.53.4.11.06.06.13.16.16.35.13.73.08.92.21a3,3,0,0,1-.7.07h-.58s-.72-.23-.83-.25c0,.19-.69.37-1,.31-.06.05-.08.08-.17.08-.26,0-.19-.09-.15-.19a4.43,4.43,0,0,0-.51,0v4c.28.09.55.17.82.27.48.07.95.14,1.43.24.65.23.63.56.64,1s.86.9,1.44,1.2a1.31,1.31,0,0,0,.74,0,1.5,1.5,0,0,1,.33-.5c-.31-.27,0-1-.83-1.25.46-.05,1.74-.59,1.76-.83,0-.41.1-.75-.11-1s-.85-.33-1.16-.61c.3,0,.9-.09.81-.49-.06-.17-.75-.49-.47-.58.7-.23-.07-.42-.09-.55s.31-.28.63-.27c.62,0,1,.26,1.63.3l.47,0c.61,0,.54.26,1.14.35.08.44,1.14.31,1.28.64s0,.85.31.89.56.45.94.49c.22,0,.41-.17.65-.25s.73-.14.6-.41.3-.24.43-.29a2.29,2.29,0,0,0,.37.2c.13.34,1,.48.8.75s.53.53.74.6c0,.11.17.25.18.37s-.18.16-.27.19a2.35,2.35,0,0,0,1,.42s0,0,0,0c.07.45,1.08.71,1.57.73,0,.06.19.1.19.17-.12.24-1.18.19-1.57.29a.31.31,0,0,0,.21.07,7,7,0,0,0,1.84-.15s0,.11,0,.15c.24.11,0,.2.18.22a1.05,1.05,0,0,1,.42.67c0,.43-1.47.22-1.73.5-.57.61-1.38.17-2.45.08a6.7,6.7,0,0,0-2.09-.09c-.46.1-.2.26-.5.51-.46.36-.91.18-1.18.67.67-.06,1.05-.57,2-.52.47,0,1.1,0,1.14.37s-.74.4-.85.54a4.34,4.34,0,0,1,.46.08h0s0,0,0,0h.06c0,.12,0,0-.06,0h0c.07.47,1.07,1.06,1.69,1.12.14,0,.67.08.69.28a5.23,5.23,0,0,1-1.51.54c-.43.11-.83.56-1,.57a1,1,0,0,1-.46-.51c0-.42.72-.69,1.23-.68-.35,0-.32-.05-.35-.31-.32,0-.29.23-.49.34a2.77,2.77,0,0,1-.87,0l-.22,0v.06a.06.06,0,0,1,0,.06,1.34,1.34,0,0,0,.11.14.75.75,0,0,1-.69.28,1,1,0,0,0-.5.11c-.37.3-1.17,0-1.16.81,0,0,0,.16.1.18s.13.37.24.37l.24-.13s0,.1,0,.14a1.47,1.47,0,0,1-.75,0c-.45.27-1.22.13-1.68.38a.89.89,0,0,1,.23,0c.22,0,.46-.07.58,0a4.15,4.15,0,0,1-.87.07,1.77,1.77,0,0,0-.21,0c-.05,0-.16.09-.14.14s.22.25.22.25c0,.15-.5.85-.63.85s-.13-.13-.16-.16l-.12.09c.05.19.21.27.22.4a3.56,3.56,0,0,1-.52.83s-.09-.09-.09-.12a1.77,1.77,0,0,0,0-.23c0-.17-.23-.47-.27-.69a.69.69,0,0,0,0,.27c0,.14.13.52.14.73s-.1.21,0,.31a.49.49,0,0,1,.17,0,1.47,1.47,0,0,1,0,.21c0,.18-.22.25-.3.25a.48.48,0,0,0,.32.19c0,.22-.2.2-.36.2,0,0,0,.13,0,.17l.27.15c-.05.07-.17.22-.27.23-.28,0-.44.22-.59.24a.75.75,0,0,0-.4.27l.07,0c-1.13.54-2.29.61-2.3,2.2,0,.73.66.93.68,1.64a.34.34,0,0,1,0,.1,2.22,2.22,0,0,1,.3.88c0,.47-.11.87-.53.87s-.35-.32-.48-.55a3.64,3.64,0,0,1-.73-.81c-.38-.72-.09-2-1.17-2-.22,0-.38.28-.54.28-.38,0-.62-.37-1.05-.47v10a11,11,0,0,1,1.19-.07c.6,0,.74.37,1.17.46a1.93,1.93,0,0,1,0,.34,3.89,3.89,0,0,1-.17,1.29c0,.47,0,.89,0,1.35s.51.69.9.86.25.52.67.53c.65,0,.95-.44,1.53-.45s.74.66,1.12.93l-.16.18a1.3,1.3,0,0,1,.18-.15c.18,0,.17,0,.29,0a.57.57,0,0,0,0-.13s.11-.1.14-.11c0-.22.27-.33.39-.38s.19-.42.22-.55c.13-.36.34-.41.65-.51.58-.18.93-.27,1.54-.45.31-.1.42-.4.69-.42.09,0,.21.24.21.26a.27.27,0,0,1-.24.26,6.55,6.55,0,0,0-.21.9c0,.24.09.65.38.66.07,0,.21-.29.22-.36,0-.27-.29-.41-.27-.67s.38-.28.59-.42h.56c-.09-.25-.46-.15-.44-.41h.41c.08.35.62.48.95.53a.4.4,0,0,0,.28.39c.42,0,.83,0,1.23,0,0,.21.32.24.46.24.34-.06.52-.06.7-.32a4.27,4.27,0,0,1,.56-.11,4.35,4.35,0,0,1,.62.05.48.48,0,0,1-.33,0,1,1,0,0,0,0,.17c.16.3.62.37.94.45s.19.39.29.68c.21,0,.42,0,.61,0,.41.4.57.31.84.84a.43.43,0,0,0,.32.11c.17.59,1,.49,1.57.58.17,0,.38,0,.54,0a1.7,1.7,0,0,0,.66.2s0,.05,0,.05h.12c.32,0,.71.64,1,.7a4.72,4.72,0,0,0,.3,1.1c.09.19.32.22.32.38a4.54,4.54,0,0,0-1,1.82c0,.19.17.17.26.2a.48.48,0,0,1,.3.43,4.3,4.3,0,0,1,.46,0c0,.05,0,.21.08.2s.18-.16.22-.25c.22-.33.45-.75.77-.79a3.24,3.24,0,0,1,1.19.42c.15.09.29,0,.32.18a1.22,1.22,0,0,1,0,.47h.13c.17-.1.24-.23.4-.25.39,0,.41.26.74.21s.46-.12.65-.17a2.45,2.45,0,0,1,.74.2,1.76,1.76,0,0,0,.78.75c.21,0,.35-.09.55-.05s.32.41.27.8a7,7,0,0,1-1.45,2.93c-.12.18-.17.22-.31.4a4.9,4.9,0,0,1-.55.56c-.27.33,0,.44-.09.85s-.31,1.2-.36,1.41-.09.17-.11.22a1.07,1.07,0,0,0-.28.42,3.14,3.14,0,0,1-.19.57c-.32.42-.42.6-.72,1-.09.12-.1.31-.15.37a1.48,1.48,0,0,1-.79.57,2.56,2.56,0,0,0-.82.28c-.13.07-.15.16-.2.21-.5.46-.86.33-1.26.84-.17.24-.41.28-.57.43s-.18-.09-.22.2-.12.84-.2,1.23a3.13,3.13,0,0,0-.85.85h0c-.16.22,0-.12-.2.12-.41.44-.87.81-1.27,1.23s-.73,1.19-1.57,1.37a6.74,6.74,0,0,1-.79,0c-.25.05-.45-.07-.75,0-.05,0-.15,0-.16.09s.22.14.29.18.09.17.13.37.33.06.28.23-.05.26-.17.36a5.82,5.82,0,0,1-.57.48,5,5,0,0,1-1.2.46c-.31.11-.88.07-1.09.21s-.06.34-.23.53a.27.27,0,0,0,0,.12,1.23,1.23,0,0,1-.46.22c-.4,0-.43-.11-.82,0a.2.2,0,0,0-.22.17c0,.18.15.45.3.41a1.24,1.24,0,0,0,.28-.12c.08.06.17,0,.15.09s-.19.17-.22.18c-.24,0-.29-.07-.47,0,0,.12.07.14.17.14a1.76,1.76,0,0,0-.6.75c-.08.12-.64,0-.76,0a.92.92,0,0,0-.63.41c-.06.38.78.1.73.4s-.52.35-.82.5-.13.19-.27.31-.45.15-.63.23-.33.14-.4.4.13.15.23.14c.3.05.19.38.41.43a4.44,4.44,0,0,0,1.24.08.59.59,0,0,1-.29.07c-.26.05-.72.25-.9.27a1.08,1.08,0,0,0-.19,0l-.19.06a4.13,4.13,0,0,0-.49.07c-.41.06-.21-.12-.5-.14s-.7.17-.63-.07l-.34,0c-.15,0-.17,0-.18-.07a1.43,1.43,0,0,1-.87-.1c-.07,0-.15,0-.15-.06s.3-.06.38-.16a.66.66,0,0,1-.15,0c.07,0,.13-.06.16-.14s-.48-.11-.46-.28,0-.05,0-.12-.22-.44-.2-.6.43-.2.5-.41-.2-.15-.23-.3,0-.09,0-.1h0c0-.09.1-.12.19-.12.35,0,.2.16.49.13.34-.49.65-1,1-1.53a1.1,1.1,0,0,0,0-.18c-.05,0-.13,0-.18,0s-.2.13-.32.16-.09-.3-.08-.46.17-.34.27-.58c.13,0,.19-.06.21-.1s-.1-.13-.1-.13-.08-.35-.06-.46a1.77,1.77,0,0,1,.56-.85c.1-.12.17-.31.27-.42s.16-.05.2-.11c.17-.35.2-.59.36-.95s.06-.73.09-1.13.16-.51.18-.76c.06-.62.4-1,.47-1.53,0-.05,0-.1,0-.15a3.12,3.12,0,0,1,.19-.6c0-.28,0-.51.06-.75s.25-.74.27-1a9.9,9.9,0,0,0-.08-1.42,1.48,1.48,0,0,0-.9-.83,2.41,2.41,0,0,1-.81-.26,1.31,1.31,0,0,0-.71-.34,2.73,2.73,0,0,1-1.33-.73c-.18-.15-.08-.35-.08-.6s-.31-.43-.41-.72c-.17-.47-.29-.92-.44-1.34a6.88,6.88,0,0,0-.5-1.09c-.07-.13-.23-.11-.3-.14a1.58,1.58,0,0,1-.27-.56c-.08-.13-.28-.1-.35-.16a1.59,1.59,0,0,1-.58-1,1.16,1.16,0,0,1,.27-.63c.23-.33.63-.42.75-.75-.22-.12-.24,0-.36,0-.34,0-.38-.41-.37-.72a6.74,6.74,0,0,0,.26-1.85c.66,0,.83-.58,1-.93s.87-.33,1-.92a.46.46,0,0,1-.24-.21c0-.05.08-.14.1-.18v-.11c0-.18-.13-.35-.14-.48s.12-.34.13-.56c0-.48-.42-.39-.43-.79l0-.13-.05,0s-.27-.12-.28-.17.11-.16.15-.22c-.27-.13-.11-.62-.36-.62a2.12,2.12,0,0,0-.86.57c0,.07.16.18.2.2a.38.38,0,0,1-.37.33c-.39,0-.62-.41-.82-.59s-.6,0-.72,0-.13-.1-.13-.13c-.35-.08-.36-.33-.43-.46a5.1,5.1,0,0,0-.93-.6.23.23,0,0,0,0,.2h-.24c-.37-.23-.12-.51-.25-.86a.89.89,0,0,0-.31-.38l-.46-.38v36.61h0a39.19,39.19,0,0,0,26.6-68Zm-20.84-4.76a3.69,3.69,0,0,1-.62-.09,5.11,5.11,0,0,1-.75,0c-.41,0-.77-.1-.62-.19-.2-.06-.43-.07-.42-.18s.2-.09.34-.1c.46,0,.59.08,1,.12a6.32,6.32,0,0,1,1.4.32A.46.46,0,0,1,349.58,219.21Zm1.66,2a1.14,1.14,0,0,1,.43.17,2.43,2.43,0,0,1-.41,0c-.15,0-.27,0-.28-.09A.55.55,0,0,1,351.24,221.25Zm-.46.16c0,.11-.49.16-.75.13s-.53-.1-.54-.22C349.49,221,350.74,221.1,350.78,221.41Zm-5.5.45c.27,0,.29.09.43.15C345.42,222,345.26,221.92,345.28,221.86Zm.36,1.62a.24.24,0,0,1,0-.12c.18-.09.45-.16.47-.22a2,2,0,0,1,.61.06A3.16,3.16,0,0,1,345.64,223.48Zm2,5.19a.81.81,0,0,1-.47-.17.21.21,0,0,0,0-.11c.28,0,.53.09.55.28C347.72,228.68,347.68,228.67,347.66,228.67Zm.3-4.92-.33-.16c0-.18.49-.15.71,0C348.22,223.63,348.19,223.76,348,223.75Zm.29-3c-.26,0,.22-.18.47-.17A.52.52,0,0,1,348.25,220.77Zm.65,2.32c.21-.11.21,0,.49,0A.53.53,0,0,1,348.9,223.09Zm13.52-.67a1,1,0,0,1-.43-.35c0-.12.18-.09.36-.07a8.48,8.48,0,0,1,1.12.51c0,.12-.35,0-.66,0A1.93,1.93,0,0,0,362.42,222.42Zm-3.13,10.71a3.4,3.4,0,0,1-1-.5s0-.09.07-.1a.79.79,0,0,0,.49.29l.64.06s0,.07,0,.09S359.32,233.11,359.29,233.13Zm0-1.75a3.65,3.65,0,0,1-1.25-.57,2.76,2.76,0,0,1,1.53.5A.25.25,0,0,1,359.31,231.38Zm-6.62,17.46a.54.54,0,0,0,.47-.2v.2a.75.75,0,0,1-.38.13h-.09A.57.57,0,0,1,352.69,248.84Zm-2.41-3.6a1.13,1.13,0,0,0,.12.18S350.26,245.29,350.28,245.24Zm-.34,1.32a.21.21,0,0,1-.12.11c-.24,0-.24-.29-.24-.43h.09A.32.32,0,0,1,349.94,246.56Zm-.4-1.59a.44.44,0,0,1,.29.18,5.66,5.66,0,0,1-.62,0A.65.65,0,0,1,349.54,245Zm-3,3.73s-.33,0-.34,0a.24.24,0,0,1,.22-.21.86.86,0,0,0,0-.16h.05l.07,0A1.29,1.29,0,0,1,346.58,248.7Zm3.62,2.42a.44.44,0,0,1-.39-.34c0-.07.17-.14.24-.14a2.72,2.72,0,0,1,.76.18s0,0-.05,0a.27.27,0,0,1,.22.2A4.12,4.12,0,0,1,350.2,251.12Zm1.25-1.32c-.55,0-.93-.15-1.38-.16,0,0,0-.11,0-.14a.31.31,0,0,0,.24-.2c-.37-.16-.75-.12-.81-.48-.2,0-.2-.17-.26-.2a1,1,0,0,0-.51,0c-.34,0-.5-.33-.83-.34h-.7c-.14-.11-.1-.2,0-.25a.51.51,0,0,0-.34-.07,2.37,2.37,0,0,0-1.34.54.81.81,0,0,0-.22,0,2,2,0,0,1,2-1c1.07,0,1.55.57,2.35.58.16,0,.36.25.4.27a2.33,2.33,0,0,0,1.47.58.85.85,0,0,0,0,.16l.36,0c.27.07.42.4.54.45C352.17,249.81,351.72,249.81,351.45,249.8Zm4,.92a1,1,0,0,1-.41.18c-.11,0-.15-.11-.24-.11-.3,0-.27.39-.53.4s-.2-.23-.28-.29a3.05,3.05,0,0,0-1-.07c-.17,0-.19,0-.28,0a.52.52,0,0,0,0,.18c-.15,0-.27-.27-.29-.37s.1-.07.12-.09c.55,0,.76.12,1.05,0a.64.64,0,0,1-.16-.48c-.11,0-.32-.15-.31-.25a.33.33,0,0,1,.19-.16c.23,0,.4.16.56.16.31,0,.43-.08.7-.08.75,0,.89.38,1.29.59l-.07-.06a2.65,2.65,0,0,1,.58.47Zm2.23.28c-.26,0-.56,0-.56-.25s.19-.13.24-.13.63.15.68.25S357.83,251,357.72,251Zm2.71-17.57c-.22,0-.36-.12-.35-.21a.87.87,0,0,1,.43-.5c0,.06.17.12.16.18s-.29.2.19.25a.41.41,0,0,0,0,.11C360.87,233.36,360.66,233.47,360.43,233.43Zm.73,22.7c0,.07-.16.32-.26.32s-.18.06-.19,0c0-.24.16-.47.26-.48h.19S361.15,256.09,361.16,256.13Zm3.53-22.87a.22.22,0,0,1-.2-.21l-.16-.05c-.15,0-.07-.29-.24-.44-.15.18-.29.38-.52.35,0,0-.13,0-.12,0s.14-.14.19-.22c-.2,0-.43,0-.56-.13a1.1,1.1,0,0,1-.4,0c-.26,0-.38-.16-.61-.17s-.39.06-.62,0a.35.35,0,0,1-.22-.18c0-.06.35-.26.33-.26a.09.09,0,0,0,0-.09c-.05,0-.15,0-.17-.1.54-.15.7-.8.95-1.13s.22-.41.54-.37a.3.3,0,0,1,.16.17c0,.32-.37.44-.44.69a.61.61,0,0,0,0,.14c.17,0,.16-.1.28-.08a.86.86,0,0,1,.33.11l-.09.06a.59.59,0,0,0,0,.14l.35.05s0,0,0,.07a.91.91,0,0,0,.23,0,1.12,1.12,0,0,0,.56.07c0,.15,0,.27,0,.5a.35.35,0,0,1,.21,0c0,.13-.17.15-.17.21s.16.16.17.26c.19,0,.13,0,.24-.06,0,.19.17.2.17.34S364.88,233.29,364.69,233.26Zm2.76,30.55c-.29,0-.73-.33-.73-.53s.16-.58.42-.58c0,0,.06,0,.07,0a.66.66,0,0,0,.38.17c0,.28.21,0,.29,0s.11.15.12.19S367.69,263.79,367.45,263.81ZM351,286.33s.16-.32.27-.32.22,0,.22.14-.09.08-.09.12a1.45,1.45,0,0,1-.05.3h-.17c-.11,0-.21-.06-.2-.12A.59.59,0,0,1,351,286.33Zm6.53,1.92c.1-.07.22-.07.28-.17-.09,0-.14,0-.1-.05a4.16,4.16,0,0,0,.59-.13s0,0,0,.06c-.26.12-.42.22-.67.32C357.54,288.28,357.56,288.24,357.52,288.25Zm1.38-.4a.71.71,0,0,1-.45.18.44.44,0,0,1-.27.14s-.08,0-.12,0,0,0,0-.09.13-.12.2-.12.21-.11.33-.14.2,0,.3-.07A.21.21,0,0,0,358.9,287.85Zm23.32-30.51a1,1,0,0,1-.25-.49,6.2,6.2,0,0,0-.27-1.19,8.3,8.3,0,0,1-.42-.94,1.54,1.54,0,0,0-.1-.24h0c0-.28,0-.42,0-.57a6,6,0,0,0-.2-.84,3.4,3.4,0,0,0,.34-1.51c0-.8-.19-1.38-.24-2.08a4.4,4.4,0,0,1,.2-.83,15.6,15.6,0,0,1,.31-1.84,1.49,1.49,0,0,1,.41-.58,2.15,2.15,0,0,0,.15-.53,39.47,39.47,0,0,1,.57,6.66,38.74,38.74,0,0,1-.38,5.42C382.26,257.55,382.3,257.44,382.22,257.34Z" transform="translate(-165.94 -125.24)"/><path class="cls-7" d="M370.06,223.64l.35.32Z" transform="translate(-165.94 -125.24)"/><path class="cls-9" d="M343.72,230.6h-.18a.55.55,0,0,1,0,.25c-.07-.06-.27-.36-.54-.38s-.14.27-.37.37-.29,0-.59.09a6.54,6.54,0,0,0-1.78,1h.34a2.35,2.35,0,0,1,.41-.13.34.34,0,0,0,.34.18c.39,0,.46-.25.62-.24s.67-.33,1-.4c0,.25-.18.33-.25.45h.45c0,.11.27.22.39.22a.55.55,0,0,0,.28-.07v-1.31Z" transform="translate(-165.94 -125.24)"/><path class="cls-9" d="M343,233.16c.23-.12.33-.26.55-.26a3.19,3.19,0,0,0-.58,1.82c0,.21.28.38.53.37a.38.38,0,0,0,.33-.24v-2.4C343.42,232.63,343,232.92,343,233.16Z" transform="translate(-165.94 -125.24)"/><path class="cls-7" d="M370.41,224h0Z" transform="translate(-165.94 -125.24)"/><path class="cls-7" d="M362.11,218c-.06,0-.1,0-.11,0a39.37,39.37,0,0,1,8.06,5.63A38.76,38.76,0,0,0,362.11,218Z" transform="translate(-165.94 -125.24)"/><path class="cls-10" d="M316.26,224.9h0c-.66.67-1.3,1.36-1.91,2.07Q315.24,225.9,316.26,224.9Z" transform="translate(-165.94 -125.24)"/><path class="cls-7" d="M356.19,216.51a1.47,1.47,0,0,0-.33-.13,1.8,1.8,0,0,0-.33-.1l-1.43-.13c.14,0,.19,0,.32,0a23.68,23.68,0,0,0-2.43-.41c-.17,0-.34,0-.53-.06s-.28-.07-.57-.09-.32,0-.6,0-.37-.1-.73-.12a1,1,0,0,1-.23,0l-2.21-.14c-.2,0-.34,0-.44,0-.27,0-.05,0-.39,0a1.64,1.64,0,0,0-1,.19c-.18,0-.93-.13-1.31-.13h-.19v.79h0v.15c.4,0,1,.07,1,.18s-.52.11-1,.12v.22h.09c0,.19.63.21.92.29h-.37c-.23,0-.4-.09-.64-.12v.51h.44a5.67,5.67,0,0,0,.61,0l1.53,0c.41,0,.2.1.68.12s1.59,0,1.6-.12-.25-.06-.3-.06a4.12,4.12,0,0,0-.51,0c0-.19.82,0,.82-.22s-.11,0-.14-.09c.34.05.66,0,1,.06s.47-.16.86-.18a1.75,1.75,0,0,0-.58-.17c.39,0,.61.09.56-.05l-.55,0c.28,0,.78,0,1.21,0a7.41,7.41,0,0,0,1,.09,11.05,11.05,0,0,1,1.7-.16,18.05,18.05,0,0,0,2.07.09c-.46-.08-1.18-.16-1.39-.24,1,0,1.85.26,2.53.26.13,0,.46.12.42,0S356.43,216.61,356.19,216.51Z" transform="translate(-165.94 -125.24)"/><path class="cls-10" d="M333.4,220.11c0-.2-.46-.31-.43-.59,0-.08.44-.17.47-.29s-.3-.13-.65-.08-.58.1-.6.19,0,0,0,.07c-.33.1-.19,0-.53.07-.14,0-.35.06-.36.14s.22.38.34.46a.76.76,0,0,1-.26.09c-.37,0-.18-.16-.27-.24a.93.93,0,0,0-.59-.12l-.41.06a.16.16,0,0,1,.07.12c-.2.06-.37.1-.57.14-.11-.12-.26-.18-.78-.09a2.91,2.91,0,0,0-.6.23c-.07-.06,0-.24-.24-.2-.67.11-2.28.69-2.41,1.06,0,.05.29.07.49,0a2.66,2.66,0,0,1,.61-.11c-.2.11-.69.12-.74.29s.91,0,1.33-.13l1-.16a1.67,1.67,0,0,1,.45,0,6.24,6.24,0,0,1-.62.12,7.19,7.19,0,0,0-1.8.49,1.29,1.29,0,0,0,.79.11,4.74,4.74,0,0,1,1-.13c.22,0,0,.2.3.15.55-.09,1.11-.18,1.71-.25a11.59,11.59,0,0,1,1.42-.33c.29-.1.18-.18.53-.21.57-.08.81.16,1.6.08a2.43,2.43,0,0,0,1.16-.25c-.06,0-.16,0-.18-.09s-.3,0-.3,0,.11-.07.27-.1a2.69,2.69,0,0,0,.82-.13C335,220.38,333.39,220.38,333.4,220.11Z" transform="translate(-165.94 -125.24)"/><path class="cls-10" d="M343.07,215.59h-.43a7.74,7.74,0,0,0-2,.22,3.19,3.19,0,0,0,.43,0l.3-.05a5.56,5.56,0,0,1,.58,0,2.34,2.34,0,0,0-.55.1l.35,0a6.55,6.55,0,0,1,.79-.1H343a3.88,3.88,0,0,0-1.22.17h.93a4.13,4.13,0,0,0-.54.06,6,6,0,0,0,1.09.1,1.49,1.49,0,0,0,.43,0h.17v-.59a1.1,1.1,0,0,1-.6.09S343.14,215.59,343.07,215.59Z" transform="translate(-165.94 -125.24)"/><path class="cls-7" d="M344.42,216.57c.05,0,0,0,0-.08-.16,0-.4,0-.61-.05v.16H344A1.71,1.71,0,0,0,344.42,216.57Z" transform="translate(-165.94 -125.24)"/><path class="cls-10" d="M333.77,218Z" transform="translate(-165.94 -125.24)"/><path class="cls-10" d="M336.62,220.7c-.07,0-.44,0-.45.07s1.5.16,1.77.15a2.33,2.33,0,0,0,.53-.16,3.14,3.14,0,0,0-1.25-.35C336.81,220.41,336.87,220.64,336.62,220.7Z" transform="translate(-165.94 -125.24)"/><path class="cls-10" d="M339.77,218.08c0-.13-.46-.23-.82-.2s-.4.17-.61.19c0,0-.24,0-.27.13l1.28.13C339.64,218.31,339.76,218.21,339.77,218.08Z" transform="translate(-165.94 -125.24)"/><path class="cls-10" d="M339.59,217.28c.16,0,.31,0,.3-.08s0,0,0-.08a2.17,2.17,0,0,1-.26,0,9.77,9.77,0,0,0-1.29.14Z" transform="translate(-165.94 -125.24)"/><path class="cls-10" d="M337.68,219.09c0-.1-.58,0-.74,0,.14,0,.63-.17.67-.32s-.14-.07-.2-.06l-.8.06a4.27,4.27,0,0,0-1.2.18s-.13,0-.15.07.36.06.63,0a1.2,1.2,0,0,1,0,.2,1.45,1.45,0,0,1-.3,0c-.33,0-.62,0-.88,0a.3.3,0,0,0,0,.13c.55.17,1.15.08,1.72.27a.67.67,0,0,0,.43.1c.16,0,.23-.1.42-.14.68-.12.71,0,.85-.45h-.47C337.62,219.11,337.67,219.2,337.68,219.09Z" transform="translate(-165.94 -125.24)"/><path class="cls-10" d="M333.94,217.9a.89.89,0,0,0-.22,0s0,0,0,.07h0a.43.43,0,0,1,0,.12,1.19,1.19,0,0,0,.47,0s0,0,.05.06a2.66,2.66,0,0,1,.28,0c0,.05.09.08.22.06.39,0,1.08-.16,1.44-.19h.23c-.11,0-.48.06-.5.14s0,0,0,.07a.3.3,0,0,0-.15.08c0,.09.51,0,.63,0l.79-.09c-.05-.18.19-.31.21-.45s0-.16-.37-.15l-.4.09a8.39,8.39,0,0,0-.87,0,2.35,2.35,0,0,0-.35,0c.11.11.33.06.67,0a.77.77,0,0,0,0,.15c-.51.07-.62-.11-1.05-.05,0,0,0,0,0,.08a.92.92,0,0,0,.37.08C334.73,218.14,334.51,217.84,333.94,217.9Z" transform="translate(-165.94 -125.24)"/><path class="cls-10" d="M335.54,217.41a2.9,2.9,0,0,0-.43,0c-.07,0-.54.17-.19.12A2,2,0,0,0,335.54,217.41Z" transform="translate(-165.94 -125.24)"/><path class="cls-10" d="M333.26,218.6l.38,0c.11,0,.29,0,.31-.12s-.08,0-.12-.09A.82.82,0,0,0,333.26,218.6Z" transform="translate(-165.94 -125.24)"/><path class="cls-10" d="M337.24,216.86c0,.19.38.14.61.2-.05,0-.19,0-.2.08s.65,0,1.37-.08c-.06-.1,0-.1,0-.16s-.68,0-.68-.11a1.58,1.58,0,0,1-.66,0C337.49,216.77,337.24,216.77,337.24,216.86Z" transform="translate(-165.94 -125.24)"/><path class="cls-7" d="M362.17,218.18a1.68,1.68,0,0,1-.24-.07,5.24,5.24,0,0,1-.83-.34H361c0,.06.09.07.12.12-.33-.09-.43-.25-.75-.33s-.75-.12-1.23-.2c-.66-.16-.88-.15-1.6-.27s0,.22-.64.11a1.78,1.78,0,0,1-.48-.13,17.44,17.44,0,0,1-1.76,0c-.09,0-.37-.05-.36,0s1.09.24,1.43.31c.05.19-.14.19-.44.2s-1.08-.17-1.61-.18c-.36,0-.55,0-.91,0s-1.11-.14-1.09,0a12.65,12.65,0,0,0,2,.48l.68.08a.14.14,0,0,0,.18,0c.26,0,.5.09.77.11-.07.09,0,.09-.22.1l-1.1-.14a.61.61,0,0,1-.34,0l-.49,0c-.14,0-.53-.07-.57.06.38.11.25,0,.69.08.23,0,.48.14.8.2-.08.07-.19,0-.37.06a6.33,6.33,0,0,0,1.3.32c.14,0,.13,0,.24,0l-.2-.08.38,0c.24,0,.42.11.59.13a5.71,5.71,0,0,1,.59,0l.56.09a7.18,7.18,0,0,1,4.12,1.77.26.26,0,0,0,0,.11c.15.06.42.08.47.21s-.35.08-.3.24.18.17.51.23.24-.05.41,0c.57.15.84.51,1.38.72,0,.06,0,.12-.13.07-.42-.09-.71-.28-1.08-.35a1.65,1.65,0,0,0-.32-.07,7.63,7.63,0,0,0,2,.76c-.1.19-.31.19-.37.4a.69.69,0,0,0-.49-.09s0,0,0,0c-.34.05-.39.18-.61.29a.61.61,0,0,0,0,.18,1.07,1.07,0,0,1,.36.08c0,.1-.16.07-.14.17s.56.41.71.59a1.77,1.77,0,0,0,.24.32c.34.15.34-.05.66.17-.14,0-.26,0-.23.1a3.27,3.27,0,0,0,1.18,1.16s.06.13.16.2c.32.14.45.14.63.37.2,0,.45,0,.68,0,.43.12.48.48.9.59a.94.94,0,0,1,.3,0c0,.06.11.09.22.13.43.1.12-.37.46-.38a4,4,0,0,1-.12-.47c-.07-.26.65-.09.6-.36-.05-.09-.21-.18-.24-.24s0,0,.08-.06,0-.05-.05-.08c-.1-.25.73.06,1,0s0-.11.21-.09a.88.88,0,0,1,.05.15,1.8,1.8,0,0,1,.21.08c.25,0,.72.21.92.18s-.36-.61-.16-.61.15,0,.26,0c0-.06.09,0,.2,0l.24.11c-.54-.57-1.1-1.12-1.67-1.66h0l-.35-.32A39.37,39.37,0,0,0,362,218a0,0,0,0,0,0,0C362.05,218.07,362.09,218.14,362.17,218.18Z" transform="translate(-165.94 -125.24)"/><path class="cls-7" d="M357.71,232.08h0S357.71,232,357.71,232.08Z" transform="translate(-165.94 -125.24)"/><path class="cls-7" d="M344.31,220.19h.09c0,.15.32.16.32.27s-.49.09-.6.19-.12.25-.3.4v.86c.09,0,.15,0,.16-.08,0-.21-.06-.29-.1-.32.43,0,.6.2.89.21s.46,0,.71,0c-.1,0,0-.24.26,0a2.22,2.22,0,0,0,1.23-.46c0-.1-.49-.2-.5-.27s-.3-.21.37-.37c.09-.09,0-.06,0-.24a1.46,1.46,0,0,1-.61-.13l1.27.06c0,.07-.09.18.18.19s.69-.26,1-.26a12.47,12.47,0,0,1,1.56.55c-.1,0-.48,0-.48.07a.41.41,0,0,0,.17.11c.27,0,.39-.07.65-.05.43.05,1.77.54,1.82.77s-.4.26-.59.33-.51-.06-.5.09.3.18.39.22a8.13,8.13,0,0,1-.94,0c-.32,0-.59,0-.9-.06s-.83.1-.84.19.69.29.93.31.37-.1.63-.1.15.07.36.09a.83.83,0,0,0,.41-.1c.63.19,1,.38,1.68.58-.31.26.91.37,1.43.53s.91.19,1.53.37c.05,0,.13.13.22.14s.19,0,.19-.09c-.07-.26-1.2-.56-1.57-.8a1.55,1.55,0,0,0,.31,0A10.24,10.24,0,0,0,357,224c.07-.1.26-.22.25-.32s-.38-.19-.39-.25a1.24,1.24,0,0,1,0-.18c-.1,0-.25,0-.35,0s-.18-.08-.57-.18a1.32,1.32,0,0,1-.49-.38l-.26,0a.3.3,0,0,0,0-.13.68.68,0,0,0,.3,0s0-.06,0-.1a1.62,1.62,0,0,1-.41-.06,1.56,1.56,0,0,1,.4,0c1,.12,1.07.69,2.07.84.22,0,.23-.1.22-.21.38,0,.42,0,.42,0s0-.07,0-.11c.24,0,.56.07.55-.06s-.18-.22-.55-.27a2.37,2.37,0,0,1-.36-.09c-.19-.21-.25-.08-.69-.14a.58.58,0,0,1-.48-.35c-.41-.07-.95-.22-1-.42a1.71,1.71,0,0,1-.57-.13c.17-.14.32-.08.63-.11a.76.76,0,0,0-.31-.11c-.22,0-.39-.07-.6-.09a1.33,1.33,0,0,1,.68,0,1,1,0,0,0-.58-.26,1.86,1.86,0,0,0-.34,0,.3.3,0,0,0,0-.13c-.56-.12-.87-.25-1.42-.38,0-.17-.47-.2-.68-.22s-.33,0-.51,0c-.68-.07-.83-.35-1.3-.49a8.27,8.27,0,0,0-1.53-.22c-.37,0-.46.17-.8.14-.16,0-.25-.09-.48-.1a1.27,1.27,0,0,0-.41.06c-.09,0,0-.12,0-.16s-.3-.44-.84-.46c-.82,0-2.17,0-2.19.33,0,.09.21.11.21.21s-.29.15-.41.15-.21-.06-.21-.14a.15.15,0,0,1,0-.14h-.07v1A1.69,1.69,0,0,0,344.31,220.19Z" transform="translate(-165.94 -125.24)"/><path class="cls-10" d="M343.4,222.85h.42v-.2l-.1,0C343.69,222.72,343.42,222.71,343.4,222.85Z" transform="translate(-165.94 -125.24)"/><path class="cls-7" d="M344.86,231.28c.13.22,0,.37.18.53.54.4,1.22.36,1.81.63a5.78,5.78,0,0,0,.59,0c.28.16.62.34.63.61a.25.25,0,0,1-.23.21c-.27,0-.56-.27-.64-.31-.09.27-.28,1.14-.6,1.16-.24-.15-.24-.28-.33-.58-.23.05-.18.12-.46.13.07-.26.25-.43.25-.68s-.85-.55-1-.54c-.38,0,0,.41-.83.47-.25,0-.25.55-.25.79v.59a1.11,1.11,0,0,1-.13.56v7.77c.43.1.67.48,1.05.47.16,0,.32-.28.54-.28,1.08,0,.79,1.31,1.17,2a3.64,3.64,0,0,0,.73.81c.13.23.12.53.48.55s.53-.4.53-.87a2.22,2.22,0,0,0-.3-.88.34.34,0,0,0,0-.1c0-.71-.66-.91-.68-1.64,0-1.59,1.17-1.66,2.3-2.2l-.07,0a.75.75,0,0,1,.4-.27c.15,0,.31-.2.59-.24.1,0,.22-.16.27-.23l-.27-.15s0-.13,0-.17c.16,0,.32,0,.36-.2a.48.48,0,0,1-.32-.19c.08,0,.3-.07.3-.25a1.47,1.47,0,0,0,0-.21.49.49,0,0,0-.17,0c-.1-.1,0-.11,0-.31s-.13-.59-.14-.73a.69.69,0,0,1,0-.27c0,.22.28.52.27.69a1.77,1.77,0,0,1,0,.23s.06.12.09.12a3.56,3.56,0,0,0,.52-.83c0-.13-.17-.21-.22-.4l.12-.09s.11.16.16.16.59-.7.63-.85c0,0-.22-.17-.22-.25s.09-.11.14-.14a1.77,1.77,0,0,1,.21,0,4.15,4.15,0,0,0,.87-.07c-.12-.09-.36,0-.58,0a.89.89,0,0,0-.23,0c.46-.25,1.23-.11,1.68-.38a1.47,1.47,0,0,0,.75,0s0-.1,0-.14l-.24.13c-.11,0-.24-.29-.24-.37s-.09-.14-.1-.18c0-.79.79-.51,1.16-.81a1,1,0,0,1,.5-.11.75.75,0,0,0,.69-.28,1.34,1.34,0,0,1-.11-.14.06.06,0,0,0,0-.06v-.06l.22,0a2.77,2.77,0,0,0,.87,0c.2-.11.17-.34.49-.34,0,.26,0,.28.35.31-.51,0-1.25.26-1.23.68a1,1,0,0,0,.46.51c.15,0,.55-.46,1-.57a5.23,5.23,0,0,0,1.51-.54c0-.2-.55-.27-.69-.28-.62-.06-1.62-.65-1.69-1.12a4.34,4.34,0,0,0-.46-.08c.11-.14.86-.16.85-.54s-.67-.33-1.14-.37c-1-.05-1.34.46-2,.52.27-.49.72-.31,1.18-.67.3-.25,0-.41.5-.51a6.7,6.7,0,0,1,2.09.09c1.07.09,1.88.53,2.45-.08.26-.28,1.76-.07,1.73-.5a1.05,1.05,0,0,0-.42-.67c-.14,0,.06-.11-.18-.22,0,0,0-.1,0-.15a7,7,0,0,1-1.84.15.31.31,0,0,1-.21-.07c.39-.1,1.45,0,1.57-.29,0-.07-.16-.11-.19-.17-.49,0-1.5-.28-1.57-.73,0,0,0,0,0,0a2.35,2.35,0,0,1-1-.42c.09,0,.28,0,.27-.19s-.2-.26-.18-.37c-.21-.07-.89-.38-.74-.6s-.67-.41-.8-.75a2.29,2.29,0,0,1-.37-.2c-.13.05-.5.13-.43.29s-.23.29-.6.41-.43.27-.65.25c-.38,0-.69-.46-.94-.49s-.23-.61-.31-.89-1.2-.2-1.28-.64c-.6-.09-.53-.31-1.14-.35l-.47,0c-.62,0-1-.27-1.63-.3-.32,0-.64.06-.63.27s.79.32.09.55c-.28.09.41.41.47.58.09.4-.51.45-.81.49.31.28.89.37,1.16.61s.09.56.11,1c0,.24-1.3.78-1.76.83.81.27.52,1,.83,1.25a1.5,1.5,0,0,0-.33.5,1.31,1.31,0,0,1-.74,0c-.58-.3-1.41-.83-1.44-1.2s0-.73-.64-1c-.48-.1-.95-.17-1.43-.24-.27-.1-.54-.18-.82-.27v3.81A9.88,9.88,0,0,1,344.86,231.28Zm11.59,2.22s-.05-.12-.08-.16S356.43,233.46,356.45,233.5Zm-.09-.19a1,1,0,0,1-.06-.18C356.32,233.18,356.34,233.26,356.36,233.31Zm-.1-.4,0-.22C356.26,232.74,356.25,232.85,356.26,232.91Zm-7.84,1.39s0,.07.05.09S348.43,234.32,348.42,234.3Zm.07.13.07.15A.69.69,0,0,1,348.49,234.43Zm.08-.48a13.9,13.9,0,0,1,2.12-.29c0,.69-1.43.49-2.1.46a1.72,1.72,0,0,1-.27,0l.08.13s-.12-.11-.13-.16S348.51,234,348.57,234Zm-.38.77.22-.08a7.12,7.12,0,0,1-2,.56c-.24,0-.33-.28-.33-.47a.77.77,0,0,0,.35.23.47.47,0,0,0,.32-.19,1.5,1.5,0,0,1,.87-.13C348,234.66,348.1,234.76,348.19,234.72Z" transform="translate(-165.94 -125.24)"/><path class="cls-7" d="M345.48,232.29a1.47,1.47,0,0,0,0-.21c-.49,0-.74-.22-1.3-.24a.84.84,0,0,0-.36.11v.5a1.67,1.67,0,0,1,.63-.16A3.86,3.86,0,0,0,345.48,232.29Z" transform="translate(-165.94 -125.24)"/><path class="cls-7" d="M344.28,255.69a.89.89,0,0,1,.31.38c.13.35-.12.63.25.86h.24a.23.23,0,0,1,0-.2,5.1,5.1,0,0,1,.93.6c.07.13.08.38.43.46,0,0,.09.14.13.13s.54-.13.72,0,.43.59.82.59a.38.38,0,0,0,.37-.33s-.19-.13-.2-.2a2.12,2.12,0,0,1,.86-.57c.25,0,.09.49.36.62,0,.06-.14.16-.15.22s.24.14.28.17l.05,0,0,.13c0,.4.41.31.43.79,0,.22-.12.3-.13.56s.14.3.14.48v.11s-.08.13-.1.18a.46.46,0,0,0,.24.21c-.17.59-.76.43-1,.92s-.36.91-1,.93a6.74,6.74,0,0,1-.26,1.85c0,.31,0,.7.37.72.12,0,.14-.11.36,0-.12.33-.52.42-.75.75a1.16,1.16,0,0,0-.27.63,1.59,1.59,0,0,0,.58,1c.07.06.27,0,.35.16a1.58,1.58,0,0,0,.27.56c.07,0,.23,0,.3.14a6.88,6.88,0,0,1,.5,1.09c.15.42.27.87.44,1.34.1.29.42.42.41.72s-.1.45.08.6a2.73,2.73,0,0,0,1.33.73,1.31,1.31,0,0,1,.71.34,2.41,2.41,0,0,0,.81.26,1.48,1.48,0,0,1,.9.83,9.9,9.9,0,0,1,.08,1.42c0,.27-.25.75-.27,1s0,.47-.06.75a3.12,3.12,0,0,0-.19.6c0,.05,0,.1,0,.15-.07.56-.41.91-.47,1.53,0,.25-.28.49-.18.76s-.05.77-.09,1.13-.19.6-.36.95c0,.06-.13.06-.2.11s-.17.3-.27.42a1.77,1.77,0,0,0-.56.85c0,.11,0,.46.06.46s.1,0,.1.13-.08.08-.21.1c-.1.24-.25.34-.27.58s-.09.45.08.46.16-.1.32-.16.13,0,.18,0a1.1,1.1,0,0,1,0,.18c-.34.52-.65,1-1,1.53-.29,0-.14-.16-.49-.13-.09,0-.18,0-.19.12h0c-.05,0,0,.05,0,.1s.23.19.23.3-.46.26-.5.41.23.42.2.6,0,.06,0,.12.49.09.46.28-.09.09-.16.14a.66.66,0,0,0,.15,0c-.08.1-.35,0-.38.16s.08.05.15.06a1.43,1.43,0,0,0,.87.1c0,.07,0,.08.18.07l.34,0c-.07.24.38.08.63.07s.09.2.5.14a4.13,4.13,0,0,1,.49-.07l.19-.06a1.08,1.08,0,0,1,.19,0c.18,0,.64-.22.9-.27a.59.59,0,0,0,.29-.07,4.44,4.44,0,0,1-1.24-.08c-.22-.05-.11-.38-.41-.43-.1,0-.24,0-.23-.14s.15-.26.4-.4.46-.09.63-.23.11-.21.27-.31.76-.26.82-.5-.79,0-.73-.4a.92.92,0,0,1,.63-.41c.12,0,.68.12.76,0a1.76,1.76,0,0,1,.6-.75c-.1,0-.19,0-.17-.14.18,0,.23.07.47,0,0,0,.21-.08.22-.18s-.07,0-.15-.09a1.24,1.24,0,0,1-.28.12c-.15,0-.32-.23-.3-.41a.2.2,0,0,1,.22-.17c.39-.07.42.09.82,0a1.23,1.23,0,0,0,.46-.22.27.27,0,0,1,0-.12c.17-.19,0-.33.23-.53s.78-.1,1.09-.21a5,5,0,0,0,1.2-.46,5.82,5.82,0,0,0,.57-.48c.12-.1.13-.18.17-.36s-.25-.08-.28-.23,0-.28-.13-.37-.31,0-.29-.18.11-.08.16-.09c.3-.05.5.07.75,0a6.74,6.74,0,0,0,.79,0c.84-.18,1.12-.86,1.57-1.37s.86-.79,1.27-1.23c.2-.24,0,.1.2-.12h0a3.13,3.13,0,0,1,.85-.85c.08-.39.13-.81.2-1.23s-.06,0,.22-.2.4-.19.57-.43c.4-.51.76-.38,1.26-.84.05-.05.07-.14.2-.21a2.56,2.56,0,0,1,.82-.28,1.48,1.48,0,0,0,.79-.57c.05-.06.06-.25.15-.37.3-.37.4-.55.72-1a3.14,3.14,0,0,0,.19-.57,1.07,1.07,0,0,1,.28-.42c0-.05.11-.14.11-.22s.31-1.11.36-1.41-.18-.52.09-.85a4.9,4.9,0,0,0,.55-.56c.14-.18.19-.22.31-.4a7,7,0,0,0,1.45-2.93c.05-.39,0-.74-.27-.8s-.34.08-.55.05a1.76,1.76,0,0,1-.78-.75,2.45,2.45,0,0,0-.74-.2c-.19.05-.42.12-.65.17s-.35-.24-.74-.21c-.16,0-.23.15-.4.25h-.13a1.22,1.22,0,0,0,0-.47c0-.14-.17-.09-.32-.18a3.24,3.24,0,0,0-1.19-.42c-.32,0-.55.46-.77.79,0,.09-.15.25-.22.25s-.09-.15-.08-.2a4.3,4.3,0,0,0-.46,0,.48.48,0,0,0-.3-.43c-.09,0-.27,0-.26-.2a4.54,4.54,0,0,1,1-1.82c0-.16-.23-.19-.32-.38a4.72,4.72,0,0,1-.3-1.1c-.33-.06-.72-.7-1-.7h-.12s0,0,0-.05a1.7,1.7,0,0,1-.66-.2c-.16,0-.37,0-.54,0-.57-.09-1.4,0-1.57-.58a.43.43,0,0,1-.32-.11c-.27-.53-.43-.44-.84-.84-.19,0-.4,0-.61,0-.1-.29,0-.58-.29-.68s-.78-.15-.94-.45a1,1,0,0,1,0-.17.48.48,0,0,0,.33,0,4.35,4.35,0,0,0-.62-.05,4.27,4.27,0,0,0-.56.11c-.18.26-.36.26-.7.32-.14,0-.46,0-.46-.24-.4,0-.81,0-1.23,0a.4.4,0,0,1-.28-.39c-.33-.05-.87-.18-.95-.53H355c0,.26.35.16.44.41h-.56c-.21.14-.58.09-.59.42s.25.4.27.67c0,.07-.15.35-.22.36-.29,0-.41-.42-.38-.66a6.55,6.55,0,0,1,.21-.9.27.27,0,0,0,.24-.26s-.12-.25-.21-.26c-.27,0-.38.32-.69.42-.61.18-1,.27-1.54.45-.31.1-.52.15-.65.51,0,.13-.09.45-.22.55s-.37.16-.39.38c0,0-.14.08-.14.11a.57.57,0,0,1,0,.13c-.12.05-.11,0-.29,0a1.3,1.3,0,0,0-.18.15l.16-.18c-.38-.27-.42-.9-1.12-.93s-.88.44-1.53.45c-.42,0-.4-.39-.67-.53s-.88-.35-.9-.86,0-.88,0-1.35a3.89,3.89,0,0,0,.17-1.29,1.93,1.93,0,0,0,0-.34c-.43-.09-.57-.45-1.17-.46a11,11,0,0,0-1.19.07v2.64Z" transform="translate(-165.94 -125.24)"/><path class="cls-7" d="M344.61,218.65l-.68-.08h-.11v.33C344,218.79,344.45,218.77,344.61,218.65Z" transform="translate(-165.94 -125.24)"/><path class="cls-7" d="M357.79,232.09h-.06S357.78,232.21,357.79,232.09Z" transform="translate(-165.94 -125.24)"/><path class="cls-10" d="M343.46,216.3s.16.08.36.1v-.15C343.64,216.25,343.46,216.23,343.46,216.3Z" transform="translate(-165.94 -125.24)"/><path class="cls-10" d="M343.46,216.41s-.34.08-.35,0,.15,0,.15-.08-.24,0-.24-.07,0-.1-.26-.09h-.2a.26.26,0,0,0,.1,0v.06h-.24c-.19-.05-.05-.12-.35-.14s-.49,0-.79,0-.23-.15-.62-.19a12.22,12.22,0,0,0-1.23,0c0,.12.34.05.58.08-.1,0-.24,0-.33,0a2.51,2.51,0,0,0-.75.09,1.21,1.21,0,0,0,.24.07c.11,0,.34,0,.55,0a.49.49,0,0,1-.22.06,2.65,2.65,0,0,0-.52,0c-.17,0-.45,0-.46.08s.59.05.85.06a.39.39,0,0,1-.18.05h-.58a1.51,1.51,0,0,0-.3,0c.08.23.44.16,1.13.11a2,2,0,0,1-.46.09c0,.05,0,0,.15,0l.42-.06c.05,0,.07.08.27.06s.29-.06.6-.07a7.24,7.24,0,0,1,.81,0c-.27,0-1.49,0-1.52.16s.54.11.89.1a1.15,1.15,0,0,1-.26.05c.07.09.46.08.79.07s.5,0,.49-.14a3.64,3.64,0,0,0,.72.09s0,0,0-.07h.36l-.26-.1.24-.09c.06.09.06.12.32.11a7.59,7.59,0,0,0,.81-.16v-.16Z" transform="translate(-165.94 -125.24)"/><path class="cls-10" d="M343.65,216.19a.3.3,0,0,0,.17.06v-.06Z" transform="translate(-165.94 -125.24)"/><path class="cls-10" d="M343.71,216.71a1.42,1.42,0,0,0-.6.18V217a1,1,0,0,1,.3,0,.71.71,0,0,1,.2,0h.21v-.22Z" transform="translate(-165.94 -125.24)"/><path class="cls-10" d="M342.14,219.06c-.32.07-.43.12-.43.35s.31.21.31.21.94,0,1.14.08v.1a6.09,6.09,0,0,0-.94,0c0,.13.34.14.46.24.33,0,.67,0,1,0l.14.06v-1c-.05,0-.1,0-.1-.07a.2.2,0,0,1,.1-.14v-.33a4.56,4.56,0,0,0-1.54.28C342.22,218.89,342.29,219,342.14,219.06Z" transform="translate(-165.94 -125.24)"/><path class="cls-7" d="M345.25,218.27c.2,0,.23-.06.51-.08.06.06.14.12.41.13.72,0,1.62.07,1.67-.19a.65.65,0,0,1-.26,0s.06,0,.09-.06h.16a3.49,3.49,0,0,0-1.62-.27c-1-.05-1.36.11-2.39.12v.36Z" transform="translate(-165.94 -125.24)"/><path class="cls-10" d="M343.21,217c-.23,0-.49-.06-.51.06s.43.11.67.16c-.43.11-1.46,0-1.49.24,0,0,.07.05.2.05a.83.83,0,0,0,.25-.06c.56,0,1,.09,1.49.1v-.51A2.65,2.65,0,0,0,343.21,217Z" transform="translate(-165.94 -125.24)"/><path class="cls-10" d="M342.29,217.82c-.08,0-.34.11-.32,0s.1,0,.14,0c-.3-.09-.78,0-.9-.15.27,0,.53,0,.8,0-.18-.09-1.09,0-.93-.19h-.36a1.13,1.13,0,0,1-.41.06,16.17,16.17,0,0,0-1.71-.16c-.22,0-.58,0-.6.14a6,6,0,0,0,1.41.16.92.92,0,0,0,.4-.08c.33.12.41.2.78.32-.07,0-.25.06-.25.12s1,.29,1.45.3a4.1,4.1,0,0,0,.57-.13c.07,0,.18,0,.25,0-.06.16.57.17,1,.11h.2v-.36h-.14C343.17,217.91,342.78,217.86,342.29,217.82Z" transform="translate(-165.94 -125.24)"/><path class="cls-7" d="M344.33,222.86c0,.1-.11.18.15.19.09,0,.11,0,.17-.08.32.06,1-.12,1-.31.11,0,.83.25.83.25h.58a3,3,0,0,0,.7-.07c-.19-.13-.57-.08-.92-.21-.1,0-.05-.1-.16-.16-.39-.22-1.07-.15-1.53-.4a.62.62,0,0,0-.19.07c-.1-.1-.21-.13-.33-.26-.61,0-.7.37-.7.53v.13s-.06.07-.12.09v.2A4.43,4.43,0,0,1,344.33,222.86Z" transform="translate(-165.94 -125.24)"/><path class="cls-7" d="M346.51,248.33h-.05a.86.86,0,0,1,0,.16.24.24,0,0,0-.22.21s.33,0,.34,0a1.29,1.29,0,0,0,0-.34Z" transform="translate(-165.94 -125.24)"/><path class="cls-7" d="M359.31,231.38a.25.25,0,0,0,.28-.07,2.76,2.76,0,0,0-1.53-.5A3.65,3.65,0,0,0,359.31,231.38Z" transform="translate(-165.94 -125.24)"/><path class="cls-7" d="M350.4,245.42a1.13,1.13,0,0,1-.12-.18S350.35,245.43,350.4,245.42Z" transform="translate(-165.94 -125.24)"/><path class="cls-7" d="M359.52,232.88l-.64-.06a.79.79,0,0,1-.49-.29s-.08.06-.07.1a3.4,3.4,0,0,0,1,.5s.24-.08.24-.16S359.53,232.9,359.52,232.88Z" transform="translate(-165.94 -125.24)"/><path class="cls-7" d="M349.58,246.24c0,.14,0,.43.24.43a.21.21,0,0,0,.12-.11.32.32,0,0,0-.27-.31Z" transform="translate(-165.94 -125.24)"/><path class="cls-7" d="M349.83,245.15a.44.44,0,0,0-.29-.18.65.65,0,0,0-.33.17A5.66,5.66,0,0,0,349.83,245.15Z" transform="translate(-165.94 -125.24)"/><path class="cls-7" d="M352.78,249a.75.75,0,0,0,.38-.13v-.2a.54.54,0,0,1-.47.2.57.57,0,0,0,0,.13Z" transform="translate(-165.94 -125.24)"/><path class="cls-7" d="M347.19,228.39a.21.21,0,0,1,0,.11.81.81,0,0,0,.47.17s.06,0,.08,0C347.72,228.48,347.47,228.4,347.19,228.39Z" transform="translate(-165.94 -125.24)"/><path class="cls-7" d="M345.63,223.36a.24.24,0,0,0,0,.12,3.16,3.16,0,0,0,1.07-.28,2,2,0,0,0-.61-.06C346.08,223.2,345.81,223.27,345.63,223.36Z" transform="translate(-165.94 -125.24)"/><path class="cls-7" d="M347.63,223.59l.33.16c.23,0,.26-.12.38-.19C348.12,223.44,347.64,223.41,347.63,223.59Z" transform="translate(-165.94 -125.24)"/><path class="cls-7" d="M363.47,222.51a8.48,8.48,0,0,0-1.12-.51c-.18,0-.38-.05-.36.07a1,1,0,0,0,.43.35,1.93,1.93,0,0,1,.39.08C363.12,222.55,363.46,222.63,363.47,222.51Z" transform="translate(-165.94 -125.24)"/><path class="cls-7" d="M348.9,223.09a.53.53,0,0,0,.49,0C349.11,223.05,349.11,223,348.9,223.09Z" transform="translate(-165.94 -125.24)"/><path class="cls-7" d="M348.25,220.77a.52.52,0,0,0,.47-.17C348.47,220.59,348,220.74,348.25,220.77Z" transform="translate(-165.94 -125.24)"/><path class="cls-7" d="M361.16,256H361c-.1,0-.24.24-.26.48,0,.06.14,0,.19,0s.22-.25.26-.32S361.17,256,361.16,256Z" transform="translate(-165.94 -125.24)"/><path class="cls-7" d="M364.78,232.59c-.11,0,0,.09-.24.06,0-.1-.15-.2-.17-.26s.16-.08.17-.21a.35.35,0,0,0-.21,0c0-.23,0-.35,0-.5a1.12,1.12,0,0,1-.56-.07.91.91,0,0,1-.23,0s0,0,0-.07l-.35-.05a.59.59,0,0,1,0-.14l.09-.06a.86.86,0,0,0-.33-.11c-.12,0-.11.07-.28.08a.61.61,0,0,1,0-.14c.07-.25.47-.37.44-.69a.3.3,0,0,0-.16-.17c-.32,0-.4.19-.54.37s-.41,1-.95,1.13c0,.05.12.09.17.1a.09.09,0,0,1,0,.09s-.33.2-.33.26a.35.35,0,0,0,.22.18c.23,0,.3-.06.62,0s.35.13.61.17a1.1,1.1,0,0,0,.4,0c.13.17.36.1.56.13-.05.08-.2,0-.19.22s.08,0,.12,0c.23,0,.37-.17.52-.35.17.15.09.43.24.44l.16.05a.22.22,0,0,0,.2.21c.19,0,.28-.15.26-.33S364.8,232.78,364.78,232.59Z" transform="translate(-165.94 -125.24)"/><path class="cls-7" d="M350.76,250.78s0,0,.05,0a2.72,2.72,0,0,0-.76-.18c-.07,0-.24.07-.24.14a.44.44,0,0,0,.39.34A4.12,4.12,0,0,0,351,251,.27.27,0,0,0,350.76,250.78Z" transform="translate(-165.94 -125.24)"/><path class="cls-7" d="M367.88,262.88c-.08,0-.27.26-.29,0a.66.66,0,0,1-.38-.17s0,0-.07,0c-.26,0-.38.25-.42.58s.44.54.73.53.52-.55.55-.74S368,262.88,367.88,262.88Z" transform="translate(-165.94 -125.24)"/><path class="cls-10" d="M337,216.4l.32,0a.5.5,0,0,0,0-.12c-.12,0-.42,0-.67.05C336.64,216.43,336.86,216.38,337,216.4Z" transform="translate(-165.94 -125.24)"/><path class="cls-7" d="M382.15,245.7a2.15,2.15,0,0,1-.15.53,1.49,1.49,0,0,0-.41.58,15.6,15.6,0,0,0-.31,1.84,4.4,4.4,0,0,0-.2.83c.05.7.24,1.28.24,2.08a3.4,3.4,0,0,1-.34,1.51,6,6,0,0,1,.2.84c0,.15,0,.29,0,.57h0a1.54,1.54,0,0,1,.1.24,8.3,8.3,0,0,0,.42.94,6.2,6.2,0,0,1,.27,1.19,1,1,0,0,0,.25.49c.08.1,0,.21.12.44a38.74,38.74,0,0,0,.38-5.42A39.47,39.47,0,0,0,382.15,245.7Z" transform="translate(-165.94 -125.24)"/><path class="cls-7" d="M358.3,288c-.07,0-.07.09-.2.12s0,.07,0,.09.09,0,.12,0a.44.44,0,0,0,.27-.14.71.71,0,0,0,.45-.18.21.21,0,0,1,0-.07c-.1,0-.14,0-.3.07S358.41,288,358.3,288Z" transform="translate(-165.94 -125.24)"/><path class="cls-7" d="M351.17,286.58h.17a1.45,1.45,0,0,0,.05-.3s.08,0,.09-.12,0-.16-.22-.14-.27.32-.27.32a.59.59,0,0,0,0,.13C351,286.52,351.06,286.59,351.17,286.58Z" transform="translate(-165.94 -125.24)"/><path class="cls-7" d="M355.76,250.26l.07.06c-.4-.21-.54-.58-1.29-.59-.27,0-.39.09-.7.08-.16,0-.33-.16-.56-.16a.33.33,0,0,0-.19.16c0,.1.2.25.31.25a.64.64,0,0,0,.16.48c-.29.13-.5,0-1.05,0,0,0-.08.1-.12.09s.14.34.29.37a.52.52,0,0,1,0-.18c.09,0,.11,0,.28,0a3.05,3.05,0,0,1,1,.07c.08.06.05.29.28.29s.23-.39.53-.4c.09,0,.13.11.24.11a1,1,0,0,0,.41-.18h.85A2.65,2.65,0,0,0,355.76,250.26Z" transform="translate(-165.94 -125.24)"/><path class="cls-7" d="M351.8,249.08l-.36,0a.85.85,0,0,1,0-.16,2.33,2.33,0,0,1-1.47-.58s-.24-.25-.4-.27c-.8,0-1.28-.56-2.35-.58a2,2,0,0,0-2,1,.81.81,0,0,1,.22,0,2.37,2.37,0,0,1,1.34-.54.51.51,0,0,1,.34.07c-.06.05-.1.14,0,.25h.7c.33,0,.49.33.83.34a1,1,0,0,1,.51,0c.06,0,.06.2.26.2.06.36.44.32.81.48a.31.31,0,0,1-.24.2s0,.11,0,.14c.45,0,.83.16,1.38.16.27,0,.72,0,.89-.27C352.22,249.48,352.07,249.15,351.8,249.08Z" transform="translate(-165.94 -125.24)"/><path class="cls-7" d="M357.4,250.62s-.25,0-.24.13.3.25.56.25c.11,0,.3,0,.36-.13S357.46,250.62,357.4,250.62Z" transform="translate(-165.94 -125.24)"/><path class="cls-7" d="M360.87,233.26a.41.41,0,0,1,0-.11c-.48-.05-.17-.11-.19-.25s-.12-.12-.16-.18a.87.87,0,0,0-.43.5c0,.09.13.2.35.21S360.87,233.36,360.87,233.26Z" transform="translate(-165.94 -125.24)"/><path class="cls-7" d="M345.28,221.86c0,.06.14.15.43.15C345.57,222,345.55,221.82,345.28,221.86Z" transform="translate(-165.94 -125.24)"/><path class="cls-7" d="M358.29,287.9a4.16,4.16,0,0,1-.59.13s0,.06.1.05c-.06.1-.18.1-.28.17s0,0,.07,0c.25-.1.41-.2.67-.32C358.28,287.93,358.29,287.94,358.29,287.9Z" transform="translate(-165.94 -125.24)"/><path class="cls-10" d="M328.6,218.51a.53.53,0,0,0,.27-.13c-.11,0-.53-.06-.59.1S328.43,218.53,328.6,218.51Z" transform="translate(-165.94 -125.24)"/><path class="cls-10" d="M312.72,229.15c.06.23.42.13.78.07a6.21,6.21,0,0,1,.66-.28c.34,0,.75-.18,1.06-.1s.24.26.53.17c.14,0,.19-.15.27-.25.15.08.17.09.38,0s.15-.05.25,0-.19.14-.21.27.11.11.18.09.15-.15.44-.25a.7.7,0,0,0,0,.14c0,.08-.25.15-.28.24s0,.15.23.09.46-.14.43,0a.75.75,0,0,1,0,.16c0,.13.31.23.58.17,0-.05.11,0,.17-.05s.07.07.06.14-.06.87.15.89.25,0,.35,0-.09.27.1.31a1.88,1.88,0,0,1,.42.14c.1.25,0,.56.65.46,0,.23.67,0,.79.26,0,.12.47.06.66.16a.59.59,0,0,0,.19,0c.05.12.21.12.2.25a1.3,1.3,0,0,1-.31.38c-.06-.12-.22-.18-.5-.14-.07,0-.27.06-.29.13,0,.28.39.32.37.61a13.9,13.9,0,0,0-.55,2.67,10.18,10.18,0,0,0,.22,1.1c-.1.08-.31.22-.23.38.28.54.61,1.33,1,1.37-.17.82.26.5.52,1.18,0,.14,0,.36.13.43a3.48,3.48,0,0,1,2,1.17H324a.75.75,0,0,1,0,.15,3.68,3.68,0,0,0,.48.93c.1.25.08.82.32,1a4.05,4.05,0,0,1,1,1.08c.18.27-.34.2-.43.2.21.31.69.24,1,.52s.39.43.62.66c0,.14,0,.37,0,.55s.08.11.22.19.43.64.84.64a1.87,1.87,0,0,0,.36.45c.05,0,.15-.24.16-.32s-.25-.53-.44-.36c-.41-.26-.52-.79-.68-1.31s-.56-.65-.72-1.14a1.51,1.51,0,0,0-.43-.85c-.22-.22-.48-.19-.63-.5a2.11,2.11,0,0,1-.34-1,.56.56,0,0,1,.05-.27c.25.25.6.21,1,.36.14.08.11.53.3.72s.11.53.3.72l.73.72c.05,0,0,0,.24,0,0,.52.65.54.87.92.1.23-.07.43.13.61s.57.29.8.5a5.31,5.31,0,0,1,1.26,2c0,.12.23.21.23.5s-.22.37-.23.62.15.43.34.43c.12.29.79.44,1.07.7l.26.15c.3.13.45.08.77.22s.41.41.73.5.43-.06.69,0a6.9,6.9,0,0,0,1.34.65,1.18,1.18,0,0,1,.55,0,1.21,1.21,0,0,0,.48.2c.42,0,.49-.43.92-.44a1.23,1.23,0,0,1,.53.17h.15c.65.31.83,1.21,1.6,1.56.49.23.81.12,1.29.31a2.33,2.33,0,0,0,1,.38c.12,0,.28-.1.46-.11a.38.38,0,0,0,.15,0,1.32,1.32,0,0,0,.49.71v-2.64c-.36,0-.73.06-1.13.06a.29.29,0,0,1-.29-.24.2.2,0,0,1,0-.11c.11-.09.43-.22.44-.45s0-.72,0-1.07a1.21,1.21,0,0,1,.19,0s0,.12,0,.16a1.12,1.12,0,0,0,.3-.74c0-.43.4-.82.41-1.13V249a4.66,4.66,0,0,1-.56,0,1,1,0,0,0-.49-.06c-.66,0-1.52,0-1.54.63,0,.34-.4.63-.51.89,0,.07-.15.35-.34.36a1.55,1.55,0,0,0-.47-.14c-.5,0-.86.31-1.33.32-.14,0-.2-.2-.41-.27-.65-.19-.64-.54-1.06-.95a3.4,3.4,0,0,1-.57-.64c-.11-.2,0-.32-.07-.53-.05-.06-.23-.25-.19-.43,0-.41,0-.81,0-1.23s.25-.47.25-.88a1.15,1.15,0,0,0-.1-.35s0,0,0-.05,0,0,.06,0-.11-.16-.12-.21a1.48,1.48,0,0,1,.86-1.43c.24-.09.45.07.64-.11s.62-.8,1.33-.82c.28,0,.41.22.68.21.1,0,.25-.17.36-.17.49,0,1,.71,1.74.42-.3-.18-.09-.38,0-.69a.41.41,0,0,1-.34,0c.42-.13.92-.09,1.31-.18,0,0,.11.18.17.17s.26-.18.6-.17a.8.8,0,0,1,.23,0v-7.77a.38.38,0,0,1-.33.24c-.25,0-.53-.16-.53-.37a3.19,3.19,0,0,1,.58-1.82c-.22,0-.32.14-.55.26,0-.24.43-.53.83-.71V232a.55.55,0,0,1-.28.07c-.12,0-.37-.11-.39-.22h-.45c.07-.12.25-.2.25-.45-.33.07-.75.39-1,.4s-.23.22-.62.24a.34.34,0,0,1-.34-.18,2.35,2.35,0,0,0-.41.13h-.34a6.54,6.54,0,0,1,1.78-1c.3-.08.34,0,.59-.09s.14-.36.37-.37.47.32.54.38a.55.55,0,0,0,0-.25h.18l.1,0v-3.81a20,20,0,0,0-1.95-.46,5.2,5.2,0,0,0-1-.22c-.34,0-.49.2-.83.2,0-.29-.32-.93-.81-.94a5.73,5.73,0,0,0-.56.14c.08-.13,0-.2,0-.53a1.47,1.47,0,0,1,.86-1.2,5,5,0,0,1,.74-.58c.38-.07.72.16.74-.11s-.83-.16-1.13-.23c.16,0-.49-.2,1.3,0,.47,0,.18-.23.45-.24h.47a2.87,2.87,0,0,0,1.16-.41v-.16c-.74-.1-1.45,0-1.79-.33a2.54,2.54,0,0,1,.39,0,3.64,3.64,0,0,0,1,.23,5.35,5.35,0,0,0,1-.11v-.86l-.12.09c-.48.32-.9,0-.91-.08s.35-.09.37-.25a1.75,1.75,0,0,0-.79-.34c-.62,0-.19.42-.85.44,0-.19,0-.29-.48-.38a.88.88,0,0,1,.21-.12c-.33-.08-.79,0-1-.12.12,0,.53-.12.53-.25s-.59-.15-.61-.29-.27-.37-.79-.42c.17-.06.27-.1.33-.2h-.27c.13-.18.12-.06.58-.07a2.33,2.33,0,0,0,1.18-.34,3.16,3.16,0,0,0,.37-.12s0-.05,0-.09c-.75,0-1.28-.05-2,0-.43,0-.56.12-.56.13s0,.08,0,.07a3.62,3.62,0,0,1-.47,0c0,.06,0,.08,0,.13s0,.25.3.35a.41.41,0,0,0,0,.14c-.28,0-.16.1-.14.2-.26,0-.59,0-.59.18s.16.11.15.22-.29.09-.29.24c0,.33,1.37,0,1.39.38a2.21,2.21,0,0,1-.19.31c.14,0,.28-.08.45-.12.24.4-1.1.26-1.16.76-.7.12-.13-.22-.29-.35a3.26,3.26,0,0,0-.94-.06c-.37,0-.53.13-.55.35a12.23,12.23,0,0,0-2.14,0c-1.13.11-2,0-2.17-.33-.38.06-1.53.25-1.59.46s.07.11.23.07a4.63,4.63,0,0,0,1.11-.28c0,.33-.93.16-1,.5,0,.08.16.28.07.29-.42,0-.42-.18-.75-.23a2.85,2.85,0,0,0-.29,0c-.42.06-.82.13-1.24.18a9.59,9.59,0,0,0-1.06.26c-.75.14-.72,0-.71,0s.58-.16.71-.22c-.46-.29-.36-.27-1.42,0s-1.84,0-2.89.22c-.33.07-.18.2-.45.29a.27.27,0,0,1-.33-.13c-.31.13-.37.3-.7.4s-.6-.18-.7-.15c-.33.09-.27.3-.61.41-.14,0-.2.06-.23,0a8.13,8.13,0,0,0-1.11.52c-.16.08-.52.4-.7.35s-.34.15-.46.22c-.94.36-.34.34-.48.38a6.76,6.76,0,0,1-1.46.39q-1,1-1.95,2.07c-.67.78-1.31,1.59-1.92,2.42Z" transform="translate(-165.94 -125.24)"/><path class="cls-10" d="M325.9,219.72c0,.07.13.05.26,0a1.15,1.15,0,0,0,.58-.35A2.08,2.08,0,0,0,325.9,219.72Z" transform="translate(-165.94 -125.24)"/><path class="cls-10" d="M324.45,220c.14,0,.19-.1.29-.13a2,2,0,0,0,.46-.12c0,.05.12.07.25,0a.69.69,0,0,0,.4-.22,1.41,1.41,0,0,0,.63-.34c.17,0,.07.14.37.09l.8-.37c0-.07-.1,0-.09-.1s.24-.08.25-.15-1,.21-1,.21c-.15,0-.15,0-.3.06a4.89,4.89,0,0,0-.94.44,7.51,7.51,0,0,1-.83.33c-.06,0-.39.2-.4.22S324.41,219.93,324.45,220Z" transform="translate(-165.94 -125.24)"/><path class="cls-10" d="M323.14,221.75a.21.21,0,0,0,.2.08c.09,0,.1,0,.23,0s1.31-.49,1.36-.55a4.11,4.11,0,0,1,1.44-.82,9.12,9.12,0,0,0,1.15-.38c0-.16-.77-.13-1.14-.05-.22,0-.46.18-.58.15-.38.07-.52,0-.87.08a4.38,4.38,0,0,0-.67.22,4,4,0,0,0-1,.26c0,.11.18.09.15.17-.08.23-.93.66-1,.89S323,221.72,323.14,221.75Z" transform="translate(-165.94 -125.24)"/><path class="cls-10" d="M328.33,218.87c-.16,0-.26,0-.58.12,0,0,0,0,.11,0h0a1.51,1.51,0,0,0-.37.14.29.29,0,0,1,.13,0h0a0,0,0,0,1,0,0l-.05,0a1.26,1.26,0,0,0-.3.06c0,.05,0,.06,0,.1h.17c-.05,0-.12,0-.17,0a1.5,1.5,0,0,0-.45.16c.07.06,0,0,0,.1s.09.1.22,0,.37,0,.6-.07.44-.12.76-.2c0-.05.12-.09.22-.12s.13.06.26.1c-.24,0-.47,0-.52.18s.25.05.47,0a7.91,7.91,0,0,0,1.21-.31c.06,0,1.25-.31,1.27-.3s1.11-.11,1.23-.15.66-.27.69-.41-.17-.14-.41-.11-.34.13-.52.14c-.37.08-.68,0-.66-.15s0,0,0-.08a1.93,1.93,0,0,1-.34,0c-.22.09-.67.21-.71.32s.3,0,.43,0c0,0,0,0,0,.08l-.19.06a1.23,1.23,0,0,0,.37,0,.86.86,0,0,1-.43.15c-.83.11-1.1,0-1.66,0l-.41.07C328.58,218.8,328.4,218.86,328.33,218.87Zm-.52.42a.17.17,0,0,0,.1,0h0A.17.17,0,0,1,327.81,219.29Z" transform="translate(-165.94 -125.24)"/><path class="cls-10" d="M328.56,218.79a3.39,3.39,0,0,0,.39-.08s0,0,0-.08l-.62.12C328.33,218.83,328.47,218.81,328.56,218.79Z" transform="translate(-165.94 -125.24)"/><path class="cls-7" d="M350,221.54c.26,0,.75,0,.75-.13,0-.31-1.29-.44-1.29-.09C349.5,221.44,349.71,221.53,350,221.54Z" transform="translate(-165.94 -125.24)"/><path class="cls-10" d="M327.91,219.29h0Z" transform="translate(-165.94 -125.24)"/><path class="cls-10" d="M333.61,217.18c-.05,0-.09.07-.14.08a3.6,3.6,0,0,0,.66-.08c-.05,0-.06.07,0,.08-.25.07-.39.07-.58.14a1.41,1.41,0,0,0,.5,0,1.26,1.26,0,0,1,.62,0c.35,0,.55,0,.9-.07s.37.12.84.09c.14,0,.34,0,.36-.11s-.37-.1-.52-.14a.87.87,0,0,0,.17-.07,1.74,1.74,0,0,0-.56-.1c-.1,0-.19.07-.29.08s-.16-.11-.55-.09a2.11,2.11,0,0,1-.38.09,6.27,6.27,0,0,0-.7,0l-.6.12C333.3,217.24,333.35,217.2,333.61,217.18Z" transform="translate(-165.94 -125.24)"/><path class="cls-10" d="M330.07,218l.78-.13.5-.14c-.08-.12-.33-.09-.72,0a5.29,5.29,0,0,0-1.36.45c.14,0,.22-.09.37-.12S329.86,218,330.07,218Z" transform="translate(-165.94 -125.24)"/><path class="cls-10" d="M329.79,218.37c.41-.08,1-.21,1-.35l-.28,0a2.57,2.57,0,0,0,.57-.17.62.62,0,0,0-.31,0,5.52,5.52,0,0,0-1.51.41C329.28,218.39,329.52,218.41,329.79,218.37Z" transform="translate(-165.94 -125.24)"/><path class="cls-10" d="M327.58,219.17a0,0,0,0,0,0,0Z" transform="translate(-165.94 -125.24)"/><path class="cls-10" d="M333.51,217.76c.12,0,.25,0,.28-.11a3.06,3.06,0,0,0-.89-.07C332.88,217.7,333.29,217.79,333.51,217.76Z" transform="translate(-165.94 -125.24)"/><path class="cls-10" d="M319.51,232.29a2.62,2.62,0,0,0,1.25.3l.16,0s0-.09,0-.13a2.9,2.9,0,0,0-1.52-.6c-.13,0-.23-.14-.44-.11a1.15,1.15,0,0,0-.25.12s0,0,.07,0h.25a.52.52,0,0,1-.19.15c.05.16.49.2.85.14C319.66,232.17,319.56,232.21,319.51,232.29Z" transform="translate(-165.94 -125.24)"/><path class="cls-10" d="M316.32,229.3c-.05-.19,0-.19.13-.49-.23.15-.08,0-.33.1-.06,0-.18.07-.21.17s.08.28.3.23c-.06.2,0,.31.11.41.19-.15.08-.29.14-.46C316.44,229.29,316.31,229.34,316.32,229.3Z" transform="translate(-165.94 -125.24)"/><path class="cls-10" d="M317.23,231.14s.09-.1.1-.15,0-.06,0-.13a.44.44,0,0,0,0-.28.37.37,0,0,1-.23.21c-.1,0,.11-.16.12-.17-.15,0-.19,0-.34,0a.12.12,0,0,1,0,.1c.06.08.07.21.14.18s.09.1.22.11a.3.3,0,0,0-.1.15c0,.1.06.24.18.2S317.22,231.19,317.23,231.14Z" transform="translate(-165.94 -125.24)"/><path class="cls-10" d="M317.19,229.48c-.3.05-.39.05-.45.35.19-.15.09-.07.33-.09-.05.07,0,.16-.05.25s.11.22.25.19a.18.18,0,0,0,.15-.15C317.48,229.78,317.07,229.83,317.19,229.48Z" transform="translate(-165.94 -125.24)"/><path class="cls-7" d="M347.51,218.68c-.14,0-.35,0-.34.1s.22.12.42.18c-.15.09.21.17.62.19a5.11,5.11,0,0,0,.75,0,3.69,3.69,0,0,0,.62.09.46.46,0,0,0,.35-.09,6.32,6.32,0,0,0-1.4-.32C348.1,218.76,348,218.7,347.51,218.68Z" transform="translate(-165.94 -125.24)"/><path class="cls-7" d="M351.26,221.4a2.43,2.43,0,0,0,.41,0,1.14,1.14,0,0,0-.43-.17.55.55,0,0,0-.26.06C351,221.37,351.11,221.4,351.26,221.4Z" transform="translate(-165.94 -125.24)"/><path class="cls-10" d="M312.09,229.8l.2-.21h0Z" transform="translate(-165.94 -125.24)"/><path class="cls-11" d="M316.89,307.67l13.48,10.88c-.07,0-.3,1.17-.37,1.17l-1.75,6.58-22.52-.41-1.88-6.59c-.07,0-.37-.74-.44-.75Z" transform="translate(-165.94 -125.24)"/><rect class="cls-12" x="140" y="187.86" width="21.5" height="12.19"/><path class="cls-4" d="M329.19,326.3h-.53V312.89a.81.81,0,0,0-.88-.71H306a.82.82,0,0,0-.89.71V326.3h-.58a1.16,1.16,0,0,0-1.16,1.17v7.15a1.16,1.16,0,0,0,1.16,1.17h24.68a1.16,1.16,0,0,0,1.16-1.17v-7.15A1.16,1.16,0,0,0,329.19,326.3Zm-21.16-13h17.7a1,1,0,1,1,0,2H308a1,1,0,1,1,0-2Zm0,2.93h17.7a1,1,0,1,1,0,2H308a1,1,0,1,1,0-2Zm0,2.93h17.7a1,1,0,1,1,0,2H308a1,1,0,1,1,0-2Zm0,2.93h17.7a1,1,0,1,1,0,2H308a1,1,0,1,1,0-2Z" transform="translate(-165.94 -125.24)"/><path class="cls-13" d="M320.55,326.73l-3.3,2.75a.53.53,0,0,1-.36.13.55.55,0,0,1-.36-.13l-3.3-2.75-9,9a.88.88,0,0,0,.27.06h24.84a.82.82,0,0,0,.27-.06Z" transform="translate(-165.94 -125.24)"/><path class="cls-13" d="M330.44,318.89a1.28,1.28,0,0,0-.07-.34L321.42,326l9,9a1.18,1.18,0,0,0,.06-.27Z" transform="translate(-165.94 -125.24)"/><path class="cls-13" d="M303.41,318.55a1.28,1.28,0,0,0-.06.34v15.8a1.26,1.26,0,0,0,0,.28l9-9Z" transform="translate(-165.94 -125.24)"/><path class="cls-8" d="M284,149.88l1.46-2.52A1.08,1.08,0,0,1,287,147l4.12,2.39a5.07,5.07,0,0,0-6.53-4.88,2,2,0,0,1-.72-.5l-6.17-6.42h0L273.3,133a2.17,2.17,0,0,1-.49-.8,5.09,5.09,0,0,0-7.39-5.92l4.12,2.4a1.08,1.08,0,0,1,.39,1.49l-1.45,2.51a1.11,1.11,0,0,1-1.5.4l-4.12-2.39a5.08,5.08,0,0,0,6.54,4.88,2.11,2.11,0,0,1,.71.49l6.18,6.43h0l4.36,4.54a2.2,2.2,0,0,1,.49.81,5.08,5.08,0,0,0,7.39,5.91l-4.12-2.39A1.1,1.1,0,0,1,284,149.88Z" transform="translate(-165.94 -125.24)"/><path class="cls-14" d="M290.41,127l-1.79-1.79-3,1.22-1.22,3-11.85,11.85a1.26,1.26,0,1,0,1.78,1.78l11.85-11.85,3-1.21Z" transform="translate(-165.94 -125.24)"/><path class="cls-13" d="M265.46,154.65a2,2,0,0,1-2.8.12L260.88,153a2,2,0,0,1,.12-2.8l9.25-9.25a2,2,0,0,1,2.8-.12l1.78,1.78a2,2,0,0,1-.12,2.8Z" transform="translate(-165.94 -125.24)"/><path class="cls-15" d="M263.27,150.6c-.65.65-1.29,1.05-1.44.9l-.36-.35c-.14-.15.26-.79.9-1.44l7.4-7.4c.65-.64,1.29-1.05,1.44-.9l.36.36c.14.15-.26.79-.91,1.43Z" transform="translate(-165.94 -125.24)"/><path class="cls-15" d="M265.94,153.28c-.65.64-1.29,1-1.44.9l-.35-.36c-.15-.15.25-.79.9-1.44l7.4-7.39c.64-.65,1.28-1.05,1.43-.9l.36.35c.15.15-.26.79-.9,1.44Z" transform="translate(-165.94 -125.24)"/><path class="cls-15" d="M264.6,151.94c-.64.64-1.29,1.05-1.43.9l-.36-.36c-.15-.14.26-.79.9-1.43l7.4-7.4c.64-.64,1.29-1.05,1.43-.9l.36.36c.15.14-.25.79-.9,1.43Z" transform="translate(-165.94 -125.24)"/><rect class="cls-16" x="141.31" y="72.26" width="3.59" height="3.59"/><rect class="cls-17" x="307.04" y="198.9" width="4.01" height="0.8" transform="translate(-216.34 151.7) rotate(-45.01)"/><rect class="cls-17" x="308.65" y="197.29" width="0.8" height="4.01" transform="translate(-216.35 151.66) rotate(-45)"/><path class="cls-18" d="M273.49,310.1a133,133,0,0,1-11.85-7.41,108.87,108.87,0,0,1-15.77-14.28A117.89,117.89,0,0,1,232.28,269c-5.08-8.8-8.12-18.37-10.62-28.15a104.57,104.57,0,0,1-3-21.12c-.32-7.17-.75-14.33-1.17-22.18,0-1,0-2.69,0-4.37,0-.82.25-1.14,1.07-1.27,4.73-.76,9.44-1.59,14.16-2.38a111.9,111.9,0,0,0,26.41-7.81c4.77-2.07,9.46-4.33,14.14-6.58a3.89,3.89,0,0,1,1.31-.39v-6.23h-.74c-1.77.92-3.52,1.89-5.31,2.75-9,4.37-18.21,8.44-28,10.82-6.47,1.57-13,2.66-19.59,3.92-2.8.54-5.63,1-8.45,1.47v7.39a10,10,0,0,1,.2,1.2c.35,7.21.72,14.42,1,21.63a112.2,112.2,0,0,0,3.21,22.7c2.26,9,4.91,17.86,9.17,26.1,7,13.5,15.72,25.71,27.59,35.49,5.27,4.34,10.47,8.7,16.51,11.93,1.16.62,2.36,1.15,3.56,1.66a1.77,1.77,0,0,0,.8.12V310.4A2.44,2.44,0,0,1,273.49,310.1Z" transform="translate(-165.94 -125.24)"/><path class="cls-19" d="M318.81,184.34a129.28,129.28,0,0,1-32-10.26c-3.41-1.57-6.79-3.22-10.18-4.85a8.45,8.45,0,0,1-1.08-.72h-1v6.23a3.26,3.26,0,0,1,1.82.38,167.13,167.13,0,0,0,27.06,11.25,142.78,142.78,0,0,0,19.43,4.11c2.79.42,5.55,1,8.34,1.45.67.11.87.42.84,1.08-.37,8.31-.67,16.64-1.1,25a124.56,124.56,0,0,1-1.07,13,115.35,115.35,0,0,1-8.53,29.89,102.43,102.43,0,0,1-24,33.91c-5.52,5.08-11.19,10-17.86,13.62a33.59,33.59,0,0,1-4.23,1.94,1.83,1.83,0,0,1-.71.1v5.29a1.05,1.05,0,0,0,.36-.08,51.68,51.68,0,0,0,4.89-2.28,85.45,85.45,0,0,0,13.5-9.6A114.46,114.46,0,0,0,310,286.89c9.39-12.2,16.56-25.52,20.61-40.44a123.62,123.62,0,0,0,4.48-23.72c.45-6.46.7-12.94,1-19.41.16-3.15.34-6.3.51-9.44v-6.41C330.72,186.43,324.77,185.37,318.81,184.34Z" transform="translate(-165.94 -125.24)"/><path class="cls-20" d="M276.48,178.91c9,4.58,18.1,8.91,27.94,11.29,6.11,1.48,12.35,2.45,18.53,3.64l5.18,1c-.14,4-.24,7.82-.4,11.63-.19,4.42-.46,8.84-.64,13.27A108.51,108.51,0,0,1,315.71,265,97,97,0,0,1,290,297.11a70.74,70.74,0,0,1-13.9,9.21,3.6,3.6,0,0,1-1.45.38v3.7a1.83,1.83,0,0,0,.71-.1,33.59,33.59,0,0,0,4.23-1.94c6.67-3.59,12.34-8.54,17.86-13.62a102.43,102.43,0,0,0,24-33.91,115.35,115.35,0,0,0,8.53-29.89A124.56,124.56,0,0,0,331,218c.43-8.31.73-16.64,1.1-25,0-.66-.17-1-.84-1.08-2.79-.46-5.55-1-8.34-1.45a142.78,142.78,0,0,1-19.43-4.11,167.13,167.13,0,0,1-27.06-11.25,3.26,3.26,0,0,0-1.82-.38v3.69A3.81,3.81,0,0,1,276.48,178.91Z" transform="translate(-165.94 -125.24)"/><path class="cls-21" d="M259.15,181.71a111.9,111.9,0,0,1-26.41,7.81c-4.72.79-9.43,1.62-14.16,2.38-.82.13-1.1.45-1.07,1.27.05,1.68,0,3.36,0,4.37.42,7.85.85,15,1.17,22.18a104.57,104.57,0,0,0,3,21.12c2.5,9.78,5.54,19.35,10.62,28.15a117.89,117.89,0,0,0,13.59,19.42,108.87,108.87,0,0,0,15.77,14.28,133,133,0,0,0,11.85,7.41,2.44,2.44,0,0,0,1.11.3v-3.7a3.32,3.32,0,0,1-1.78-.46A67.34,67.34,0,0,1,260.36,298c-4.53-3.92-9.16-7.74-13-12.35-8.7-10.37-15.62-21.78-19.48-34.82-1.87-6.3-3.3-12.74-4.67-19.17a55.69,55.69,0,0,1-.79-8.68c-.41-8.48-.79-17-1.07-25.45-.1-2.95-.69-2.53,2.62-3.16,7.07-1.34,14.19-2.44,21.17-4.13,9.8-2.37,18.89-6.66,27.81-11.27a3.94,3.94,0,0,1,1.68-.49v-3.69a3.89,3.89,0,0,0-1.31.39C268.61,177.38,263.92,179.64,259.15,181.71Z" transform="translate(-165.94 -125.24)"/><path class="cls-18" d="M272.92,178.92c-8.92,4.61-18,8.9-27.81,11.27-7,1.69-14.1,2.79-21.17,4.13-3.31.63-2.72.21-2.62,3.16.28,8.48.66,17,1.07,25.45a55.69,55.69,0,0,0,.79,8.68c1.37,6.43,2.8,12.87,4.67,19.17,3.86,13,10.78,24.45,19.48,34.82,3.87,4.61,8.5,8.43,13,12.35a67.34,67.34,0,0,0,12.46,8.29,3.32,3.32,0,0,0,1.78.46V178.43A3.94,3.94,0,0,0,272.92,178.92Z" transform="translate(-165.94 -125.24)"/><path class="cls-19" d="M290,297.11A97,97,0,0,0,315.71,265a108.51,108.51,0,0,0,11.38-45.25c.18-4.43.45-8.85.64-13.27.16-3.81.26-7.62.4-11.63l-5.18-1c-6.18-1.19-12.42-2.16-18.53-3.64-9.84-2.38-19-6.71-27.94-11.29a3.81,3.81,0,0,0-1.88-.48V306.7a3.6,3.6,0,0,0,1.45-.38A70.74,70.74,0,0,0,290,297.11Z" transform="translate(-165.94 -125.24)"/><path class="cls-22" d="M192.81,176.52a1.46,1.46,0,0,1-1.46,1.46h-3.08a1.46,1.46,0,0,1-1.47-1.46h0a1.47,1.47,0,0,1,1.47-1.47h3.08a1.46,1.46,0,0,1,1.46,1.47Z" transform="translate(-165.94 -125.24)"/><path class="cls-22" d="M234,176.52a1.46,1.46,0,0,1-1.47,1.46h-3.08a1.46,1.46,0,0,1-1.46-1.46h0a1.46,1.46,0,0,1,1.46-1.47h3.08a1.47,1.47,0,0,1,1.47,1.47Z" transform="translate(-165.94 -125.24)"/><path class="cls-22" d="M226.06,163a1,1,0,0,1-1.42.26h0a1,1,0,0,1-.26-1.43l14.46-20.7a1,1,0,0,1,1.42-.25h0a1,1,0,0,1,.25,1.42Z" transform="translate(-165.94 -125.24)"/><path class="cls-22" d="M197.16,163a1,1,0,0,0,1.43.26h0a1,1,0,0,0,.25-1.43l-14.45-20.7a1,1,0,0,0-1.43-.25h0a1,1,0,0,0-.25,1.42Z" transform="translate(-165.94 -125.24)"/><rect class="cls-4" x="17.14" y="35.84" width="54.66" height="15.25" rx="3.1"/><path class="cls-22" d="M228.44,167.81H192.37a1.66,1.66,0,0,0-1.66,1.66v6.86h39.4v-6.86A1.66,1.66,0,0,0,228.44,167.81Z" transform="translate(-165.94 -125.24)"/><path class="cls-23" d="M196.68,172.8a.65.65,0,0,1-.66.66h-3.18a.65.65,0,0,1-.65-.66h0a.65.65,0,0,1,.65-.65H196a.65.65,0,0,1,.66.65Z" transform="translate(-165.94 -125.24)"/><path class="cls-23" d="M200.57,172.8c0,.37-.19.66-.42.66h-2.08c-.23,0-.42-.29-.42-.66h0c0-.36.19-.65.42-.65h2.08c.23,0,.42.29.42.65Z" transform="translate(-165.94 -125.24)"/><path class="cls-23" d="M204.83,172.8c0,.37-.19.66-.42.66h-2.08c-.23,0-.42-.29-.42-.66h0c0-.36.19-.65.42-.65h2.08c.23,0,.42.29.42.65Z" transform="translate(-165.94 -125.24)"/><path class="cls-23" d="M209.1,172.8c0,.37-.2.66-.43.66H206.6c-.24,0-.43-.29-.43-.66h0c0-.36.19-.65.43-.65h2.07c.23,0,.43.29.43.65Z" transform="translate(-165.94 -125.24)"/><path class="cls-24" d="M219.29,172.8c0,.37-.19.66-.42.66h-2.08c-.23,0-.42-.29-.42-.66h0c0-.36.19-.65.42-.65h2.08c.23,0,.42.29.42.65Z" transform="translate(-165.94 -125.24)"/><path class="cls-24" d="M223.55,172.8c0,.37-.19.66-.42.66h-2.07c-.24,0-.43-.29-.43-.66h0c0-.36.19-.65.43-.65h2.07c.23,0,.42.29.42.65Z" transform="translate(-165.94 -125.24)"/><path class="cls-24" d="M227.82,172.8c0,.37-.2.66-.43.66h-2.07c-.24,0-.43-.29-.43-.66h0c0-.36.19-.65.43-.65h2.07c.23,0,.43.29.43.65Z" transform="translate(-165.94 -125.24)"/><path class="cls-25" d="M235.53,165.52a1.61,1.61,0,1,1-1.61-1.61A1.61,1.61,0,0,1,235.53,165.52Z" transform="translate(-165.94 -125.24)"/><rect class="cls-26" x="7.07" y="74.83" width="5.13" height="4.41"/><rect class="cls-26" x="7.29" y="86.51" width="4.77" height="4.48"/><rect class="cls-26" x="7.43" y="96.83" width="5.13" height="5.13"/><rect class="cls-27" x="6.85" y="80.18" width="6.29" height="2.54"/><rect class="cls-27" x="7.75" y="91.36" width="6.29" height="2.54"/><rect class="cls-27" x="7.46" y="102.31" width="6.29" height="2.54"/><rect class="cls-28" x="22.46" y="73.89" width="14.15" height="8.23"/><rect class="cls-28" x="23.43" y="85.62" width="12.82" height="8.1"/><rect class="cls-28" x="22.82" y="97.11" width="14.03" height="7.62"/><path class="cls-26" d="M167,236.7a1,1,0,1,0,0,2.07h13.83V236.7Z" transform="translate(-165.94 -125.24)"/><path class="cls-26" d="M210,236.7H196.15v2.07H210a1,1,0,0,0,0-2.07Z" transform="translate(-165.94 -125.24)"/><polygon class="cls-4" points="23.43 110.33 23.43 105.58 21.65 105.58 21.65 110.33 15.62 110.33 15.62 111.46 15.62 113.53 15.62 114.66 29.46 114.66 29.46 113.53 29.46 111.46 29.46 110.33 23.43 110.33"/><path class="cls-4" d="M203.06,198.41H173.9a2.26,2.26,0,0,0-2.26,2.26v5.92a2.26,2.26,0,0,0,2.26,2.26h29.16a2.26,2.26,0,0,0,2.26-2.26v-5.92A2.26,2.26,0,0,0,203.06,198.41Zm-28.6,8.94a.52.52,0,1,1,.52-.51A.51.51,0,0,1,174.46,207.35Zm1.67,0a.52.52,0,1,1,.51-.51A.51.51,0,0,1,176.13,207.35Zm-.81-3.44a1.58,1.58,0,1,1,1.58-1.57A1.57,1.57,0,0,1,175.32,203.91Zm2.52,3.44a.52.52,0,1,1,.51-.51A.51.51,0,0,1,177.84,207.35Zm23.52-.43H190v-1.28h11.34Zm0-2.65H190V203h11.34Zm0-2.65H190v-1.28h11.34Z" transform="translate(-165.94 -125.24)"/><path class="cls-4" d="M203.06,209.63H173.9a2.26,2.26,0,0,0-2.26,2.25v5.93a2.26,2.26,0,0,0,2.26,2.26h29.16a2.26,2.26,0,0,0,2.26-2.26v-5.93A2.26,2.26,0,0,0,203.06,209.63Zm-28.6,8.94a.52.52,0,1,1,.52-.52A.51.51,0,0,1,174.46,218.57Zm1.67,0a.52.52,0,1,1,.51-.52A.52.52,0,0,1,176.13,218.57Zm-.81-3.44a1.58,1.58,0,1,1,1.58-1.58A1.58,1.58,0,0,1,175.32,215.13Zm2.52,3.44a.52.52,0,1,1,.51-.52A.52.52,0,0,1,177.84,218.57Zm23.52-.44H190v-1.27h11.34Zm0-2.65H190v-1.27h11.34Zm0-2.64H190v-1.28h11.34Z" transform="translate(-165.94 -125.24)"/><path class="cls-4" d="M203.06,220.84H173.9a2.26,2.26,0,0,0-2.26,2.26V229a2.26,2.26,0,0,0,2.26,2.25h29.16a2.26,2.26,0,0,0,2.26-2.25V223.1A2.26,2.26,0,0,0,203.06,220.84Zm-28.6,8.94a.51.51,0,1,1,.52-.51A.51.51,0,0,1,174.46,229.78Zm1.67,0a.51.51,0,1,1,.51-.51A.51.51,0,0,1,176.13,229.78Zm-.81-3.43a1.58,1.58,0,1,1,1.58-1.58A1.58,1.58,0,0,1,175.32,226.35Zm2.52,3.43a.51.51,0,1,1,.51-.51A.51.51,0,0,1,177.84,229.78Zm23.52-.43H190v-1.28h11.34Zm0-2.65H190v-1.28h11.34Zm0-2.65H190v-1.27h11.34Z" transform="translate(-165.94 -125.24)"/><path class="cls-9" d="M317.4,180.89a3.07,3.07,0,0,0,3.07,3.07h.11v-6.14h-.11A3.07,3.07,0,0,0,317.4,180.89Z" transform="translate(-165.94 -125.24)"/><path class="cls-9" d="M323.55,180.89a3.08,3.08,0,0,0-3-3.07V184A3.08,3.08,0,0,0,323.55,180.89Z" transform="translate(-165.94 -125.24)"/><path class="cls-9" d="M312.89,175.22l1.65,1.78a7.09,7.09,0,0,1,5.93-3.21h.11v-2.37h-.11A9.46,9.46,0,0,0,312.89,175.22Z" transform="translate(-165.94 -125.24)"/><path class="cls-9" d="M326.54,177.2l1.67-1.77a9.48,9.48,0,0,0-7.63-4v2.37A7.13,7.13,0,0,1,326.54,177.2Z" transform="translate(-165.94 -125.24)"/><path class="cls-9" d="M309.65,171.71l1.62,1.75a12,12,0,0,1,9.2-4.29h.11V166.8h-.11A14.36,14.36,0,0,0,309.65,171.71Z" transform="translate(-165.94 -125.24)"/><path class="cls-9" d="M329.85,173.68l1.64-1.75a14.38,14.38,0,0,0-10.91-5.13v2.37A12,12,0,0,1,329.85,173.68Z" transform="translate(-165.94 -125.24)"/><path class="cls-9" d="M320.47,161.54a19.33,19.33,0,0,0-14.33,6.36l1.62,1.76a16.94,16.94,0,0,1,12.71-5.75h.11v-2.38Z" transform="translate(-165.94 -125.24)"/><path class="cls-9" d="M320.58,161.54v2.38a16.92,16.92,0,0,1,12.82,6l1.63-1.74A19.3,19.3,0,0,0,320.58,161.54Z" transform="translate(-165.94 -125.24)"/></svg>