<?xml version="1.0" encoding="UTF-8"?>
<svg version="1.1" xmlns="http://www.w3.org/2000/svg" width="626" height="626">
<path d="M0 0 C206.58 0 413.16 0 626 0 C626 206.58 626 413.16 626 626 C419.42 626 212.84 626 0 626 C0 419.42 0 212.84 0 0 Z " fill="#FEFEFE" transform="translate(0,0)"/>
<path d="M0 0 C11.88 0 23.76 0 36 0 C36.01417969 2.90167969 36.02835937 5.80335937 36.04296875 8.79296875 C36.07360048 11.60957403 36.11268628 14.42594424 36.15258789 17.24243164 C36.17575551 19.19677389 36.19016071 21.15124077 36.19555664 23.10571289 C36.20485532 25.91892043 36.24586475 28.73017112 36.29296875 31.54296875 C36.28706978 32.84949654 36.28706978 32.84949654 36.28105164 34.18241882 C36.38481351 38.5164519 36.59283068 40.45480195 39.25634766 44.02124023 C41.94641655 45.96135488 43.3713044 46.71144013 46.60546875 47.1171875 C47.49347168 47.24528809 48.38147461 47.37338867 49.29638672 47.50537109 C50.2504541 47.62734863 51.20452148 47.74932617 52.1875 47.875 C78.82804257 51.90210852 103.52004097 59.93698493 127 73 C128.27296885 73.69096825 129.5463744 74.38113287 130.8203125 75.0703125 C138.20483943 79.15080053 145.05931137 83.7122736 151.84375 88.703125 C158.65775818 94.10262832 158.65775818 94.10262832 166.95654297 95.56542969 C175.01377025 93.33597468 182.29146981 82.82289033 188 77.0625 C188.97502386 76.0824469 189.9502828 75.1026276 190.92578125 74.12304688 C193.28616618 71.75097687 195.64416905 69.3765914 198 67 C203.74512769 71.8030503 209.15878868 76.87794464 214.5 82.125 C215.75296875 83.32189453 215.75296875 83.32189453 217.03125 84.54296875 C217.815 85.31511719 218.59875 86.08726563 219.40625 86.8828125 C220.12103516 87.57777832 220.83582031 88.27274414 221.57226562 88.98876953 C223 91 223 91 223.08398438 92.89282227 C221.42260778 96.12240365 218.86541457 98.37671964 216.25 100.83203125 C215.07250579 101.97158081 213.89543556 103.11156859 212.71875 104.25195312 C210.8611457 106.03518452 208.99916333 107.8132918 207.12890625 109.58325195 C205.32254946 111.29867033 203.53559005 113.03254245 201.75 114.76953125 C201.18958008 115.2895723 200.62916016 115.80961334 200.05175781 116.34541321 C197.32272488 119.02096539 196.02393755 120.91474368 194.98364258 124.61987305 C195.0012449 128.25724867 195.34541648 129.47596247 197.51171875 132.3125 C198.34968994 133.45525391 198.34968994 133.45525391 199.20458984 134.62109375 C199.7970752 135.40613281 200.38956055 136.19117188 201 137 C202.11944118 138.61897499 203.23001857 140.2441117 204.33203125 141.875 C205.18172485 143.12180542 205.18172485 143.12180542 206.04858398 144.39379883 C212.74090357 154.28175891 218.82950106 164.23493164 224 175 C224.3098584 175.64179199 224.6197168 176.28358398 224.93896484 176.94482422 C232.5218937 192.88230656 238.04395419 209.60155894 241 227 C241.34806982 228.73040423 241.70163434 230.45971895 242.0625 232.1875 C242.61013179 234.82849849 243.0533414 237.42353068 243.390625 240.1015625 C243.52984375 241.16117188 243.6690625 242.22078125 243.8125 243.3125 C243.92207031 244.27800781 244.03164063 245.24351562 244.14453125 246.23828125 C245.3319149 250.07152435 246.83038196 251.52534402 250 254 C253.15133937 254.73545822 256.23138189 254.72159505 259.45703125 254.70703125 C260.81147591 254.72971321 260.81147591 254.72971321 262.19328308 254.75285339 C265.06660979 254.79571149 267.93888558 254.80456649 270.8125 254.8125 C272.76500186 254.8356458 274.71747876 254.86101131 276.66992188 254.88867188 C281.44718585 254.95567133 286.22152728 254.97664896 291 255 C291 266.88 291 278.76 291 291 C288.09832031 291.01417969 285.19664062 291.02835937 282.20703125 291.04296875 C279.39042597 291.07360048 276.57405576 291.11268628 273.75756836 291.15258789 C271.80322611 291.17575551 269.84875923 291.19016071 267.89428711 291.19555664 C265.08107957 291.20485532 262.26982888 291.24586475 259.45703125 291.29296875 C258.15050346 291.28706978 258.15050346 291.28706978 256.81758118 291.28105164 C252.50050406 291.38440756 250.54519734 291.59591464 246.98535156 294.234375 C244.98504199 297.02083673 244.2425753 298.60406642 243.77734375 301.95703125 C243.5621106 303.365896 243.5621106 303.365896 243.3425293 304.80322266 C243.20886963 305.79628418 243.07520996 306.7893457 242.9375 307.8125 C242.61353955 309.90039002 242.28539898 311.98763564 241.953125 314.07421875 C241.79392578 315.09177246 241.63472656 316.10932617 241.47070312 317.15771484 C240.41225038 323.5490566 238.81909537 329.78427318 237 336 C236.77505859 336.76924805 236.55011719 337.53849609 236.31835938 338.33105469 C228.38151305 364.85352399 216.12465266 390.56575276 198.36328125 411.97265625 C196.02846585 414.88317955 195.02346218 416.67739497 194.75 420.4375 C197.92080548 429.47429562 207.27435746 436.39684499 213.9375 443 C214.9175531 443.97502386 215.8973724 444.9502828 216.87695312 445.92578125 C219.24902313 448.28616618 221.6234086 450.64416905 224 453 C219.03805145 458.99500997 213.6523376 464.46427037 208.125 469.9375 C207.24585938 470.81212891 206.36671875 471.68675781 205.4609375 472.58789062 C203.3095654 474.72757048 201.15588208 476.86486597 199 479 C194.63787753 475.448591 190.67815141 471.69986107 186.78515625 467.63671875 C185.84188321 466.6581199 184.89852241 465.67960563 183.95507812 464.70117188 C182.50028045 463.19075176 181.05178043 461.6760519 179.6184082 460.14526367 C173.65803791 453.31684242 173.65803791 453.31684242 165.73828125 449.53515625 C161.13798894 450.10718842 158.55796289 451.8426125 155.125 454.75 C153.81847889 455.77810669 152.50706987 456.8000254 151.19140625 457.81640625 C150.16877686 458.60942139 150.16877686 458.60942139 149.12548828 459.41845703 C139.00484204 466.94907343 127.6993071 472.89769382 116.35546875 478.34375 C113.11706646 479.87193501 113.11706646 479.87193501 110.66723633 481.46166992 C105.62181205 484.37162126 100.00535534 485.97128424 94.5 487.8125 C93.51889755 488.14290283 93.51889755 488.14290283 92.51797485 488.47998047 C80.22612211 492.58589947 67.89802155 495.43774817 55.16796875 497.84375 C54.1114209 498.04355469 53.05487305 498.24335937 51.96630859 498.44921875 C50.07613368 498.80018456 48.18335688 499.13760179 46.28759766 499.45703125 C45.08756104 499.67939453 45.08756104 499.67939453 43.86328125 499.90625 C43.18177002 500.02291016 42.50025879 500.13957031 41.7980957 500.25976562 C39.0834904 501.37730578 38.35182328 502.36386788 37 505 C36.53223604 508.11669839 36.51123637 511.2117919 36.48828125 514.359375 C36.47033005 515.26375305 36.45237885 516.1681311 36.43388367 517.09991455 C36.37978143 519.9832292 36.34588526 522.86637832 36.3125 525.75 C36.27932685 527.70705428 36.24483719 529.66408672 36.20898438 531.62109375 C36.12158035 536.41408631 36.06151175 541.20632544 36 546 C24.12 546 12.24 546 0 546 C-0.01417969 543.09832031 -0.02835938 540.19664062 -0.04296875 537.20703125 C-0.07360048 534.39042597 -0.11268628 531.57405576 -0.15258789 528.75756836 C-0.17575551 526.80322611 -0.19016071 524.84875923 -0.19555664 522.89428711 C-0.20485532 520.08107957 -0.24586475 517.26982888 -0.29296875 514.45703125 C-0.28706978 513.15050346 -0.28706978 513.15050346 -0.28105164 511.81758118 C-0.38627088 507.42267489 -0.57934437 505.54712036 -3.3371582 501.96020508 C-6.6599 499.51422599 -8.90677501 499.21321139 -13 498.875 C-20.18991833 498.14463725 -26.99785645 496.77171949 -34 495 C-35.44388413 494.65832007 -36.88790302 494.31720927 -38.33203125 493.9765625 C-50.3708372 491.06024378 -61.65345622 486.94633142 -73 482 C-74.19906982 481.48179687 -74.19906982 481.48179687 -75.42236328 480.953125 C-92.17395486 473.62793382 -110.91469137 464.08530863 -124 451 C-127.81672281 450.26505119 -131.52556057 450.04614327 -134.87182617 452.2109375 C-135.46455322 452.76007813 -136.05728027 453.30921875 -136.66796875 453.875 C-137.3549585 454.50986328 -138.04194824 455.14472656 -138.74975586 455.79882812 C-143.92349522 460.85974101 -148.94484212 466.07387173 -153.9296875 471.3203125 C-154.78304687 472.19429687 -155.63640625 473.06828125 -156.515625 473.96875 C-157.66466309 475.16661133 -157.66466309 475.16661133 -158.83691406 476.38867188 C-161 478 -161 478 -162.94140625 478.07250977 C-165.93230351 476.51427783 -168.10066608 474.26679978 -170.421875 471.87109375 C-170.92672424 471.36199966 -171.43157349 470.85290558 -171.95172119 470.3283844 C-173.55833979 468.7050088 -175.15419822 467.071503 -176.75 465.4375 C-177.83914984 464.3332995 -178.92898605 463.22977555 -180.01953125 462.12695312 C-182.6877076 459.4257471 -185.34628291 456.71540937 -188 454 C-184.45473248 449.62589007 -180.70942295 445.70985345 -176.6015625 441.85546875 C-175.6180187 440.9217197 -174.63495337 439.98746644 -173.65234375 439.05273438 C-172.13656858 437.61100145 -170.61556517 436.17889608 -169.06982422 434.76928711 C-162.89624346 429.35476917 -162.89624346 429.35476917 -159.22460938 422.22875977 C-159.09358724 418.4454957 -159.54860769 415.84835201 -161.328125 412.50390625 C-161.96234375 411.86324219 -162.5965625 411.22257812 -163.25 410.5625 C-178.34932732 393.53559898 -187.9917247 372.04733183 -196 351 C-196.2666748 350.32340332 -196.53334961 349.64680664 -196.80810547 348.94970703 C-198.74680093 343.96643184 -200.18304149 338.92936983 -201.5 333.75 C-201.71503174 332.9137207 -201.93006348 332.07744141 -202.15161133 331.21582031 C-202.57751169 329.55706733 -203.00180185 327.89789989 -203.42431641 326.23828125 C-203.90660897 324.36310811 -204.40980109 322.49332707 -204.91796875 320.625 C-206.71932578 313.89505697 -207.61127048 307.27797151 -208.1796875 300.34765625 C-209.23520523 296.04013865 -210.48535719 294.69970635 -214 292 C-217.15233655 291.26790373 -220.23105572 291.27840347 -223.45703125 291.29296875 C-224.35999435 291.27784744 -225.26295746 291.26272614 -226.19328308 291.24714661 C-229.06660979 291.20428851 -231.93888558 291.19543351 -234.8125 291.1875 C-236.76500186 291.1643542 -238.71747876 291.13898869 -240.66992188 291.11132812 C-245.44718585 291.04432867 -250.22152728 291.02335104 -255 291 C-255 279.12 -255 267.24 -255 255 C-250.64748047 254.97873047 -250.64748047 254.97873047 -246.20703125 254.95703125 C-243.39042597 254.92639952 -240.57405576 254.88731372 -237.75756836 254.84741211 C-235.80322611 254.82424449 -233.84875923 254.80983929 -231.89428711 254.80444336 C-229.08107957 254.79514468 -226.26982888 254.75413525 -223.45703125 254.70703125 C-222.58601273 254.7109639 -221.7149942 254.71489655 -220.81758118 254.71894836 C-216.50329431 254.61565924 -214.54391135 254.40195828 -210.9831543 251.77050781 C-208.96194623 248.94683809 -208.24974963 247.36478113 -207.8125 243.96484375 C-207.67392578 243.00022217 -207.53535156 242.03560059 -207.39257812 241.04174805 C-207.26302734 240.01734619 -207.13347656 238.99294434 -207 237.9375 C-204.80510323 222.94321299 -201.82500078 208.05169418 -196 194 C-195.7117334 193.28328125 -195.4234668 192.5665625 -195.12646484 191.828125 C-186.8816309 171.39297663 -176.93613343 150.49442558 -162.2265625 133.828125 C-159.50854348 130.375764 -159.07087 128.66246362 -159.44506836 124.40625 C-160.08635032 121.6255747 -160.94350426 120.48563524 -162.86328125 118.3984375 C-163.4960498 117.70927246 -164.12881836 117.02010742 -164.78076172 116.31005859 C-169.10382143 111.81008159 -173.50538449 107.39221367 -177.9375 103 C-178.9175531 102.02497614 -179.8973724 101.0497172 -180.87695312 100.07421875 C-183.24902313 97.71383382 -185.6234086 95.35583095 -188 93 C-183.0510009 87.04017592 -177.72390794 81.54057377 -172.25 76.0625 C-171.38761719 75.18787109 -170.52523437 74.31324219 -169.63671875 73.41210938 C-168.81300781 72.58646484 -167.98929687 71.76082031 -167.140625 70.91015625 C-166.39329102 70.15871338 -165.64595703 69.40727051 -164.87597656 68.63305664 C-163 67 -163 67 -161 67 C-159.62060547 68.38085938 -159.62060547 68.38085938 -157.9921875 70.34375 C-153.54071086 75.56669311 -148.88646583 80.55899172 -144.125 85.5 C-143.27808594 86.4178125 -142.43117188 87.335625 -141.55859375 88.28125 C-136.39858633 93.79579807 -136.39858633 93.79579807 -129.4453125 95.96875 C-123.99064785 95.3212409 -120.03038944 92.22951538 -115.75 89 C-114.0717904 87.79481437 -112.39210011 86.59168793 -110.7109375 85.390625 C-109.90237305 84.80474609 -109.09380859 84.21886719 -108.26074219 83.61523438 C-103.35473976 80.11003869 -98.2202198 77.01501955 -93 74 C-92.38543945 73.64486328 -91.77087891 73.28972656 -91.13769531 72.92382812 C-79.55652999 66.31093115 -67.54951416 61.45936796 -55 57 C-53.865625 56.58878906 -52.73125 56.17757812 -51.5625 55.75390625 C-41.78692187 52.34042312 -31.76759658 49.55297326 -21.484375 48.2578125 C-20.07369751 48.08004272 -20.07369751 48.08004272 -18.63452148 47.89868164 C-16.79005927 47.67895463 -14.94305984 47.47934295 -13.09399414 47.30249023 C-12.24442139 47.20395752 -11.39484863 47.1054248 -10.51953125 47.00390625 C-9.76776611 46.92986572 -9.01600098 46.8558252 -8.24145508 46.77954102 C-4.72769692 45.55751403 -3.22471714 43.97877714 -1 41 C-0.27431431 37.84582088 -0.27840091 34.76951264 -0.29296875 31.54296875 C-0.27028679 30.18852409 -0.27028679 30.18852409 -0.24714661 28.80671692 C-0.20428851 25.93339021 -0.19543351 23.06111442 -0.1875 20.1875 C-0.1643542 18.23499814 -0.13898869 16.28252124 -0.11132812 14.33007812 C-0.04432867 9.55281415 -0.02335104 4.77847272 0 0 Z " fill="#183D7E" transform="translate(295,40)"/>
<path d="M0 0 C11.88 0 23.76 0 36 0 C36.01417969 2.90167969 36.02835937 5.80335937 36.04296875 8.79296875 C36.07360048 11.60957403 36.11268628 14.42594424 36.15258789 17.24243164 C36.17575551 19.19677389 36.19016071 21.15124077 36.19555664 23.10571289 C36.20485532 25.91892043 36.24586475 28.73017112 36.29296875 31.54296875 C36.28706978 32.84949654 36.28706978 32.84949654 36.28105164 34.18241882 C36.38481351 38.5164519 36.59283068 40.45480195 39.25634766 44.02124023 C41.94641655 45.96135488 43.3713044 46.71144013 46.60546875 47.1171875 C47.49347168 47.24528809 48.38147461 47.37338867 49.29638672 47.50537109 C50.2504541 47.62734863 51.20452148 47.74932617 52.1875 47.875 C78.82804257 51.90210852 103.52004097 59.93698493 127 73 C128.27296885 73.69096825 129.5463744 74.38113287 130.8203125 75.0703125 C138.20483943 79.15080053 145.05931137 83.7122736 151.84375 88.703125 C158.65775818 94.10262832 158.65775818 94.10262832 166.95654297 95.56542969 C175.01377025 93.33597468 182.29146981 82.82289033 188 77.0625 C188.97502386 76.0824469 189.9502828 75.1026276 190.92578125 74.12304688 C193.28616618 71.75097687 195.64416905 69.3765914 198 67 C203.74512769 71.8030503 209.15878868 76.87794464 214.5 82.125 C215.75296875 83.32189453 215.75296875 83.32189453 217.03125 84.54296875 C217.815 85.31511719 218.59875 86.08726563 219.40625 86.8828125 C220.12103516 87.57777832 220.83582031 88.27274414 221.57226562 88.98876953 C223 91 223 91 223.08398438 92.89282227 C221.42260778 96.12240365 218.86541457 98.37671964 216.25 100.83203125 C215.07250579 101.97158081 213.89543556 103.11156859 212.71875 104.25195312 C210.8611457 106.03518452 208.99916333 107.8132918 207.12890625 109.58325195 C205.32254946 111.29867033 203.53559005 113.03254245 201.75 114.76953125 C201.18958008 115.2895723 200.62916016 115.80961334 200.05175781 116.34541321 C197.32272488 119.02096539 196.02393755 120.91474368 194.98364258 124.61987305 C195.0012449 128.25724867 195.34541648 129.47596247 197.51171875 132.3125 C198.34968994 133.45525391 198.34968994 133.45525391 199.20458984 134.62109375 C199.7970752 135.40613281 200.38956055 136.19117188 201 137 C202.11944118 138.61897499 203.23001857 140.2441117 204.33203125 141.875 C205.18172485 143.12180542 205.18172485 143.12180542 206.04858398 144.39379883 C212.74090357 154.28175891 218.82950106 164.23493164 224 175 C224.3098584 175.64179199 224.6197168 176.28358398 224.93896484 176.94482422 C232.5218937 192.88230656 238.04395419 209.60155894 241 227 C241.34806982 228.73040423 241.70163434 230.45971895 242.0625 232.1875 C242.61013179 234.82849849 243.0533414 237.42353068 243.390625 240.1015625 C243.52984375 241.16117188 243.6690625 242.22078125 243.8125 243.3125 C243.92207031 244.27800781 244.03164063 245.24351562 244.14453125 246.23828125 C245.3319149 250.07152435 246.83038196 251.52534402 250 254 C253.15133937 254.73545822 256.23138189 254.72159505 259.45703125 254.70703125 C260.81147591 254.72971321 260.81147591 254.72971321 262.19328308 254.75285339 C265.06660979 254.79571149 267.93888558 254.80456649 270.8125 254.8125 C272.76500186 254.8356458 274.71747876 254.86101131 276.66992188 254.88867188 C281.44718585 254.95567133 286.22152728 254.97664896 291 255 C291 266.88 291 278.76 291 291 C288.09832031 291.01417969 285.19664062 291.02835937 282.20703125 291.04296875 C279.39042597 291.07360048 276.57405576 291.11268628 273.75756836 291.15258789 C271.80322611 291.17575551 269.84875923 291.19016071 267.89428711 291.19555664 C265.08107957 291.20485532 262.26982888 291.24586475 259.45703125 291.29296875 C258.15050346 291.28706978 258.15050346 291.28706978 256.81758118 291.28105164 C252.50050406 291.38440756 250.54519734 291.59591464 246.98535156 294.234375 C244.98504199 297.02083673 244.2425753 298.60406642 243.77734375 301.95703125 C243.5621106 303.365896 243.5621106 303.365896 243.3425293 304.80322266 C243.20886963 305.79628418 243.07520996 306.7893457 242.9375 307.8125 C242.61353955 309.90039002 242.28539898 311.98763564 241.953125 314.07421875 C241.79392578 315.09177246 241.63472656 316.10932617 241.47070312 317.15771484 C240.41225038 323.5490566 238.81909537 329.78427318 237 336 C236.77505859 336.76924805 236.55011719 337.53849609 236.31835938 338.33105469 C228.38151305 364.85352399 216.12465266 390.56575276 198.36328125 411.97265625 C196.02846585 414.88317955 195.02346218 416.67739497 194.75 420.4375 C197.92080548 429.47429562 207.27435746 436.39684499 213.9375 443 C214.9175531 443.97502386 215.8973724 444.9502828 216.87695312 445.92578125 C219.24902313 448.28616618 221.6234086 450.64416905 224 453 C219.03805145 458.99500997 213.6523376 464.46427037 208.125 469.9375 C207.24585938 470.81212891 206.36671875 471.68675781 205.4609375 472.58789062 C203.3095654 474.72757048 201.15588208 476.86486597 199 479 C194.63787753 475.448591 190.67815141 471.69986107 186.78515625 467.63671875 C185.84188321 466.6581199 184.89852241 465.67960563 183.95507812 464.70117188 C182.50028045 463.19075176 181.05178043 461.6760519 179.6184082 460.14526367 C173.65803791 453.31684242 173.65803791 453.31684242 165.73828125 449.53515625 C161.13798894 450.10718842 158.55796289 451.8426125 155.125 454.75 C153.81847889 455.77810669 152.50706987 456.8000254 151.19140625 457.81640625 C150.16877686 458.60942139 150.16877686 458.60942139 149.12548828 459.41845703 C139.00484204 466.94907343 127.6993071 472.89769382 116.35546875 478.34375 C113.11706646 479.87193501 113.11706646 479.87193501 110.66723633 481.46166992 C105.62181205 484.37162126 100.00535534 485.97128424 94.5 487.8125 C93.51889755 488.14290283 93.51889755 488.14290283 92.51797485 488.47998047 C80.22612211 492.58589947 67.89802155 495.43774817 55.16796875 497.84375 C54.1114209 498.04355469 53.05487305 498.24335937 51.96630859 498.44921875 C50.07613368 498.80018456 48.18335688 499.13760179 46.28759766 499.45703125 C45.08756104 499.67939453 45.08756104 499.67939453 43.86328125 499.90625 C43.18177002 500.02291016 42.50025879 500.13957031 41.7980957 500.25976562 C39.0834904 501.37730578 38.35182328 502.36386788 37 505 C36.53223604 508.11669839 36.51123637 511.2117919 36.48828125 514.359375 C36.47033005 515.26375305 36.45237885 516.1681311 36.43388367 517.09991455 C36.37978143 519.9832292 36.34588526 522.86637832 36.3125 525.75 C36.27932685 527.70705428 36.24483719 529.66408672 36.20898438 531.62109375 C36.12158035 536.41408631 36.06151175 541.20632544 36 546 C24.12 546 12.24 546 0 546 C-0.01417969 543.09832031 -0.02835938 540.19664062 -0.04296875 537.20703125 C-0.07360048 534.39042597 -0.11268628 531.57405576 -0.15258789 528.75756836 C-0.17575551 526.80322611 -0.19016071 524.84875923 -0.19555664 522.89428711 C-0.20485532 520.08107957 -0.24586475 517.26982888 -0.29296875 514.45703125 C-0.28706978 513.15050346 -0.28706978 513.15050346 -0.28105164 511.81758118 C-0.38627088 507.42267489 -0.57934437 505.54712036 -3.3371582 501.96020508 C-6.6599 499.51422599 -8.90677501 499.21321139 -13 498.875 C-20.18991833 498.14463725 -26.99785645 496.77171949 -34 495 C-35.44388413 494.65832007 -36.88790302 494.31720927 -38.33203125 493.9765625 C-50.3708372 491.06024378 -61.65345622 486.94633142 -73 482 C-74.19906982 481.48179687 -74.19906982 481.48179687 -75.42236328 480.953125 C-92.17395486 473.62793382 -110.91469137 464.08530863 -124 451 C-127.81672281 450.26505119 -131.52556057 450.04614327 -134.87182617 452.2109375 C-135.46455322 452.76007813 -136.05728027 453.30921875 -136.66796875 453.875 C-137.3549585 454.50986328 -138.04194824 455.14472656 -138.74975586 455.79882812 C-143.92349522 460.85974101 -148.94484212 466.07387173 -153.9296875 471.3203125 C-154.78304687 472.19429687 -155.63640625 473.06828125 -156.515625 473.96875 C-157.66466309 475.16661133 -157.66466309 475.16661133 -158.83691406 476.38867188 C-161 478 -161 478 -162.94140625 478.07250977 C-165.93230351 476.51427783 -168.10066608 474.26679978 -170.421875 471.87109375 C-170.92672424 471.36199966 -171.43157349 470.85290558 -171.95172119 470.3283844 C-173.55833979 468.7050088 -175.15419822 467.071503 -176.75 465.4375 C-177.83914984 464.3332995 -178.92898605 463.22977555 -180.01953125 462.12695312 C-182.6877076 459.4257471 -185.34628291 456.71540937 -188 454 C-184.45473248 449.62589007 -180.70942295 445.70985345 -176.6015625 441.85546875 C-175.6180187 440.9217197 -174.63495337 439.98746644 -173.65234375 439.05273438 C-172.13656858 437.61100145 -170.61556517 436.17889608 -169.06982422 434.76928711 C-162.89624346 429.35476917 -162.89624346 429.35476917 -159.22460938 422.22875977 C-159.09358724 418.4454957 -159.54860769 415.84835201 -161.328125 412.50390625 C-161.96234375 411.86324219 -162.5965625 411.22257812 -163.25 410.5625 C-178.34932732 393.53559898 -187.9917247 372.04733183 -196 351 C-196.2666748 350.32340332 -196.53334961 349.64680664 -196.80810547 348.94970703 C-198.74680093 343.96643184 -200.18304149 338.92936983 -201.5 333.75 C-201.71503174 332.9137207 -201.93006348 332.07744141 -202.15161133 331.21582031 C-202.57751169 329.55706733 -203.00180185 327.89789989 -203.42431641 326.23828125 C-203.90660897 324.36310811 -204.40980109 322.49332707 -204.91796875 320.625 C-206.71932578 313.89505697 -207.61127048 307.27797151 -208.1796875 300.34765625 C-209.23520523 296.04013865 -210.48535719 294.69970635 -214 292 C-217.15233655 291.26790373 -220.23105572 291.27840347 -223.45703125 291.29296875 C-224.35999435 291.27784744 -225.26295746 291.26272614 -226.19328308 291.24714661 C-229.06660979 291.20428851 -231.93888558 291.19543351 -234.8125 291.1875 C-236.76500186 291.1643542 -238.71747876 291.13898869 -240.66992188 291.11132812 C-245.44718585 291.04432867 -250.22152728 291.02335104 -255 291 C-255 279.12 -255 267.24 -255 255 C-250.64748047 254.97873047 -250.64748047 254.97873047 -246.20703125 254.95703125 C-243.39042597 254.92639952 -240.57405576 254.88731372 -237.75756836 254.84741211 C-235.80322611 254.82424449 -233.84875923 254.80983929 -231.89428711 254.80444336 C-229.08107957 254.79514468 -226.26982888 254.75413525 -223.45703125 254.70703125 C-222.58601273 254.7109639 -221.7149942 254.71489655 -220.81758118 254.71894836 C-216.50329431 254.61565924 -214.54391135 254.40195828 -210.9831543 251.77050781 C-208.96194623 248.94683809 -208.24974963 247.36478113 -207.8125 243.96484375 C-207.67392578 243.00022217 -207.53535156 242.03560059 -207.39257812 241.04174805 C-207.26302734 240.01734619 -207.13347656 238.99294434 -207 237.9375 C-204.80510323 222.94321299 -201.82500078 208.05169418 -196 194 C-195.7117334 193.28328125 -195.4234668 192.5665625 -195.12646484 191.828125 C-186.8816309 171.39297663 -176.93613343 150.49442558 -162.2265625 133.828125 C-159.50854348 130.375764 -159.07087 128.66246362 -159.44506836 124.40625 C-160.08635032 121.6255747 -160.94350426 120.48563524 -162.86328125 118.3984375 C-163.4960498 117.70927246 -164.12881836 117.02010742 -164.78076172 116.31005859 C-169.10382143 111.81008159 -173.50538449 107.39221367 -177.9375 103 C-178.9175531 102.02497614 -179.8973724 101.0497172 -180.87695312 100.07421875 C-183.24902313 97.71383382 -185.6234086 95.35583095 -188 93 C-183.0510009 87.04017592 -177.72390794 81.54057377 -172.25 76.0625 C-171.38761719 75.18787109 -170.52523437 74.31324219 -169.63671875 73.41210938 C-168.81300781 72.58646484 -167.98929687 71.76082031 -167.140625 70.91015625 C-166.39329102 70.15871338 -165.64595703 69.40727051 -164.87597656 68.63305664 C-163 67 -163 67 -161 67 C-159.62060547 68.38085938 -159.62060547 68.38085938 -157.9921875 70.34375 C-153.54071086 75.56669311 -148.88646583 80.55899172 -144.125 85.5 C-143.27808594 86.4178125 -142.43117188 87.335625 -141.55859375 88.28125 C-136.39858633 93.79579807 -136.39858633 93.79579807 -129.4453125 95.96875 C-123.99064785 95.3212409 -120.03038944 92.22951538 -115.75 89 C-114.0717904 87.79481437 -112.39210011 86.59168793 -110.7109375 85.390625 C-109.90237305 84.80474609 -109.09380859 84.21886719 -108.26074219 83.61523438 C-103.35473976 80.11003869 -98.2202198 77.01501955 -93 74 C-92.38543945 73.64486328 -91.77087891 73.28972656 -91.13769531 72.92382812 C-79.55652999 66.31093115 -67.54951416 61.45936796 -55 57 C-53.865625 56.58878906 -52.73125 56.17757812 -51.5625 55.75390625 C-41.78692187 52.34042312 -31.76759658 49.55297326 -21.484375 48.2578125 C-20.07369751 48.08004272 -20.07369751 48.08004272 -18.63452148 47.89868164 C-16.79005927 47.67895463 -14.94305984 47.47934295 -13.09399414 47.30249023 C-12.24442139 47.20395752 -11.39484863 47.1054248 -10.51953125 47.00390625 C-9.76776611 46.92986572 -9.01600098 46.8558252 -8.24145508 46.77954102 C-4.72769692 45.55751403 -3.22471714 43.97877714 -1 41 C-0.27431431 37.84582088 -0.27840091 34.76951264 -0.29296875 31.54296875 C-0.27028679 30.18852409 -0.27028679 30.18852409 -0.24714661 28.80671692 C-0.20428851 25.93339021 -0.19543351 23.06111442 -0.1875 20.1875 C-0.1643542 18.23499814 -0.13898869 16.28252124 -0.11132812 14.33007812 C-0.04432867 9.55281415 -0.02335104 4.77847272 0 0 Z M-98 121 C-98.81210938 121.60585937 -99.62421875 122.21171875 -100.4609375 122.8359375 C-129.45304071 145.40517477 -152.23239552 177.08972195 -163.40039062 212.15722656 C-163.93233746 213.79205341 -164.51716704 215.40946228 -165.109375 217.0234375 C-175.17669559 244.66984867 -174.67418464 275.20409554 -171 304 C-170.87117432 305.04293213 -170.87117432 305.04293213 -170.73974609 306.10693359 C-166.54375346 337.94432399 -150.70303484 369.71447279 -130 394 C-129.08639264 395.10867762 -128.17369765 396.21810745 -127.26171875 397.328125 C-98.35646788 432.18683831 -56.58586079 454.95916096 -12 462 C-11.26249512 462.11714355 -10.52499023 462.23428711 -9.76513672 462.35498047 C37.26871132 469.460206 88.59999537 458.49658218 127.26464844 430.28417969 C127.83731445 429.86040039 128.40998047 429.43662109 129 429 C129.87446777 428.35659668 129.87446777 428.35659668 130.76660156 427.70019531 C143.97387002 417.88388394 155.93077268 407.05270208 166 394 C166.65097656 393.21496094 167.30195313 392.42992187 167.97265625 391.62109375 C195.5335734 358.36169672 208.99708692 315.87378818 209.125 273.0625 C209.12967285 271.9912085 209.1343457 270.91991699 209.13916016 269.81616211 C209.11308864 256.59689862 207.9776187 244.18221924 204.875 231.3125 C204.71905365 230.66014374 204.5631073 230.00778748 204.4024353 229.33566284 C197.50694703 200.65520128 184.90903286 174.73828145 166 152 C165.17757813 150.98035156 164.35515625 149.96070313 163.5078125 148.91015625 C136.09738832 115.26045319 96.71501025 94.32305126 54.75 85.0625 C53.84685059 84.86309814 52.94370117 84.66369629 52.01318359 84.45825195 C0.01755969 73.71950534 -56.36417948 89.18974184 -98 121 Z " fill="#193C7E" transform="translate(295,40)"/>
<path d="M0 0 C4.64358254 3.30674756 7.01283363 6.17534296 9.515625 11.3828125 C9.81273376 11.9897142 10.10984253 12.59661591 10.41595459 13.22190857 C11.04691148 14.51470338 11.67147863 15.81063379 12.29003906 17.10940552 C13.59518682 19.84977601 14.93133912 22.57465182 16.26525879 25.30110168 C16.93027552 26.66159649 17.59361626 28.02291185 18.25524902 29.38505554 C20.73955261 34.49736093 23.32224215 39.54855837 26 44.5625 C30.13855747 52.34668069 34.20486454 60.16696226 38.25 68 C38.89638551 69.25122974 39.54278855 70.50245042 40.18920898 71.75366211 C41.16428026 73.641067 42.13932591 75.52848508 43.11424255 77.41596985 C46.42371078 83.82241163 49.74234879 90.22408885 53.0625 96.625 C53.63653564 97.73182129 54.21057129 98.83864258 54.80200195 99.97900391 C56.53453873 103.31940299 58.26724021 106.65971659 60 110 C62.31269235 114.45823359 64.6252198 118.91655262 66.9375 123.375 C67.79782837 125.03378174 67.79782837 125.03378174 68.67553711 126.72607422 C71.71824745 132.59418877 74.75796749 138.46383308 77.79296875 144.3359375 C78.10899551 144.94736603 78.42502228 145.55879456 78.75062561 146.18875122 C79.38940524 147.42464144 80.02818393 148.66053214 80.66696167 149.89642334 C80.98311432 150.50810364 81.29926697 151.11978394 81.625 151.75 C81.94155548 152.36248596 82.25811096 152.97497192 82.58425903 153.60601807 C86.66312759 161.49682682 90.75844376 169.37878257 94.875 177.25 C100.20807762 187.44731324 105.47445804 197.67845752 110.73690796 207.912323 C115.01611354 216.23259881 119.31550748 224.54046704 123.6875 232.8125 C124.44795127 234.26170059 125.20837012 235.7109182 125.96875 237.16015625 C127.27385671 239.64293707 128.60781816 242.10602376 129.96875 244.55859375 C134.46094252 252.89977849 134.46094252 252.89977849 134.125 257 C132.80534884 260.51906975 132.05722611 261.79782744 129 264 C125.64207359 264.60659909 122.31407958 264.53914577 118.9098053 264.50793457 C117.87269313 264.51417453 116.83558096 264.5204145 115.76704115 264.52684355 C112.28074431 264.54283892 108.79514031 264.53014321 105.30883789 264.51757812 C102.81392508 264.52299634 100.31901546 264.5301173 97.82411194 264.53881836 C91.74418833 264.55519203 85.66453811 264.55275716 79.58462507 264.5411678 C74.64338486 264.53213851 69.7022 264.53090727 64.7609539 264.53526306 C64.05799772 264.53587599 63.35504154 264.53648893 62.63078366 264.53712043 C61.20278043 264.53839932 59.77477723 264.53969617 58.34677403 264.5410108 C44.9515917 264.55242101 31.5565188 264.53929645 18.16135442 264.51780933 C6.66684094 264.49994181 -4.82751093 264.50303869 -16.32202148 264.52148438 C-29.66733081 264.54289006 -43.01254416 264.55131823 -56.35786825 264.53903532 C-57.7809582 264.53776112 -59.20404816 264.53650363 -60.62713814 264.53526306 C-61.32733863 264.53464596 -62.02753913 264.53402886 -62.74895782 264.53339306 C-67.6839441 264.52993895 -72.61886951 264.53576987 -77.55384636 264.54518127 C-84.19654421 264.55757082 -90.83898385 264.54875064 -97.48166847 264.52560425 C-99.92259081 264.52030616 -102.36353878 264.52184961 -104.80445099 264.53065491 C-108.13092421 264.54155013 -111.45641162 264.52791843 -114.78282166 264.50793457 C-116.23933393 264.5213189 -116.23933393 264.5213189 -117.72527069 264.53497362 C-121.9576144 264.4854959 -124.37474303 264.37008137 -128.0777216 262.1783371 C-130.76809546 259.12958974 -130.97079019 257.0309535 -131 253 C-130.00292969 249.90820312 -130.00292969 249.90820312 -128.421875 246.78125 C-127.5548999 245.03086426 -127.5548999 245.03086426 -126.67041016 243.24511719 C-126.03043388 241.99666253 -125.39029302 240.74829224 -124.75 239.5 C-124.09625546 238.19267472 -123.44442236 236.88439198 -122.79443359 235.57519531 C-121.48386858 232.93896914 -120.16552698 230.30688104 -118.84082031 227.67773438 C-116.35893597 222.73817608 -113.99003943 217.74630536 -111.625 212.75 C-107.12624991 203.3124415 -102.5663403 193.90496455 -98 184.5 C-92.06743149 172.28061782 -86.17736802 160.04198959 -80.32861328 147.78222656 C-73.29325113 133.04959388 -66.20513354 118.34228073 -59.10229492 103.64208984 C-54.63462848 94.39553992 -50.18689969 85.13960772 -45.75219727 75.87719727 C-42.80994417 69.74190616 -39.84372577 63.61879362 -36.859375 57.50390625 C-35.7562662 55.24228304 -34.65325595 52.98061181 -33.55032349 50.71890259 C-32.81117143 49.20356487 -32.07165184 47.68840637 -31.33175659 46.1734314 C-26.18494491 35.62838455 -21.16639258 25.04381711 -16.48608398 14.28100586 C-9.64394097 -1.11276242 -9.64394097 -1.11276242 0 0 Z " fill="#06AADE" transform="translate(316,158)"/>
<path d="M0 0 C1.30597641 -0.00855011 1.30597641 -0.00855011 2.63833618 -0.01727295 C4.47193211 -0.02665112 6.30554435 -0.03322802 8.13916016 -0.03710938 C10.87304112 -0.04673063 13.60614104 -0.07778862 16.33984375 -0.109375 C66.13551085 -0.4077493 115.43012004 20.16940912 151.5390625 54.203125 C152.80692687 55.26916606 154.07773177 56.33172044 155.3515625 57.390625 C191.47307129 89.1688662 215.10633579 138.46004898 219.5390625 186.203125 C219.69333608 189.59520792 219.72624854 192.98362506 219.7421875 196.37890625 C219.74788757 197.34354294 219.75358765 198.30817963 219.75946045 199.30204773 C219.76886791 201.34010742 219.77542741 203.37818203 219.77929688 205.41625977 C219.78891417 208.46854848 219.8199419 211.52013701 219.8515625 214.57226562 C219.94840908 232.5196763 217.53458118 248.9837235 212.5390625 266.203125 C212.219375 267.39679688 211.8996875 268.59046875 211.5703125 269.8203125 C205.1513077 293.47745117 192.81311261 317.04163615 177.5390625 336.203125 C176.62253906 337.40775391 176.62253906 337.40775391 175.6875 338.63671875 C152.45188137 368.74414799 121.2785241 392.09096081 85.5390625 405.203125 C84.72735596 405.51411133 83.91564941 405.82509766 83.0793457 406.14550781 C75.90540146 408.84882745 68.64763682 410.919004 61.2265625 412.828125 C59.54530273 413.27671875 59.54530273 413.27671875 57.83007812 413.734375 C42.16738346 417.79607207 27.25803151 418.61022248 11.1640625 418.578125 C10.14160431 418.57758118 9.11914612 418.57703735 8.06570435 418.57647705 C-7.1460899 418.5392345 -21.64825774 417.96027701 -36.4609375 414.203125 C-37.33250488 413.99413574 -38.20407227 413.78514648 -39.10205078 413.56982422 C-67.47962086 406.65541355 -93.19479876 393.71395573 -116.4609375 376.203125 C-117.85699219 375.15705078 -117.85699219 375.15705078 -119.28125 374.08984375 C-145.47109396 353.75271412 -165.28991085 327.81883167 -179.59423828 298.00146484 C-180.33539589 296.463615 -181.09726958 294.93577837 -181.86328125 293.41015625 C-185.74654978 285.40789362 -188.22937352 276.95113967 -190.77636719 268.45263672 C-191.36499102 266.51840704 -191.99139063 264.59574522 -192.625 262.67578125 C-198.28462427 244.85444528 -198.75489573 226.54963248 -198.8359375 208.015625 C-198.84379272 207.13596069 -198.85164795 206.25629639 -198.85974121 205.34997559 C-199.14639966 164.04999618 -186.07233691 124.0480137 -162.4609375 90.203125 C-162.02587891 89.57873535 -161.59082031 88.9543457 -161.14257812 88.31103516 C-128.77421863 42.41781458 -79.46602219 12.21750711 -24.5390625 2.03515625 C-23.80075195 1.89827393 -23.06244141 1.7613916 -22.30175781 1.62036133 C-14.87574752 0.52969 -7.50116323 0.03963354 0 0 Z M-105.4609375 57.203125 C-106.27304688 57.80898437 -107.08515625 58.41484375 -107.921875 59.0390625 C-136.91397821 81.60829977 -159.69333302 113.29284695 -170.86132812 148.36035156 C-171.39327496 149.99517841 -171.97810454 151.61258728 -172.5703125 153.2265625 C-182.63763309 180.87297367 -182.13512214 211.40722054 -178.4609375 240.203125 C-178.33211182 241.24605713 -178.33211182 241.24605713 -178.20068359 242.31005859 C-174.00469096 274.14744899 -158.16397234 305.91759779 -137.4609375 330.203125 C-136.54733014 331.31180262 -135.63463515 332.42123245 -134.72265625 333.53125 C-105.81740538 368.38996331 -64.04679829 391.16228596 -19.4609375 398.203125 C-18.72343262 398.32026855 -17.98592773 398.43741211 -17.22607422 398.55810547 C29.80777382 405.663331 81.13905787 394.69970718 119.80371094 366.48730469 C120.37637695 366.06352539 120.94904297 365.63974609 121.5390625 365.203125 C122.41353027 364.55972168 122.41353027 364.55972168 123.30566406 363.90332031 C136.51293252 354.08700894 148.46983518 343.25582708 158.5390625 330.203125 C159.19003906 329.41808594 159.84101563 328.63304687 160.51171875 327.82421875 C188.0726359 294.56482172 201.53614942 252.07691318 201.6640625 209.265625 C201.66873535 208.1943335 201.6734082 207.12304199 201.67822266 206.01928711 C201.65215114 192.80002362 200.5166812 180.38534424 197.4140625 167.515625 C197.25811615 166.86326874 197.1021698 166.21091248 196.9414978 165.53878784 C190.04600953 136.85832628 177.44809536 110.94140645 158.5390625 88.203125 C157.71664063 87.18347656 156.89421875 86.16382813 156.046875 85.11328125 C128.63645082 51.46357819 89.25407275 30.52617626 47.2890625 21.265625 C46.38591309 21.06622314 45.48276367 20.86682129 44.55224609 20.66137695 C-7.44337781 9.92263034 -63.82511698 25.39286684 -105.4609375 57.203125 Z " fill="#F9FAFA" transform="translate(302.4609375,103.796875)"/>
<path d="M0 0 C4.64358254 3.30674756 7.01283363 6.17534296 9.515625 11.3828125 C9.81273376 11.9897142 10.10984253 12.59661591 10.41595459 13.22190857 C11.04691148 14.51470338 11.67147863 15.81063379 12.29003906 17.10940552 C13.59518682 19.84977601 14.93133912 22.57465182 16.26525879 25.30110168 C16.93027552 26.66159649 17.59361626 28.02291185 18.25524902 29.38505554 C20.73955261 34.49736093 23.32224215 39.54855837 26 44.5625 C30.13855747 52.34668069 34.20486454 60.16696226 38.25 68 C38.89638551 69.25122974 39.54278855 70.50245042 40.18920898 71.75366211 C41.16428026 73.641067 42.13932591 75.52848508 43.11424255 77.41596985 C46.42371078 83.82241163 49.74234879 90.22408885 53.0625 96.625 C53.63653564 97.73182129 54.21057129 98.83864258 54.80200195 99.97900391 C56.53453873 103.31940299 58.26724021 106.65971659 60 110 C62.31269235 114.45823359 64.6252198 118.91655262 66.9375 123.375 C67.79782837 125.03378174 67.79782837 125.03378174 68.67553711 126.72607422 C71.71824745 132.59418877 74.75796749 138.46383308 77.79296875 144.3359375 C78.10899551 144.94736603 78.42502228 145.55879456 78.75062561 146.18875122 C79.38940524 147.42464144 80.02818393 148.66053214 80.66696167 149.89642334 C80.98311432 150.50810364 81.29926697 151.11978394 81.625 151.75 C81.94155548 152.36248596 82.25811096 152.97497192 82.58425903 153.60601807 C86.66312759 161.49682682 90.75844376 169.37878257 94.875 177.25 C100.20807762 187.44731324 105.47445804 197.67845752 110.73690796 207.912323 C115.01611354 216.23259881 119.31550748 224.54046704 123.6875 232.8125 C124.44795127 234.26170059 125.20837012 235.7109182 125.96875 237.16015625 C127.27385671 239.64293707 128.60781816 242.10602376 129.96875 244.55859375 C134.46094252 252.89977849 134.46094252 252.89977849 134.125 257 C132.80534884 260.51906975 132.05722611 261.79782744 129 264 C125.64207359 264.60659909 122.31407958 264.53914577 118.9098053 264.50793457 C117.87269313 264.51417453 116.83558096 264.5204145 115.76704115 264.52684355 C112.28074431 264.54283892 108.79514031 264.53014321 105.30883789 264.51757812 C102.81392508 264.52299634 100.31901546 264.5301173 97.82411194 264.53881836 C91.74418833 264.55519203 85.66453811 264.55275716 79.58462507 264.5411678 C74.64338486 264.53213851 69.7022 264.53090727 64.7609539 264.53526306 C64.05799772 264.53587599 63.35504154 264.53648893 62.63078366 264.53712043 C61.20278043 264.53839932 59.77477723 264.53969617 58.34677403 264.5410108 C44.9515917 264.55242101 31.5565188 264.53929645 18.16135442 264.51780933 C6.66684094 264.49994181 -4.82751093 264.50303869 -16.32202148 264.52148438 C-29.66733081 264.54289006 -43.01254416 264.55131823 -56.35786825 264.53903532 C-57.7809582 264.53776112 -59.20404816 264.53650363 -60.62713814 264.53526306 C-61.32733863 264.53464596 -62.02753913 264.53402886 -62.74895782 264.53339306 C-67.6839441 264.52993895 -72.61886951 264.53576987 -77.55384636 264.54518127 C-84.19654421 264.55757082 -90.83898385 264.54875064 -97.48166847 264.52560425 C-99.92259081 264.52030616 -102.36353878 264.52184961 -104.80445099 264.53065491 C-108.13092421 264.54155013 -111.45641162 264.52791843 -114.78282166 264.50793457 C-116.23933393 264.5213189 -116.23933393 264.5213189 -117.72527069 264.53497362 C-121.9576144 264.4854959 -124.37474303 264.37008137 -128.0777216 262.1783371 C-130.76809546 259.12958974 -130.97079019 257.0309535 -131 253 C-130.00292969 249.90820312 -130.00292969 249.90820312 -128.421875 246.78125 C-127.5548999 245.03086426 -127.5548999 245.03086426 -126.67041016 243.24511719 C-126.03043388 241.99666253 -125.39029302 240.74829224 -124.75 239.5 C-124.09625546 238.19267472 -123.44442236 236.88439198 -122.79443359 235.57519531 C-121.48386858 232.93896914 -120.16552698 230.30688104 -118.84082031 227.67773438 C-116.35893597 222.73817608 -113.99003943 217.74630536 -111.625 212.75 C-107.12624991 203.3124415 -102.5663403 193.90496455 -98 184.5 C-92.06743149 172.28061782 -86.17736802 160.04198959 -80.32861328 147.78222656 C-73.29325113 133.04959388 -66.20513354 118.34228073 -59.10229492 103.64208984 C-54.63462848 94.39553992 -50.18689969 85.13960772 -45.75219727 75.87719727 C-42.80994417 69.74190616 -39.84372577 63.61879362 -36.859375 57.50390625 C-35.7562662 55.24228304 -34.65325595 52.98061181 -33.55032349 50.71890259 C-32.81117143 49.20356487 -32.07165184 47.68840637 -31.33175659 46.1734314 C-26.18494491 35.62838455 -21.16639258 25.04381711 -16.48608398 14.28100586 C-9.64394097 -1.11276242 -9.64394097 -1.11276242 0 0 Z M-4 30 C-4.40089844 31.02996094 -4.80179687 32.05992187 -5.21484375 33.12109375 C-8.1824367 40.60717804 -11.31740328 47.87104809 -15.1875 54.9375 C-19.14338488 62.1684094 -22.64146138 69.56471477 -26.0625 77.0625 C-29.584896 84.78073978 -33.14626656 92.45379766 -36.99243164 100.01586914 C-39.92539896 105.79804782 -42.71497902 111.64534698 -45.5 117.5 C-48.60834878 124.03054922 -51.73879835 130.54432422 -55 137 C-59.12262993 145.1702261 -63.05250417 153.4299299 -66.98828125 161.69140625 C-69.11963171 166.16334124 -71.26449714 170.62851896 -73.41796875 175.08984375 C-73.70610947 175.686866 -73.99425018 176.28388824 -74.29112244 176.89900208 C-75.69157569 179.80031456 -77.09329076 182.70100718 -78.49682617 185.60083008 C-81.36780864 191.54841153 -84.15742114 197.52344711 -86.87402344 203.54296875 C-88.39686527 206.86601303 -90.02970066 210.11693882 -91.6875 213.375 C-95.0204663 219.9909053 -98.2844412 226.63874192 -101.5 233.3125 C-102.16841919 234.68317627 -102.16841919 234.68317627 -102.8503418 236.08154297 C-103.2606665 236.9376416 -103.67099121 237.79374023 -104.09375 238.67578125 C-104.46177734 239.43802002 -104.82980469 240.20025879 -105.20898438 240.9855957 C-106.18275463 243.10471276 -106.18275463 243.10471276 -106 246 C-35.05 246 35.9 246 109 246 C107.67441146 242.02323439 106.57654726 238.92403608 104.671875 235.33203125 C104.2087793 234.45224609 103.74568359 233.57246094 103.26855469 232.66601562 C102.76743164 231.72435547 102.26630859 230.78269531 101.75 229.8125 C100.66617767 227.75676815 99.58286596 225.70076703 98.5 223.64453125 C97.93023437 222.56510254 97.36046875 221.48567383 96.7734375 220.37353516 C93.73689686 214.59725231 90.74649117 208.79712796 87.75 203 C84.06180313 195.87345024 80.36290863 188.75492657 76.5625 181.6875 C74.17576121 177.24200978 71.86698922 172.77022306 69.625 168.25 C64.50000384 157.91847365 59.0641931 147.74747853 53.640625 137.5703125 C50.14220187 130.99990214 46.67936609 124.42043013 43.375 117.75 C32.64168047 96.08836163 21.58239358 74.46236906 9.875 53.3125 C5.66060943 45.67701591 1.86852443 37.81441935 -2 30 C-2.66 30 -3.32 30 -4 30 Z " fill="#FAFBFB" transform="translate(316,158)"/>
<path d="M0 0 C2.69990662 1.79993774 4.5418865 3.083773 6 6 C6.10365635 8.75543962 6.14680673 11.4857959 6.14526367 14.24169922 C6.14862228 15.09388031 6.1519809 15.9460614 6.15544128 16.82406616 C6.16496712 19.65095463 6.16689527 22.47778396 6.16796875 25.3046875 C6.17118038 27.26522852 6.17454438 29.2257693 6.17805481 31.18630981 C6.1840503 35.30048173 6.1858943 39.41463262 6.18530273 43.52880859 C6.18520113 48.80385229 6.19884961 54.07876133 6.21607494 59.35377312 C6.22718746 63.40463888 6.22922217 67.45547202 6.22869301 71.50635147 C6.2298744 73.45122873 6.23430505 75.39610679 6.24202538 77.34096909 C6.25180938 80.06057947 6.24895341 82.77989673 6.24291992 85.49951172 C6.24853943 86.30485352 6.25415894 87.11019531 6.25994873 87.93994141 C6.22019833 94.98172781 6.22019833 94.98172781 4 98 C0.29873141 100.46751239 -1.62223532 100.30721156 -6 100 C-9.38031589 98.81232145 -9.93216817 98.10174775 -12 95 C-12.20511506 92.15757766 -12.29369515 89.41232724 -12.29052734 86.56884766 C-12.29724457 85.70837326 -12.30396179 84.84789886 -12.31088257 83.96134949 C-12.32990557 81.11219534 -12.33378897 78.26327623 -12.3359375 75.4140625 C-12.3423626 73.43492536 -12.34909074 71.45578918 -12.35610962 69.47665405 C-12.36809326 65.32555947 -12.37178934 61.17454817 -12.37060547 57.0234375 C-12.37040226 51.70463725 -12.3977021 46.38637117 -12.43214989 41.06769753 C-12.45438975 36.97902983 -12.4584439 32.89049125 -12.45738602 28.80176926 C-12.45974646 26.84095799 -12.46859485 24.8801434 -12.48405075 22.91939163 C-12.50365113 20.17586141 -12.49789617 17.43349037 -12.48583984 14.68994141 C-12.49707886 13.88041519 -12.50831787 13.07088898 -12.51989746 12.23683167 C-12.47758953 8.44732628 -12.15622005 6.24437985 -10.09463501 3.01937866 C-6.76001187 -0.19543766 -4.58856639 -0.44985945 0 0 Z " fill="#FDFDFC" transform="translate(316,240)"/>
<path d="M0 0 C0 0.66 0 1.32 0 2 C0.99 2 1.98 2 3 2 C3 2.66 3 3.32 3 4 C3.66 4 4.32 4 5 4 C6.55743688 7.11487377 6.26686231 10.39575809 6.3125 13.8125 C6.34150391 14.52470703 6.37050781 15.23691406 6.40039062 15.97070312 C6.44530392 19.70541638 6.14178313 21.77928605 4.10546875 24.94921875 C1.54787892 27.44037767 0.69213895 27.9548605 -2.875 28.1875 C-5.96075154 28.00235491 -7.51023567 27.77840309 -10 26 C-12.5287571 22.31601934 -12.36714499 18.37097171 -12.375 14.0625 C-12.39949219 13.35931641 -12.42398437 12.65613281 -12.44921875 11.93164062 C-12.47000343 8.23543089 -12.12220461 6.18934171 -10.1015625 3.05859375 C-6.72003852 -0.25379127 -4.63043384 -0.10066161 0 0 Z " fill="#F7F9F9" transform="translate(316,358)"/>
<path d="M0 0 C5.25174926 4.38442526 10.13222473 9.00842093 14.9375 13.875 C15.62134766 14.56335938 16.30519531 15.25171875 17.00976562 15.9609375 C18.67551464 17.63833511 20.3388622 19.31803791 22 21 C21.01 21.33 20.02 21.66 19 22 C18.4652002 21.45996338 17.93040039 20.91992676 17.37939453 20.36352539 C14.96386294 17.92725624 12.54448883 15.49483893 10.125 13.0625 C9.28324219 12.21236328 8.44148438 11.36222656 7.57421875 10.48632812 C6.76855469 9.67744141 5.96289062 8.86855469 5.1328125 8.03515625 C4.38918457 7.2862915 3.64555664 6.53742676 2.87939453 5.76586914 C1.1128324 3.93702297 1.1128324 3.93702297 -1 3 C-0.67 2.01 -0.34 1.02 0 0 Z " fill="#32477F" transform="translate(493,107)"/>
<path d="M0 0 C3.98355132 -0.02493556 7.96707167 -0.04297028 11.95068359 -0.05493164 C13.96323241 -0.06236421 15.97575949 -0.07507829 17.98828125 -0.08789062 C24.42163371 -0.10405483 30.6439839 -0.02960975 37 1 C33.93843346 2.77669223 31.75963785 3.24050818 28.234375 3.1953125 C27.34492188 3.18886719 26.45546875 3.18242188 25.5390625 3.17578125 C24.61867188 3.15902344 23.69828125 3.14226563 22.75 3.125 C21.81414062 3.11597656 20.87828125 3.10695313 19.9140625 3.09765625 C17.60911343 3.07413636 15.3046884 3.04126853 13 3 C13 2.67 13 2.34 13 2 C8.71 1.67 4.42 1.34 0 1 C0 0.67 0 0.34 0 0 Z " fill="#4466A6" transform="translate(299,522)"/>
<path d="M0 0 C0.66 1.32 1.32 2.64 2 4 C-1.63 7.63 -5.26 11.26 -9 15 C-11 12 -11 12 -11 10 C-9.35546875 8.37890625 -9.35546875 8.37890625 -7.1875 6.5625 C-4.68897282 4.45536324 -2.2757944 2.34758602 0 0 Z " fill="#26417D" transform="translate(503,504)"/>
<path d="M0 0 C0.33 0.66 0.66 1.32 1 2 C-0.73397418 5.65047197 -2.19333016 7.55609075 -6 9 C-6 9.66 -6 10.32 -6 11 C-6.66 11 -7.32 11 -8 11 C-8 11.66 -8 12.32 -8 13 C-8.99 13.66 -9.98 14.32 -11 15 C-11.99 14.67 -12.98 14.34 -14 14 C-9.38 9.38 -4.76 4.76 0 0 Z " fill="#E2ECEB" transform="translate(148,503)"/>
<path d="M0 0 C0.99 0.66 1.98 1.32 3 2 C2.67 2.99 2.34 3.98 2 5 C1.01 5.33 0.02 5.66 -1 6 C-1.33 6.66 -1.66 7.32 -2 8 C-2.99 8.33 -3.98 8.66 -5 9 C-5.66 8.34 -6.32 7.68 -7 7 C-4.69 4.69 -2.38 2.38 0 0 Z " fill="#2A4883" transform="translate(126,113)"/>
<path d="M0 0 C1 3 1 3 1 7 C0.34 7 -0.32 7 -1 7 C-1.103125 7.639375 -1.20625 8.27875 -1.3125 8.9375 C-1.539375 9.618125 -1.76625 10.29875 -2 11 C-2.99 11.33 -3.98 11.66 -5 12 C-3.68938409 7.76570244 -2.05643741 3.92592596 0 0 Z " fill="#2DAEDF" transform="translate(265,287)"/>
<path d="M0 0 C1.75570313 0.17982422 1.75570313 0.17982422 3.546875 0.36328125 C4.43890625 0.47027344 5.3309375 0.57726562 6.25 0.6875 C6.25 1.0175 6.25 1.3475 6.25 1.6875 C0.52959989 2.5195582 -4.97240116 2.80786664 -10.75 2.6875 C-7.20909341 -0.72193728 -4.76075758 -0.52368333 0 0 Z " fill="#234588" transform="translate(295.75,123.3125)"/>
<path d="M0 0 C0.33 0 0.66 0 1 0 C1.17742222 4.5242666 1.13431596 7.95603293 -1 12 C-1.979135 13.02043846 -2.97644798 14.02412026 -4 15 C-3.52229477 13.06213915 -3.04278429 11.12472326 -2.5625 9.1875 C-2.29566406 8.10855469 -2.02882813 7.02960938 -1.75390625 5.91796875 C-1.23922588 3.9259157 -0.65062825 1.95188476 0 0 Z " fill="#CCD4DD" transform="translate(531,376)"/>
<path d="M0 0 C0.66 0 1.32 0 2 0 C3 3 3 3 2.00390625 5.48046875 C1.52824219 6.37378906 1.05257813 7.26710938 0.5625 8.1875 C0.08941406 9.08855469 -0.38367188 9.98960937 -0.87109375 10.91796875 C-1.24363281 11.60503906 -1.61617188 12.29210937 -2 13 C-3.04449911 9.86650268 -2.93423645 9.01031744 -2 6 C-1.34 6 -0.68 6 0 6 C0 4.02 0 2.04 0 0 Z " fill="#183476" transform="translate(258,252)"/>
<path d="M0 0 C3 1 3 1 4.203125 3.1796875 C4.54859375 4.06914062 4.8940625 4.95859375 5.25 5.875 C5.60578125 6.75929687 5.9615625 7.64359375 6.328125 8.5546875 C7 11 7 11 6 14 C4.99515796 12.04414675 3.99626195 10.08523763 3 8.125 C2.1646875 6.48917969 2.1646875 6.48917969 1.3125 4.8203125 C0 2 0 2 0 0 Z " fill="#1E356F" transform="translate(355,227)"/>
<path d="M0 0 C0 0.99 0 1.98 0 3 C-0.99 3.66 -1.98 4.32 -3 5 C-3.72382467 7.05925139 -3.72382467 7.05925139 -4 9 C-5.32 9 -6.64 9 -8 9 C-6.4169423 4.7257442 -3.49431596 2.73468206 0 0 Z " fill="#F0F5EF" transform="translate(180,151)"/>
<path d="M0 0 C0.33 0 0.66 0 1 0 C1 3.3 1 6.6 1 10 C0.34 10 -0.32 10 -1 10 C-1 9.34 -1 8.68 -1 8 C-1.66 8 -2.32 8 -3 8 C-1.125 2.25 -1.125 2.25 0 0 Z " fill="#23B1E2" transform="translate(245,328)"/>
<path d="M0 0 C2.61724095 2.36797991 4.32861729 4.89600354 6 8 C6 8.66 6 9.32 6 10 C5.01 10 4.02 10 3 10 C2.67 8.02 2.34 6.04 2 4 C1.34 4 0.68 4 0 4 C0 2.68 0 1.36 0 0 Z " fill="#37B4DB" transform="translate(380,318)"/>
<path d="M0 0 C0.66 0.33 1.32 0.66 2 1 C2 2.98 2 4.96 2 7 C0.68 7.33 -0.64 7.66 -2 8 C-1.34 5.36 -0.68 2.72 0 0 Z " fill="#2C4687" transform="translate(96,243)"/>
<path d="M0 0 C1.32 0.66 2.64 1.32 4 2 C1.06171403 4.50298434 -1.17902761 5.46930939 -5 6 C-3.35 4.02 -1.7 2.04 0 0 Z " fill="#2D4882" transform="translate(112,127)"/>
<path d="M0 0 C-0.33 3.3 -0.66 6.6 -1 10 C-1.66 9.67 -2.32 9.34 -3 9 C-3 6.36 -3 3.72 -3 1 C-1 0 -1 0 0 0 Z " fill="#192E74" transform="translate(539,337)"/>
<path d="M0 0 C2.875 0.3125 2.875 0.3125 6 1 C6.66 1.99 7.32 2.98 8 4 C6.35 4.33 4.7 4.66 3 5 C3 3.68 3 2.36 3 1 C2.01 0.67 1.02 0.34 0 0 Z " fill="#E7ECEB" transform="translate(285,539)"/>
<path d="M0 0 C5.57142857 5.14285714 5.57142857 5.14285714 6 9 C5.34 9 4.68 9 4 9 C0 2.25 0 2.25 0 0 Z " fill="#263F7C" transform="translate(142,435)"/>
<path d="M0 0 C0.66 0.33 1.32 0.66 2 1 C-1.625 6.875 -1.625 6.875 -5 8 C-3.8141763 4.62496331 -2.72426311 2.35277269 0 0 Z " fill="#DCE6ED" transform="translate(308,159)"/>
<path d="M0 0 C0.33 0.66 0.66 1.32 1 2 C-0.7857061 5.75938126 -2.25286585 7.32426299 -6 9 C-5.18914873 7.68648079 -4.37626942 6.37421332 -3.5625 5.0625 C-3.11003906 4.33160156 -2.65757812 3.60070312 -2.19140625 2.84765625 C-1 1 -1 1 0 0 Z " fill="#ECF3ED" transform="translate(148,503)"/>
<path d="M0 0 C0.33 0 0.66 0 1 0 C1 2.64 1 5.28 1 8 C-0.32 8.33 -1.64 8.66 -3 9 C-2.01 6.03 -1.02 3.06 0 0 Z " fill="#DFE6EA" transform="translate(487,390)"/>
<path d="M0 0 C2 3 2 3 2 7 C2.66 7 3.32 7 4 7 C3.67 8.65 3.34 10.3 3 12 C0.97649676 8.96474514 0.67875982 7.80573798 0.375 4.3125 C0.30023438 3.50425781 0.22546875 2.69601562 0.1484375 1.86328125 C0.09945312 1.24839844 0.05046875 0.63351562 0 0 Z " fill="#0F286C" transform="translate(90,355)"/>
<path d="M0 0 C0 2.97 0 5.94 0 9 C-0.99 8.67 -1.98 8.34 -3 8 C-3 5.69 -3 3.38 -3 1 C-1 0 -1 0 0 0 Z " fill="#3C558C" transform="translate(126,285)"/>
<path d="M0 0 C2.52259061 1.97420135 2.9929808 2.96745642 3.6875 6.1875 C3.790625 7.115625 3.89375 8.04375 4 9 C3.67 8.34 3.34 7.68 3 7 C2.34 7 1.68 7 1 7 C-0.0625 4.625 -0.0625 4.625 -1 2 C-0.67 1.34 -0.34 0.68 0 0 Z " fill="#233576" transform="translate(521,223)"/>
<path d="M0 0 C2.64 0.33 5.28 0.66 8 1 C5 3 5 3 1.8125 2.625 C0.884375 2.41875 -0.04375 2.2125 -1 2 C-0.67 1.34 -0.34 0.68 0 0 Z " fill="#D2D6E4" transform="translate(457,489)"/>
<path d="M0 0 C2.61500768 2.36595933 4.38999603 4.86049226 6 8 C5.67 8.66 5.34 9.32 5 10 C4.67 9.01 4.34 8.02 4 7 C3.01 6.67 2.02 6.34 1 6 C0.67 4.02 0.34 2.04 0 0 Z " fill="#18326B" transform="translate(476,215)"/>
<path d="M0 0 C0.66 0 1.32 0 2 0 C2.66 1.65 3.32 3.3 4 5 C3.38125 5.144375 2.7625 5.28875 2.125 5.4375 C-0.03258322 5.93152225 -0.03258322 5.93152225 -2 7 C-1.34 4.69 -0.68 2.38 0 0 Z " fill="#42B5E2" transform="translate(312,188)"/>
<path d="M0 0 C1.32 1.32 2.64 2.64 4 4 C2.35 4.33 0.7 4.66 -1 5 C-0.67 3.35 -0.34 1.7 0 0 Z " fill="#EFF2EB" transform="translate(465,491)"/>
<path d="M0 0 C1.32 0 2.64 0 4 0 C3.67 1.65 3.34 3.3 3 5 C1.68 3.68 0.36 2.36 -1 1 C-0.67 0.67 -0.34 0.34 0 0 Z " fill="#EEF2EB" transform="translate(492,464)"/>
<path d="M0 0 C0.33 1.32 0.66 2.64 1 4 C1.66 4 2.32 4 3 4 C2.67 5.98 2.34 7.96 2 10 C-0.4294516 6.3558226 -0.16179575 4.28758728 0 0 Z " fill="#DCE6ED" transform="translate(501,276)"/>
<path d="M0 0 C2.50037734 2.17424117 3.43628586 3.73045798 4 7 C3.01 6.67 2.02 6.34 1 6 C1 5.34 1 4.68 1 4 C0.34 4 -0.32 4 -1 4 C-0.67 2.68 -0.34 1.36 0 0 Z " fill="#D9E1E5" transform="translate(377,272)"/>
<path d="M0 0 C0.66 0.99 1.32 1.98 2 3 C-0.375 4.5625 -0.375 4.5625 -3 6 C-3.66 5.67 -4.32 5.34 -5 5 C-3.35 3.35 -1.7 1.7 0 0 Z " fill="#304A80" transform="translate(118,121)"/>
</svg>
