<?xml version="1.0" encoding="UTF-8"?>
<svg version="1.1" xmlns="http://www.w3.org/2000/svg" width="768" height="384">
<path d="M0 0 C55.11 0 110.22 0 167 0 C168.33176172 3.99528516 169.37800453 7.56686726 170.25 11.625 C173.71387331 25.54942605 181.31856776 37.63489737 193.44921875 45.4765625 C194.29097656 45.97929688 195.13273437 46.48203125 196 47 C196.76957031 47.46148437 197.53914063 47.92296875 198.33203125 48.3984375 C207.69591525 53.52295113 218.52260889 56.20149298 229.14453125 56.82421875 C231 57 231 57 233 58 C233.44792127 98.01659712 233.44792127 98.01659712 230 115 C230.67660549 114.99631283 231.35321098 114.99262566 232.05031967 114.98882675 C248.50842419 114.90051569 264.96645372 114.83430998 281.42473984 114.79275131 C289.38383235 114.77212 297.34276677 114.74398872 305.30175781 114.69824219 C312.23827158 114.65839162 319.17467088 114.63257132 326.11129594 114.62364602 C329.78474742 114.61842818 333.45787138 114.6061531 337.13121796 114.57707977 C341.23053051 114.5448978 345.32927251 114.54403943 349.42871094 114.54589844 C350.64862732 114.53151733 351.8685437 114.51713623 353.12542725 114.50231934 C354.24159424 114.50781799 355.35776123 114.51331665 356.50775146 114.51898193 C357.47747768 114.51529476 358.4472039 114.51160759 359.44631577 114.50780869 C362.84875483 115.16358708 363.99315619 116.19426548 366 119 C366.49219131 121.85041428 366.49219131 121.85041428 366.48101807 125.21356201 C366.48926605 127.12761589 366.48926605 127.12761589 366.49768066 129.08033752 C366.48352494 130.49203868 366.46898571 131.90373603 366.45410156 133.31542969 C366.45297313 134.8036852 366.45360686 136.29194293 366.45587158 137.78019714 C366.45701984 141.81928264 366.43349275 145.85789356 366.40557575 149.89686871 C366.38058062 154.11825343 366.37822159 158.33964888 366.37347412 162.56109619 C366.36103877 170.5544518 366.32820966 178.54758873 366.28807616 186.54084802 C366.2433758 195.6410995 366.22137579 204.74136139 366.20129442 213.84169531 C366.15947747 232.56125421 366.0891146 251.28060953 366 270 C367.14339844 269.98839844 368.28679687 269.97679687 369.46484375 269.96484375 C370.95572754 269.95546712 372.44661309 269.94636679 373.9375 269.9375 C374.69224609 269.92912109 375.44699219 269.92074219 376.22460938 269.91210938 C378.14994313 269.90347559 380.07535581 269.94775667 382 270 C383.66716684 271.66716684 383.12744882 273.6730614 383.12939453 275.96289062 C383.13254669 277.02068726 383.13569885 278.07848389 383.13894653 279.16833496 C383.13591019 280.89485291 383.13591019 280.89485291 383.1328125 282.65625 C383.13424759 284.41515564 383.13424759 284.41515564 383.13571167 286.20959473 C383.1363937 288.69458062 383.13453784 291.17956829 383.13037109 293.66455078 C383.12502319 297.48343887 383.13031536 301.30220935 383.13671875 305.12109375 C383.13605797 307.52864609 383.13477682 309.93619837 383.1328125 312.34375 C383.13483673 313.49476196 383.13686096 314.64577393 383.13894653 315.83166504 C383.13579437 316.88946167 383.13264221 317.9472583 383.12939453 319.03710938 C383.12820114 320.44156311 383.12820114 320.44156311 383.12698364 321.87438965 C383 324 383 324 382 325 C379.35799939 325.10043271 376.7421141 325.1361685 374.09960938 325.12939453 C372.85821953 325.13202301 372.85821953 325.13202301 371.5917511 325.13470459 C368.84239638 325.13912393 366.09310543 325.13618483 363.34375 325.1328125 C361.44185371 325.13348552 359.53995751 325.13445552 357.63806152 325.13571167 C353.64655745 325.13718875 349.65507571 325.13503375 345.66357422 325.13037109 C340.53509493 325.1246738 335.40666798 325.12795275 330.27819061 325.13394356 C326.34925946 325.13754889 322.42034082 325.13641072 318.4914093 325.13381577 C316.59987888 325.13314642 314.70834735 325.13397519 312.81681824 325.13629532 C310.17797823 325.13882138 307.53922419 325.13498191 304.90039062 325.12939453 C303.71592094 325.13243088 303.71592094 325.13243088 302.50752258 325.13552856 C297.11426251 325.11426251 297.11426251 325.11426251 296 324 C295.90673284 322.43452952 295.88254418 320.86487228 295.88647461 319.29663086 C295.88655014 318.29566879 295.88662567 317.29470673 295.88670349 316.26341248 C295.89186478 315.1748848 295.89702606 314.08635712 295.90234375 312.96484375 C295.90446617 311.3022628 295.90446617 311.3022628 295.90663147 309.60609436 C295.91224967 306.04986931 295.92480525 302.49370617 295.9375 298.9375 C295.94251266 296.53320403 295.94707597 294.12890708 295.95117188 291.72460938 C295.96222501 285.81638496 295.97898083 279.9081969 296 274 C278.22361721 274.01380563 260.44753999 274.05603069 242.67131519 274.13209057 C234.4174841 274.16674395 226.16382008 274.19209653 217.90991211 274.19555664 C210.7157897 274.19859607 203.52196481 274.21908341 196.32795733 274.26052457 C192.51868122 274.28185857 188.70982811 274.29445338 184.90049171 274.28615379 C181.31416842 274.27861579 177.72870235 274.29442437 174.14253616 274.32806015 C172.20049002 274.34022117 170.25833837 274.32770021 168.31629944 274.31443787 C161.56788366 274.26804731 161.56788366 274.26804731 155.86601257 277.47871399 C155.25022842 278.31073837 154.63444427 279.14276276 154 280 C153.01 280.33 152.02 280.66 151 281 C150.67 281.99 150.34 282.98 150 284 C148.34731229 285.50114368 146.62793314 286.92973667 144.875 288.3125 C141.72154243 290.81517477 138.59872434 293.33018606 135.55859375 295.96875 C121.09614205 308.42472433 103.07641698 321.51475268 85 328 C82.08170015 327.71281564 79.78527995 326.92842665 77 326 C77 325.34 77 324.68 77 324 C76.44505859 323.88938232 75.89011719 323.77876465 75.31835938 323.66479492 C66.75038905 321.20790958 58.82875461 315.1133507 51.5 310.1875 C50.58726318 309.57729004 49.67452637 308.96708008 48.73413086 308.33837891 C42.9190262 304.40909999 37.41394441 300.32166524 32.0859375 295.75 C29.87946068 293.82345835 29.87946068 293.82345835 26.6875 291.875 C24.23229091 290.16206343 22.73104524 288.65115197 20.83203125 286.3828125 C20.29940674 285.75004395 19.76678223 285.11727539 19.21801758 284.46533203 C18.81607178 283.98177246 18.41412598 283.49821289 18 283 C17.98598145 284.69527832 17.98598145 284.69527832 17.97167969 286.42480469 C17.93177608 290.62214421 17.86601674 294.81875104 17.79248047 299.015625 C17.7642729 300.83128439 17.74305726 302.64706652 17.72900391 304.46289062 C17.70757091 307.07485789 17.66092115 309.68534974 17.609375 312.296875 C17.60814636 313.10743347 17.60691772 313.91799194 17.60565186 314.75311279 C17.52071103 318.02901757 17.36688276 320.44234373 15.54206848 323.21603394 C11.73467318 325.88797769 8.32873446 325.54401574 3.78100586 325.48583984 C2.38284386 325.49153488 2.38284386 325.49153488 0.95643616 325.49734497 C-2.12443697 325.50475419 -5.20436695 325.48336405 -8.28515625 325.4609375 C-10.42459502 325.45855339 -12.56403591 325.45764768 -14.70347595 325.4581604 C-19.18664663 325.45503184 -23.66949762 325.43846083 -28.15258789 325.41162109 C-33.90525185 325.37762081 -39.65756476 325.36999307 -45.41031742 325.37151146 C-49.8274624 325.3709682 -54.24453032 325.36000844 -58.6616497 325.34550858 C-60.7831813 325.33913529 -62.90472163 325.33520044 -65.02626228 325.33372116 C-67.9877937 325.32939499 -70.94894942 325.3119092 -73.91040039 325.29052734 C-74.79100128 325.29143372 -75.67160217 325.29234009 -76.57888794 325.29327393 C-82.65655765 325.22896157 -82.65655765 325.22896157 -86 323 C-86.36914349 321.02037621 -86.36914349 321.02037621 -86.36076355 318.54550171 C-86.36488754 317.60878128 -86.36901154 316.67206085 -86.3732605 315.70695496 C-86.36247467 314.67621353 -86.35168884 313.64547211 -86.34057617 312.58349609 C-86.34123329 310.95908852 -86.34123329 310.95908852 -86.34190369 309.30186462 C-86.33980736 305.70887456 -86.31643613 302.11634643 -86.29296875 298.5234375 C-86.28737581 296.03765111 -86.28310429 293.55186143 -86.28010559 291.06607056 C-86.26980681 285.18346433 -86.24614324 279.30102967 -86.21605712 273.41849387 C-86.17926488 266.06548388 -86.16312887 258.71245343 -86.14648438 251.359375 C-86.11427785 238.23949851 -86.06362643 225.11975979 -86 212 C-87.9490625 212.0309375 -87.9490625 212.0309375 -89.9375 212.0625 C-91.29165633 212.08399454 -92.64756083 212.07148199 -94 212 C-95 211 -95 211 -95.0625 207.4375 C-95.041875 206.303125 -95.02125 205.16875 -95 204 C-92.03 204 -89.06 204 -86 204 C-85.855625 202.865625 -85.71125 201.73125 -85.5625 200.5625 C-85 197 -85 197 -84 196 C-82.64905018 195.90731001 -81.29332909 195.88252674 -79.93920898 195.88647461 C-79.07839218 195.88655014 -78.21757538 195.88662567 -77.33067322 195.88670349 C-76.39526199 195.89186478 -75.45985077 195.89702606 -74.49609375 195.90234375 C-73.54307877 195.9037587 -72.59006378 195.90517365 -71.60816956 195.90663147 C-68.55124835 195.91224848 -65.49439923 195.92480384 -62.4375 195.9375 C-60.37044376 195.94251281 -58.30338638 195.94707609 -56.23632812 195.95117188 C-51.15752412 195.96222344 -46.0787743 195.97949945 -41 196 C-41.99 193.525 -41.99 193.525 -43 191 C-43.66 192.32 -44.32 193.64 -45 195 C-61.5 195 -78 195 -95 195 C-95 192.36 -95 189.72 -95 187 C-78.5 186.67 -62 186.34 -45 186 C-45.99 183.525 -45.99 183.525 -47 181 C-47 180.01 -47 179.02 -47 178 C-47.94325134 178.00222061 -48.88650269 178.00444122 -49.8583374 178.00672913 C-58.74564049 178.02699688 -67.6329389 178.04198969 -76.52025986 178.05181217 C-81.08936272 178.05703174 -85.65844693 178.06411264 -90.22753906 178.07543945 C-94.63658074 178.08630115 -99.04560448 178.09228382 -103.45465851 178.09487724 C-105.13717176 178.09672556 -106.81968402 178.10033481 -108.50218964 178.10573006 C-110.8579267 178.11298401 -113.21358951 178.1139891 -115.56933594 178.11352539 C-116.26561096 178.11712067 -116.96188599 178.12071594 -117.67926025 178.12442017 C-120.93461507 178.11748187 -123.88647517 177.99940571 -127 177 C-127.04254356 175.00045254 -127.04080783 172.99958364 -127 171 C-125.32664004 169.32664004 -123.28612091 169.88037105 -121.05252075 169.87557983 C-120.3454599 169.87917511 -119.63839905 169.88277039 -118.90991211 169.88647461 C-117.79778603 169.88625557 -117.79778603 169.88625557 -116.66319275 169.8860321 C-114.20121379 169.88673135 -111.73930957 169.89452426 -109.27734375 169.90234375 C-107.57483461 169.90420789 -105.87232493 169.90563181 -104.16981506 169.90663147 C-99.68006927 169.91045698 -95.19035562 169.92028753 -90.70062256 169.93133545 C-86.12268509 169.94154887 -81.54474244 169.94612894 -76.96679688 169.95117188 C-67.97785043 169.96190978 -58.98892788 169.97898659 -50 170 C-51.485 166.04 -51.485 166.04 -53 162 C-53.91232895 161.98969254 -54.8246579 161.97938507 -55.76463318 161.96876526 C-64.34390004 161.87096739 -72.92309507 161.76847872 -81.50224209 161.66066074 C-85.913334 161.60539168 -90.32443249 161.55196546 -94.7355957 161.50268555 C-98.98906987 161.45510055 -103.24246089 161.40276014 -107.49583626 161.34705925 C-109.12219243 161.32660902 -110.74857142 161.30790044 -112.37496758 161.29092598 C-114.64516363 161.26694073 -116.91520113 161.23687865 -119.18530273 161.20532227 C-120.47991928 161.18977798 -121.77453583 161.1742337 -123.10838318 161.15821838 C-126 161 -126 161 -127 160 C-127.125 157 -127.125 157 -127 154 C-126 153 -126 153 -123.18431091 152.87974548 C-121.92522415 152.88196609 -120.66613739 152.88418671 -119.36889648 152.88647461 C-118.67624695 152.88632858 -117.98359741 152.88618256 -117.2699585 152.8860321 C-114.97030554 152.88673126 -112.67073263 152.89452372 -110.37109375 152.90234375 C-108.78068588 152.90420792 -107.19027743 152.90563183 -105.59986877 152.90663147 C-101.4060407 152.91045671 -97.21224705 152.92028705 -93.01843262 152.93133545 C-88.74211086 152.94154943 -84.46578356 152.94612906 -80.18945312 152.95117188 C-71.79295292 152.96190931 -63.39648074 152.97898581 -55 153 C-55.495 151.63875 -55.495 151.63875 -56 150.25 C-57 147 -57 147 -57 143 C-57.86221664 143.00222061 -58.72443329 143.00444122 -59.61277771 143.00672913 C-67.72106036 143.02672995 -75.82933477 143.04197306 -83.93763638 143.05181217 C-88.10662828 143.05704051 -92.27559987 143.06413726 -96.44458008 143.07543945 C-100.46457686 143.08627008 -104.48455405 143.09227721 -108.50456429 143.09487724 C-110.04162975 143.09673118 -111.57869409 143.10035119 -113.11575127 143.10573006 C-115.26135487 143.11294284 -117.40687655 143.11399084 -119.55249023 143.11352539 C-120.77604721 143.115746 -121.99960419 143.11796661 -123.26023865 143.12025452 C-126 143 -126 143 -127 142 C-127.125 139.5 -127.125 139.5 -127 137 C-126 136 -126 136 -123.33616638 135.87974548 C-122.14813919 135.88196609 -120.960112 135.88418671 -119.73608398 135.88647461 C-118.7556311 135.88625557 -118.7556311 135.88625557 -117.75537109 135.8860321 C-115.58557872 135.88673117 -113.41587121 135.89452322 -111.24609375 135.90234375 C-109.74536689 135.90420795 -108.24463943 135.90563184 -106.74391174 135.90663147 C-102.78681774 135.91045648 -98.82976022 135.9202866 -94.87268066 135.93133545 C-90.83765151 135.94154994 -86.80261647 135.94612917 -82.76757812 135.95117188 C-74.84503531 135.96190889 -66.92252219 135.9789851 -59 136 C-59 134.68 -59 133.36 -59 132 C-59.66 131.67 -60.32 131.34 -61 131 C-60.67 129.68 -60.34 128.36 -60 127 C-60.82463242 127.00222061 -61.64926483 127.00444122 -62.49888611 127.00672913 C-70.25398257 127.02673052 -78.00906661 127.04197335 -85.76418209 127.05181217 C-89.751572 127.05704036 -93.73894067 127.06413684 -97.72631836 127.07543945 C-101.57125114 127.08627061 -105.41616345 127.09227732 -109.26111031 127.09487724 C-110.73118983 127.09673108 -112.20126818 127.10035091 -113.67133904 127.10573006 C-115.72354467 127.11294355 -117.77566467 127.11399081 -119.82788086 127.11352539 C-120.99814316 127.115746 -122.16840546 127.11796661 -123.37413025 127.12025452 C-126 127 -126 127 -127 126 C-127.125 123 -127.125 123 -127 120 C-126 119 -126 119 -123.45005798 118.87974548 C-121.74795921 118.8830764 -121.74795921 118.8830764 -120.01147461 118.88647461 C-118.73022202 118.88655014 -117.44896942 118.88662567 -116.12889099 118.88670349 C-114.72004152 118.89181091 -113.31119244 118.89702691 -111.90234375 118.90234375 C-110.46887766 118.90420798 -109.03541093 118.90563186 -107.60194397 118.90663147 C-103.82240043 118.91045628 -100.0428951 118.92028623 -96.2633667 118.93133545 C-92.40930702 118.94155037 -88.55524118 118.94612926 -84.70117188 118.95117188 C-77.13409512 118.96190855 -69.56705777 118.97950503 -62 119 C-62.33 115.04 -62.66 111.08 -63 107 C-81.48 107.33 -99.96 107.66 -119 108 C-120 106 -120 106 -120 97 C-101.85 97 -83.7 97 -65 97 C-65.495 93.04 -65.495 93.04 -66 89 C-66.07585569 86.55304239 -66.10820845 84.10436035 -66.09765625 81.65625 C-66.0962413 81.00168823 -66.09482635 80.34712646 -66.09336853 79.67272949 C-66.08784307 77.61510326 -66.07530559 75.55759244 -66.0625 73.5 C-66.05747533 72.09114742 -66.05291413 70.68229311 -66.04882812 69.2734375 C-66.0371003 65.84891362 -66.02068691 62.42447953 -66 59 C-62.13136111 56.90868536 -58.36755029 56.32303926 -54.0625 55.6875 C-37.63520638 52.99821573 -23.02609858 45.95002889 -12.27734375 32.91015625 C-5.13713834 22.81160486 -2.59776671 12.12291133 0 0 Z " fill="#2A4491" transform="translate(302,32)"/>
<path d="M0 0 C43.56 0 87.12 0 132 0 C133.65 3.96 135.3 7.92 137 12 C143.5118396 25.45987899 155.51500579 40.83044376 170 46 C170 46.66 170 47.32 170 48 C170.84304688 48.27714844 171.68609375 48.55429688 172.5546875 48.83984375 C177.31680745 50.44341476 182.03373045 52.16706146 186.7578125 53.87890625 C189.18199963 54.71714927 191.51447603 55.40545942 194 56 C194.32935533 65.58789961 193.33071613 74.99291053 192.25 84.5 C192.16107483 85.2959256 192.07214966 86.0918512 191.98052979 86.91189575 C188.78086084 115.32442662 188.78086084 115.32442662 184 127 C183.63213267 128.49190641 183.29726581 129.99243768 183 131.5 C182.29137882 134.85487841 181.33301939 137.83407896 180 141 C179.58814453 142.49660156 179.58814453 142.49660156 179.16796875 144.0234375 C175.28110622 157.81911271 169.31036589 171.16414211 163 184 C162.40569943 185.2380171 161.81195513 186.47630138 161.21875 187.71484375 C158.25145279 193.84558293 155.13219333 199.68145157 151.1640625 205.23046875 C149.82197738 207.10541663 149.82197738 207.10541663 149 210 C148.34 210 147.68 210 147 210 C146.76023437 210.70125 146.52046875 211.4025 146.2734375 212.125 C141.43918238 223.03914653 131.21748255 232.48594665 123 241 C122.41653809 241.60537598 121.83307617 242.21075195 121.23193359 242.83447266 C119.45477947 244.66903149 117.66766015 246.49309865 115.875 248.3125 C115.3183667 248.88226563 114.7617334 249.45203125 114.18823242 250.0390625 C112.83088099 251.39915606 111.41979782 252.70522915 110 254 C109.34 254 108.68 254 108 254 C108 254.66 108 255.32 108 256 C106.25927734 257.54052734 106.25927734 257.54052734 103.8359375 259.3359375 C102.96066406 259.98820312 102.08539063 260.64046875 101.18359375 261.3125 C100.25675781 261.993125 99.32992187 262.67375 98.375 263.375 C97.47136719 264.04789062 96.56773437 264.72078125 95.63671875 265.4140625 C89.37804658 270.05553033 83.20093309 274.45501194 76.3125 278.125 C73.4350723 279.66122005 70.71680452 281.18879698 68 283 C62.75157408 282.74594396 59.32493574 281.37612008 54.9375 278.5625 C54.38658691 278.21050537 53.83567383 277.85851074 53.26806641 277.49584961 C43.6543738 271.27769481 34.42677175 264.56415076 25.65234375 257.20703125 C23.85818016 255.71409689 22.0365687 254.25364224 20.19140625 252.82421875 C14.3968503 248.29948227 9.75344889 243.59912264 5.23828125 237.80078125 C2.99250694 234.99062387 0.60459773 232.41705384 -1.875 229.8125 C-18.08183268 212.14830872 -32.63072202 187.79512412 -40 165 C-40.47060849 163.7051907 -40.94938227 162.41331074 -41.4375 161.125 C-41.67726563 160.48046875 -41.91703125 159.8359375 -42.1640625 159.171875 C-42.78106163 157.56883054 -43.42596401 155.97646057 -44.0859375 154.390625 C-51.70180754 135.66625663 -55.50222009 115.83015545 -59 96 C-59.35578125 94.09734375 -59.35578125 94.09734375 -59.71875 92.15625 C-61.722589 80.25108888 -61.66581434 68.04426853 -62 56 C-60.77893555 55.59841675 -60.77893555 55.59841675 -59.53320312 55.1887207 C-57.92348633 54.65637817 -57.92348633 54.65637817 -56.28125 54.11328125 C-55.21970703 53.76305908 -54.15816406 53.41283691 -53.06445312 53.05200195 C-34.14282311 46.55635953 -19.38557472 35.14699201 -8.875 18.1875 C-8.25044922 17.21586914 -8.25044922 17.21586914 -7.61328125 16.22460938 C-4.27169256 10.87701995 -2.4242331 6.06058276 0 0 Z " fill="#E5EFF6" transform="translate(320,52)"/>
<path d="M0 0 C8.45767334 -0.02312659 16.91533356 -0.0409167 25.37303066 -0.05181217 C29.29988658 -0.05704031 33.22672094 -0.06413669 37.15356445 -0.07543945 C40.94014257 -0.0862708 44.7266999 -0.09227736 48.51329231 -0.09487724 C49.96104319 -0.09673105 51.40879288 -0.10035081 52.85653496 -0.10573006 C54.87757135 -0.11294367 56.89862848 -0.11340808 58.91967773 -0.11352539 C60.64842384 -0.11685631 60.64842384 -0.11685631 62.41209412 -0.12025452 C65 0 65 0 66 1 C66.0940067 2.96369153 66.11743381 4.93079199 66.11352539 6.89672852 C66.11344986 8.15796036 66.11337433 9.4191922 66.11329651 10.71864319 C66.1081891 12.10539794 66.10297309 13.49215229 66.09765625 14.87890625 C66.09579201 16.28995209 66.09436814 17.70099857 66.09336853 19.11204529 C66.08954379 22.83240535 66.0797139 26.5527266 66.06866455 30.27307129 C66.05844948 34.06680781 66.05387071 37.86055058 66.04882812 41.65429688 C66.03809158 49.10288436 66.02049515 56.5514318 66 64 C61.05 64 56.1 64 51 64 C51.01047363 65.40805908 51.02094727 66.81611816 51.03173828 68.2668457 C51.06789568 73.48312851 51.090885 78.6994002 51.10986328 83.91577148 C51.11993058 86.17490501 51.13358538 88.43402547 51.15087891 90.69311523 C51.17509508 93.93736999 51.18647575 97.18145271 51.1953125 100.42578125 C51.20563507 101.43836502 51.21595764 102.45094879 51.22659302 103.49421692 C51.22674408 104.43496567 51.22689514 105.37571442 51.22705078 106.3449707 C51.231492 107.17325882 51.23593323 108.00154694 51.24050903 108.85493469 C51 111 51 111 49 114 C54.61 114 60.22 114 66 114 C66.0309375 117.6815625 66.0309375 117.6815625 66.0625 121.4375 C66.071604 122.21150146 66.08070801 122.98550293 66.09008789 123.78295898 C66.09724913 125.52221717 66.05024702 127.26145304 66 129 C64.17812741 130.82187259 61.56881205 130.51842147 59.12109375 130.84838867 C43.39193659 133.04018234 30.54511033 139.44431929 20.6875 152.25 C11.50225917 165.61880194 9.33342713 180.10770848 11 196 C13.89351015 209.8073071 22.81866426 221.6387604 34.23828125 229.55078125 C44.35233359 236.05151984 54.13216272 238.02202712 66 240 C66 254.19 66 268.38 66 283 C51.56922674 280.11384535 36.73884853 266.50276433 25.65234375 257.20703125 C23.85818016 255.71409689 22.0365687 254.25364224 20.19140625 252.82421875 C14.3968503 248.29948227 9.75344889 243.59912264 5.23828125 237.80078125 C2.99250694 234.99062387 0.60459773 232.41705384 -1.875 229.8125 C-18.08183268 212.14830872 -32.63072202 187.79512412 -40 165 C-40.47060849 163.7051907 -40.94938227 162.41331074 -41.4375 161.125 C-41.67726563 160.48046875 -41.91703125 159.8359375 -42.1640625 159.171875 C-42.78106163 157.56883054 -43.42596401 155.97646057 -44.0859375 154.390625 C-51.70180754 135.66625663 -55.50222009 115.83015545 -59 96 C-59.35578125 94.09734375 -59.35578125 94.09734375 -59.71875 92.15625 C-61.722589 80.25108888 -61.66581434 68.04426853 -62 56 C-60.77893555 55.59841675 -60.77893555 55.59841675 -59.53320312 55.1887207 C-57.92348633 54.65637817 -57.92348633 54.65637817 -56.28125 54.11328125 C-55.21970703 53.76305908 -54.15816406 53.41283691 -53.06445312 53.05200195 C-34.14282311 46.55635953 -19.38557472 35.14699201 -8.875 18.1875 C-8.25044922 17.21586914 -8.25044922 17.21586914 -7.61328125 16.22460938 C-5.29306853 12.51154168 -3.44824298 8.81697457 -1.85205078 4.7355957 C-1.50216095 3.84564407 -1.15227112 2.95569244 -0.79177856 2.03877258 C-0.53049164 1.36597763 -0.26920471 0.69318268 0 0 Z " fill="#FDFDFE" transform="translate(320,52)"/>
<path d="M0 0 C42.24 0 84.48 0 128 0 C128 45.54 128 91.08 128 138 C65.96 138 3.92 138 -60 138 C-58.48088255 134.9617651 -57.23485016 132.86142456 -55.171875 130.27734375 C-54.34707642 129.22994019 -54.34707642 129.22994019 -53.50561523 128.16137695 C-52.92626221 127.42749756 -52.34690918 126.69361816 -51.75 125.9375 C-47.32483732 120.25457667 -43.38369282 114.67002845 -40.12890625 108.21875 C-38.65300112 105.31800912 -36.80382087 102.7057313 -35 100 C-33.95270417 98.04147434 -32.96892305 96.06090379 -32 94.0625 C-31.03174661 92.06547739 -30.01784708 90.09707872 -29 88.125 C-26.69785841 83.53898778 -24.84343226 78.78507949 -23 74 C-22.34 74 -21.68 74 -21 74 C-20.9175 73.01 -20.835 72.02 -20.75 71 C-20 67 -20 67 -16 59 C4.13 59 24.26 59 45 59 C45 51.74 45 44.48 45 37 C27.18 37 9.36 37 -9 37 C-8.34 34.36 -7.68 31.72 -7 29 C32.93 29 72.86 29 114 29 C114 23.39 114 17.78 114 12 C75.72 12 37.44 12 -2 12 C-2 5 -2 5 0 0 Z " fill="#F6F7F8" transform="translate(530,157)"/>
<path d="M0 0 C11.8399413 8.91477933 19.69746204 21.24670123 22 36 C23.15810196 52.51122506 20.74824736 65.8164199 10 79 C9.25169922 80.04220703 9.25169922 80.04220703 8.48828125 81.10546875 C1.81431177 89.79675898 -9.51401694 95.37284226 -20 98 C-20.825 98.226875 -21.65 98.45375 -22.5 98.6875 C-38.41061029 100.67632629 -52.8172305 97.08542918 -65.75 87.75 C-73.57058747 81.30368243 -79.07594414 73.29016757 -83 64 C-83.39058594 63.13761719 -83.39058594 63.13761719 -83.7890625 62.2578125 C-86.06629731 56.86152148 -86.47215348 52.0697168 -86.375 46.25 C-86.36484863 45.36965088 -86.35469727 44.48930176 -86.34423828 43.58227539 C-85.98870965 28.58806219 -81.04172696 16.3921669 -70.6875 5.42578125 C-50.52463661 -12.77354748 -22.9173411 -15.46230243 0 0 Z " fill="#E3EEF6" transform="translate(416,192)"/>
<path d="M0 0 C14.19 0 28.38 0 43 0 C46 5 46 5 46 9 C33.13 9 20.26 9 7 9 C7 14.28 7 19.56 7 25 C8.4319873 24.93192139 9.86397461 24.86384277 11.33935547 24.79370117 C16.68706303 24.55718771 22.03431717 24.40874916 27.38574219 24.28588867 C29.69480267 24.22077872 32.00333252 24.13225404 34.31054688 24.01928711 C52.99112612 23.12800731 52.99112612 23.12800731 58.06652832 26.28570557 C61.71965975 29.64496743 64.03910535 33.47364433 66 38 C66 38.66 66 39.32 66 40 C66.66 40 67.32 40 68 40 C68.495 40.94875 68.99 41.8975 69.5 42.875 C72.99006893 48.99814584 77.60345338 54.62349403 82.59838867 59.57666016 C85.88367687 63.54266638 85.65737158 67.33293376 85.5234375 72.30078125 C85.51873444 73.17776169 85.51403137 74.05474213 85.50918579 74.95829773 C85.48792572 77.74384792 85.43132174 80.52746206 85.375 83.3125 C85.35848529 85.20375817 85.34413918 87.09503661 85.33203125 88.98632812 C85.19583567 102.80416433 85.19583567 102.80416433 84 104 C81.38307723 104.09509698 78.79274684 104.12554693 76.17553711 104.11352539 C75.34279298 104.11364593 74.51004885 104.11376646 73.65207005 104.11389065 C70.94380122 104.11314144 68.23560034 104.10551285 65.52734375 104.09765625 C63.86039259 104.09618686 62.19344097 104.09516613 60.52648926 104.09460449 C54.33015249 104.08935131 48.13382559 104.07539024 41.9375 104.0625 C28.098125 104.041875 14.25875 104.02125 0 104 C0 69.68 0 35.36 0 0 Z " fill="#F0F1F5" transform="translate(225,240)"/>
<path d="M0 0 C0 3.96 0 7.92 0 12 C-1.051875 12.433125 -2.10375 12.86625 -3.1875 13.3125 C-6.29568757 14.65811779 -9.24768275 15.99831473 -12 18 C-12 18.99 -12 19.98 -12 21 C-9.76729286 22.62901095 -9.76729286 22.62901095 -7 24.0625 C-5.30328536 24.98862341 -3.62733075 25.95676475 -2 27 C-2 27.66 -2 28.32 -2 29 C-1.34 29 -0.68 29 0 29 C0.81477811 37.93334243 1.13689135 46.77036197 1.09765625 55.73828125 C1.0962413 56.98506149 1.09482635 58.23184174 1.09336853 59.5164032 C1.0878284 63.44846122 1.07528752 67.38045957 1.0625 71.3125 C1.05690443 73.99934751 1.05284677 76.68619661 1.04882812 79.37304688 C1.03787867 85.9153845 1.02120147 92.45768799 1 99 C-1.53158287 99.05781077 -4.0618201 99.09973173 -6.59375 99.1328125 C-7.30241211 99.15061768 -8.01107422 99.16842285 -8.74121094 99.18676758 C-18.98463928 99.28684705 -27.439176 94.65877342 -35 88 C-35.60457031 87.47664063 -36.20914062 86.95328125 -36.83203125 86.4140625 C-45.98090805 77.92294808 -51.64595887 66.20745472 -52.3125 53.70703125 C-52.70974236 38.63002843 -49.75216226 27.41623881 -39.75 15.75 C-28.22816769 3.61161479 -16.6307949 -0.87402718 0 0 Z " fill="#FAFBFD" transform="translate(386,187)"/>
<path d="M0 0 C0.33 0 0.66 0 1 0 C1.02526648 7.52969652 1.04283141 15.0593822 1.05493164 22.58911133 C1.0599737 25.15291757 1.06680714 27.71672091 1.07543945 30.28051758 C1.08751064 33.95655021 1.09322942 37.63254498 1.09765625 41.30859375 C1.10281754 42.46274277 1.10797882 43.61689178 1.11329651 44.80601501 C1.11337204 45.86703934 1.11344757 46.92806366 1.11352539 48.02124023 C1.115746 48.96055893 1.11796661 49.89987762 1.12025452 50.86766052 C1 53 1 53 0 54 C-2.64200061 54.10043271 -5.2578859 54.1361685 -7.90039062 54.12939453 C-8.72798386 54.13114685 -9.55557709 54.13289917 -10.4082489 54.13470459 C-13.15760362 54.13912393 -15.90689457 54.13618483 -18.65625 54.1328125 C-20.55814629 54.13348552 -22.46004249 54.13445552 -24.36193848 54.13571167 C-28.35344255 54.13718875 -32.34492429 54.13503375 -36.33642578 54.13037109 C-41.46490507 54.1246738 -46.59333202 54.12795275 -51.72180939 54.13394356 C-55.65074054 54.13754889 -59.57965918 54.13641072 -63.5085907 54.13381577 C-65.40012112 54.13314642 -67.29165265 54.13397519 -69.18318176 54.13629532 C-71.82202177 54.13882138 -74.46077581 54.13498191 -77.09960938 54.12939453 C-78.28407906 54.13243088 -78.28407906 54.13243088 -79.49247742 54.13552856 C-84.88573749 54.11426251 -84.88573749 54.11426251 -86 53 C-86 36.5 -86 20 -86 3 C-131.54 3.33 -177.08 3.66 -224 4 C-224 3.34 -224 2.68 -224 2 C-178.13 2 -132.26 2 -85 2 C-85 18.5 -85 35 -85 52 C-82.69 50.02 -80.38 48.04 -78 46 C-76.6385103 44.96121634 -75.26636834 43.93590866 -73.875 42.9375 C-71.39938255 41.11789723 -69.38100807 39.38100807 -67.1875 37.1875 C-65 35 -65 35 -62 34 C-62 33.34 -62 32.68 -62 32 C-60.25 30.7109375 -60.25 30.7109375 -58 29.375 C-56.88625 28.70597656 -56.88625 28.70597656 -55.75 28.0234375 C-55.1725 27.68570312 -54.595 27.34796875 -54 27 C-52.32756598 28.28419041 -50.66218553 29.57757185 -49 30.875 C-47.6078125 31.95394531 -47.6078125 31.95394531 -46.1875 33.0546875 C-45.465625 33.69664062 -44.74375 34.33859375 -44 35 C-44 35.66 -44 36.32 -44 37 C-43.32453125 36.44570313 -42.6490625 35.89140625 -41.953125 35.3203125 C-41.06109375 34.59585938 -40.1690625 33.87140625 -39.25 33.125 C-38.36828125 32.40570313 -37.4865625 31.68640625 -36.578125 30.9453125 C-34.41823076 29.31557412 -32.460234 28.09215995 -30 27 C-30 26.34 -30 25.68 -30 25 C-26.53846154 22 -26.53846154 22 -24 22 C-24 21.34 -24 20.68 -24 20 C-23.34 20 -22.68 20 -22 20 C-22 19.34 -22 18.68 -22 18 C-20.33333333 17 -18.66666667 16 -17 15 C-15.8553125 13.8553125 -15.8553125 13.8553125 -14.6875 12.6875 C-11.92058745 9.92058745 -9.01783222 7.72634636 -5.8671875 5.42578125 C-3.72099565 3.78695275 -1.86954017 1.94432178 0 0 Z " fill="#3C75B4" transform="translate(684,303)"/>
<path d="M0 0 C57.915 0.495 57.915 0.495 117 1 C117 6.61 117 12.22 117 18 C77.07 18 37.14 18 -4 18 C-1 2 -1 2 0 0 Z " fill="#72449B" transform="translate(527,168)"/>
<path d="M0 0 C4.62 0 9.24 0 14 0 C17.0723688 6.60026232 19.08772966 13.47750176 21.1875 20.4375 C21.55552734 21.64599609 21.92355469 22.85449219 22.30273438 24.09960938 C23.20535235 27.06535416 24.10432811 30.03215155 25 33 C26.85425586 29.44085888 28.42289111 26.05355155 29.5 22.1875 C31.66667446 14.66056321 34.20655309 7.31617047 37 0 C41.95 0 46.9 0 52 0 C52 15.84 52 31.68 52 48 C48.7 48 45.4 48 42 48 C41.67 37.44 41.34 26.88 41 16 C37.7523836 25.78241351 37.7523836 25.78241351 34.50805664 35.56591797 C34.10449951 36.77908691 33.70094238 37.99225586 33.28515625 39.2421875 C32.87144775 40.4885498 32.45773926 41.73491211 32.03149414 43.01904297 C31 46 31 46 30 48 C26.7 48 23.4 48 20 48 C18.73299485 44.10507576 17.46968679 40.2089735 16.2097168 36.31176758 C15.78103169 34.98754943 15.35135709 33.66365116 14.9206543 32.34008789 C14.29993621 30.43200766 13.6831295 28.52265643 13.06640625 26.61328125 C12.69459229 25.46641846 12.32277832 24.31955566 11.93969727 23.13793945 C11 20 11 20 10 15 C9.67 25.89 9.34 36.78 9 48 C6.03 48 3.06 48 0 48 C0 32.16 0 16.32 0 0 Z " fill="#2A4491" transform="translate(408,117)"/>
<path d="M0 0 C1.86358827 3.28040903 2.582561 6.34200608 3.25390625 10.04296875 C3.57584961 11.77643555 3.57584961 11.77643555 3.90429688 13.54492188 C4.23010742 15.34799805 4.23010742 15.34799805 4.5625 17.1875 C4.997845 19.57745523 5.43646435 21.96681716 5.87890625 24.35546875 C6.0704126 25.41403076 6.26191895 26.47259277 6.45922852 27.56323242 C6.75690267 29.93594172 6.75690267 29.93594172 8 31 C8.42462895 32.75959255 8.79042286 34.53358633 9.125 36.3125 C9.31320313 37.27800781 9.50140625 38.24351562 9.6953125 39.23828125 C9.99061177 41.9149041 9.72172888 43.45901191 9 46 C-0.50082245 45.89266 -10.00156348 45.78006002 -19.50224209 45.66066074 C-23.913334 45.60539168 -28.32443249 45.55196546 -32.7355957 45.50268555 C-36.98906987 45.45510055 -41.24246089 45.40276014 -45.49583626 45.34705925 C-47.12219243 45.32660902 -48.74857142 45.30790044 -50.37496758 45.29092598 C-52.64516363 45.26694073 -54.91520113 45.23687865 -57.18530273 45.20532227 C-59.12722755 45.18200584 -59.12722755 45.18200584 -61.10838318 45.15821838 C-64 45 -64 45 -65 44 C-65.125 41 -65.125 41 -65 38 C-64 37 -64 37 -61.18431091 36.87974548 C-59.92522415 36.88196609 -58.66613739 36.88418671 -57.36889648 36.88647461 C-56.67624695 36.88632858 -55.98359741 36.88618256 -55.2699585 36.8860321 C-52.97030554 36.88673126 -50.67073263 36.89452372 -48.37109375 36.90234375 C-46.78068588 36.90420792 -45.19027743 36.90563183 -43.59986877 36.90663147 C-39.4060407 36.91045671 -35.21224705 36.92028705 -31.01843262 36.93133545 C-26.74211086 36.94154943 -22.46578356 36.94612906 -18.18945312 36.95117188 C-9.79295292 36.96190931 -1.39648074 36.97898581 7 37 C6.505 35.63875 6.505 35.63875 6 34.25 C5 31 5 31 5 27 C3.70667503 27.00333092 3.70667503 27.00333092 2.38722229 27.00672913 C-5.72106036 27.02672995 -13.82933477 27.04197306 -21.93763638 27.05181217 C-26.10662828 27.05704051 -30.27559987 27.06413726 -34.44458008 27.07543945 C-38.46457686 27.08627008 -42.48455405 27.09227721 -46.50456429 27.09487724 C-48.04162975 27.09673118 -49.57869409 27.10035119 -51.11575127 27.10573006 C-53.26135487 27.11294284 -55.40687655 27.11399084 -57.55249023 27.11352539 C-58.77604721 27.115746 -59.99960419 27.11796661 -61.26023865 27.12025452 C-64 27 -64 27 -65 26 C-65.125 23.5 -65.125 23.5 -65 21 C-64 20 -64 20 -61.33616638 19.87974548 C-60.14813919 19.88196609 -58.960112 19.88418671 -57.73608398 19.88647461 C-56.7556311 19.88625557 -56.7556311 19.88625557 -55.75537109 19.8860321 C-53.58557872 19.88673117 -51.41587121 19.89452322 -49.24609375 19.90234375 C-47.74536689 19.90420795 -46.24463943 19.90563184 -44.74391174 19.90663147 C-40.78681774 19.91045648 -36.82976022 19.9202866 -32.87268066 19.93133545 C-28.83765151 19.94154994 -24.80261647 19.94612917 -20.76757812 19.95117188 C-12.84503531 19.96190889 -4.92252219 19.9789851 3 20 C3 18.68 3 17.36 3 16 C2.01 15.505 2.01 15.505 1 15 C1.33 13.68 1.66 12.36 2 11 C0.76305138 11.00333092 0.76305138 11.00333092 -0.49888611 11.00672913 C-8.25398257 11.02673052 -16.00906661 11.04197335 -23.76418209 11.05181217 C-27.751572 11.05704036 -31.73894067 11.06413684 -35.72631836 11.07543945 C-39.57125114 11.08627061 -43.41616345 11.09227732 -47.26111031 11.09487724 C-48.73118983 11.09673108 -50.20126818 11.10035091 -51.67133904 11.10573006 C-53.72354467 11.11294355 -55.77566467 11.11399081 -57.82788086 11.11352539 C-58.99814316 11.115746 -60.16840546 11.11796661 -61.37413025 11.12025452 C-64 11 -64 11 -65 10 C-65.125 7 -65.125 7 -65 4 C-64 3 -64 3 -61.45005798 2.87974548 C-59.74795921 2.8830764 -59.74795921 2.8830764 -58.01147461 2.88647461 C-56.73022202 2.88655014 -55.44896942 2.88662567 -54.12889099 2.88670349 C-52.72004152 2.89181091 -51.31119244 2.89702691 -49.90234375 2.90234375 C-48.46887766 2.90420798 -47.03541093 2.90563186 -45.60194397 2.90663147 C-41.82240043 2.91045628 -38.0428951 2.92028623 -34.2633667 2.93133545 C-30.40930702 2.94155037 -26.55524118 2.94612926 -22.70117188 2.95117188 C-15.13409713 2.96190854 -7.56705391 2.97898451 0 3 C0 2.01 0 1.02 0 0 Z " fill="#AFAFB2" transform="translate(240,148)"/>
<path d="M0 0 C-0.33 0.99 -0.66 1.98 -1 3 C-1.66 3 -2.32 3 -3 3 C-3.33 3.99 -3.66 4.98 -4 6 C-5.66666667 6.66666667 -7.33333333 7.33333333 -9 8 C-9.33 8.99 -9.66 9.98 -10 11 C-11.65848177 12.01351664 -13.32665961 13.01120795 -15 14 C-16.3303125 15.3303125 -16.3303125 15.3303125 -17.6875 16.6875 C-18.450625 17.450625 -19.21375 18.21375 -20 19 C-20.66 19 -21.32 19 -22 19 C-22 19.66 -22 20.32 -22 21 C-22.66 21 -23.32 21 -24 21 C-24 21.66 -24 22.32 -24 23 C-27.46153846 26 -27.46153846 26 -30 26 C-30 26.66 -30 27.32 -30 28 C-31.71332754 29.58533702 -33.49689047 31.09541215 -35.3125 32.5625 C-36.29863281 33.36816406 -37.28476562 34.17382812 -38.30078125 35.00390625 C-41 37 -41 37 -44 38 C-44 37.34 -44 36.68 -44 36 C-44.5465625 35.76023437 -45.093125 35.52046875 -45.65625 35.2734375 C-48.56952152 33.69055997 -50.94544603 31.73741963 -53.5 29.625 C-54.90765625 28.46871094 -54.90765625 28.46871094 -56.34375 27.2890625 C-59 25 -59 25 -61.02734375 22.96484375 C-63.24342629 20.75753777 -65.60016815 18.86502674 -68.0625 16.9375 C-70.86684865 14.7404088 -73.54157301 12.57956687 -76 10 C-78.59534707 7.33976926 -80.90109671 5.06593552 -84 3 C-84 2.34 -84 1.68 -84 1 C-75.41025382 0.86818262 -66.8204887 0.73770453 -58.23069763 0.60884857 C-54.24037699 0.54894932 -50.25006387 0.48862102 -46.25976562 0.42724609 C-42.39533011 0.36782396 -38.53087792 0.30961507 -34.66641235 0.25218201 C-33.20593639 0.23027597 -31.74546647 0.20796227 -30.28500366 0.18519592 C-20.18901554 0.02818496 -10.09705648 -0.02657342 0 0 Z " fill="#F0762B" transform="translate(684,302)"/>
<path d="M0 0 C21.45 0 42.9 0 65 0 C65 7.26 65 14.52 65 22 C43.55 22 22.1 22 0 22 C0 14.74 0 7.48 0 0 Z " fill="#F3782A" transform="translate(579,194)"/>
<path d="M0 0 C11.8399413 8.91477933 19.69746204 21.24670123 22 36 C23.15810196 52.51122506 20.74824736 65.8164199 10 79 C9.25169922 80.04220703 9.25169922 80.04220703 8.48828125 81.10546875 C1.81431177 89.79675898 -9.51401694 95.37284226 -20 98 C-20.825 98.226875 -21.65 98.45375 -22.5 98.6875 C-38.41061029 100.67632629 -52.8172305 97.08542918 -65.75 87.75 C-73.57058747 81.30368243 -79.07594414 73.29016757 -83 64 C-83.39058594 63.13761719 -83.39058594 63.13761719 -83.7890625 62.2578125 C-86.06629731 56.86152148 -86.47215348 52.0697168 -86.375 46.25 C-86.36484863 45.36965088 -86.35469727 44.48930176 -86.34423828 43.58227539 C-85.98870965 28.58806219 -81.04172696 16.3921669 -70.6875 5.42578125 C-50.52463661 -12.77354748 -22.9173411 -15.46230243 0 0 Z M-71.78515625 12.97265625 C-81.20539583 24.70579353 -83.45458593 38.34544633 -82 53 C-80.27286365 62.44079639 -76.17289441 70.68589823 -70 78 C-69.14148438 79.05960938 -69.14148438 79.05960938 -68.265625 80.140625 C-60.1572783 89.21920122 -47.982787 94.37167034 -35.984375 95.2109375 C-21.23568092 95.66528116 -9.02016725 91.3291518 2.25 81.8125 C11.9617377 72.64116106 17.51782443 61.3838784 18.203125 48.046875 C18.35127539 39.93986069 18.33926603 32.54191643 15 25 C14.60941406 24.11054688 14.21882813 23.22109375 13.81640625 22.3046875 C7.51447955 9.48660429 -2.09498065 2.37709139 -15 -3 C-15.86625 -3.3609375 -16.7325 -3.721875 -17.625 -4.09375 C-37.9135339 -11.30151862 -58.15236721 -2.09202311 -71.78515625 12.97265625 Z " fill="#4C7CBC" transform="translate(416,192)"/>
<path d="M0 0 C17.82 0 35.64 0 54 0 C54 7.26 54 14.52 54 22 C33.87 22 13.74 22 -7 22 C-5.49076914 14.45384572 -2.56124969 7.25687414 0 0 Z " fill="#169D48" transform="translate(521,194)"/>
<path d="M0 0 C3.3333606 1.95653775 4.6795478 3.31331671 6.3125 6.8125 C7.06382822 10.29593085 7.14213434 13.44664161 7 17 C8.32 17.66 9.64 18.32 11 19 C11 27.25 11 35.5 11 44 C0.11 44 -10.78 44 -22 44 C-23.29945577 41.40108846 -23.0223077 39.67333344 -22.87890625 36.7734375 C-22.83056641 35.7421875 -22.78222656 34.7109375 -22.73242188 33.6484375 C-22.67634766 32.56820312 -22.62027344 31.48796875 -22.5625 30.375 C-22.51029297 29.28703125 -22.45808594 28.1990625 -22.40429688 27.078125 C-22.27437225 24.3851419 -22.13939838 21.69250664 -22 19 C-20.68 18.67 -19.36 18.34 -18 18 C-18.03480469 17.41992188 -18.06960938 16.83984375 -18.10546875 16.2421875 C-18.2861345 11.02869013 -17.98637346 7.4795602 -15 3 C-10.36471573 -1.20072637 -5.94774386 -1.48693596 0 0 Z M-9.8125 6.4375 C-12.19087125 9.22359203 -12.3125 9.77915119 -12.3125 13.25 C-12.209375 14.4875 -12.10625 15.725 -12 17 C-7.71 17 -3.42 17 1 17 C1.30974267 12.14944201 1.30974267 12.14944201 -0.1875 7.625 C-3.56152671 4.60001054 -5.79421411 4.38370943 -9.8125 6.4375 Z " fill="#F37728" transform="translate(469,315)"/>
<path d="M0 0 C0.96135864 -0.00016617 1.92271729 -0.00033234 2.91320801 -0.00050354 C4.0044397 -0.00988449 5.09567139 -0.01926544 6.2199707 -0.02893066 C7.39813354 -0.01769669 8.57629639 -0.00646271 9.79016113 0.00511169 C10.99958374 0.00365646 12.20900635 0.00220123 13.45507812 0.0007019 C16.01389981 0.00236302 18.57273127 0.01394783 21.13146973 0.03465271 C25.05589081 0.063591 28.97896071 0.05526821 32.90344238 0.04222107 C35.38652189 0.0484586 37.86959711 0.05684966 40.35266113 0.06761169 C42.1199054 0.06320824 42.1199054 0.06320824 43.92285156 0.05871582 C45.5596991 0.07774208 45.5596991 0.07774208 47.22961426 0.09715271 C48.1909729 0.10255569 49.15233154 0.10795868 50.14282227 0.11352539 C52.57141113 0.50120544 52.57141113 0.50120544 54.37817383 1.85287476 C56.17570583 4.33597443 56.00517097 6.41291593 56.00891113 9.43870544 C56.02824707 10.47897888 56.04758301 11.51925232 56.06750488 12.59104919 C55.44707545 16.23057617 54.41455284 17.20798162 51.57141113 19.50120544 C49.14318848 19.99568176 49.14318848 19.99568176 46.40734863 19.98704529 C45.37948242 19.99319855 44.35161621 19.99935181 43.29260254 20.00569153 C42.18835938 19.9913205 41.08411621 19.97694946 39.94641113 19.96214294 C38.80736328 19.9612265 37.66831543 19.96031006 36.49475098 19.95936584 C34.08731925 19.95332583 31.67989517 19.937568 29.27258301 19.91282654 C25.58545267 19.87634438 21.89932802 19.87180703 18.21203613 19.87229919 C15.87348577 19.86246713 13.53494223 19.85080974 11.19641113 19.83714294 C10.09216797 19.8349173 8.9879248 19.83269165 7.85021973 19.83039856 C6.82235352 19.81763885 5.7944873 19.80487915 4.73547363 19.79173279 C3.83264648 19.78410919 2.92981934 19.7764856 1.99963379 19.76863098 C-0.62474253 19.47960261 -2.23993855 18.97227116 -4.42858887 17.50120544 C-5.39165785 14.6119985 -5.62418247 12.57872663 -5.67858887 9.56370544 C-5.70437012 8.70905701 -5.73015137 7.85440857 -5.75671387 6.97386169 C-5.24656029 3.12949006 -3.92736529 0.81051877 0 0 Z " fill="#364F96" transform="translate(581.4285888671875,110.49879455566406)"/>
<path d="M0 0 C1.07461739 0.00539291 1.07461739 0.00539291 2.17094421 0.01089478 C2.92211517 0.01074875 3.67328613 0.01060272 4.44721985 0.01045227 C6.94166404 0.01115153 9.43603448 0.01894452 11.9304657 0.02676392 C13.65539509 0.02862805 15.38032501 0.03005197 17.10525513 0.03105164 C21.65418448 0.03487719 26.20308211 0.04470779 30.7519989 0.05575562 C35.39025951 0.06596893 40.02852522 0.07054908 44.66679382 0.07559204 C53.77422967 0.08633003 62.88164192 0.1034069 71.98905945 0.12442017 C73.00414147 2.33121037 74.00262039 4.54327236 74.9929657 6.76113892 C75.42300903 7.68968689 75.42300903 7.68968689 75.86174011 8.63699341 C78.24235725 14.02302907 78.64785847 18.4845035 76.98905945 24.12442017 C75.98905945 25.12442017 75.98905945 25.12442017 73.97061157 25.24467468 C73.08458755 25.24245407 72.19856354 25.24023346 71.28569031 25.23794556 C70.28472824 25.23787003 69.28376617 25.23779449 68.25247192 25.23771667 C67.16394424 25.23255539 66.07541656 25.2273941 64.9539032 25.22207642 C63.8455159 25.22066147 62.7371286 25.21924652 61.59515381 25.2177887 C58.03892876 25.2121705 54.48276562 25.19961491 50.92655945 25.18692017 C48.52226348 25.18190751 46.11796653 25.1773442 43.71366882 25.17324829 C37.80544441 25.16219516 31.89725635 25.14543933 25.98905945 25.12442017 C25.98905945 22.48442017 25.98905945 19.84442017 25.98905945 17.12442017 C42.48905945 16.79442017 58.98905945 16.46442017 75.98905945 16.12442017 C74.99905945 13.64942017 74.99905945 13.64942017 73.98905945 11.12442017 C73.98905945 10.13442017 73.98905945 9.14442017 73.98905945 8.12442017 C72.57418243 8.12775108 72.57418243 8.12775108 71.13072205 8.13114929 C62.24341895 8.15141704 53.35612055 8.16640986 44.46879959 8.17623234 C39.89969673 8.18145191 35.33061252 8.18853281 30.76152039 8.19985962 C26.3524787 8.21072132 21.94345497 8.21670399 17.53440094 8.21929741 C15.85188769 8.22114573 14.16937543 8.22475498 12.48686981 8.23015022 C10.13113275 8.23740418 7.77546994 8.23840926 5.41972351 8.23794556 C4.72344849 8.24154083 4.02717346 8.24513611 3.30979919 8.24884033 C0.05444438 8.24190204 -2.89741572 8.12382587 -6.01094055 7.12442017 C-6.05348411 5.12487271 -6.05174838 3.1240038 -6.01094055 1.12442017 C-4.32590356 -0.56061683 -2.24834171 0.00476033 0 0 Z " fill="#B3B1B1" transform="translate(181.0109405517578,201.87557983398438)"/>
<path d="M0 0 C0.97103165 -0.00945648 1.94206329 -0.01891296 2.94252014 -0.02865601 C3.98427902 -0.02258331 5.0260379 -0.01651062 6.09936523 -0.01025391 C7.17419662 -0.01312408 8.24902802 -0.01599426 9.35643005 -0.01895142 C11.62678556 -0.02099161 13.89715865 -0.01546491 16.16748047 -0.00292969 C19.6484287 0.0131396 23.12821852 -0.00278866 26.60913086 -0.02197266 C28.81421155 -0.01999053 31.01929153 -0.01614748 33.22436523 -0.01025391 C34.26814835 -0.0163266 35.31193146 -0.02239929 36.38734436 -0.02865601 C37.35522385 -0.01919952 38.32310333 -0.00974304 39.3203125 0 C40.17206558 0.00238678 41.02381866 0.00477356 41.90138245 0.00723267 C44.59357051 0.4746692 45.48092612 1.21408715 47.09545898 3.38818359 C47.49389648 6.20068359 47.49389648 6.20068359 47.47045898 9.38818359 C47.48206055 10.96599609 47.48206055 10.96599609 47.49389648 12.57568359 C47.03818914 15.79244134 46.63050837 16.46799319 44.09545898 18.38818359 C41.85668945 18.76913452 41.85668945 18.76913452 39.21264648 18.77636719 C38.22151855 18.78582367 37.23039062 18.79528015 36.20922852 18.80502319 C35.14043457 18.7989505 34.07164062 18.79287781 32.97045898 18.78662109 C31.32279541 18.79092636 31.32279541 18.79092636 29.6418457 18.7953186 C27.31843551 18.79736095 24.9950082 18.79181922 22.67163086 18.77929688 C19.10939186 18.76324637 15.54828757 18.77914057 11.98608398 18.79833984 C9.73087314 18.79635744 7.475663 18.79251384 5.22045898 18.78662109 C4.15166504 18.79269379 3.08287109 18.79876648 1.98168945 18.80502319 C0.49499756 18.79083847 0.49499756 18.79083847 -1.02172852 18.77636719 C-1.8942627 18.77398041 -2.76679687 18.77159363 -3.66577148 18.76913452 C-6.38965965 18.30563539 -7.27599473 17.58928348 -8.90454102 15.38818359 C-9.33813477 12.57568359 -9.33813477 12.57568359 -9.34204102 9.38818359 C-9.36137695 8.33630859 -9.38071289 7.28443359 -9.40063477 6.20068359 C-8.90454102 3.38818359 -8.90454102 3.38818359 -7.18006897 1.73666382 C-4.54091331 0.17269744 -3.04733242 0.00853126 0 0 Z " fill="#475D9A" transform="translate(113.904541015625,175.61181640625)"/>
<path d="M0 0 C9.24 0 18.48 0 28 0 C28 2.97 28 5.94 28 9 C22.39 9 16.78 9 11 9 C11 12.3 11 15.6 11 19 C16.28 19 21.56 19 27 19 C27 21.64 27 24.28 27 27 C21.72 27 16.44 27 11 27 C11 31.29 11 35.58 11 40 C16.61 40 22.22 40 28 40 C28 42.64 28 45.28 28 48 C18.76 48 9.52 48 0 48 C0 32.16 0 16.32 0 0 Z " fill="#2A4491" transform="translate(371,117)"/>
<path d="M0 0 C2.1875 0.8203125 2.1875 0.8203125 5.375 2.3203125 C4.85231534 5.08307427 4.26630413 7.6464001 3.375 10.3203125 C2.23160156 10.23652344 1.08820313 10.15273437 -0.08984375 10.06640625 C-1.58071002 9.96326456 -3.07159653 9.86041503 -4.5625 9.7578125 C-5.69461914 9.67370117 -5.69461914 9.67370117 -6.84960938 9.58789062 C-8.77245958 9.45855093 -10.69889548 9.38514338 -12.625 9.3203125 C-13.84947234 10.36628451 -13.84947234 10.36628451 -14.13671875 12.60546875 C-13.87976735 15.67818566 -13.87976735 15.67818566 -10.51953125 17.56640625 C-9.1690219 18.31550651 -7.80767608 19.04532094 -6.4375 19.7578125 C-0.9943388 22.63826049 2.85062267 25.17807815 6.375 30.3203125 C7.4731688 34.13806404 7.07732719 37.71455122 5.48828125 41.34765625 C3.23522029 44.88818061 0.64768546 47.45539505 -3.40625 48.88671875 C-11.16600339 50.40314943 -18.67806904 50.19766931 -25.625 46.3203125 C-25.625 43.3503125 -25.625 40.3803125 -25.625 37.3203125 C-24.325625 37.6503125 -23.02625 37.9803125 -21.6875 38.3203125 C-16.64904579 39.44439801 -10.41576664 40.71569582 -5.625 38.3203125 C-5.20629447 35.98959371 -5.20629447 35.98959371 -5.625 33.3203125 C-8.28290132 30.57935176 -11.15061288 29.03665333 -14.5625 27.4453125 C-18.68419911 25.39619454 -22.36877592 23.4786817 -24.625 19.3203125 C-25.58193994 13.89519916 -25.62353357 9.13246602 -22.9375 4.2578125 C-16.01040237 -1.545972 -8.7512233 -2.26594175 0 0 Z " fill="#2C4692" transform="translate(337.625,116.6796875)"/>
<path d="M0 0 C0.33 0 0.66 0 1 0 C1 16.83 1 33.66 1 51 C-2.07117624 49.46441188 -3.8569473 48.43010884 -6.3125 46.25 C-6.91707031 45.71890625 -7.52164063 45.1878125 -8.14453125 44.640625 C-9.06298828 43.82851563 -9.06298828 43.82851563 -10 43 C-11.16484158 41.99787465 -12.33148177 40.99783579 -13.5 40 C-14.07234375 39.50886719 -14.6446875 39.01773438 -15.234375 38.51171875 C-16.45094169 37.47010081 -17.66983383 36.43119482 -18.890625 35.39453125 C-19.50421875 34.87246094 -20.1178125 34.35039062 -20.75 33.8125 C-21.30171875 33.34457031 -21.8534375 32.87664062 -22.421875 32.39453125 C-24 31 -24 31 -25.56640625 29.3984375 C-27.22383994 27.78164933 -28.89823274 26.94217153 -31 26 C-30.34 26 -29.68 26 -29 26 C-29 25.34 -29 24.68 -29 24 C-25.53846154 21 -25.53846154 21 -23 21 C-23 20.34 -23 19.68 -23 19 C-22.34 19 -21.68 19 -21 19 C-21 18.34 -21 17.68 -21 17 C-19.33333333 16 -17.66666667 15 -16 14 C-15.236875 13.236875 -14.47375 12.47375 -13.6875 11.6875 C-10.9221809 8.9221809 -8.03246952 6.70819791 -4.8671875 4.4296875 C-2.96280631 3.03645961 -2.96280631 3.03645961 -1.3203125 1.3203125 C-0.88460937 0.88460938 -0.44890625 0.44890625 0 0 Z " fill="#29428F" transform="translate(683,304)"/>
<path d="M0 0 C5.90537669 3.58873154 11.21833739 6.96667094 16 12 C18.37446133 13.85669123 20.77917949 15.66298524 23.20703125 17.44921875 C23.79871094 17.96097656 24.39039063 18.47273438 25 19 C25 19.66 25 20.32 25 21 C26.32 21.66 27.64 22.32 29 23 C27.86280581 26.41158256 26.95657056 27.11854601 24 29 C23.34 29 22.68 29 22 29 C22 29.66 22 30.32 22 31 C20.00715862 32.3440093 18.00580329 33.67541292 16 35 C15.0925 35.9075 14.185 36.815 13.25 37.75 C12.5075 38.4925 11.765 39.235 11 40 C10.34 40 9.68 40 9 40 C8.67 40.99 8.34 41.98 8 43 C6.34467377 44.01866229 4.67739862 45.01810813 3 46 C2.34 46.99 1.68 47.98 1 49 C0.34 49 -0.32 49 -1 49 C-1.02535418 42.66455947 -1.04286866 36.32913203 -1.05493164 29.99365234 C-1.05996052 27.83837393 -1.06678442 25.68309893 -1.07543945 23.52783203 C-1.08756821 20.43000446 -1.09324278 17.33222199 -1.09765625 14.234375 C-1.10281754 13.27070007 -1.10797882 12.30702515 -1.11329651 11.31414795 C-1.11337204 10.41351624 -1.11344757 9.51288452 -1.11352539 8.58496094 C-1.115746 7.79442322 -1.11796661 7.0038855 -1.12025452 6.18939209 C-1.00026577 4.00483874 -0.60355197 2.09807318 0 0 Z " fill="#26408E" transform="translate(600,306)"/>
<path d="M0 0 C2.75329021 1.79562405 4.52627461 3.05254922 6 6 C6.04022391 8.3329866 6.04320247 10.66706666 6 13 C7.32 13.66 8.64 14.32 10 15 C10.02888146 18.31248187 10.04675799 21.62493167 10.0625 24.9375 C10.07087891 25.88302734 10.07925781 26.82855469 10.08789062 27.80273438 C10.09272461 29.15141602 10.09272461 29.15141602 10.09765625 30.52734375 C10.10551147 31.77632446 10.10551147 31.77632446 10.11352539 33.05053711 C10 35 10 35 9 36 C7.15840977 36.09959621 5.31303033 36.13080411 3.46875 36.1328125 C2.34855469 36.13410156 1.22835937 36.13539062 0.07421875 36.13671875 C-1.10527344 36.13285156 -2.28476563 36.12898438 -3.5 36.125 C-5.26923828 36.13080078 -5.26923828 36.13080078 -7.07421875 36.13671875 C-8.75451172 36.13478516 -8.75451172 36.13478516 -10.46875 36.1328125 C-11.50451172 36.13168457 -12.54027344 36.13055664 -13.60742188 36.12939453 C-16 36 -16 36 -17 35 C-17.08669432 33.5112814 -17.10703494 32.018555 -17.09765625 30.52734375 C-17.09443359 29.62822266 -17.09121094 28.72910156 -17.08789062 27.80273438 C-17.07951172 26.85720703 -17.07113281 25.91167969 -17.0625 24.9375 C-17.05798828 23.98810547 -17.05347656 23.03871094 -17.04882812 22.06054688 C-17.0370011 19.70696935 -17.02052025 17.35351523 -17 15 C-15.68 14.67 -14.36 14.34 -13 14 C-13.0825 12.783125 -13.165 11.56625 -13.25 10.3125 C-13.26200396 6.9273826 -13.03913893 6.06131766 -11.125 3.0625 C-7.52072687 -0.4357651 -4.96784874 -0.42100413 0 0 Z M-8 7 C-8.16681109 10.08347826 -8.16681109 10.08347826 -8 13 C-5.03 13 -2.06 13 1 13 C0.81535634 8.65815798 0.81535634 8.65815798 -1 5 C-4.961168 4.60909667 -4.961168 4.60909667 -8 7 Z " fill="#F37729" transform="translate(197,55)"/>
<path d="M0 0 C3.87641915 4.32369829 10 11.95808443 10 18 C-6.17 18 -22.34 18 -39 18 C-39 12.72 -39 7.44 -39 2 C-26.13 2 -13.26 2 0 2 C0 1.34 0 0.68 0 0 Z " fill="#6F3F98" transform="translate(271,247)"/>
<path d="M0 0 C18.81 0 37.62 0 57 0 C57.81720493 3.26881973 58.11073543 5.46999069 58.0625 8.75 C58.05347656 9.54921875 58.04445312 10.3484375 58.03515625 11.171875 C58.02355469 11.77515625 58.01195312 12.3784375 58 13 C57.505 11.515 57.505 11.515 57 10 C38.52 10.33 20.04 10.66 1 11 C0 9 0 9 0 0 Z " fill="#F37728" transform="translate(182,129)"/>
<path d="M0 0 C27.39 0 54.78 0 83 0 C83 2.31 83 4.62 83 7 C55.94 7 28.88 7 1 7 C0.67 4.69 0.34 2.38 0 0 Z " fill="#B1B1B2" transform="translate(124,295)"/>
<path d="M0 0 C27.06 0 54.12 0 82 0 C82 2.31 82 4.62 82 7 C54.94 7 27.88 7 0 7 C0 4.69 0 2.38 0 0 Z " fill="#B1B2B2" transform="translate(125,278)"/>
<path d="M0 0 C3.63 0 7.26 0 11 0 C11 16.17 11 32.34 11 49 C7.37 49 3.74 49 0 49 C0 32.83 0 16.66 0 0 Z " fill="#334D96" transform="translate(351,117)"/>
<path d="M0 0 C4.29495655 2.29008425 7.13426972 5.27442297 8.625 9.9375 C9.38579716 14.30999359 8.27435721 17.1849492 6 21 C2.59422557 24.15657142 0.34098794 25.89879336 -4.3125 26.25 C-8.3176703 25.97846303 -9.91263691 25.50326737 -13 23 C-16.37858037 19.07354173 -17.66876201 16.04353555 -17.38671875 10.95703125 C-16.5275607 6.6091708 -14.06270724 3.88558937 -10.75 1.125 C-7.05723233 -0.38567768 -3.87387668 -0.88776341 0 0 Z " fill="#F1F1F2" transform="translate(193,218)"/>
<path d="M0 0 C21.45 0.33 42.9 0.66 65 1 C65 3.64 65 6.28 65 9 C43.88 9 22.76 9 1 9 C1 7.35 1 5.7 1 4 C0.34 4 -0.32 4 -1 4 C-0.67 2.68 -0.34 1.36 0 0 Z " fill="#B8B8B8" transform="translate(510,224)"/>
<path d="M0 0 C3.23377976 2.75822391 4.86417618 4.88176757 5.4453125 9.18359375 C5.63551178 13.45039757 5.55786224 16.07045044 3.375 19.8125 C-0.71124799 23.44472043 -4.15994312 24.36754649 -9.55078125 24.26953125 C-13.59958526 23.47337987 -16.30998094 20.95006796 -18.875 17.8125 C-20.23911761 13.72014717 -20.72176331 9.99302522 -19.12109375 5.87109375 C-15.02016214 -1.83222485 -7.85874521 -3.24600346 0 0 Z " fill="#E7E6E8" transform="translate(144.875,312.1875)"/>
<path d="M0 0 C21.12 0 42.24 0 64 0 C64 2.64 64 5.28 64 8 C42.88 8 21.76 8 0 8 C0 5.36 0 2.72 0 0 Z " fill="#B8B7B8" transform="translate(580,225)"/>
<path d="M0 0 C1.73443359 0.00676758 1.73443359 0.00676758 3.50390625 0.01367188 C6.33599225 0.02537471 9.16796811 0.04177004 12 0.0625 C12.495 1.5475 12.495 1.5475 13 3.0625 C29.17 3.0625 45.34 3.0625 62 3.0625 C62 4.7125 62 6.3625 62 8.0625 C34.94 8.0625 7.88 8.0625 -20 8.0625 C-20.33 5.7525 -20.66 3.4425 -21 1.0625 C-13.97942879 -0.03016243 -7.09531697 -0.05282882 0 0 Z " fill="#B2B3B3" transform="translate(145,259.9375)"/>
<path d="M0 0 C7.26 0 14.52 0 22 0 C22 6.93 22 13.86 22 21 C14.74 21 7.48 21 0 21 C0 14.07 0 7.14 0 0 Z " fill="#22A151" transform="translate(257,269)"/>
<path d="M0 0 C2 3 2 3 2.4375 6.5625 C2.623125 7.696875 2.80875 8.83125 3 10 C3.99 10.66 4.98 11.32 6 12 C6.80742896 16.80612475 6.17222763 22.31108947 5 27 C-0.6095468 29.8047734 -8.99271777 27.88996774 -15 27 C-15.02685095 24.52076199 -15.04676547 22.0418116 -15.0625 19.5625 C-15.07506836 18.50192383 -15.07506836 18.50192383 -15.08789062 17.41992188 C-15.09653588 15.61306441 -15.05220011 13.80612397 -15 12 C-14.67 11.67 -14.34 11.34 -14 11 C-13.70743606 9.54587031 -13.44054713 8.08652453 -13.1875 6.625 C-12.55679214 3.77547096 -12.16439037 2.21497202 -10.375 -0.125 C-6.58230787 -1.52230763 -3.94018965 -0.88972024 0 0 Z M-6 3 C-7.60414215 4.18523997 -7.60414215 4.18523997 -9 6 C-9.25069913 8.62570704 -9.25069913 8.62570704 -9 11 C-5.535 10.505 -5.535 10.505 -2 10 C-2.33 8.02 -2.66 6.04 -3 4 C-3.99 3.67 -4.98 3.34 -6 3 Z " fill="#EF823D" transform="translate(612,78)"/>
<path d="M0 0 C0.03738281 0.77085937 0.07476562 1.54171875 0.11328125 2.3359375 C0.21189453 3.84027344 0.21189453 3.84027344 0.3125 5.375 C0.39951172 6.87160156 0.39951172 6.87160156 0.48828125 8.3984375 C0.65714844 9.25695312 0.82601563 10.11546875 1 11 C3.65244434 13.20930861 3.65244434 13.20930861 5.8125 12.875 C8.24847555 11.99940808 8.24847555 11.99940808 11 9.875 C14 8 14 8 16.1875 8.3828125 C16.785625 8.58648437 17.38375 8.79015625 18 9 C18.59132977 13.79634148 18.87990936 18.22940708 18 23 C15.12583392 26.12175342 12.02233928 27.72016477 8 29 C6.68 29 5.36 29 4 29 C3.96261719 28.22914063 3.92523438 27.45828125 3.88671875 26.6640625 C3.82097656 25.66117187 3.75523437 24.65828125 3.6875 23.625 C3.62949219 22.62726563 3.57148438 21.62953125 3.51171875 20.6015625 C3.34285156 19.74304688 3.17398437 18.88453125 3 18 C0.27889502 15.7534621 0.27889502 15.7534621 -2.3125 16.125 C-5.20936782 16.93010914 -5.20936782 16.93010914 -8.125 19.125 C-9.07375 19.74375 -10.0225 20.3625 -11 21 C-11.99 20.67 -12.98 20.34 -14 20 C-14.52971386 15.22603557 -14.7817928 10.75414543 -14 6 C-10.25897132 1.3636824 -5.87370768 -0.35471769 0 0 Z " fill="#4175B9" transform="translate(402,233)"/>
<path d="M0 0 C21.12 0 42.24 0 64 0 C64 2.31 64 4.62 64 7 C42.88 7 21.76 7 0 7 C0 4.69 0 2.38 0 0 Z " fill="#B3B3B3" transform="translate(580,272)"/>
<path d="M0 0 C21.12 0 42.24 0 64 0 C64 2.31 64 4.62 64 7 C42.88 7 21.76 7 0 7 C0 4.69 0 2.38 0 0 Z " fill="#B2B2B2" transform="translate(580,256)"/>
<path d="M0 0 C21.12 0 42.24 0 64 0 C64 2.31 64 4.62 64 7 C42.88 7 21.76 7 0 7 C0 4.69 0 2.38 0 0 Z " fill="#B2B2B2" transform="translate(580,241)"/>
<path d="M0 0 C20.79 0 41.58 0 63 0 C63 2.31 63 4.62 63 7 C42.21 7 21.42 7 0 7 C0 4.69 0 2.38 0 0 Z " fill="#B3B3B3" transform="translate(511,272)"/>
<path d="M0 0 C20.79 0 41.58 0 63 0 C63 2.31 63 4.62 63 7 C42.21 7 21.42 7 0 7 C0 4.69 0 2.38 0 0 Z " fill="#B1B1B1" transform="translate(511,256)"/>
<path d="M0 0 C20.79 0 41.58 0 63 0 C63 2.31 63 4.62 63 7 C42.21 7 21.42 7 0 7 C0 4.69 0 2.38 0 0 Z " fill="#B2B1B2" transform="translate(511,241)"/>
<path d="M0 0 C7.26 0 14.52 0 22 0 C22 6.6 22 13.2 22 20 C14.74 20 7.48 20 0 20 C0 13.4 0 6.8 0 0 Z " fill="#2F73B8" transform="translate(232,269)"/>
<path d="M0 0 C1.10794922 -0.00128906 2.21589844 -0.00257813 3.35742188 -0.00390625 C4.51951172 -0.00003906 5.68160156 0.00382813 6.87890625 0.0078125 C8.03712891 0.00394531 9.19535156 0.00007812 10.38867188 -0.00390625 C12.0525293 -0.00197266 12.0525293 -0.00197266 13.75 0 C14.76892334 0.00112793 15.78784668 0.00225586 16.83764648 0.00341797 C19.44140625 0.1328125 19.44140625 0.1328125 22.44140625 1.1328125 C22.46827178 3.11190648 22.48774 5.09110221 22.50390625 7.0703125 C22.51550781 8.17246094 22.52710938 9.27460938 22.5390625 10.41015625 C22.44140625 13.1328125 22.44140625 13.1328125 21.44140625 14.1328125 C19.38085315 14.23274782 17.31688035 14.26362156 15.25390625 14.265625 C13.99835938 14.26691406 12.7428125 14.26820313 11.44921875 14.26953125 C10.79211914 14.26743652 10.13501953 14.2653418 9.45800781 14.26318359 C7.4497929 14.25783484 5.44180166 14.26312941 3.43359375 14.26953125 C2.17804688 14.26824219 0.9225 14.26695312 -0.37109375 14.265625 C-1.53253906 14.26449707 -2.69398438 14.26336914 -3.890625 14.26220703 C-6.55859375 14.1328125 -6.55859375 14.1328125 -7.55859375 13.1328125 C-7.63103428 11.11317051 -7.64236563 9.09114126 -7.62109375 7.0703125 C-7.61207031 5.96558594 -7.60304687 4.86085937 -7.59375 3.72265625 C-7.58214844 2.86800781 -7.57054687 2.01335937 -7.55859375 1.1328125 C-4.92691927 -0.18302474 -2.94383587 0.00326238 0 0 Z " fill="#36A060" transform="translate(137.55859375,218.8671875)"/>
<path d="M0 0 C1.46657043 -0.00472824 1.46657043 -0.00472824 2.96276855 -0.009552 C4.0262854 -0.00752777 5.08980225 -0.00550354 6.18554688 -0.00341797 C7.81127625 -0.00485306 7.81127625 -0.00485306 9.46984863 -0.00631714 C11.76652077 -0.00699912 14.06319482 -0.00514358 16.35986328 -0.00097656 C19.88904115 0.00437141 23.41809174 -0.00092097 26.94726562 -0.00732422 C29.17252632 -0.00666344 31.39778694 -0.00538228 33.62304688 -0.00341797 C34.68656372 -0.0054422 35.75008057 -0.00746643 36.8458252 -0.009552 C37.82353882 -0.00639984 38.80125244 -0.00324768 39.80859375 0 C40.67383667 0.00079559 41.53907959 0.00159119 42.43054199 0.00241089 C44.40429688 0.12939453 44.40429688 0.12939453 45.40429688 1.12939453 C45.40429688 3.43939453 45.40429688 5.74939453 45.40429688 8.12939453 C28.57429688 8.12939453 11.74429688 8.12939453 -5.59570312 8.12939453 C-5.59570312 0.00514526 -5.59570312 0.00514526 0 0 Z " fill="#B2B2B3" transform="translate(161.595703125,327.87060546875)"/>
<path d="M0 0 C16.83 0 33.66 0 51 0 C51 2.31 51 4.62 51 7 C34.17 7 17.34 7 0 7 C0 4.69 0 2.38 0 0 Z " fill="#B2B2B2" transform="translate(156,312)"/>
<path d="M0 0 C3.58397452 5.37596179 4.24573206 9.97620107 4.125 16.375 C4.10695312 17.62023437 4.08890625 18.86546875 4.0703125 20.1484375 C4.04710937 21.08945313 4.02390625 22.03046875 4 23 C1.18743719 23.02684312 -1.62487241 23.04676188 -4.4375 23.0625 C-5.23994141 23.07087891 -6.04238281 23.07925781 -6.86914062 23.08789062 C-8.91295221 23.0965143 -10.95683902 23.0522815 -13 23 C-14.82459303 21.17540697 -14.25844396 18.45812719 -14.3125 16 C-14.26688887 10.07706901 -13.60450341 4.86162961 -10 0 C-6.16378521 -2.52666355 -4.13099687 -1.88588988 0 0 Z M-6 2 C-6.66 2.66 -7.32 3.32 -8 4 C-8 5.32 -8 6.64 -8 8 C-6.02 8 -4.04 8 -2 8 C-2.33 6.35 -2.66 4.7 -3 3 C-3.99 2.67 -4.98 2.34 -6 2 Z " fill="#F28038" transform="translate(138,147)"/>
<path d="M0 0 C2.95857409 -0.05379226 5.91617721 -0.09357093 8.875 -0.125 C9.71675781 -0.14175781 10.55851562 -0.15851563 11.42578125 -0.17578125 C12.23144531 -0.18222656 13.03710938 -0.18867188 13.8671875 -0.1953125 C14.61081543 -0.20578613 15.35444336 -0.21625977 16.12060547 -0.22705078 C18 0 18 0 20 2 C20 6.29 20 10.58 20 15 C3.5 15 -13 15 -30 15 C-30 14.67 -30 14.34 -30 14 C-28.71367676 13.98598145 -28.71367676 13.98598145 -27.40136719 13.97167969 C-24.21027321 13.92758709 -21.02013244 13.86593944 -17.82958984 13.79248047 C-16.45048349 13.76430901 -15.07121682 13.74307528 -13.69189453 13.72900391 C-11.70577051 13.70752455 -9.72000091 13.65876868 -7.734375 13.609375 C-6.54038086 13.58842773 -5.34638672 13.56748047 -4.11621094 13.54589844 C-0.43411635 12.90086839 0.78501877 11.96370728 3 9 C3.33498301 6.33165034 3.33498301 6.33165034 3 4 C2.01 4 1.02 4 0 4 C0 2.68 0 1.36 0 0 Z " fill="#2D4691" transform="translate(140,178)"/>
<path d="M0 0 C10.89 0 21.78 0 33 0 C33 2.64 33 5.28 33 8 C22.11 8 11.22 8 0 8 C0 5.36 0 2.72 0 0 Z " fill="#B5B1B0" transform="translate(125,243)"/>
<path d="M0 0 C2.76101146 1.82109266 4.52100548 3.04201097 6 6 C6.07065617 8.04055005 6.08421976 10.08334257 6.0625 12.125 C6.05347656 13.22070312 6.04445313 14.31640625 6.03515625 15.4453125 C6.02355469 16.28835938 6.01195312 17.13140625 6 18 C4.35 18 2.7 18 1 18 C0.34 14.7 -0.32 11.4 -1 8 C-5.07146403 6.15452782 -5.07146403 6.15452782 -9.3125 6.8125 C-11.91778937 10.18972696 -11.82533772 13.83430466 -12 18 C-13.65614657 18.38218767 -15.32457024 18.71395102 -17 19 C-18.55090815 17.44909185 -18.20677311 15.96303767 -18.25 13.8125 C-18.19522321 9.50567459 -17.43124235 6.64686352 -15 3 C-10.38319501 -1.18397952 -5.92857786 -1.52548202 0 0 Z " fill="#666C8C" transform="translate(469,315)"/>
<path d="M0 0 C4.29495655 2.29008425 7.13426972 5.27442297 8.625 9.9375 C9.38579716 14.30999359 8.27435721 17.1849492 6 21 C2.59422557 24.15657142 0.34098794 25.89879336 -4.3125 26.25 C-8.3176703 25.97846303 -9.91263691 25.50326737 -13 23 C-16.37858037 19.07354173 -17.66876201 16.04353555 -17.38671875 10.95703125 C-16.5275607 6.6091708 -14.06270724 3.88558937 -10.75 1.125 C-7.05723233 -0.38567768 -3.87387668 -0.88776341 0 0 Z M-13 7 C-14.57455739 10.14911479 -14.34799118 12.52008816 -14 16 C-12.24009686 19.59524336 -12.24009686 19.59524336 -9 22 C-5.82460036 22.80389864 -3.18205694 22.75379649 0 22 C3.05067422 20.00772296 4.59426669 18.66317126 5.47265625 15.0625 C5.7641874 11.11561669 5.25316411 9.36056707 2.9375 6.0625 C-3.18196553 1.76585399 -7.35337273 2.29447727 -13 7 Z " fill="#888A95" transform="translate(193,218)"/>
<path d="M0 0 C1.78106845 0.87704128 3.5307825 1.81967703 5.25 2.8125 C6.14203125 3.31394531 7.0340625 3.81539062 7.953125 4.33203125 C8.96632813 5.15767578 8.96632813 5.15767578 10 6 C10 7.32 10 8.64 10 10 C2.34251815 14.91780501 2.34251815 14.91780501 -2.0625 15.1875 C-6.25746625 13.49166258 -9.53591904 10.87501135 -13 8 C-12.62642278 5.39611102 -12.28877098 4.25705243 -10.29296875 2.48046875 C-9.59816406 2.05378906 -8.90335937 1.62710938 -8.1875 1.1875 C-7.50042969 0.74792969 -6.81335938 0.30835938 -6.10546875 -0.14453125 C-3.48845327 -1.20784552 -2.60685808 -1.0250028 0 0 Z " fill="#4476B9" transform="translate(370,210)"/>
<path d="M0 0 C3.23377976 2.75822391 4.86417618 4.88176757 5.4453125 9.18359375 C5.63551178 13.45039757 5.55786224 16.07045044 3.375 19.8125 C-0.71124799 23.44472043 -4.15994312 24.36754649 -9.55078125 24.26953125 C-13.59958526 23.47337987 -16.30998094 20.95006796 -18.875 17.8125 C-20.23911761 13.72014717 -20.72176331 9.99302522 -19.12109375 5.87109375 C-15.02016214 -1.83222485 -7.85874521 -3.24600346 0 0 Z M-15.875 6.8125 C-16.205 7.1425 -16.535 7.4725 -16.875 7.8125 C-17.27538554 11.97650962 -17.31684328 14.13500696 -15 17.6875 C-12.27455109 20.41294891 -11.43999391 20.75919869 -7.5625 21.125 C-3.29963889 20.76374058 -1.85507946 19.79257946 1.125 16.8125 C2.74088379 13.58073243 2.69951407 10.30634717 2.125 6.8125 C0.13578114 3.8286717 -1.26002568 2.20973159 -4.8125 1.3359375 C-10.17340919 0.95011449 -12.46392841 2.57450196 -15.875 6.8125 Z " fill="#838590" transform="translate(144.875,312.1875)"/>
<path d="M0 0 C2.45703125 1.41015625 2.45703125 1.41015625 4.8125 3.0625 C5.60269531 3.61035156 6.39289063 4.15820312 7.20703125 4.72265625 C7.79871094 5.14417969 8.39039063 5.56570312 9 6 C8.624653 8.57775071 8.28516942 9.74081565 6.328125 11.51953125 C5.64234375 11.94621094 4.9565625 12.37289062 4.25 12.8125 C3.57453125 13.25207031 2.8990625 13.69164062 2.203125 14.14453125 C-0.67801074 15.26327013 -2.07859959 14.95429413 -5 14 C-7.45703125 12.58984375 -7.45703125 12.58984375 -9.8125 10.9375 C-10.60269531 10.38964844 -11.39289063 9.84179688 -12.20703125 9.27734375 C-12.79871094 8.85582031 -13.39039063 8.43429688 -14 8 C-13.624653 5.42224929 -13.28516942 4.25918435 -11.328125 2.48046875 C-10.64234375 2.05378906 -9.9565625 1.62710938 -9.25 1.1875 C-8.57453125 0.74792969 -7.8990625 0.30835938 -7.203125 -0.14453125 C-4.32198926 -1.26327013 -2.92140041 -0.95429413 0 0 Z " fill="#4376B9" transform="translate(387,200)"/>
<path d="M0 0 C5.09266011 0.86755493 9.67260992 3.01689783 13 7 C13.78779545 11.7532088 13.52969085 16.22624296 13 21 C10 22 10 22 7.30078125 21.05859375 C4.01281215 19.27492424 1.55922692 17.74659128 -1 15 C-2.0180411 10.20518467 -1.80139767 5.82131176 -1 1 C-0.67 0.67 -0.34 0.34 0 0 Z " fill="#4073B8" transform="translate(352,241)"/>
<path d="M0 0 C5.57584545 0.91115059 10.27566157 2.59127459 14 7 C14.77828194 11.42779318 14.53458131 15.55175551 14 20 C9.98428507 21.14123337 7.84822028 21.03980434 4.1875 19 C1.828125 17.3671875 1.828125 17.3671875 0 15 C-0.78957042 9.88913201 -0.52831789 5.12664029 0 0 Z " fill="#4677BA" transform="translate(370,253)"/>
<path d="M0 0 C4.38766345 0.1329595 7.9734249 2.17000391 11.39453125 4.76953125 C14.74191087 9.42002702 13.5373575 15.551792 13 21 C7.41855359 20.08793416 2.7354005 18.40442745 -1 14 C-1.83472492 9.5711729 -1.67429263 5.44651461 -1 1 C-0.67 0.67 -0.34 0.34 0 0 Z " fill="#4476BA" transform="translate(352,221)"/>
<path d="M0 0 C0.67015922 4.50157455 0.95674371 8.5282631 0 13 C-3.20746219 16.31437759 -6.72973982 18.30054769 -11 20 C-11.99 20 -12.98 20 -14 20 C-14.58995167 14.84775545 -14.88916166 10.13142694 -14 5 C-10.31046612 0.81300088 -5.53470649 -2.06904916 0 0 Z " fill="#4375B9" transform="translate(402,254)"/>
<path d="M0 0 C0.60583246 4.47642873 0.85853254 8.54700894 0 13 C-2.82341073 16.3257029 -5.92034914 18.4546777 -10 20 C-12.328125 19.6640625 -12.328125 19.6640625 -14 19 C-14.60583246 14.52357127 -14.85853254 10.45299106 -14 6 C-10.40492649 1.76535349 -5.68046244 -2.25625845 0 0 Z " fill="#4074B8" transform="translate(420,222)"/>
<path d="M0 0 C3.67742126 1.83871063 4.5975402 2.36431783 6.75 5.5 C7.17796875 6.1084375 7.6059375 6.716875 8.046875 7.34375 C9 9 9 9 9 11 C9.66 11 10.32 11 11 11 C14.875 17.625 14.875 17.625 16 21 C10.72 21 5.44 21 0 21 C0 14.07 0 7.14 0 0 Z " fill="#EE7A33" transform="translate(282,269)"/>
<path d="M0 0 C0.33 0 0.66 0 1 0 C1 40.92 1 81.84 1 124 C0.67 124 0.34 124 0 124 C0 87.37 0 50.74 0 13 C-2.64 13 -5.28 13 -8 13 C-9 12 -9 12 -9.0625 8.4375 C-9.041875 7.303125 -9.02125 6.16875 -9 5 C-6.03 5 -3.06 5 0 5 C0 3.35 0 1.7 0 0 Z " fill="#5166A3" transform="translate(216,231)"/>
<path d="M0 0 C18.81 0 37.62 0 57 0 C57 0.33 57 0.66 57 1 C38.85 1 20.7 1 2 1 C2 3.31 2 5.62 2 8 C20.15 8 38.3 8 57 8 C57.33 6.68 57.66 5.36 58 4 C58 6.97 58 9.94 58 13 C57.505 11.515 57.505 11.515 57 10 C38.52 10.33 20.04 10.66 1 11 C0 9 0 9 0 0 Z " fill="#E79461" transform="translate(182,129)"/>
<path d="M0 0 C2.75329021 1.79562405 4.52627461 3.05254922 6 6 C6.13415472 8.6723621 6.04318541 11.32250488 6 14 C2.26936216 15.18403115 -1.29474166 15.13306789 -5.1875 15.125 C-7.06501953 15.12886719 -7.06501953 15.12886719 -8.98046875 15.1328125 C-12 15 -12 15 -13 14 C-13.58968059 6.92383292 -13.58968059 6.92383292 -11.125 3.0625 C-7.52072687 -0.4357651 -4.96784874 -0.42100413 0 0 Z M-8 7 C-8.16681109 10.08347826 -8.16681109 10.08347826 -8 13 C-5.03 13 -2.06 13 1 13 C0.81535634 8.65815798 0.81535634 8.65815798 -1 5 C-4.961168 4.60909667 -4.961168 4.60909667 -8 7 Z " fill="#7F8199" transform="translate(197,55)"/>
<path d="M0 0 C0.33 0 0.66 0 1 0 C1 2.31 1 4.62 1 7 C2.32 7.66 3.64 8.32 5 9 C5 17.25 5 25.5 5 34 C-5.89 34 -16.78 34 -28 34 C-29.29945577 31.40108846 -29.0223077 29.67333344 -28.87890625 26.7734375 C-28.83056641 25.7421875 -28.78222656 24.7109375 -28.73242188 23.6484375 C-28.67634766 22.56820313 -28.62027344 21.48796875 -28.5625 20.375 C-28.51029297 19.28703125 -28.45808594 18.1990625 -28.40429688 17.078125 C-28.27437225 14.3851419 -28.13939838 11.69250664 -28 9 C-26.68 8.67 -25.36 8.34 -24 8 C-24.99 8.495 -24.99 8.495 -26 9 C-26.33 16.92 -26.66 24.84 -27 33 C-17.1 33 -7.2 33 3 33 C2.67 25.74 2.34 18.48 2 11 C-0.29308963 9.85345518 -1.79909656 9.80270883 -4.3515625 9.68359375 C-5.20234375 9.64169922 -6.053125 9.59980469 -6.9296875 9.55664062 C-7.81914062 9.51732422 -8.70859375 9.47800781 -9.625 9.4375 C-10.5221875 9.39431641 -11.419375 9.35113281 -12.34375 9.30664062 C-14.56234283 9.20043139 -16.7810488 9.09838806 -19 9 C-18.67 8.34 -18.34 7.68 -18 7 C-15.93757383 6.97282308 -13.87504297 6.9535242 -11.8125 6.9375 C-10.66394531 6.92589844 -9.51539063 6.91429687 -8.33203125 6.90234375 C-5.40699414 6.98807168 -2.83683709 7.32150977 0 8 C0 5.36 0 2.72 0 0 Z " fill="#E69D70" transform="translate(475,325)"/>
<path d="M0 0 C0.33 0.66 0.66 1.32 1 2 C6.61 2 12.22 2 18 2 C18 4.31 18 6.62 18 9 C10.41 9 2.82 9 -5 9 C-3.35 6.03 -1.7 3.06 0 0 Z " fill="#B0B1B3" transform="translate(487,270)"/>
<path d="M0 0 C1.32 0.66 2.64 1.32 4 2 C4.02888146 5.31248187 4.04675799 8.62493167 4.0625 11.9375 C4.07087891 12.88302734 4.07925781 13.82855469 4.08789062 14.80273438 C4.09272461 16.15141602 4.09272461 16.15141602 4.09765625 17.52734375 C4.10551147 18.77632446 4.10551147 18.77632446 4.11352539 20.05053711 C4 22 4 22 3 23 C1.15840977 23.09959621 -0.68696967 23.13080411 -2.53125 23.1328125 C-3.65144531 23.13410156 -4.77164063 23.13539062 -5.92578125 23.13671875 C-7.10527344 23.13285156 -8.28476563 23.12898438 -9.5 23.125 C-11.26923828 23.13080078 -11.26923828 23.13080078 -13.07421875 23.13671875 C-14.75451172 23.13478516 -14.75451172 23.13478516 -16.46875 23.1328125 C-17.50451172 23.13168457 -18.54027344 23.13055664 -19.60742188 23.12939453 C-22 23 -22 23 -23 22 C-23.08669432 20.5112814 -23.10703494 19.018555 -23.09765625 17.52734375 C-23.09443359 16.62822266 -23.09121094 15.72910156 -23.08789062 14.80273438 C-23.07951172 13.85720703 -23.07113281 12.91167969 -23.0625 11.9375 C-23.05798828 10.98810547 -23.05347656 10.03871094 -23.04882812 9.06054688 C-23.0370011 6.70696935 -23.02052025 4.35351523 -23 2 C-21.35 1.67 -19.7 1.34 -18 1 C-18.99 1.33 -19.98 1.66 -21 2 C-21 8.27 -21 14.54 -21 21 C-13.41 21 -5.82 21 2 21 C2 14.73 2 8.46 2 2 C1.34 2 0.68 2 0 2 C0 1.34 0 0.68 0 0 Z " fill="#E89967" transform="translate(203,68)"/>
<path d="M0 0 C3.5625 0.3125 3.5625 0.3125 5.5625 1.375 C7.19628851 4.54046524 6.41517564 6.96270286 5.5625 10.3125 C2.09207297 12.62611802 0.64415827 12.82270728 -3.4375 12.3125 C-5.375 10.6875 -5.375 10.6875 -6.4375 8.3125 C-6.12371717 3.0827861 -5.61102633 0.5100933 0 0 Z " fill="#858686" transform="translate(188.4375,224.6875)"/>
<path d="M0 0 C0 5.28 0 10.56 0 16 C-3.96 16 -7.92 16 -12 16 C-11.04889518 11.24447588 -6.53895198 0 0 0 Z " fill="#159D48" transform="translate(278,273)"/>
<path d="M0 0 C2.77389443 2.02419323 3.85519403 3.15185077 4.4375 6.5625 C4 9 4 9 2.9375 10.8125 C-0.12613274 12.69021039 -2.50164045 12.43729494 -6 12 C-8 10.3125 -8 10.3125 -9 8 C-8.86080792 5.14656236 -8.36922147 3.53537114 -6.75 1.1875 C-4.29122834 -0.4809522 -2.91471407 -0.49763411 0 0 Z " fill="#838384" transform="translate(140,317)"/>
<path d="M0 0 C3.8125 1 3.8125 1 5.8125 4 C6.35166146 6.6602023 6.54620098 9.29262663 6.8125 12 C3.8425 12 0.8725 12 -2.1875 12 C-0.8675 11.67 0.4525 11.34 1.8125 11 C1.4825 9.02 1.1525 7.04 0.8125 5 C-0.8375 5 -2.4875 5 -4.1875 5 C-4.5175 7.31 -4.8475 9.62 -5.1875 12 C-6.5075 12.33 -7.8275 12.66 -9.1875 13 C-9.78759376 5.91889358 -9.78759376 5.91889358 -7.1875 1.9375 C-4.09315982 -0.06092803 -3.46071267 -0.2962723 0 0 Z " fill="#7E7F98" transform="translate(608.1875,77)"/>
<path d="M0 0 C0 1.65 0 3.3 0 5 C-7.26 5 -14.52 5 -22 5 C-22 3.35 -22 1.7 -22 0 C-14.57161355 -1.33710956 -7.48595793 -0.68340908 0 0 Z " fill="#B4B3B4" transform="translate(304,302)"/>
<path d="M0 0 C7.26 0 14.52 0 22 0 C22 1.65 22 3.3 22 5 C14.74 5 7.48 5 0 5 C0 3.35 0 1.7 0 0 Z " fill="#B3B3B3" transform="translate(257,329)"/>
<path d="M0 0 C7.26 0 14.52 0 22 0 C22 1.65 22 3.3 22 5 C14.74 5 7.48 5 0 5 C0 3.35 0 1.7 0 0 Z " fill="#B3B3B3" transform="translate(282,329)"/>
<path d="M0 0 C7.26 0 14.52 0 22 0 C22 1.65 22 3.3 22 5 C14.74 5 7.48 5 0 5 C0 3.35 0 1.7 0 0 Z " fill="#B3B3B3" transform="translate(282,320)"/>
<path d="M0 0 C7.26 0 14.52 0 22 0 C22 1.65 22 3.3 22 5 C14.74 5 7.48 5 0 5 C0 3.35 0 1.7 0 0 Z " fill="#B3B3B4" transform="translate(257,320)"/>
<path d="M0 0 C7.26 0 14.52 0 22 0 C22 1.65 22 3.3 22 5 C14.74 5 7.48 5 0 5 C0 3.35 0 1.7 0 0 Z " fill="#B5B4B5" transform="translate(282,311)"/>
<path d="M0 0 C7.26 0 14.52 0 22 0 C22 1.65 22 3.3 22 5 C14.74 5 7.48 5 0 5 C0 3.35 0 1.7 0 0 Z " fill="#B4B4B4" transform="translate(257,311)"/>
<path d="M0 0 C7.26 0 14.52 0 22 0 C22 1.65 22 3.3 22 5 C14.74 5 7.48 5 0 5 C0 3.35 0 1.7 0 0 Z " fill="#B3B3B3" transform="translate(257,302)"/>
<path d="M0 0 C7.26 0 14.52 0 22 0 C22 1.65 22 3.3 22 5 C14.74 5 7.48 5 0 5 C0 3.35 0 1.7 0 0 Z " fill="#B0B0B1" transform="translate(257,293)"/>
<path d="M0 0 C0.66 0.33 1.32 0.66 2 1 C-6.17755563 4.81990127 -13.49706634 7.13457577 -22.546875 7.75390625 C-25.13459411 7.92266843 -25.13459411 7.92266843 -28 9 C-27.67 21.21 -27.34 33.42 -27 46 C-27.66 46 -28.32 46 -29 46 C-30.27786205 38.19196105 -30.11158147 30.38637319 -30.0625 22.5 C-30.05747533 21.09114742 -30.05291413 19.68229311 -30.04882812 18.2734375 C-30.0371003 14.84891362 -30.02068691 11.42447953 -30 8 C-26.07016678 5.87480976 -22.18487631 5.23729343 -17.8125 4.5625 C-12.9211458 3.76675245 -8.24566829 2.92583963 -3.5625 1.25 C-2.386875 0.8375 -1.21125 0.425 0 0 Z " fill="#7583B0" transform="translate(266,83)"/>
<path d="M0 0 C0 0.33 0 0.66 0 1 C-7.59 1 -15.18 1 -23 1 C-23 -0.65 -23 -2.3 -23 -4 C-20.10425486 -4.30370743 -17.21338331 -4.5687095 -14.3125 -4.8125 C-13.08756836 -4.94688477 -13.08756836 -4.94688477 -11.83789062 -5.08398438 C-6.09993235 -5.52536578 -3.63733092 -4.88187591 0 0 Z " fill="#ADAEB0" transform="translate(305,297)"/>
<path d="M0 0 C2.12508244 3.18762365 2.5020163 5.26512223 3 9 C0.625 8.8125 0.625 8.8125 -2 8 C-3.3125 5.4375 -3.3125 5.4375 -4 3 C-4.99 3.33 -5.98 3.66 -7 4 C-7.33 4.825 -7.66 5.65 -8 6.5 C-8.495 7.7375 -8.495 7.7375 -9 9 C-9.99 9.33 -10.98 9.66 -12 10 C-12.33 13.96 -12.66 17.92 -13 22 C-13.33 22 -13.66 22 -14 22 C-14.85942492 6.55422435 -14.85942492 6.55422435 -10 0 C-6.16378521 -2.52666355 -4.13099687 -1.88588988 0 0 Z " fill="#8E8796" transform="translate(138,147)"/>
<path d="M0 0 C6.93 0 13.86 0 21 0 C21 1.65 21 3.3 21 5 C14.07 5 7.14 5 0 5 C0 3.35 0 1.7 0 0 Z " fill="#B2B2B2" transform="translate(232,329)"/>
<path d="M0 0 C6.93 0 13.86 0 21 0 C21 1.65 21 3.3 21 5 C14.07 5 7.14 5 0 5 C0 3.35 0 1.7 0 0 Z " fill="#B3B3B3" transform="translate(232,320)"/>
<path d="M0 0 C6.93 0 13.86 0 21 0 C21 1.65 21 3.3 21 5 C14.07 5 7.14 5 0 5 C0 3.35 0 1.7 0 0 Z " fill="#B3B3B4" transform="translate(232,311)"/>
<path d="M0 0 C6.93 0 13.86 0 21 0 C21 1.65 21 3.3 21 5 C14.07 5 7.14 5 0 5 C0 3.35 0 1.7 0 0 Z " fill="#B2B2B2" transform="translate(232,302)"/>
<path d="M0 0 C6.93 0 13.86 0 21 0 C21 1.65 21 3.3 21 5 C14.07 5 7.14 5 0 5 C0 3.35 0 1.7 0 0 Z " fill="#A8A8A9" transform="translate(232,293)"/>
<path d="M0 0 C0.99 0.33 1.98 0.66 3 1 C2.90661089 6.66029124 2.80055052 12.32014731 2.68261719 17.97998047 C2.64427832 19.90634614 2.60943418 21.8327846 2.578125 23.75927734 C2.53258055 26.52467918 2.47456963 29.28957769 2.4140625 32.0546875 C2.40251129 32.9193161 2.39096008 33.7839447 2.37905884 34.67477417 C2.22774341 40.77225659 2.22774341 40.77225659 0 43 C0 28.81 0 14.62 0 0 Z " fill="#717AA3" transform="translate(317,312)"/>
<path d="M0 0 C0.33 0.66 0.66 1.32 1 2 C3.64 2 6.28 2 9 2 C9 4.31 9 6.62 9 9 C4.38 9.33 -0.24 9.66 -5 10 C-3.35 6.7 -1.7 3.4 0 0 Z " fill="#AFB0B3" transform="translate(496,254)"/>
<path d="M0 0 C2.86724686 0.57344937 3.8614515 0.8614515 6 3 C6.68181818 9.93181818 6.68181818 9.93181818 4.125 13.9375 C1.20711657 16.76956333 0.5408583 16.99067486 -3.625 17.0625 C-4.73875 17.041875 -5.8525 17.02125 -7 17 C-6.505 15.515 -6.505 15.515 -6 14 C-4.01751285 13.28293018 -2.01584651 12.61709587 0 12 C0.66 11.34 1.32 10.68 2 10 C1.67889311 6.46782421 1.12183498 3.36550494 0 0 Z " fill="#EBEAEB" transform="translate(141,316)"/>
<path d="M0 0 C0.33 0 0.66 0 1 0 C1.268125 1.093125 1.53625 2.18625 1.8125 3.3125 C3.08561702 7.33875367 3.08561702 7.33875367 6 10 C8.27161255 10.57323807 8.27161255 10.57323807 10.6875 10.6875 C11.49574219 10.75324219 12.30398437 10.81898438 13.13671875 10.88671875 C13.75160156 10.92410156 14.36648437 10.96148437 15 11 C15.33 11.99 15.66 12.98 16 14 C12.93570224 15.53214888 10.3834358 15.22938548 7 15 C2.48606007 13.11044375 0.14479774 10.3753874 -2 6 C-1.25 2.625 -1.25 2.625 0 0 Z " fill="#8E8F96" transform="translate(178,229)"/>
<path d="M0 0 C2.97 0 5.94 0 9 0 C9 2.64 9 5.28 9 8 C2.84765625 8.09765625 2.84765625 8.09765625 1 8 C0 7 0 7 -0.0625 3.4375 C-0.041875 2.303125 -0.02125 1.16875 0 0 Z " fill="#B1B1B4" transform="translate(207,236)"/>
<path d="M0 0 C0 0.66 0 1.32 0 2 C0.99 2 1.98 2 3 2 C3 3.65 3 5.3 3 7 C2.01 7.33 1.02 7.66 0 8 C0 8.66 0 9.32 0 10 C-2.97 9.505 -2.97 9.505 -6 9 C-6.1875 5.625 -6.1875 5.625 -6 2 C-3 0 -3 0 0 0 Z " fill="#296AB1" transform="translate(118,180)"/>
<path d="M0 0 C0.99 0 1.98 0 3 0 C3 0.66 3 1.32 3 2 C3.99 2 4.98 2 6 2 C6.33 3.98 6.66 5.96 7 8 C5.68 8 4.36 8 3 8 C3 8.66 3 9.32 3 10 C2.01 10 1.02 10 0 10 C0 9.34 0 8.68 0 8 C-0.66 8 -1.32 8 -2 8 C-2.33 6.02 -2.66 4.04 -3 2 C-2.01 2 -1.02 2 0 2 C0 1.34 0 0.68 0 0 Z " fill="#296CB3" transform="translate(587,115)"/>
<path d="M0 0 C6.75 1.625 6.75 1.625 9 5 C9.25760279 7.69452521 9.08900053 10.28548375 9 13 C7.68 13.33 6.36 13.66 5 14 C4.67 11.03 4.34 8.06 4 5 C2.02 4.34 0.04 3.68 -2 3 C-1.34 2.01 -0.68 1.02 0 0 Z " fill="#696A85" transform="translate(194,56)"/>
<path d="M0 0 C0.99 0 1.98 0 3 0 C3 0.66 3 1.32 3 2 C3.99 2 4.98 2 6 2 C6 3.98 6 5.96 6 8 C5.01 8 4.02 8 3 8 C3 8.66 3 9.32 3 10 C-1.875 8.25 -1.875 8.25 -3 6 C-2.5625 3.875 -2.5625 3.875 -2 2 C-1.34 2 -0.68 2 0 2 C0 1.34 0 0.68 0 0 Z " fill="#296BB2" transform="translate(137,180)"/>
<path d="M0 0 C0.99 0 1.98 0 3 0 C3 0.66 3 1.32 3 2 C3.99 2 4.98 2 6 2 C6 3.98 6 5.96 6 8 C4.02253397 8.73080266 2.01927511 9.39421747 0 10 C-0.66 9.67 -1.32 9.34 -2 9 C-2 6.69 -2 4.38 -2 2 C-1.34 2 -0.68 2 0 2 C0 1.34 0 0.68 0 0 Z " fill="#2B6CB3" transform="translate(126,180)"/>
<path d="M0 0 C0.66 0 1.32 0 2 0 C2 0.66 2 1.32 2 2 C2.99 2 3.98 2 5 2 C5 2.66 5 3.32 5 4 C4.34 4 3.68 4 3 4 C3 4.66 3 5.32 3 6 C3.66 6 4.32 6 5 6 C5 6.66 5 7.32 5 8 C4.01 8 3.02 8 2 8 C2 8.66 2 9.32 2 10 C-0.97 9.505 -0.97 9.505 -4 9 C-3.67 7.02 -3.34 5.04 -3 3 C-2.01 3 -1.02 3 0 3 C0 2.01 0 1.02 0 0 Z " fill="#2968B0" transform="translate(612,115)"/>
<path d="M0 0 C0.66 0.33 1.32 0.66 2 1 C1.54109375 1.49628906 1.0821875 1.99257813 0.609375 2.50390625 C-3.25719293 6.78474931 -6.33517615 10.88353821 -9 16 C-11.04119788 14.38405168 -13.04072937 12.7143618 -15 11 C-15 10.34 -15 9.68 -15 9 C-14.28457031 9.26683594 -13.56914062 9.53367187 -12.83203125 9.80859375 C-9.80826595 10.32935482 -9.80826595 10.32935482 -7.32421875 7.91015625 C-6.45410156 6.97042969 -5.58398438 6.03070313 -4.6875 5.0625 C-3.36298828 3.65677734 -3.36298828 3.65677734 -2.01171875 2.22265625 C-1.34785156 1.48917969 -0.68398438 0.75570313 0 0 Z " fill="#D1E8D9" transform="translate(275,271)"/>
<path d="M0 0 C0.99 0.33 1.98 0.66 3 1 C2.38125 1.2475 1.7625 1.495 1.125 1.75 C-1.44108223 3.25946014 -1.74933735 4.34707922 -3 7 C-3.85898429 8.42643452 -4.73408294 9.84328886 -5.625 11.25 C-6.07101562 11.95640625 -6.51703125 12.6628125 -6.9765625 13.390625 C-7.48316406 14.18726563 -7.48316406 14.18726563 -8 15 C-10.99693138 14.00102287 -12.02709413 13.34869747 -14 11 C-14 10.34 -14 9.68 -14 9 C-11.525 9.495 -11.525 9.495 -9 10 C-8.51789062 9.44570312 -8.03578125 8.89140625 -7.5390625 8.3203125 C-6.59160156 7.23363281 -6.59160156 7.23363281 -5.625 6.125 C-4.99851562 5.40570313 -4.37203125 4.68640625 -3.7265625 3.9453125 C-2.52573166 2.5923402 -1.2791655 1.2791655 0 0 Z " fill="#D3E9DB" transform="translate(550,196)"/>
<path d="M0 0 C0.103125 0.639375 0.20625 1.27875 0.3125 1.9375 C0.539375 2.618125 0.76625 3.29875 1 4 C1.99 4.33 2.98 4.66 4 5 C4 6.32 4 7.64 4 9 C3.01 9 2.02 9 1 9 C1 9.66 1 10.32 1 11 C0.01 11 -0.98 11 -2 11 C-2 10.34 -2 9.68 -2 9 C-2.99 8.67 -3.98 8.34 -5 8 C-4.67 6.68 -4.34 5.36 -4 4 C-3.01 4 -2.02 4 -1 4 C-0.67 2.68 -0.34 1.36 0 0 Z " fill="#2A6CB4" transform="translate(601,114)"/>
<path d="M0 0 C1.4540625 0.0309375 1.4540625 0.0309375 2.9375 0.0625 C3.5625 2.4375 3.5625 2.4375 3.9375 5.0625 C3.2775 5.7225 2.6175 6.3825 1.9375 7.0625 C-0.6875 6.6875 -0.6875 6.6875 -3.0625 6.0625 C-3.44468767 4.40635343 -3.77645102 2.73792976 -4.0625 1.0625 C-3.0625 0.0625 -3.0625 0.0625 0 0 Z " fill="#E5E6EB" transform="translate(459.0625,41.9375)"/>
<path d="M0 0 C0.125 2.375 0.125 2.375 0 5 C-0.66 5.66 -1.32 6.32 -2 7 C-4.625 6.625 -4.625 6.625 -7 6 C-7.33 4.35 -7.66 2.7 -8 1 C-5.29120665 -0.35439668 -2.99066732 -0.06501451 0 0 Z " fill="#D3D8E3" transform="translate(318,42)"/>
<path d="M0 0 C1.67542976 0.28604898 3.34385343 0.61781233 5 1 C5 2.65 5 4.3 5 6 C3.02 6.99 3.02 6.99 1 8 C0.01 7.34 -0.98 6.68 -2 6 C-1.125 1.125 -1.125 1.125 0 0 Z " fill="#D6DBE5" transform="translate(491,232)"/>
<path d="M0 0 C9.9389332 -0.6168993 9.9389332 -0.6168993 13.6875 1.5625 C15.44312908 4.822954 15.28027248 7.35645778 15 11 C14.443125 10.2575 13.88625 9.515 13.3125 8.75 C9.28540014 3.96101638 6.33450669 1.58925644 0 1 C0 0.67 0 0.34 0 0 Z " fill="#82838C" transform="translate(134,312)"/>
<path d="M0 0 C2.625 0.375 2.625 0.375 5 1 C5.042721 2.66611905 5.04063832 4.33382885 5 6 C4 7 4 7 1.4375 7.0625 C0.2309375 7.0315625 0.2309375 7.0315625 -1 7 C-1.625 4.625 -1.625 4.625 -2 2 C-1.34 1.34 -0.68 0.68 0 0 Z " fill="#D9DDE6" transform="translate(277,232)"/>
<path d="M0 0 C1.32 0.33 2.64 0.66 4 1 C4 3.97 4 6.94 4 10 C2.68 10.33 1.36 10.66 0 11 C0 7.37 0 3.74 0 0 Z " fill="#F2F4F9" transform="translate(382,145)"/>
<path d="M0 0 C2.125 0.375 2.125 0.375 4 1 C4.38218767 2.65614657 4.71395102 4.32457024 5 6 C4 7 4 7 1.4375 7.0625 C0.2309375 7.0315625 0.2309375 7.0315625 -1 7 C-1.625 4.625 -1.625 4.625 -2 2 C-1.34 1.34 -0.68 0.68 0 0 Z " fill="#DEE1E8" transform="translate(385,341)"/>
<path d="M0 0 C1.2065625 0.0309375 1.2065625 0.0309375 2.4375 0.0625 C3.0625 2.4375 3.0625 2.4375 3.4375 5.0625 C2.7775 5.7225 2.1175 6.3825 1.4375 7.0625 C-0.6875 6.6875 -0.6875 6.6875 -2.5625 6.0625 C-2.94468767 4.40635343 -3.27645102 2.73792976 -3.5625 1.0625 C-2.5625 0.0625 -2.5625 0.0625 0 0 Z " fill="#DFE2E8" transform="translate(521.5625,99.9375)"/>
<path d="M0 0 C1.4540625 0.0309375 1.4540625 0.0309375 2.9375 0.0625 C2.980221 1.72861905 2.97813832 3.39632885 2.9375 5.0625 C1.9375 6.0625 1.9375 6.0625 -0.625 6.125 C-1.8315625 6.0940625 -1.8315625 6.0940625 -3.0625 6.0625 C-3.44468767 4.40635343 -3.77645102 2.73792976 -4.0625 1.0625 C-3.0625 0.0625 -3.0625 0.0625 0 0 Z " fill="#DDDFE7" transform="translate(249.0625,99.9375)"/>
<path d="M0 0 C6.93 0 13.86 0 21 0 C21 1.32 21 2.64 21 4 C18.69 4 16.38 4 14 4 C14 3.34 14 2.68 14 2 C7.07 1.505 7.07 1.505 0 1 C0 0.67 0 0.34 0 0 Z " fill="#B8B8B8" transform="translate(232,293)"/>
<path d="M0 0 C0.33 0 0.66 0 1 0 C1.63019694 10.15317287 1.63019694 10.15317287 -1 13.6875 C-1.66 14.120625 -2.32 14.55375 -3 15 C-3.99 14.67 -4.98 14.34 -6 14 C-6 13.34 -6 12.68 -6 12 C-5.38125 11.46375 -4.7625 10.9275 -4.125 10.375 C-1.18707456 7.09143627 -0.85841365 4.29206826 0 0 Z " fill="#848792" transform="translate(199,227)"/>
<path d="M0 0 C1.12664062 0.02255859 2.25328125 0.04511719 3.4140625 0.06835938 C6.19405232 0.12725746 8.97135332 0.20945799 11.75 0.3125 C11.75 0.6425 11.75 0.9725 11.75 1.3125 C11.10450195 1.3218457 10.45900391 1.33119141 9.79394531 1.34082031 C6.86186056 1.39459101 3.93135992 1.4782234 1 1.5625 C-0.52367187 1.58376953 -0.52367187 1.58376953 -2.078125 1.60546875 C-7.932146 1.68241535 -7.932146 1.68241535 -12.953125 4.359375 C-13.38109375 5.00390625 -13.8090625 5.6484375 -14.25 6.3125 C-14.91 5.9825 -15.57 5.6525 -16.25 5.3125 C-12.78919693 -1.64196187 -6.78178821 -0.25569387 0 0 Z " fill="#E8EAEF" transform="translate(493.25,278.6875)"/>
<path d="M0 0 C1.67542976 0.28604898 3.34385343 0.61781233 5 1 C5 2.65 5 4.3 5 6 C3.35 6 1.7 6 0 6 C-0.38218767 4.34385343 -0.71395102 2.67542976 -1 1 C-0.67 0.67 -0.34 0.34 0 0 Z " fill="#9EA9B7" transform="translate(265,346)"/>
<path d="M0 0 C0.99 0.33 1.98 0.66 3 1 C1.35 4.63 -0.3 8.26 -2 12 C-2.33 12 -2.66 12 -3 12 C-3.2954439 6.97745369 -2.98514628 4.10457614 0 0 Z " fill="#7A7E8C" transform="translate(179,222)"/>
<path d="M0 0 C2.97 0 5.94 0 9 0 C9.33 0.99 9.66 1.98 10 3 C6.7 3 3.4 3 0 3 C0 2.01 0 1.02 0 0 Z " fill="#2A6AB2" transform="translate(620,122)"/>
<path d="M0 0 C1.22589844 0.01353516 1.22589844 0.01353516 2.4765625 0.02734375 C3.41628906 0.04474609 3.41628906 0.04474609 4.375 0.0625 C3.385 1.5475 3.385 1.5475 2.375 3.0625 C-0.4453125 3.57421875 -0.4453125 3.57421875 -3.75 3.75 C-5.39355469 3.84861328 -5.39355469 3.84861328 -7.0703125 3.94921875 C-7.91335937 3.98660156 -8.75640625 4.02398437 -9.625 4.0625 C-6.41036203 0.70174212 -4.65285589 -0.06646937 0 0 Z " fill="#898D9A" transform="translate(137.625,310.9375)"/>
<path d="M0 0 C0.66 0.33 1.32 0.66 2 1 C1.54625 1.4125 1.0925 1.825 0.625 2.25 C-1.10274711 3.91951012 -1.10274711 3.91951012 -1.9375 6.125 C-3 8 -3 8 -5.125 8.75 C-6.053125 8.87375 -6.053125 8.87375 -7 9 C-6.875 6.75 -6.875 6.75 -6 4 C-2.9375 1.6875 -2.9375 1.6875 0 0 Z " fill="#D2E0EE" transform="translate(417,236)"/>
<path d="M0 0 C7.26 0 14.52 0 22 0 C21.67 0.99 21.34 1.98 21 3 C20.34 2.67 19.68 2.34 19 2 C17.5534758 1.84932786 16.1012066 1.75138964 14.6484375 1.68359375 C13.37226563 1.62075195 13.37226563 1.62075195 12.0703125 1.55664062 C11.18085938 1.51732422 10.29140625 1.47800781 9.375 1.4375 C8.4778125 1.39431641 7.580625 1.35113281 6.65625 1.30664062 C4.43765717 1.20043139 2.2189512 1.09838806 0 1 C0 0.67 0 0.34 0 0 Z " fill="#229F52" transform="translate(257,269)"/>
<path d="M0 0 C0.556875 0.7115625 0.556875 0.7115625 1.125 1.4375 C3.62646962 3.52205802 5.81593418 3.64621491 9 4 C9 4.33 9 4.66 9 5 C7.71254964 5.38922918 6.41980403 5.76098036 5.125 6.125 C4.04605469 6.43824219 4.04605469 6.43824219 2.9453125 6.7578125 C2.30335938 6.83773438 1.66140625 6.91765625 1 7 C0.34 6.34 -0.32 5.68 -1 5 C-0.625 2.375 -0.625 2.375 0 0 Z " fill="#DFDFDF" transform="translate(131,325)"/>
<path d="M0 0 C0.05395478 1.62463842 0.09277195 3.24978541 0.125 4.875 C0.14820313 5.77992188 0.17140625 6.68484375 0.1953125 7.6171875 C0 10 0 10 -2 12 C-2.33 8.37 -2.66 4.74 -3 1 C-1 0 -1 0 0 0 Z " fill="#8A8EA0" transform="translate(150,319)"/>
<path d="M0 0 C0.99 0 1.98 0 3 0 C3 2.64 3 5.28 3 8 C2.01 8 1.02 8 0 8 C0 5.36 0 2.72 0 0 Z " fill="#FBFCFD" transform="translate(383,127)"/>
<path d="M0 0 C2.86724686 0.57344937 3.8614515 0.8614515 6 3 C6 4.32 6 5.64 6 7 C3.00675737 5.9024777 2.15389099 5.32317108 0.75 2.375 C0.5025 1.59125 0.255 0.8075 0 0 Z " fill="#F1F0F1" transform="translate(141,316)"/>
<path d="M0 0 C0.33 0 0.66 0 1 0 C1 3.3 1 6.6 1 10 C-0.32 10 -1.64 10 -3 10 C-2.01 6.7 -1.02 3.4 0 0 Z " fill="#ACAFB6" transform="translate(504,238)"/>
<path d="M0 0 C2.31 0 4.62 0 7 0 C7.33 0.99 7.66 1.98 8 3 C5.36 3 2.72 3 0 3 C0 2.01 0 1.02 0 0 Z " fill="#2A6BB2" transform="translate(146,187)"/>
<path d="M0 0 C-1.31224548 3.93673644 -2.91910327 6.22719294 -6 9 C-5.6875 5.625 -5.6875 5.625 -5 2 C-2 0 -2 0 0 0 Z " fill="#818286" transform="translate(132,314)"/>
<path d="M0 0 C2.0625 0.4375 2.0625 0.4375 4 1 C3.01 1.66 2.02 2.32 1 3 C0.41518879 5.88595946 0.41518879 5.88595946 0.3125 9.125 C0.24675781 10.22070312 0.18101562 11.31640625 0.11328125 12.4453125 C0.07589844 13.28835937 0.03851563 14.13140625 0 15 C-0.33 15 -0.66 15 -1 15 C-1.02685412 12.68756208 -1.04632841 10.3750373 -1.0625 8.0625 C-1.07410156 6.77472656 -1.08570313 5.48695313 -1.09765625 4.16015625 C-1 1 -1 1 0 0 Z " fill="#799DCC" transform="translate(352,241)"/>
<path d="M0 0 C0.33 0 0.66 0 1 0 C1 1.98 1 3.96 1 6 C0.01 6.495 0.01 6.495 -1 7 C-1.99 6.34 -2.98 5.68 -4 5 C-2.69254251 3.31295807 -1.35827971 1.64639965 0 0 Z " fill="#88878A" transform="translate(147,326)"/>
<path d="M0 0 C1.98 0 3.96 0 6 0 C6.33 1.65 6.66 3.3 7 5 C6.34 4.01 5.68 3.02 5 2 C2.13275314 2.57344937 1.1385485 2.8614515 -1 5 C-0.67 3.35 -0.34 1.7 0 0 Z " fill="#B5C0D6" transform="translate(456,42)"/>
<path d="M0 0 C1.32 0.33 2.64 0.66 4 1 C4 3.31 4 5.62 4 8 C0 3.375 0 3.375 0 0 Z " fill="#717085" transform="translate(145,315)"/>
<path d="M0 0 C0.33 0 0.66 0 1 0 C1 3.63 1 7.26 1 11 C0.01 10.67 -0.98 10.34 -2 10 C-1.34 6.7 -0.68 3.4 0 0 Z " fill="#787A80" transform="translate(199,227)"/>
<path d="M0 0 C0.99 0 1.98 0 3 0 C3 0.99 3 1.98 3 3 C2.01 3 1.02 3 0 3 C0 2.01 0 1.02 0 0 Z " fill="#B5B4B8" transform="translate(504,347)"/>
<path d="M0 0 C0.66 0 1.32 0 2 0 C1.67 0.99 1.34 1.98 1 3 C0.67 2.01 0.34 1.02 0 0 Z " fill="#BCB4B5" transform="translate(508,333)"/>
<path d="M0 0 C0.33 0.66 0.66 1.32 1 2 C0.01 1.67 -0.98 1.34 -2 1 C-1.34 0.67 -0.68 0.34 0 0 Z " fill="#C6BBB6" transform="translate(153,202)"/>
</svg>
