<?xml version="1.0" encoding="UTF-8"?>
<svg version="1.1" xmlns="http://www.w3.org/2000/svg" width="512" height="512">
<path d="M0 0 C1.58952308 -0.00571207 3.17904207 -0.01267956 4.76855469 -0.02079773 C9.05994635 -0.03865135 13.35113267 -0.03757559 17.64255023 -0.03185534 C21.23581459 -0.02875231 24.82904015 -0.03486825 28.42229897 -0.04089409 C36.90412446 -0.05491196 45.38584917 -0.05340075 53.86767578 -0.04199219 C62.59510554 -0.03051213 71.32222795 -0.04459097 80.04961723 -0.07138866 C87.56502479 -0.09359423 95.08033622 -0.10017217 102.59577423 -0.09431225 C107.07462529 -0.09095326 111.55327936 -0.0932871 116.03210258 -0.11056328 C120.24546854 -0.1261082 124.45838149 -0.12199396 128.67173004 -0.10325813 C130.21033458 -0.0995931 131.74897325 -0.10261929 133.28754616 -0.11314392 C144.78479109 -0.18573545 155.06429307 1.12112641 164.28735352 8.56030273 C170.34957575 14.80783307 173.20441455 21.58167426 173.19667053 30.16204834 C173.19873253 31.92464745 173.19873253 31.92464745 173.20083618 33.72285461 C173.19724091 35.00822617 173.19364563 36.29359772 173.18994141 37.61791992 C173.18965927 38.98795062 173.18981779 40.35798147 173.19038391 41.72801208 C173.19067085 45.44461209 173.18479073 49.16117983 173.17780995 52.87777233 C173.17155931 56.76285323 173.17097126 60.64793487 173.16978455 64.53302002 C173.16667628 71.88879035 173.15846969 79.24454582 173.14843506 86.60030961 C173.13725826 94.97508983 173.13175952 103.34987076 173.12673962 111.72465658 C173.11628667 128.95113056 173.09869698 146.17759008 173.07641602 163.40405273 C171.42641602 164.06405273 169.77641602 164.72405273 168.07641602 165.40405273 C168.07641602 183.55405273 168.07641602 201.70405273 168.07641602 220.40405273 C172.53141602 221.88905273 172.53141602 221.88905273 177.07641602 223.40405273 C180.57973433 224.67765649 184.04630252 226.03654319 187.51391602 227.40405273 C188.41045898 227.74694336 189.30700195 228.08983398 190.23071289 228.44311523 C191.08600586 228.78084961 191.94129883 229.11858398 192.82250977 229.46655273 C193.97771118 229.91708008 193.97771118 229.91708008 195.15625 230.37670898 C197.07641602 231.40405273 197.07641602 231.40405273 199.07641602 234.40405273 C199.33647823 236.43752575 199.33647823 236.43752575 199.35057068 238.81108093 C199.36054581 239.71237228 199.37052094 240.61366364 199.38079834 241.54226685 C199.38146301 242.52879242 199.38212769 243.51531799 199.3828125 244.53173828 C199.39113602 245.57271164 199.39945953 246.613685 199.40803528 247.686203 C199.43218782 251.13776359 199.440915 254.58913527 199.44750977 258.04077148 C199.4564739 260.43870603 199.46559571 262.83663999 199.47486877 265.23457336 C199.49137688 270.26756144 199.4990619 275.30048287 199.50195312 280.33349609 C199.50733084 286.77529412 199.54497877 293.21646326 199.59069729 299.65808392 C199.62048046 304.61414357 199.62767701 309.57005226 199.62867928 314.52619362 C199.63288101 316.90040776 199.64531331 319.27462238 199.66619682 321.6487484 C199.69312837 324.97609607 199.6882787 328.30199259 199.67578125 331.62939453 C199.69803268 333.09400116 199.69803268 333.09400116 199.72073364 334.5881958 C199.62587758 343.48142826 195.9530519 348.95392372 189.76391602 355.15405273 C177.0239259 367.42771818 161.72047876 376.92091897 146.94897461 386.51977539 C144.99681011 387.80031301 143.06256157 389.10849833 141.14526367 390.44067383 C137.23357906 393.09762937 134.10269588 395.18642396 129.44750977 396.17358398 C124.6668534 395.08228699 121.17428928 392.81328585 117.13891602 390.09155273 C116.31351318 389.55191895 115.48811035 389.01228516 114.63769531 388.45629883 C112.10419202 386.79094623 109.58839124 385.10166819 107.07641602 383.40405273 C105.93269531 382.63617432 105.93269531 382.63617432 104.76586914 381.8527832 C101.39176891 379.58221398 98.02992726 377.29450615 94.68969727 374.97436523 C94.12464478 374.58851761 93.55959229 374.20266998 92.97741699 373.80513 C91.07641602 372.40405273 91.07641602 372.40405273 89.48057556 370.86608887 C83.23651802 365.16873842 76.72706132 365.55793429 68.65454102 365.67749023 C67.26308189 365.67852933 65.87161981 365.67748661 64.48016357 365.67446899 C61.57836506 365.67464753 58.67768854 365.69532219 55.77612305 365.73168945 C52.06126991 365.77723539 48.34804027 365.77811338 44.63298416 365.76465416 C41.76580415 365.75796827 38.8989932 365.77124289 36.03188324 365.79091263 C34.66199423 365.79859362 33.29206413 365.80092258 31.92215729 365.79774094 C30.01026647 365.79699785 28.09843087 365.82523141 26.18676758 365.85473633 C25.10059143 365.86395111 24.01441528 365.87316589 22.89532471 365.88265991 C19.42497145 366.52454565 18.40698529 367.84702244 16.07641602 370.40405273 C12.84350586 370.90576172 12.84350586 370.90576172 9.03735352 370.90014648 C8.3564566 370.90160172 7.67555969 370.90305695 6.97402954 370.90455627 C5.53334273 370.90289922 4.09263788 370.89135926 2.65209961 370.87060547 C0.47894268 370.84191613 -1.69172949 370.84994518 -3.86499023 370.86303711 C-14.88099586 370.84745588 -24.20535272 369.77944627 -32.88061523 362.48608398 C-41.80442091 353.39165105 -43.15866351 343.27268379 -43.10375977 331.02294922 C-43.08555176 329.64308838 -43.06734375 328.26322754 -43.04858398 326.84155273 C-43.00733398 322.40717773 -42.96608398 317.97280273 -42.92358398 313.40405273 C-56.12358398 313.40405273 -69.32358398 313.40405273 -82.92358398 313.40405273 C-83.25358398 314.72405273 -83.58358398 316.04405273 -83.92358398 317.40405273 C-87.25878897 319.62752272 -88.3023015 319.65493488 -92.19032288 319.65802002 C-93.82821274 319.66647949 -93.82821274 319.66647949 -95.49919128 319.67510986 C-96.69764175 319.6710614 -97.89609222 319.66701294 -99.13085938 319.6628418 C-100.39295227 319.66634644 -101.65504517 319.66985107 -102.9553833 319.67346191 C-106.42068155 319.68259143 -109.88586088 319.67903768 -113.35116124 319.67270374 C-116.98333255 319.66763896 -120.6154937 319.67233724 -124.24766541 319.67547607 C-130.35507023 319.67911757 -136.46242673 319.67431522 -142.56982422 319.66479492 C-149.61168507 319.65394408 -156.6534298 319.65741057 -163.69528776 319.66844773 C-169.75066619 319.67755622 -175.80600985 319.67878752 -181.86139292 319.67357039 C-185.47338568 319.6704658 -189.08532412 319.66999881 -192.69731331 319.67664337 C-196.73512633 319.68355147 -200.77274319 319.67394624 -204.81054688 319.6628418 C-205.99482773 319.66689026 -207.17910858 319.67093872 -208.39927673 319.67510986 C-219.99366511 319.61628976 -229.42421765 318.5403914 -238.09155273 310.35717773 C-244.7371501 303.33632806 -247.38571594 296.66765715 -247.32472229 287.11981201 C-247.33151896 286.32515069 -247.33831563 285.53048937 -247.34531826 284.71174741 C-247.36419045 282.06965852 -247.36185995 279.42803716 -247.359375 276.78588867 C-247.36835883 274.88301503 -247.37856851 272.98014683 -247.38990784 271.07728577 C-247.41634969 265.9221301 -247.42343888 260.76712394 -247.4253552 255.61190701 C-247.42749127 252.38685755 -247.4339029 249.1618458 -247.44184685 245.93680573 C-247.469582 234.67342222 -247.48185477 223.41014504 -247.47949219 212.14672852 C-247.4776908 201.66745581 -247.5093335 191.18864688 -247.55672318 180.70949149 C-247.59602388 171.69603169 -247.61204076 162.68272301 -247.61012596 153.66917825 C-247.60936312 148.29311823 -247.61779875 142.91747052 -247.64966011 137.54149628 C-247.67882951 132.48183276 -247.67885625 127.42297213 -247.65711021 122.36327934 C-247.65398812 120.51386013 -247.66096944 118.66438982 -247.67919159 116.81505775 C-247.78722838 105.08419901 -247.01394351 95.71401051 -239.15030766 86.27567673 C-230.52627669 77.8435674 -219.76540425 76.81266287 -208.23803711 76.91821289 C-206.90139393 76.91606162 -205.56475262 76.91217593 -204.2281189 76.90670776 C-200.63345361 76.89710162 -197.03929307 76.91220124 -193.4446888 76.93261385 C-189.67183214 76.95030259 -185.89898831 76.94665766 -182.12609863 76.94589233 C-175.80167279 76.9477584 -169.47744029 76.96503763 -163.15307617 76.99243164 C-155.84164998 77.02398401 -148.53043438 77.03442372 -141.21894503 77.03296053 C-133.4205476 77.03161077 -125.62223124 77.04547379 -117.82385826 77.06385374 C-115.5796363 77.06811561 -113.33542742 77.06953592 -111.09120178 77.07033157 C-106.91869127 77.07271034 -102.74643082 77.0921183 -98.57397461 77.11352539 C-96.70852493 77.11216583 -96.70852493 77.11216583 -94.8053894 77.11077881 C-93.10656113 77.12357376 -93.10656113 77.12357376 -91.37341309 77.1366272 C-89.89462551 77.14165473 -89.89462551 77.14165473 -88.38596344 77.14678383 C-85.92358398 77.40405273 -85.92358398 77.40405273 -82.92358398 79.40405273 C-82.92358398 80.39405273 -82.92358398 81.38405273 -82.92358398 82.40405273 C-69.72358398 82.40405273 -56.52358398 82.40405273 -42.92358398 82.40405273 C-42.94678711 78.6825293 -42.96999023 74.96100586 -42.99389648 71.12670898 C-43.0095161 67.50260763 -43.02164771 63.8785101 -43.03344727 60.25439453 C-43.04347409 57.74526273 -43.05709893 55.23614253 -43.07446289 52.72705078 C-43.09885716 49.11024098 -43.1101006 45.49358636 -43.11889648 41.87670898 C-43.12921906 40.76385025 -43.13954163 39.65099152 -43.150177 38.50440979 C-43.15184179 26.81800644 -41.35165568 16.95503211 -32.88061523 8.32202148 C-23.11232496 0.10974205 -12.24970703 -0.03996131 0 0 Z " fill="#31393F" transform="translate(292.923583984375,70.595947265625)"/>
<path d="M0 0 C64.35 0 128.7 0 195 0 C195.33 33 195.66 66 196 100 C197.32 100.66 198.64 101.32 200 102 C200 120.48 200 138.96 200 158 C195.63511781 157.12702356 192.2659916 155.98475059 188.1953125 154.27734375 C186.87648873 153.7332713 185.5574722 153.18966593 184.23828125 152.64648438 C182.18018823 151.79356549 180.12385017 150.93701555 178.07080078 150.07202148 C176.07503439 149.23355067 174.0733535 148.41075577 172.0703125 147.58984375 C170.28778076 146.84528931 170.28778076 146.84528931 168.46923828 146.08569336 C162.23500409 144.13469832 157.44002769 144.87392231 151.45385742 147.26318359 C150.84157288 147.50381027 150.22928833 147.74443695 149.59844971 147.99235535 C147.59596913 148.78280944 145.60082139 149.59017782 143.60546875 150.3984375 C142.208147 150.95505173 140.8104611 151.51075259 139.41242981 152.06558228 C136.49370683 153.22679201 133.57831538 154.39587791 130.6652832 155.57128906 C126.92957349 157.07841388 123.1880108 158.57028894 119.44411755 160.05695152 C116.56254701 161.20217645 113.68322371 162.35295765 110.80465126 163.50569534 C109.42518862 164.05785892 108.04525494 164.6088472 106.66484642 165.15864182 C104.74077815 165.92648786 102.81962047 166.7011851 100.89916992 167.47802734 C99.80553635 167.91770844 98.71190277 168.35738953 97.58512878 168.81039429 C94.90713145 169.86169376 94.90713145 169.86169376 93 172 C92.78274551 174.52746141 92.68862421 176.94875779 92.68115234 179.47900391 C92.67110672 180.24982803 92.6610611 181.02065216 92.65071106 181.81483459 C92.6197615 184.36873614 92.60281149 186.92253232 92.5859375 189.4765625 C92.56723529 191.24491286 92.5476626 193.01325422 92.5272522 194.78158569 C92.47582479 199.4405792 92.43625602 204.09960169 92.39910889 208.75872803 C92.35211008 214.34635044 92.29046701 219.93382794 92.23126221 225.52133179 C92.1429207 234.01416304 92.07324906 242.50696471 92 251 C78.47 251 64.94 251 51 251 C50.01 249.02 50.01 249.02 49 247 C24.745 246.505 24.745 246.505 0 246 C0 164.82 0 83.64 0 0 Z " fill="#1C74BB" transform="translate(261,133)"/>
<path d="M0 0 C13.53 0 27.06 0 41 0 C41 59.4 41 118.8 41 180 C27.47 180 13.94 180 0 180 C-0.66 178.68 -1.32 177.36 -2 176 C-77.24 175.505 -77.24 175.505 -154 175 C-154.0825 149.92 -154.165 124.84 -154.25 99 C-154.28641602 91.08515625 -154.32283203 83.1703125 -154.36035156 75.015625 C-154.37841797 65.33984375 -154.37841797 65.33984375 -154.3817749 60.80810547 C-154.38549687 57.64750911 -154.40046783 54.48718234 -154.42230225 51.32666016 C-154.44981675 47.2902401 -154.45795041 43.2542099 -154.4522891 39.21770477 C-154.45347224 37.7394365 -154.46135842 36.26115407 -154.47686052 34.78296661 C-154.56912432 25.55357437 -154.33446549 18.8502752 -147.96484375 11.72265625 C-147.29582031 11.17480469 -146.62679687 10.62695312 -145.9375 10.0625 C-145.26589844 9.49660156 -144.59429687 8.93070313 -143.90234375 8.34765625 C-140.48443986 5.92634857 -137.55508381 5.875258 -133.49633789 5.87542725 C-132.35222443 5.87286423 -131.20811096 5.87030121 -130.02932739 5.86766052 C-128.14502518 5.87081017 -128.14502518 5.87081017 -126.22265625 5.87402344 C-124.88719625 5.87262858 -123.5517367 5.87072921 -122.21627808 5.86836243 C-119.34013514 5.86386628 -116.46400647 5.86200936 -113.58786011 5.86190033 C-109.04169085 5.86076051 -104.49560289 5.84792697 -99.94946289 5.83233643 C-98.79893448 5.82847715 -98.79893448 5.82847715 -97.62516308 5.8245399 C-96.05680841 5.81927348 -94.4884538 5.813988 -92.92009926 5.80868387 C-82.33571746 5.77355448 -71.75143713 5.74702573 -61.16699219 5.74951172 C-54.02745149 5.75109845 -46.88818811 5.73511077 -39.74873638 5.69880509 C-35.96972835 5.68031612 -32.19118353 5.67102751 -28.41213989 5.68328094 C-24.85945917 5.69468926 -21.30760917 5.68308271 -17.75503922 5.65364647 C-15.82692964 5.64380771 -13.89874377 5.65880343 -11.97067261 5.67445374 C-10.82655914 5.66061142 -9.68244568 5.6467691 -8.50366211 5.63250732 C-7.50741318 5.63104076 -6.51116425 5.6295742 -5.48472595 5.6280632 C-2.27757285 5.12811702 -2.27757285 5.12811702 0 0 Z " fill="#4EB7BE" transform="translate(210,153)"/>
<path d="M0 0 C1.1007637 0.44038101 2.2015274 0.88076202 3.33564758 1.33448792 C4.51289902 1.81054977 5.69015045 2.28661163 6.90307617 2.77709961 C8.72363777 3.50744667 8.72363777 3.50744667 10.58097839 4.25254822 C13.79645493 5.54254384 17.00982583 6.83770514 20.22277832 8.13397217 C23.50622526 9.45760854 26.79164746 10.77632276 30.0769043 12.09545898 C36.51438722 14.68115389 42.94965794 17.27231422 49.38354492 19.86694336 C49.59247448 32.86268826 49.75219234 45.85803085 49.84985447 58.85511589 C49.89673857 64.89091368 49.96028589 70.92555888 50.0625 76.96069336 C50.16060266 82.78983943 50.21416854 88.61788009 50.23744011 94.44778824 C50.25401435 96.6669873 50.28638171 98.88612877 50.33511543 101.10485458 C50.74763447 120.67174998 50.74763447 120.67174998 45.01733398 127.1418457 C42.61627197 129.22958374 42.61627197 129.22958374 40.38354492 130.86694336 C39.84735535 131.34177155 39.31116577 131.81659973 38.75872803 132.30581665 C37.42550115 133.48446016 35.99872462 134.5546698 34.57104492 135.61694336 C34.04099854 136.01268555 33.51095215 136.40842773 32.96484375 136.81616211 C31.1162237 138.1834708 29.25225072 139.52721945 27.38354492 140.86694336 C26.63073242 141.40899414 25.87791992 141.95104492 25.10229492 142.50952148 C14.1168757 150.38768671 2.9437255 157.8597948 -8.61645508 164.86694336 C-25.89364603 156.3642359 -58.65054698 138.79875955 -67.61645508 120.86694336 C-67.70794514 119.51114887 -67.73839555 118.15096058 -67.73670959 116.79208374 C-67.73808426 115.93950485 -67.73945892 115.08692596 -67.74087524 114.20851135 C-67.73727997 113.27127731 -67.73368469 112.33404327 -67.72998047 111.3684082 C-67.7301265 110.38300552 -67.73027252 109.39760284 -67.73042297 108.38233948 C-67.72972441 105.11416447 -67.72193463 101.84604595 -67.71411133 98.57788086 C-67.71224695 96.31629467 -67.71082314 94.05470808 -67.70982361 91.79312134 C-67.706 85.83201997 -67.69617104 79.87094284 -67.68511963 73.90985107 C-67.67490214 67.83044767 -67.67032526 61.75104037 -67.6652832 55.67163086 C-67.65454865 43.73672435 -67.63747409 31.80183587 -67.61645508 19.86694336 C-60.27715003 16.83551299 -52.93227146 13.81819183 -45.57988453 10.81864834 C-42.16594261 9.42535382 -38.75411446 8.02730585 -35.34667969 6.61816406 C-32.05744493 5.25811166 -28.76323705 3.9108501 -25.46521568 2.57225227 C-24.20868701 2.05966191 -22.95400863 1.54251118 -21.70127296 1.02071953 C-19.94466486 0.28996975 -18.18070501 -0.42303082 -16.41650391 -1.13525391 C-15.41500809 -1.54606705 -14.41351227 -1.95688019 -13.38166809 -2.38014221 C-8.43755365 -3.72632968 -4.60976069 -1.85450143 0 0 Z " fill="#50B93A" transform="translate(431.616455078125,290.133056640625)"/>
<path d="M0 0 C1.33664317 -0.00215127 2.67328449 -0.00603696 4.00991821 -0.01150513 C7.6045835 -0.02111127 11.19874404 -0.00601165 14.79334831 0.01440096 C18.56620497 0.0320897 22.3390488 0.02844477 26.11193848 0.02767944 C32.43636432 0.02954551 38.76059682 0.04682474 45.08496094 0.07421875 C52.39638713 0.10577112 59.70760273 0.11621083 67.01909208 0.11474764 C74.8174895 0.11339788 82.61580587 0.1272609 90.41417885 0.14564085 C92.65840081 0.14990272 94.90260969 0.15132303 97.14683533 0.15211868 C101.31934584 0.15449745 105.49160629 0.17390541 109.6640625 0.1953125 C111.52951218 0.19395294 111.52951218 0.19395294 113.43264771 0.19256592 C115.13147598 0.20536087 115.13147598 0.20536087 116.86462402 0.21841431 C118.3434116 0.22344184 118.3434116 0.22344184 119.85207367 0.22857094 C122.31445313 0.48583984 122.31445313 0.48583984 125.31445312 2.48583984 C124.56445312 9.23583984 124.56445312 9.23583984 122.31445312 11.48583984 C119.96394825 11.73637962 119.96394825 11.73637962 116.95796204 11.73739624 C115.82100388 11.74277908 114.68404572 11.74816193 113.51263428 11.75370789 C112.2591217 11.74958389 111.00560913 11.7454599 109.71411133 11.74121094 C107.69467668 11.74676858 105.67524204 11.75233055 103.65580785 11.75805497 C101.4806259 11.76240136 99.30548953 11.76192339 97.13030434 11.76023483 C92.59569027 11.75740526 88.06123248 11.77174177 83.5266571 11.78921509 C70.63050706 11.83627164 57.73436681 11.86017333 44.83813477 11.86669922 C37.71874396 11.87045398 30.59952919 11.88851993 23.48021382 11.92179358 C18.97609172 11.94198317 14.47242447 11.94438952 9.96827567 11.9335134 C7.15881231 11.93089926 4.34961153 11.94494501 1.54021645 11.96359444 C-0.37520951 11.97142213 -2.29068462 11.95950405 -4.20608521 11.94691467 C-11.88674883 12.02046449 -16.55372774 12.78894904 -22.39257812 18.01318359 C-26.52203532 23.28079507 -27.93118059 27.22375593 -27.96401978 33.89558411 C-27.97518326 35.189823 -27.98634674 36.48406189 -27.99784851 37.81752014 C-28.00021326 39.24447603 -28.00238895 40.67143224 -28.00439453 42.09838867 C-28.01369633 43.60650163 -28.02386538 45.11460944 -28.03483582 46.62271118 C-28.06212156 50.7111168 -28.07728099 54.79948798 -28.09026384 58.88796067 C-28.10590061 63.16278927 -28.1326891 67.43754763 -28.15829468 71.71232605 C-28.20507278 79.80468163 -28.24182158 87.89705044 -28.27496755 95.98947209 C-28.31319577 105.20348275 -28.36260411 114.41742284 -28.41295171 123.631374 C-28.51625716 142.58281096 -28.60552208 161.534291 -28.68554688 180.48583984 C-27.90402315 180.48307446 -27.12249943 180.48030909 -26.31729317 180.47745991 C-7.32293604 180.41127865 11.67139815 180.36159763 30.66584587 180.33040333 C39.85132862 180.314918 49.03673453 180.29379679 58.22216797 180.25952148 C66.22586813 180.22966997 74.22951267 180.21027697 82.23326695 180.20357436 C86.47331891 180.19965486 90.71321168 180.19040922 94.95321274 180.16864967 C98.9406075 180.14835146 102.92777684 180.14199242 106.91521835 180.1465168 C108.38181786 180.14568859 109.84842458 180.13968324 111.31497955 180.12822342 C113.31107692 180.11338528 115.30729409 180.11865352 117.30343628 180.12507629 C118.42249296 180.12231091 119.54154964 180.11954554 120.69451714 180.11669636 C121.99138545 180.29942238 121.99138545 180.29942238 123.31445312 180.48583984 C125.31445312 183.48583984 125.31445312 183.48583984 125.06445312 186.04833984 C124.31445312 188.48583984 124.31445312 188.48583984 122.31445312 190.48583984 C119.71013451 190.7319355 119.71013451 190.7319355 116.34140015 190.72634888 C115.06811356 190.72909821 113.79482697 190.73184753 112.48295593 190.73468018 C111.06399443 190.7276014 109.64503387 190.72033178 108.22607422 190.71289062 C106.73811348 190.71232673 105.25015219 190.71264264 103.76219177 190.71377563 C99.71487019 190.71435102 95.66766642 190.70256679 91.6203723 190.68862772 C87.39361889 190.67615119 83.16686298 190.6749523 78.94009399 190.6725769 C70.93258426 190.66635306 62.92512893 190.64993005 54.91764319 190.62987792 C45.80290483 190.60754701 36.68816392 190.59653257 27.57340503 190.58648705 C8.82039018 190.56556458 -9.93257398 190.53037108 -28.68554688 190.48583984 C-28.60387587 194.15336413 -28.49110612 197.81932077 -28.37304688 201.48583984 C-28.35048828 202.51580078 -28.32792969 203.54576172 -28.3046875 204.60693359 C-28.00855001 213.06031279 -26.82052961 220.17041644 -20.68554688 226.48583984 C-15.69337486 230.06996334 -11.08825439 230.60801034 -5.05526733 230.62387085 C-3.933647 230.62932419 -2.81202667 230.63477753 -1.65641785 230.64039612 C0.17502022 230.64195961 0.17502022 230.64195961 2.04345703 230.64355469 C4.02834651 230.6513533 6.01323598 230.65915598 7.99812484 230.66711259 C10.12623701 230.67481237 12.25434494 230.6802026 14.38246536 230.68507004 C18.81958191 230.6957716 23.25662284 230.71601958 27.69369507 230.7381897 C40.30878253 230.80004997 52.92386405 230.85419117 65.5390625 230.88720703 C72.51083453 230.90553296 79.48247841 230.93443646 86.45415628 230.97521174 C90.14248071 230.99630305 93.8306436 231.01174211 97.51903152 231.01401901 C101.62761432 231.01655866 105.73574576 231.04198481 109.84423828 231.06933594 C111.68174904 231.06482674 111.68174904 231.06482674 113.55638123 231.06022644 C114.67236191 231.07131943 115.78834259 231.08241241 116.93814087 231.09384155 C117.90966913 231.0971517 118.8811974 231.10046185 119.88216591 231.1038723 C122.73275842 231.55153071 123.63019351 232.17891892 125.31445312 234.48583984 C125.75195312 236.98583984 125.75195312 236.98583984 125.31445312 239.48583984 C122.27329706 242.42303322 120.08635896 242.86079648 115.92745972 242.86006165 C114.83415848 242.86707596 113.74085724 242.87409027 112.61442566 242.88131714 C111.41957047 242.8736734 110.22471527 242.86602966 108.99365234 242.8581543 C107.73141342 242.86180496 106.4691745 242.86545563 105.16868591 242.86921692 C101.7075162 242.87862183 98.24662954 242.86920096 94.78548193 242.85588479 C91.15598868 242.84455288 87.52650903 242.84867953 83.89700317 242.85063171 C77.79554641 242.85151482 71.69420069 242.8404366 65.59277344 242.82202148 C58.55826984 242.80091046 51.52392958 242.79733178 44.48940074 242.80358344 C37.70735021 242.80930039 30.92535668 242.80360043 24.14331436 242.7924099 C21.26558493 242.78778884 18.38789065 242.78687927 15.51015854 242.78899574 C11.47722752 242.79124815 7.44452023 242.77669276 3.41162109 242.76049805 C1.63755638 242.76421417 1.63755638 242.76421417 -0.17234802 242.76800537 C-11.7604685 242.69405642 -21.19051376 241.61808732 -29.85351562 233.43896484 C-36.49911299 226.41811517 -39.14767883 219.74944426 -39.08668518 210.20159912 C-39.09348185 209.4069378 -39.10027852 208.61227648 -39.10728115 207.79353452 C-39.12615334 205.15144563 -39.12382284 202.50982427 -39.12133789 199.86767578 C-39.13032172 197.96480214 -39.1405314 196.06193394 -39.15187073 194.15907288 C-39.17831258 189.00391721 -39.18540177 183.84891105 -39.18731809 178.69369411 C-39.18945416 175.46864466 -39.19586579 172.24363291 -39.20380974 169.01859283 C-39.23154489 157.75520933 -39.24381766 146.49193215 -39.24145508 135.22851562 C-39.23965369 124.74924292 -39.27129639 114.27043399 -39.31868607 103.7912786 C-39.35798677 94.7778188 -39.37400365 85.76451012 -39.37208885 76.75096536 C-39.37132601 71.37490534 -39.37976164 65.99925763 -39.411623 60.62328339 C-39.4407924 55.56361987 -39.44081914 50.50475924 -39.4190731 45.44506645 C-39.41595101 43.59564724 -39.42293233 41.74617693 -39.44115448 39.89684486 C-39.54919127 28.16598612 -38.7759064 18.79579762 -30.91227055 9.35746384 C-22.28823958 0.92535451 -11.52736714 -0.10555002 0 0 Z " fill="#313A3F" transform="translate(84.685546875,147.51416015625)"/>
<path d="M0 0 C4.17430776 0.83486155 7.56116644 1.87673141 11.49609375 3.40625 C12.11830307 3.64707809 12.74051239 3.88790619 13.38157654 4.1360321 C15.40194581 4.91965868 17.41981001 5.70950293 19.4375 6.5 C20.8288993 7.04217495 22.22033838 7.58424782 23.61181641 8.1262207 C32.05605895 11.42229298 40.47995575 14.76784906 48.875 18.1875 C49.79466553 18.56132812 50.71433105 18.93515625 51.66186523 19.3203125 C52.49274658 19.66191406 53.32362793 20.00351562 54.1796875 20.35546875 C54.89882324 20.65090576 55.61795898 20.94634277 56.35888672 21.25073242 C58 22 58 22 59 23 C59.14318575 25.83779663 59.22113214 28.65204914 59.25634766 31.49194336 C59.27095032 32.38310852 59.28555298 33.27427368 59.30059814 34.19244385 C59.42692445 42.44141015 59.4954248 50.69136028 59.54844093 58.94109249 C59.58415089 64.48366345 59.63731059 70.0247768 59.73388672 75.56665039 C59.82696588 80.92368854 59.87540516 86.27943841 59.89283371 91.63723946 C59.9068899 93.67500987 59.93644319 95.7127373 59.98213577 97.75004387 C60.36474121 115.69451153 60.36474121 115.69451153 54.6315918 122.16333008 C52.23149109 124.29988098 52.23149109 124.29988098 50 126 C49.46385574 126.47712936 48.92771149 126.95425873 48.37532043 127.44584656 C47.03978063 128.61974182 45.61405265 129.68856502 44.1875 130.75 C43.65745361 131.14574219 43.12740723 131.54148437 42.58129883 131.94921875 C40.73267877 133.31652744 38.8687058 134.66027609 37 136 C35.87078125 136.81307617 35.87078125 136.81307617 34.71875 137.64257812 C3.54326117 160 3.54326117 160 0 160 C-0.06956643 151.35067917 -0.12284485 142.70145492 -0.15543652 134.05191517 C-0.17108035 130.03540464 -0.19229492 126.01908578 -0.22631836 122.00268555 C-0.25895797 118.12529814 -0.27686267 114.24809488 -0.28463173 110.37058067 C-0.29016701 108.89261667 -0.30097619 107.41466254 -0.31719017 105.93677711 C-0.33902641 103.86363718 -0.34196446 101.79125436 -0.34057617 99.71801758 C-0.34723801 98.53887283 -0.35389984 97.35972809 -0.36076355 96.14485168 C0.23732015 90.93123034 2.88017497 87.85553759 6.5534668 84.29882812 C7.25396652 83.61461792 7.95446625 82.93040771 8.67619324 82.22546387 C9.42629166 81.50137329 10.17639008 80.77728271 10.94921875 80.03125 C12.53492574 78.47568898 14.12019932 76.91968606 15.70507812 75.36328125 C18.20203144 72.92224274 20.70266775 70.48531206 23.21118164 68.05615234 C25.6349625 65.70474086 28.0429571 63.33806779 30.44921875 60.96875 C31.20538986 60.24465942 31.96156097 59.52056885 32.74064636 58.77453613 C33.43168961 58.09032593 34.12273285 57.40611572 34.8347168 56.70117188 C35.44743942 56.10558472 36.06016205 55.50999756 36.69145203 54.8963623 C38.37636992 52.45456052 38.32456614 50.90638979 38 48 C36.91712973 46.72539244 36.91712973 46.72539244 34.36621094 46.54101562 C29.46304194 47.20956492 27.44222804 49.83622137 24.140625 53.34375 C23.19494659 54.30927795 23.19494659 54.30927795 22.23016357 55.29431152 C20.22207402 57.34916166 18.23542247 59.42326059 16.25 61.5 C14.24693474 63.57311257 12.23967389 65.64191336 10.22698975 67.70568848 C8.97631567 68.99041227 7.73186302 70.28122669 6.49420166 71.57849121 C5.0338172 73.08967484 3.52146363 74.55032861 2 76 C1.34 76 0.68 76 0 76 C0 50.92 0 25.84 0 0 Z " fill="#46A32F" transform="translate(422,295)"/>
<path d="M0 0 C0.67665207 0.28143356 1.35330414 0.56286713 2.05046082 0.85282898 C4.19886988 1.74839512 6.33985443 2.66019698 8.48046875 3.57421875 C11.29666732 4.76459054 14.11582828 5.94766279 16.9375 7.125 C17.61849762 7.40969147 18.29949524 7.69438293 19.00112915 7.98770142 C23.37455533 9.79294547 27.73560169 11.2776036 32.2878418 12.54760742 C37.03069261 13.97060861 41.58756154 15.89128292 46.16796875 17.76171875 C47.64910156 18.34759766 47.64910156 18.34759766 49.16015625 18.9453125 C50.10117187 19.32816406 51.0421875 19.71101563 52.01171875 20.10546875 C53.28305664 20.61883789 53.28305664 20.61883789 54.58007812 21.14257812 C56.66796875 22.26171875 56.66796875 22.26171875 58.66796875 25.26171875 C58.92803097 27.29519176 58.92803097 27.29519176 58.94212341 29.66874695 C58.95209854 30.5700383 58.96207367 31.47132965 58.97235107 32.39993286 C58.97301575 33.38645844 58.97368042 34.37298401 58.97436523 35.3894043 C58.98268875 36.43037766 58.99101227 37.47135101 58.99958801 38.54386902 C59.02374056 41.99542961 59.03246774 45.44680128 59.0390625 48.8984375 C59.04802664 51.29637205 59.05714844 53.69430601 59.06642151 56.09223938 C59.08292961 61.12522746 59.09061463 66.15814888 59.09350586 71.19116211 C59.09888358 77.63296014 59.13653151 84.07412928 59.18225002 90.51574993 C59.2120332 95.47180959 59.21922975 100.42771827 59.22023201 105.38385963 C59.22443375 107.75807378 59.23686605 110.1322884 59.25774956 112.50641441 C59.28468111 115.83376209 59.27983143 119.1596586 59.26733398 122.48706055 C59.28958542 123.95166718 59.28958542 123.95166718 59.31228638 125.44586182 C59.21743032 134.33909428 55.54460463 139.81158973 49.35546875 146.01171875 C36.61547863 158.2853842 21.31203149 167.77858498 6.54052734 177.37744141 C4.58836285 178.65797902 2.65411431 179.96616434 0.73681641 181.29833984 C-3.17486821 183.95529539 -6.30575138 186.04408997 -10.9609375 187.03125 C-15.74159386 185.93995301 -19.23415799 183.67095187 -23.26953125 180.94921875 C-24.09493408 180.40958496 -24.92033691 179.86995117 -25.77075195 179.31396484 C-28.30425524 177.64861224 -30.82005603 175.95933421 -33.33203125 174.26171875 C-34.09451172 173.7497998 -34.85699219 173.23788086 -35.64257812 172.71044922 C-39.01667836 170.43988 -42.37852001 168.15217217 -45.71875 165.83203125 C-46.56702362 165.25310875 -46.56702362 165.25310875 -47.43243408 164.66249084 C-49.33203125 163.26171875 -49.33203125 163.26171875 -50.91523743 161.72650146 C-57.21957917 155.94909329 -63.95823211 156.39873737 -72.11328125 156.45703125 C-73.53676591 156.4457653 -74.960232 156.43187777 -76.38366699 156.41549683 C-80.10578054 156.37962598 -83.82706994 156.37906362 -87.54931641 156.38616943 C-91.35724406 156.38708578 -95.16486847 156.35417529 -98.97265625 156.32421875 C-106.42589062 156.2705142 -113.87858028 156.25415539 -121.33203125 156.26171875 C-121.82703125 153.78671875 -121.82703125 153.78671875 -122.33203125 151.26171875 C-123.85957031 151.25555542 -123.85957031 151.25555542 -125.41796875 151.24926758 C-129.22787797 151.22735162 -133.03677259 151.17293579 -136.84619141 151.10913086 C-138.48899548 151.08605867 -140.1319452 151.07158062 -141.77490234 151.06616211 C-159.40335144 150.99659021 -159.40335144 150.99659021 -165.33203125 145.26171875 C-165.83726318 144.77421143 -166.34249512 144.2867041 -166.86303711 143.78442383 C-169.68384372 140.73054936 -170.68600752 138.28746663 -171.33203125 134.26171875 C-170.69509338 134.75656265 -170.05815552 135.25140656 -169.4019165 135.76124573 C-159.66587982 142.43874635 -151.02076856 142.25952583 -139.56640625 142.1640625 C-137.67781869 142.17346314 -135.78924415 142.18593046 -133.9006958 142.2013092 C-128.96859247 142.23334678 -124.0374251 142.22416159 -119.10528564 142.20593262 C-114.057068 142.19472183 -109.00908321 142.2231291 -103.9609375 142.24804688 C-94.08446875 142.2910368 -84.20853399 142.29041113 -74.33203125 142.26171875 C-74.68136719 141.71902344 -75.03070313 141.17632812 -75.390625 140.6171875 C-75.84566406 139.90175781 -76.30070312 139.18632812 -76.76953125 138.44921875 C-77.22199219 137.74152344 -77.67445313 137.03382813 -78.140625 136.3046875 C-80.00553208 133.10683045 -80.45854983 130.52455347 -80.47247314 126.89697266 C-80.47818329 126.00528381 -80.48389343 125.11359497 -80.48977661 124.19488525 C-80.4914534 122.73136627 -80.4914534 122.73136627 -80.49316406 121.23828125 C-80.50061142 119.69403473 -80.50061142 119.69403473 -80.50820923 118.11859131 C-80.52283283 114.70796037 -80.52963215 111.2973759 -80.53515625 107.88671875 C-80.54090621 105.52164712 -80.54666396 103.1565755 -80.5524292 100.79150391 C-80.56293884 95.83170351 -80.56878219 90.87191934 -80.57226562 85.91210938 C-80.57775942 79.54622223 -80.60180663 73.18054801 -80.63023758 66.81472778 C-80.64882569 61.93008794 -80.65406745 57.04549987 -80.6556015 52.16082764 C-80.6586357 49.8132002 -80.66668987 47.46557383 -80.67978668 45.11798096 C-80.6967719 41.84020571 -80.69498561 38.5629572 -80.68847656 35.28515625 C-80.69769135 34.30947693 -80.70690613 33.33379761 -80.71640015 32.32855225 C-80.71083099 31.4368634 -80.70526184 30.54517456 -80.69952393 29.62646484 C-80.70172377 28.46393692 -80.70172377 28.46393692 -80.70396805 27.27792358 C-80.22995025 24.70835537 -79.35405381 23.86972502 -77.33203125 22.26171875 C-75.36243213 21.30810173 -73.35055685 20.44037529 -71.31933594 19.6262207 C-70.71566696 19.38194336 -70.11199799 19.13766602 -69.49003601 18.88598633 C-67.49780847 18.08254363 -65.50119392 17.29077186 -63.50390625 16.5 C-62.11235381 15.94411682 -60.7209373 15.38789325 -59.32965088 14.8313446 C-56.41311022 13.66695293 -53.49423071 12.50867043 -50.57373047 11.35424805 C-46.84162734 9.87813513 -43.11698094 8.38414856 -39.39405441 6.88506794 C-36.52165521 5.7313817 -33.64491043 4.58886523 -30.76682281 3.44945335 C-29.39228998 2.90342408 -28.01924769 2.35362634 -26.647789 1.79992104 C-24.72366358 1.02468204 -22.79402534 0.26511157 -20.86230469 -0.4909668 C-19.22041168 -1.14357735 -19.22041168 -1.14357735 -17.54534912 -1.80937195 C-11.05068113 -3.68685738 -6.04836741 -2.62938788 0 0 Z M-18.13208008 9.25952148 C-19.84328789 9.95035072 -19.84328789 9.95035072 -21.58906555 10.65513611 C-22.82251327 11.16825092 -24.05584288 11.68164971 -25.2890625 12.1953125 C-26.55940907 12.71353975 -27.83022459 13.23061881 -29.10148621 13.74659729 C-32.43855765 15.10463037 -35.76904412 16.47813283 -39.09838867 17.85498047 C-42.4998958 19.25844207 -45.90741416 20.64714423 -49.31445312 22.03710938 C-55.9929419 24.76425518 -62.6645414 27.50777528 -69.33203125 30.26171875 C-69.49438545 43.29212944 -69.6186845 56.32229861 -69.69471645 69.35351562 C-69.73121258 75.40482365 -69.78069863 81.45543853 -69.86010742 87.50634766 C-69.93629359 93.34840687 -69.97804877 99.18980038 -69.99617195 105.03231812 C-70.00908322 107.25868202 -70.03429673 109.48501042 -70.07214165 111.71109009 C-70.12313576 114.83553117 -70.12994754 117.95723945 -70.12670898 121.08203125 C-70.15187592 121.99769363 -70.17704285 122.91335602 -70.20297241 123.85676575 C-70.13314223 130.10366201 -68.46415845 133.1846225 -64.08978367 137.62774658 C-63.50972537 138.1669574 -62.92966707 138.70616821 -62.33203125 139.26171875 C-61.04232422 140.48761719 -61.04232422 140.48761719 -59.7265625 141.73828125 C-44.61063527 154.31583038 -28.04867246 164.9582722 -11.33203125 175.26171875 C-5.25662929 171.99336267 0.57069896 168.48825873 6.29296875 164.63671875 C7.45421265 163.85784302 7.45421265 163.85784302 8.63891602 163.06323242 C19.96733425 155.41391141 31.59069431 147.52450667 41.66796875 138.26171875 C42.17262476 137.80017615 42.67728077 137.33863356 43.19722939 136.86310482 C47.24801143 132.7313378 48.35928392 129.73371358 48.41448975 123.98118591 C48.39291809 123.06192825 48.37134644 122.14267059 48.34912109 121.19555664 C48.34999725 120.20942383 48.35087341 119.22329102 48.35177612 118.20727539 C48.34761414 114.96548743 48.30102594 111.725799 48.25390625 108.484375 C48.24270922 106.22994619 48.23417143 103.97550273 48.22817993 101.72105408 C48.20532191 95.80072392 48.14642334 89.88128347 48.07995605 83.96130371 C48.01846903 77.9150801 47.99115112 71.86871208 47.9609375 65.82226562 C47.89667833 53.96836009 47.79433441 42.11511354 47.66796875 30.26171875 C40.58526357 27.40543712 33.50068366 24.55385083 26.41370106 21.7081995 C23.12277246 20.38661589 19.83250292 19.06344071 16.54370117 17.73657227 C12.7602185 16.21020681 8.97394839 14.69086862 5.1875 13.171875 C4.01024857 12.69581314 2.83299713 12.21975128 1.62007141 11.72926331 C0.51930771 11.28888229 -0.58145599 10.84850128 -1.71557617 10.39477539 C-3.16452522 9.81186485 -3.16452522 9.81186485 -4.64274597 9.21717834 C-10.02622005 7.30451701 -12.76309375 7.05716568 -18.13208008 9.25952148 Z " fill="#313B3F" transform="translate(433.33203125,279.73828125)"/>
<path d="M0 0 C0.66662134 -0.00367669 1.33324267 -0.00735338 2.02006465 -0.01114148 C4.25848614 -0.02217282 6.49686119 -0.02602123 8.73530579 -0.02983093 C10.33851265 -0.03609606 11.94171806 -0.0427429 13.54492188 -0.04974365 C18.81450896 -0.07078261 24.08409634 -0.08114666 29.35371399 -0.09111023 C31.16846545 -0.09515801 32.98321676 -0.09927493 34.79796791 -0.10346031 C43.32492883 -0.12251251 51.8518811 -0.13674285 60.37885922 -0.14507228 C70.2173889 -0.1548418 80.05569341 -0.1811537 89.89414376 -0.22157317 C97.50106231 -0.25175073 105.10791639 -0.26654276 112.71489364 -0.26985329 C117.25693711 -0.27220214 121.79874004 -0.28114083 126.34071922 -0.30631447 C130.61632228 -0.3296286 134.89152701 -0.33381509 139.1671772 -0.32355309 C140.73285117 -0.3230584 142.29854496 -0.32935887 143.86415863 -0.34310913 C153.01531678 -0.41895635 160.37719399 -0.43075269 167.52558899 5.99873352 C167.98062805 6.5839679 168.43566711 7.16920227 168.90449524 7.77217102 C169.37758118 8.36256165 169.85066711 8.95295227 170.33808899 9.56123352 C175.67290158 17.05581453 172.46699524 19.9313638 172.46699524 33.14717102 C108.44699524 33.14717102 44.42699524 33.14717102 -21.53300476 33.14717102 C-21.53300476 12.9650129 -21.53300476 12.9650129 -18.09941101 8.69013977 C-17.32403992 7.92637024 -17.32403992 7.92637024 -16.53300476 7.14717102 C-15.64935242 6.27512024 -15.64935242 6.27512024 -14.74784851 5.38545227 C-9.91326676 0.98197972 -6.596778 0.02356658 0 0 Z " fill="#54616C" transform="translate(282.5330047607422,81.85282897949219)"/>
<path d="M0 0 C1.08254814 0.01332367 1.08254814 0.01332367 2.18696594 0.0269165 C3.4179023 0.02736969 3.4179023 0.02736969 4.67370605 0.02783203 C5.55504715 0.04847717 6.43638824 0.06912231 7.34443665 0.09039307 C8.25022964 0.09605286 9.15602264 0.10171265 10.08926392 0.10754395 C12.983452 0.12994191 15.87640379 0.18014415 18.7702179 0.23101807 C20.73178856 0.25107867 22.69337863 0.2693302 24.65498352 0.28570557 C29.46470495 0.32981788 34.2735018 0.39886866 39.0827179 0.48101807 C39.0827179 4.77101807 39.0827179 9.06101807 39.0827179 13.48101807 C32.1527179 13.48101807 25.2227179 13.48101807 18.0827179 13.48101807 C18.0827179 21.73101807 18.0827179 29.98101807 18.0827179 38.48101807 C-2.64048731 38.57366931 -23.36364251 38.64502486 -44.08701324 38.68826675 C-53.70954445 38.70887965 -63.33194448 38.73697591 -72.95439148 38.78277588 C-81.34269567 38.82268262 -89.73090484 38.84846014 -98.11930132 38.85737205 C-102.55968521 38.8625803 -106.99979732 38.87479499 -111.44009399 38.90393829 C-115.6228934 38.9311681 -119.80531007 38.93944786 -123.9881897 38.93344879 C-125.52000511 38.93454566 -127.05183385 38.94245459 -128.58357239 38.95783997 C-143.7761633 39.10290424 -143.7761633 39.10290424 -149.9172821 34.48101807 C-150.50899956 34.09085636 -151.10071701 33.70069466 -151.7103653 33.29870987 C-154.53255003 31.07663444 -155.75107262 29.42543785 -156.38114929 25.84527588 C-156.50818757 22.74249291 -156.44124717 19.70754717 -156.2922821 16.60601807 C-156.26521179 15.53609619 -156.23814148 14.46617432 -156.21025085 13.36383057 C-156.13981262 10.73413654 -156.04137643 8.10863587 -155.9172821 5.48101807 C-155.14183391 5.47955151 -154.36638571 5.47808495 -153.56743908 5.47657394 C-134.71446609 5.43955083 -115.86167908 5.3805961 -97.00885296 5.29711533 C-87.8918191 5.25727589 -78.77487218 5.22490839 -69.65776062 5.21002197 C-61.71291557 5.19703079 -53.76826139 5.17013132 -45.82352382 5.126405 C-41.61531161 5.10373285 -37.40733533 5.08811081 -33.19905663 5.08913422 C-29.24022618 5.08987746 -25.28191839 5.07206318 -21.32322311 5.03985023 C-19.86836822 5.03131285 -18.41345495 5.02962722 -16.95858574 5.03521538 C-14.9758966 5.04181804 -12.99317163 5.0216397 -11.0105896 5 C-9.89982905 4.99631283 -8.78906851 4.99262566 -7.64464855 4.98882675 C-4.78571203 4.74687089 -4.78571203 4.74687089 -3.15628052 2.47864532 C-1.9172821 0.48101807 -1.9172821 0.48101807 0 0 Z " fill="#54616C" transform="translate(211.9172821044922,332.51898193359375)"/>
<path d="M0 0 C6.93 0 13.86 0 21 0 C21 55.11 21 110.22 21 167 C7.47 167 -6.06 167 -20 167 C-20.66 165.68 -21.32 164.36 -22 163 C-97.24 162.505 -97.24 162.505 -174 162 C-174 111.51 -174 61.02 -174 9 C-173.67 9 -173.34 9 -173 9 C-173 56.85 -173 104.7 -173 154 C-115.91 154 -58.82 154 0 154 C0 103.18 0 52.36 0 0 Z " fill="#409E9F" transform="translate(230,166)"/>
<path d="M0 0 C13.53 0 27.06 0 41 0 C41.25 13 41.25 13 41.29785156 17.05078125 C41.5003093 24.16876896 42.29196557 28.90617597 46 35 C46.33 35.99 46.66 36.98 47 38 C36.09024922 38.13940793 25.18071253 38.24582747 14.27025032 38.31087303 C9.20328288 38.34210191 4.13692766 38.38441948 -0.9296875 38.45263672 C-5.82510465 38.51813171 -10.7199353 38.55376946 -15.61575699 38.56926346 C-17.47761383 38.58029595 -19.33944084 38.60183982 -21.20104599 38.63438034 C-40.58576076 38.95955141 -40.58576076 38.95955141 -48 32 C-51 28 -51 28 -51 5 C-34.83 4.67 -18.66 4.34 -2 4 C-1.34 2.68 -0.68 1.36 0 0 Z " fill="#54616C" transform="translate(312,384)"/>
<path d="M0 0 C6.93 0 13.86 0 21 0 C21 12.54 21 25.08 21 38 C15.21511083 38.09178317 9.43274205 38.17143341 3.64770508 38.21972656 C1.6795191 38.23985481 -0.28860699 38.26716019 -2.2565918 38.30175781 C-5.0839718 38.35022311 -7.91056201 38.37295618 -10.73828125 38.390625 C-12.06029289 38.42159271 -12.06029289 38.42159271 -13.40901184 38.45318604 C-14.6399482 38.45363922 -14.6399482 38.45363922 -15.89575195 38.45410156 C-16.61745071 38.46298401 -17.33914948 38.47186646 -18.0827179 38.48101807 C-20 38 -20 38 -21.28465176 36.0015316 C-22.83854955 33.77542841 -22.83854955 33.77542841 -25.42670059 33.49777794 C-26.39563122 33.4966884 -27.36456184 33.49559887 -28.362854 33.49447632 C-29.47594437 33.48345383 -30.58903473 33.47243134 -31.7358551 33.46107483 C-33.56865273 33.47333351 -33.56865273 33.47333351 -35.43847656 33.48583984 C-36.72489548 33.47871475 -38.01131439 33.47158966 -39.3367157 33.46424866 C-42.13601874 33.44889746 -44.93495519 33.44611524 -47.73429108 33.45301437 C-52.16405065 33.46379439 -56.59342698 33.44642507 -61.02313232 33.42520142 C-68.03415573 33.3949191 -75.04506587 33.38324518 -82.05614924 33.37962496 C-94.59816095 33.3729862 -107.14009317 33.34388556 -119.6820085 33.2945286 C-124.08149801 33.27806607 -128.48082279 33.27260721 -132.8803401 33.27611899 C-134.96173978 33.27645168 -137.04307562 33.27234487 -139.12446594 33.26634216 C-141.65697764 33.25925337 -144.18952364 33.2592634 -146.72203064 33.26786804 C-155.44682581 33.22609868 -161.87295326 32.74259485 -168.484375 26.65234375 C-170.64379627 24.29812933 -171.93286573 22.00131514 -173 19 C-172.505 17.515 -172.505 17.515 -172 16 C-171.55269531 16.40992188 -171.10539062 16.81984375 -170.64453125 17.2421875 C-170.03996094 17.78101563 -169.43539062 18.31984375 -168.8125 18.875 C-168.22082031 19.40867187 -167.62914062 19.94234375 -167.01953125 20.4921875 C-162.65043944 23.75421736 -158.6936806 24.25320621 -153.32450867 24.2784729 C-152.66686817 24.2842653 -152.00922766 24.2900577 -151.33165866 24.29602563 C-149.13601324 24.31298183 -146.94057857 24.31589829 -144.74487305 24.31884766 C-143.16779569 24.32814887 -141.59072324 24.33831783 -140.01365662 24.34928894 C-135.73724 24.37658123 -131.46085631 24.39173607 -127.18437552 24.40471697 C-122.71335815 24.42035086 -118.24240797 24.44714027 -113.7714386 24.4727478 C-105.30721421 24.51953099 -96.84297717 24.55627734 -88.37868959 24.58942068 C-78.74147242 24.6276453 -69.10432275 24.67705458 -59.46716249 24.72740483 C-39.64482409 24.83071785 -19.82244337 24.9195836 0 25 C0 16.75 0 8.5 0 0 Z " fill="#3E4A53" transform="translate(230,346)"/>
<path d="M0 0 C1.08254814 0.01332367 1.08254814 0.01332367 2.18696594 0.0269165 C3.4179023 0.02736969 3.4179023 0.02736969 4.67370605 0.02783203 C5.55504715 0.04847717 6.43638824 0.06912231 7.34443665 0.09039307 C8.25022964 0.09605286 9.15602264 0.10171265 10.08926392 0.10754395 C12.983452 0.12994191 15.87640379 0.18014415 18.7702179 0.23101807 C20.73178856 0.25107867 22.69337863 0.2693302 24.65498352 0.28570557 C29.46470495 0.32981788 34.2735018 0.39886866 39.0827179 0.48101807 C39.0827179 4.77101807 39.0827179 9.06101807 39.0827179 13.48101807 C-24.9372821 13.48101807 -88.9572821 13.48101807 -154.9172821 13.48101807 C-154.9172821 10.84101807 -154.9172821 8.20101807 -154.9172821 5.48101807 C-154.14698764 5.47955151 -153.37669317 5.47808495 -152.58305645 5.47657394 C-133.85526074 5.4395506 -115.12765225 5.38059557 -96.40000439 5.29711533 C-87.34350467 5.25727612 -78.28709246 5.22490851 -69.23051453 5.21002197 C-61.33840652 5.19703067 -53.44649067 5.17013088 -45.55449086 5.126405 C-41.37422396 5.10373312 -37.19419455 5.08811079 -33.0138607 5.08913422 C-29.08129363 5.08987748 -25.14925268 5.07206255 -21.21682167 5.03985023 C-19.77164228 5.03131306 -18.32640413 5.02962708 -16.88121033 5.03521538 C-14.91165822 5.04181834 -12.94207004 5.02163915 -10.97262573 5 C-9.86923953 4.99631283 -8.76585333 4.99262566 -7.62903118 4.98882675 C-4.78413251 4.74474786 -4.78413251 4.74474786 -3.15865326 2.47864532 C-1.9172821 0.48101807 -1.9172821 0.48101807 0 0 Z " fill="#65747E" transform="translate(211.9172821044922,332.51898193359375)"/>
<path d="M0 0 C1.9172821 -0.60127258 1.9172821 -0.60127258 4.10424805 -0.56762695 C4.92487228 -0.5672493 5.74549652 -0.56687164 6.59098816 -0.56648254 C7.47232925 -0.54067612 8.35367035 -0.51486969 9.26171875 -0.48828125 C10.16751175 -0.48120651 11.07330475 -0.47413177 12.00654602 -0.46684265 C14.90103583 -0.43884228 17.7935945 -0.37609441 20.6875 -0.3125 C22.64906061 -0.28742438 24.61065154 -0.26460993 26.57226562 -0.24414062 C31.38225505 -0.18899716 36.19080009 -0.10268642 41 0 C41 4.29 41 8.58 41 13 C40.09185358 13.00146656 39.18370716 13.00293312 38.24804115 13.00444412 C16.12965757 13.04152925 -5.98857299 13.1005667 -28.1068325 13.18390274 C-38.80315775 13.22367691 -49.4994096 13.25607767 -60.19580078 13.27099609 C-69.52103441 13.28402098 -78.84610643 13.31100713 -88.17124903 13.35461307 C-93.10682204 13.37720894 -98.04219585 13.3929118 -102.97782516 13.39188385 C-107.62855683 13.39113614 -112.27884847 13.40913165 -116.92946625 13.44116783 C-118.63133104 13.44964866 -120.33324529 13.45142915 -122.03512192 13.44580269 C-133.35557219 13.41337763 -142.3528975 14.56859834 -152 21 C-152.0890618 17.43752799 -151.44418379 15.48480497 -149.03515625 12.85546875 C-143.80412108 8.15008055 -140.65146152 5.87512889 -133.49633789 5.87542725 C-132.35222443 5.87286423 -131.20811096 5.87030121 -130.02932739 5.86766052 C-128.14502518 5.87081017 -128.14502518 5.87081017 -126.22265625 5.87402344 C-124.88719625 5.87262858 -123.5517367 5.87072921 -122.21627808 5.86836243 C-119.34013514 5.86386628 -116.46400647 5.86200936 -113.58786011 5.86190033 C-109.04169085 5.86076051 -104.49560289 5.84792697 -99.94946289 5.83233643 C-98.79893448 5.82847715 -98.79893448 5.82847715 -97.62516308 5.8245399 C-96.05680841 5.81927348 -94.4884538 5.813988 -92.92009926 5.80868387 C-82.33571746 5.77355448 -71.75143713 5.74702573 -61.16699219 5.74951172 C-54.02745149 5.75109845 -46.88818811 5.73511077 -39.74873638 5.69880509 C-35.96972835 5.68031612 -32.19118353 5.67102751 -28.41213989 5.68328094 C-24.85945917 5.69468926 -21.30760917 5.68308271 -17.75503922 5.65364647 C-15.82692964 5.64380771 -13.89874377 5.65880343 -11.97067261 5.67445374 C-10.82655914 5.66061142 -9.68244568 5.6467691 -8.50366211 5.63250732 C-7.50741318 5.63104076 -6.51116425 5.6295742 -5.48472595 5.6280632 C-2.75140354 5.22761629 -2.75140354 5.22761629 -1.27585125 2.49804783 C-0.85482034 1.67369205 -0.43378942 0.84933626 0 0 Z " fill="#5BD2D5" transform="translate(210,153)"/>
<path d="M0 0 C0.33 0 0.66 0 1 0 C1 8.25 1 16.5 1 25 C-63.35 25 -127.7 25 -194 25 C-194 22.36 -194 19.72 -194 17 C-129.98 17 -65.96 17 0 17 C0 11.39 0 5.78 0 0 Z " fill="#3F4B54" transform="translate(455,98)"/>
<path d="M0 0 C64.02 0 128.04 0 194 0 C194 2.64 194 5.28 194 8 C129.98 8 65.96 8 0 8 C0 5.36 0 2.72 0 0 Z " fill="#2E94CD" transform="translate(261,133)"/>
<path d="M0 0 C1.00377691 -0.00807831 1.00377691 -0.00807831 2.02783215 -0.01631981 C4.25711783 -0.03056072 6.48580646 -0.0235056 8.71511841 -0.01637268 C10.31877111 -0.02207835 11.92241975 -0.02904337 13.52606201 -0.03717041 C17.87327135 -0.05509667 22.22027876 -0.05393428 26.56751394 -0.04822803 C30.20062558 -0.04513496 33.8336985 -0.05123005 37.46680462 -0.05726677 C46.04049413 -0.07130906 54.614084 -0.06975359 63.18777466 -0.05836487 C72.02310635 -0.0468877 80.85813435 -0.06095319 89.69342601 -0.08776134 C97.28768608 -0.10993842 104.88185096 -0.11655109 112.4761411 -0.11068493 C117.00805185 -0.10731849 121.53976802 -0.10970939 126.07165146 -0.12693596 C130.33502099 -0.14243475 134.5979418 -0.13841724 138.86129379 -0.11963081 C140.42211829 -0.11595282 141.98297624 -0.11903035 143.54376984 -0.1295166 C152.78882151 -0.18686666 159.85318334 -0.00753104 167.23513794 6.16893005 C167.70822388 6.73611755 168.18130981 7.30330505 168.66873169 7.88768005 C169.16502075 8.45486755 169.66130981 9.02205505 170.17263794 9.60643005 C171.10623169 11.38768005 171.10623169 11.38768005 170.75857544 13.60643005 C170.43566528 14.4881488 170.43566528 14.4881488 170.10623169 15.38768005 C169.30959106 14.86367615 169.30959106 14.86367615 168.49685669 14.3290863 C167.79045044 13.87404724 167.08404419 13.41900818 166.35623169 12.95018005 C165.66013794 12.49771912 164.96404419 12.04525818 164.24685669 11.5790863 C160.04564817 9.24082244 156.17534654 9.25901211 151.41500854 9.24723816 C150.74344923 9.24426704 150.07188992 9.24129591 149.37998033 9.23823476 C147.13084052 9.22956679 144.88175406 9.22804112 142.63259888 9.22654724 C141.01939277 9.2219177 139.40618775 9.21689285 137.79298401 9.21150208 C133.41059249 9.19838864 129.02821629 9.1919351 124.64580822 9.18749142 C121.90660331 9.1845588 119.16740257 9.18045361 116.42819977 9.17598724 C107.85425325 9.16231468 99.28031629 9.15264702 90.70635962 9.14878535 C80.81581089 9.14430599 70.92540044 9.12676277 61.03489375 9.09778476 C53.3854916 9.07615251 45.73612832 9.06608024 38.08669591 9.06474423 C33.52012263 9.06369725 28.95367939 9.05781222 24.38713837 9.03992462 C20.08940918 9.02341741 15.79190743 9.02130126 11.49415779 9.03006363 C9.92042747 9.0308326 8.3466848 9.02650972 6.77298546 9.01660538 C-4.12510265 8.95206184 -11.9133947 9.87690919 -20.89376831 16.38768005 C-20.36182605 12.42229232 -19.35743322 10.24743525 -16.70626831 7.26268005 C-16.13521362 6.60010193 -15.56415894 5.9375238 -14.97579956 5.25486755 C-10.37134095 1.12554069 -6.08837321 0.01239587 0 0 Z " fill="#64737D" transform="translate(282.8937683105469,81.61231994628906)"/>
<path d="M0 0 C0.95710625 0.75157883 0.95710625 0.75157883 1.93354797 1.51834106 C10.92623236 7.72658637 18.30037931 7.85024582 28.92052269 7.46502304 C31.7261152 7.36511693 34.52921345 7.31292367 37.33625793 7.27249146 C44.29729702 7.16375253 51.25604677 6.98532321 58.21514893 6.79003906 C64.1185835 6.62501809 70.02045364 6.49605897 75.92571449 6.41867447 C78.67812302 6.36814841 81.42528278 6.26479211 84.17607117 6.15988159 C96.24399203 5.88760704 96.24399203 5.88760704 101.0663147 8.94244385 C103.30846917 11.17924414 105.13344504 13.44992594 107 16 C108.15345111 17.0390894 109.33761951 18.04615304 110.5625 19 C111.366875 19.66 112.17125 20.32 113 21 C113 21.33 113 21.66 113 22 C92.21 22 71.42 22 50 22 C49.67 20.35 49.34 18.7 49 17 C47.47246094 16.99383667 47.47246094 16.99383667 45.9140625 16.98754883 C42.10415328 16.96563287 38.29525866 16.91121704 34.48583984 16.84741211 C32.84303577 16.82433992 31.20008605 16.80986187 29.55712891 16.80444336 C11.92867981 16.73487146 11.92867981 16.73487146 6 11 C5.2421521 10.26873901 5.2421521 10.26873901 4.46899414 9.52270508 C1.64818753 6.46883061 0.64602373 4.02574788 0 0 Z " fill="#404C55" transform="translate(262,414)"/>
<path d="M0 0 C13.53 0 27.06 0 41 0 C41 4.29 41 8.58 41 13 C10.64 13 -19.72 13 -51 13 C-51 10.36 -51 7.72 -51 5 C-34.83 4.67 -18.66 4.34 -2 4 C-1.34 2.68 -0.68 1.36 0 0 Z " fill="#65747E" transform="translate(312,384)"/>
<path d="M0 0 C30.36 0 60.72 0 92 0 C92 4.29 92 8.58 92 13 C78.47 13 64.94 13 51 13 C50.34 11.68 49.68 10.36 49 9 C24.745 8.505 24.745 8.505 0 8 C0 5.36 0 2.72 0 0 Z " fill="#0C6296" transform="translate(261,371)"/>
<path d="M0 0 C2.58251953 0.63085938 2.58251953 0.63085938 4.58251953 2.63085938 C5.0866931 5.85159187 4.8977284 7.19047427 2.98371887 9.86457825 C2.23490952 10.61736557 1.48610016 11.37015289 0.71459961 12.14575195 C-0.5525312 13.43652397 -0.5525312 13.43652397 -1.84526062 14.75337219 C-2.77014786 15.66813828 -3.6950351 16.58290436 -4.64794922 17.52539062 C-5.60077468 18.48158523 -6.55285695 19.43852094 -7.50422668 20.39616394 C-9.49958945 22.39889334 -11.50370301 24.39231286 -13.5144043 26.37963867 C-16.08948748 28.92623417 -18.64146926 31.49462105 -21.18731213 34.07040882 C-23.14886834 36.05004369 -25.12219206 38.0176011 -27.09926796 39.98172569 C-28.50459031 41.38209641 -29.89985805 42.79253385 -31.29496765 44.20307922 C-32.15548233 45.0478331 -33.01599701 45.89258698 -33.90258789 46.76293945 C-34.65537521 47.51174881 -35.40816254 48.26055817 -36.1837616 49.03205872 C-38.85112787 50.94124568 -40.20513434 51.07556538 -43.41748047 50.63085938 C-45.15576172 49.34570312 -45.15576172 49.34570312 -46.72998047 47.56835938 C-49.14762133 44.9627378 -51.58199849 42.55680531 -54.29248047 40.25585938 C-57.38796187 37.56096968 -60.43680787 34.82768735 -63.41748047 32.00585938 C-64.18060547 31.29171875 -64.94373047 30.57757813 -65.72998047 29.84179688 C-67.41748047 27.63085938 -67.41748047 27.63085938 -67.79248047 24.98242188 C-67.41748047 22.63085938 -67.41748047 22.63085938 -65.41748047 20.63085938 C-62.79248047 20.00585938 -62.79248047 20.00585938 -59.41748047 20.63085938 C-57.24884579 22.40071619 -55.40814764 24.33852134 -53.50732422 26.39257812 C-51.46997027 28.57464133 -49.35447924 30.54528705 -47.10498047 32.50585938 C-46.15171875 33.33730469 -46.15171875 33.33730469 -45.17919922 34.18554688 C-43.26889739 35.80133658 -43.26889739 35.80133658 -40.41748047 37.63085938 C-39.74215775 36.93555115 -39.74215775 36.93555115 -39.05319214 36.22619629 C-34.3666616 31.40698003 -29.65918499 26.60897266 -24.93896484 21.82275391 C-23.17991345 20.03351953 -21.4262834 18.23893848 -19.67822266 16.43896484 C-17.165262 13.8532681 -14.63346226 11.2873964 -12.09716797 8.72460938 C-11.31880585 7.91527954 -10.54044373 7.10594971 -9.73849487 6.27209473 C-4.25527024 0.78551352 -4.25527024 0.78551352 0 0 Z " fill="#FCFEFC" transform="translate(456.41748046875,340.369140625)"/>
<path d="M0 0 C1.1007637 0.44038101 2.2015274 0.88076202 3.33564758 1.33448792 C4.51289902 1.81054977 5.69015045 2.28661163 6.90307617 2.77709961 C8.72363777 3.50744667 8.72363777 3.50744667 10.58097839 4.25254822 C13.79645493 5.54254384 17.00982583 6.83770514 20.22277832 8.13397217 C23.50622526 9.45760854 26.79164746 10.77632276 30.0769043 12.09545898 C36.51438722 14.68115389 42.94965794 17.27231422 49.38354492 19.86694336 C49.38354492 22.50694336 49.38354492 25.14694336 49.38354492 27.86694336 C45.67367149 26.4542903 41.96600721 25.03591109 38.25854492 23.61694336 C37.1088623 23.17890381 35.95917969 22.74086426 34.7746582 22.28955078 C28.22912456 19.78132195 21.72606284 17.19904692 15.25854492 14.49584961 C13.24715364 13.66287057 11.23532266 12.83096041 9.22344971 11.99914551 C7.9219632 11.45620252 6.62318657 10.90671377 5.32733154 10.35046387 C3.49622059 9.56488243 1.65483664 8.80338183 -0.18676758 8.04272461 C-1.23622559 7.59840088 -2.28568359 7.15407715 -3.36694336 6.69628906 C-11.75295688 4.55599696 -19.09234121 8.38146673 -26.73754883 11.55834961 C-27.87805191 12.02305161 -29.01855499 12.4877536 -30.19361877 12.96653748 C-33.81750814 14.44513005 -37.4358239 15.93682293 -41.05395508 17.42944336 C-44.69758666 18.92425427 -48.34345082 20.41360217 -51.98927307 21.90306091 C-54.25408447 22.82940596 -56.51773666 23.75859093 -58.78013611 24.69081116 C-59.79531815 25.10801926 -60.81050018 25.52522736 -61.85644531 25.95507812 C-62.75386948 26.32512466 -63.65129364 26.6951712 -64.57591248 27.07643127 C-66.61645508 27.86694336 -66.61645508 27.86694336 -67.61645508 27.86694336 C-67.61645508 25.22694336 -67.61645508 22.58694336 -67.61645508 19.86694336 C-60.27715003 16.83551299 -52.93227146 13.81819183 -45.57988453 10.81864834 C-42.16594261 9.42535382 -38.75411446 8.02730585 -35.34667969 6.61816406 C-32.05744493 5.25811166 -28.76323705 3.9108501 -25.46521568 2.57225227 C-24.20868701 2.05966191 -22.95400863 1.54251118 -21.70127296 1.02071953 C-19.94466486 0.28996975 -18.18070501 -0.42303082 -16.41650391 -1.13525391 C-15.41500809 -1.54606705 -14.41351227 -1.95688019 -13.38166809 -2.38014221 C-8.43755365 -3.72632968 -4.60976069 -1.85450143 0 0 Z " fill="#5DCD42" transform="translate(431.616455078125,290.133056640625)"/>
<path d="M0 0 C1.73200905 -0.00956978 1.73200905 -0.00956978 3.49900818 -0.01933289 C4.75625198 -0.02044571 6.01349579 -0.02155853 7.30883789 -0.02270508 C8.5900502 -0.02603348 9.87126251 -0.02936188 11.19129944 -0.03279114 C13.90748944 -0.03878825 16.62364759 -0.04063045 19.33984375 -0.04003906 C22.82490006 -0.03993742 26.30975269 -0.05358849 29.7947607 -0.07081127 C33.11195647 -0.08458699 36.42911384 -0.08401957 39.74633789 -0.08520508 C41.00155746 -0.09239059 42.25677704 -0.09957611 43.55003357 -0.10697937 C45.28677086 -0.10236443 45.28677086 -0.10236443 47.05859375 -0.09765625 C48.59295326 -0.09979378 48.59295326 -0.09979378 50.15830994 -0.10197449 C52.59399414 0.14526367 52.59399414 0.14526367 54.59399414 2.14526367 C54.90649414 5.64526367 54.90649414 5.64526367 54.59399414 9.14526367 C51.25509297 11.37119778 50.16569728 11.40118336 46.26806641 11.41992188 C45.18006241 11.42945389 44.09205841 11.4389859 42.97108459 11.44880676 C41.79605881 11.44789536 40.62103302 11.44698395 39.41040039 11.44604492 C38.20334946 11.45033005 36.99629852 11.45461517 35.75267029 11.45903015 C33.19807564 11.46477735 30.64346462 11.46527086 28.08886719 11.4609375 C24.17557917 11.45777908 20.26304793 11.48122782 16.34985352 11.5065918 C13.87003676 11.50886485 11.39021797 11.50956826 8.91040039 11.50854492 C7.73739883 11.51775467 6.56439728 11.52696442 5.35585022 11.53645325 C3.71911598 11.52711006 3.71911598 11.52711006 2.04931641 11.51757812 C0.61060936 11.51852226 0.61060936 11.51852226 -0.85716248 11.51948547 C-3.8152567 11.08517736 -5.19772349 10.11087809 -7.40600586 8.14526367 C-6.37236054 0.0237647 -6.37236054 0.0237647 0 0 Z " fill="#30383E" transform="translate(155.406005859375,429.854736328125)"/>
<path d="M0 0 C0.33 0 0.66 0 1 0 C1 54.45 1 108.9 1 165 C-5.93 165 -12.86 165 -20 165 C-20 160.71 -20 156.42 -20 152 C-13.4 152 -6.8 152 0 152 C0 101.84 0 51.68 0 0 Z " fill="#3B8F8F" transform="translate(250,168)"/>
<path d="M0 0 C6.93 0 13.86 0 21 0 C21 4.29 21 8.58 21 13 C14.07 13 7.14 13 0 13 C0 8.71 0 4.42 0 0 Z " fill="#54616C" transform="translate(230,333)"/>
<path d="M0 0 C6.93 0 13.86 0 21 0 C21 4.29 21 8.58 21 13 C14.07 13 7.14 13 0 13 C0 8.71 0 4.42 0 0 Z " fill="#4EB7BE" transform="translate(230,153)"/>
<path d="M0 0 C1.30066406 -0.00128906 2.60132813 -0.00257812 3.94140625 -0.00390625 C4.96258545 -0.00076416 4.96258545 -0.00076416 6.00439453 0.00244141 C8.08503515 0.0077901 10.16545989 0.0024957 12.24609375 -0.00390625 C14.19708984 -0.00197266 14.19708984 -0.00197266 16.1875 0 C17.39083984 0.00112793 18.59417969 0.00225586 19.83398438 0.00341797 C22.59375 0.1328125 22.59375 0.1328125 23.59375 1.1328125 C23.71875 3.6328125 23.71875 3.6328125 23.59375 6.1328125 C21.76779746 7.95876504 18.8925178 7.2632315 16.44140625 7.265625 C15.19037109 7.26691406 13.93933594 7.26820312 12.65039062 7.26953125 C11.33232422 7.26566406 10.01425781 7.26179688 8.65625 7.2578125 C6.68495117 7.26361328 6.68495117 7.26361328 4.67382812 7.26953125 C3.42150391 7.26824219 2.16917969 7.26695313 0.87890625 7.265625 C-0.27730225 7.26449707 -1.43351074 7.26336914 -2.62475586 7.26220703 C-5.40625 7.1328125 -5.40625 7.1328125 -7.40625 6.1328125 C-7.448971 4.46669345 -7.44688832 2.79898365 -7.40625 1.1328125 C-5.54910943 -0.72432807 -2.48117951 0.00232569 0 0 Z " fill="#343C43" transform="translate(337.40625,98.8671875)"/>
</svg>
